G04 #@! TF.GenerationSoftware,KiCad,Pcbnew,5.1.6-c6e7f7d~86~ubuntu18.04.1*
G04 #@! TF.CreationDate,2020-05-25T23:57:25-07:00*
G04 #@! TF.ProjectId,usb_power,7573625f-706f-4776-9572-2e6b69636164,rev?*
G04 #@! TF.SameCoordinates,Original*
G04 #@! TF.FileFunction,Paste,Top*
G04 #@! TF.FilePolarity,Positive*
%FSLAX46Y46*%
G04 Gerber Fmt 4.6, Leading zero omitted, Abs format (unit mm)*
G04 Created by KiCad (PCBNEW 5.1.6-c6e7f7d~86~ubuntu18.04.1) date 2020-05-25 23:57:25*
%MOMM*%
%LPD*%
G01*
G04 APERTURE LIST*
%ADD10R,1.450000X1.150000*%
%ADD11R,1.900000X1.750000*%
%ADD12R,1.400000X0.400000*%
%ADD13R,1.800000X3.500000*%
%ADD14R,1.060000X0.650000*%
G04 APERTURE END LIST*
D10*
X154192000Y-92930000D03*
X154192000Y-97570000D03*
D11*
X151962000Y-94125000D03*
D12*
X154612000Y-95250000D03*
X154612000Y-95900000D03*
X154612000Y-96550000D03*
X154612000Y-93950000D03*
X154612000Y-94600000D03*
D11*
X151962000Y-96375000D03*
G36*
G01*
X152604500Y-100467000D02*
X152604500Y-101717000D01*
G75*
G02*
X152354500Y-101967000I-250000J0D01*
G01*
X151429500Y-101967000D01*
G75*
G02*
X151179500Y-101717000I0J250000D01*
G01*
X151179500Y-100467000D01*
G75*
G02*
X151429500Y-100217000I250000J0D01*
G01*
X152354500Y-100217000D01*
G75*
G02*
X152604500Y-100467000I0J-250000D01*
G01*
G37*
G36*
G01*
X155579500Y-100467000D02*
X155579500Y-101717000D01*
G75*
G02*
X155329500Y-101967000I-250000J0D01*
G01*
X154404500Y-101967000D01*
G75*
G02*
X154154500Y-101717000I0J250000D01*
G01*
X154154500Y-100467000D01*
G75*
G02*
X154404500Y-100217000I250000J0D01*
G01*
X155329500Y-100217000D01*
G75*
G02*
X155579500Y-100467000I0J-250000D01*
G01*
G37*
G36*
G01*
X157109000Y-106983500D02*
X158359000Y-106983500D01*
G75*
G02*
X158609000Y-107233500I0J-250000D01*
G01*
X158609000Y-108158500D01*
G75*
G02*
X158359000Y-108408500I-250000J0D01*
G01*
X157109000Y-108408500D01*
G75*
G02*
X156859000Y-108158500I0J250000D01*
G01*
X156859000Y-107233500D01*
G75*
G02*
X157109000Y-106983500I250000J0D01*
G01*
G37*
G36*
G01*
X157109000Y-104008500D02*
X158359000Y-104008500D01*
G75*
G02*
X158609000Y-104258500I0J-250000D01*
G01*
X158609000Y-105183500D01*
G75*
G02*
X158359000Y-105433500I-250000J0D01*
G01*
X157109000Y-105433500D01*
G75*
G02*
X156859000Y-105183500I0J250000D01*
G01*
X156859000Y-104258500D01*
G75*
G02*
X157109000Y-104008500I250000J0D01*
G01*
G37*
G36*
G01*
X154154500Y-104257000D02*
X154154500Y-103007000D01*
G75*
G02*
X154404500Y-102757000I250000J0D01*
G01*
X155329500Y-102757000D01*
G75*
G02*
X155579500Y-103007000I0J-250000D01*
G01*
X155579500Y-104257000D01*
G75*
G02*
X155329500Y-104507000I-250000J0D01*
G01*
X154404500Y-104507000D01*
G75*
G02*
X154154500Y-104257000I0J250000D01*
G01*
G37*
G36*
G01*
X151179500Y-104257000D02*
X151179500Y-103007000D01*
G75*
G02*
X151429500Y-102757000I250000J0D01*
G01*
X152354500Y-102757000D01*
G75*
G02*
X152604500Y-103007000I0J-250000D01*
G01*
X152604500Y-104257000D01*
G75*
G02*
X152354500Y-104507000I-250000J0D01*
G01*
X151429500Y-104507000D01*
G75*
G02*
X151179500Y-104257000I0J250000D01*
G01*
G37*
G36*
G01*
X154154500Y-107051000D02*
X154154500Y-105801000D01*
G75*
G02*
X154404500Y-105551000I250000J0D01*
G01*
X155329500Y-105551000D01*
G75*
G02*
X155579500Y-105801000I0J-250000D01*
G01*
X155579500Y-107051000D01*
G75*
G02*
X155329500Y-107301000I-250000J0D01*
G01*
X154404500Y-107301000D01*
G75*
G02*
X154154500Y-107051000I0J250000D01*
G01*
G37*
G36*
G01*
X151179500Y-107051000D02*
X151179500Y-105801000D01*
G75*
G02*
X151429500Y-105551000I250000J0D01*
G01*
X152354500Y-105551000D01*
G75*
G02*
X152604500Y-105801000I0J-250000D01*
G01*
X152604500Y-107051000D01*
G75*
G02*
X152354500Y-107301000I-250000J0D01*
G01*
X151429500Y-107301000D01*
G75*
G02*
X151179500Y-107051000I0J250000D01*
G01*
G37*
G36*
G01*
X160919000Y-100706500D02*
X162169000Y-100706500D01*
G75*
G02*
X162419000Y-100956500I0J-250000D01*
G01*
X162419000Y-101881500D01*
G75*
G02*
X162169000Y-102131500I-250000J0D01*
G01*
X160919000Y-102131500D01*
G75*
G02*
X160669000Y-101881500I0J250000D01*
G01*
X160669000Y-100956500D01*
G75*
G02*
X160919000Y-100706500I250000J0D01*
G01*
G37*
G36*
G01*
X160919000Y-103681500D02*
X162169000Y-103681500D01*
G75*
G02*
X162419000Y-103931500I0J-250000D01*
G01*
X162419000Y-104856500D01*
G75*
G02*
X162169000Y-105106500I-250000J0D01*
G01*
X160919000Y-105106500D01*
G75*
G02*
X160669000Y-104856500I0J250000D01*
G01*
X160669000Y-103931500D01*
G75*
G02*
X160919000Y-103681500I250000J0D01*
G01*
G37*
G36*
G01*
X168519000Y-100607500D02*
X167269000Y-100607500D01*
G75*
G02*
X167019000Y-100357500I0J250000D01*
G01*
X167019000Y-99432500D01*
G75*
G02*
X167269000Y-99182500I250000J0D01*
G01*
X168519000Y-99182500D01*
G75*
G02*
X168769000Y-99432500I0J-250000D01*
G01*
X168769000Y-100357500D01*
G75*
G02*
X168519000Y-100607500I-250000J0D01*
G01*
G37*
G36*
G01*
X168519000Y-103582500D02*
X167269000Y-103582500D01*
G75*
G02*
X167019000Y-103332500I0J250000D01*
G01*
X167019000Y-102407500D01*
G75*
G02*
X167269000Y-102157500I250000J0D01*
G01*
X168519000Y-102157500D01*
G75*
G02*
X168769000Y-102407500I0J-250000D01*
G01*
X168769000Y-103332500D01*
G75*
G02*
X168519000Y-103582500I-250000J0D01*
G01*
G37*
D13*
X166878000Y-96734000D03*
X166878000Y-91734000D03*
D14*
X164000000Y-104714000D03*
X164000000Y-105664000D03*
X164000000Y-106614000D03*
X166200000Y-106614000D03*
X166200000Y-104714000D03*
M02*
