G04 #@! TF.GenerationSoftware,KiCad,Pcbnew,5.1.6-c6e7f7d~86~ubuntu18.04.1*
G04 #@! TF.CreationDate,2020-05-25T23:57:25-07:00*
G04 #@! TF.ProjectId,usb_power,7573625f-706f-4776-9572-2e6b69636164,rev?*
G04 #@! TF.SameCoordinates,Original*
G04 #@! TF.FileFunction,Soldermask,Top*
G04 #@! TF.FilePolarity,Negative*
%FSLAX46Y46*%
G04 Gerber Fmt 4.6, Leading zero omitted, Abs format (unit mm)*
G04 Created by KiCad (PCBNEW 5.1.6-c6e7f7d~86~ubuntu18.04.1) date 2020-05-25 23:57:25*
%MOMM*%
%LPD*%
G01*
G04 APERTURE LIST*
%ADD10C,0.100000*%
G04 APERTURE END LIST*
D10*
G36*
X158509562Y-106936681D02*
G01*
X158544481Y-106947274D01*
X158576663Y-106964476D01*
X158604873Y-106987627D01*
X158628024Y-107015837D01*
X158645226Y-107048019D01*
X158655819Y-107082938D01*
X158660000Y-107125395D01*
X158660000Y-108266605D01*
X158655819Y-108309062D01*
X158645226Y-108343981D01*
X158628024Y-108376163D01*
X158604873Y-108404373D01*
X158576663Y-108427524D01*
X158544481Y-108444726D01*
X158509562Y-108455319D01*
X158467105Y-108459500D01*
X157000895Y-108459500D01*
X156958438Y-108455319D01*
X156923519Y-108444726D01*
X156891337Y-108427524D01*
X156863127Y-108404373D01*
X156839976Y-108376163D01*
X156822774Y-108343981D01*
X156812181Y-108309062D01*
X156808000Y-108266605D01*
X156808000Y-107125395D01*
X156812181Y-107082938D01*
X156822774Y-107048019D01*
X156839976Y-107015837D01*
X156863127Y-106987627D01*
X156891337Y-106964476D01*
X156923519Y-106947274D01*
X156958438Y-106936681D01*
X157000895Y-106932500D01*
X158467105Y-106932500D01*
X158509562Y-106936681D01*
G37*
G36*
X155480062Y-105504181D02*
G01*
X155514981Y-105514774D01*
X155547163Y-105531976D01*
X155575373Y-105555127D01*
X155598524Y-105583337D01*
X155615726Y-105615519D01*
X155626319Y-105650438D01*
X155630500Y-105692895D01*
X155630500Y-107159105D01*
X155626319Y-107201562D01*
X155615726Y-107236481D01*
X155598524Y-107268663D01*
X155575373Y-107296873D01*
X155547163Y-107320024D01*
X155514981Y-107337226D01*
X155480062Y-107347819D01*
X155437605Y-107352000D01*
X154296395Y-107352000D01*
X154253938Y-107347819D01*
X154219019Y-107337226D01*
X154186837Y-107320024D01*
X154158627Y-107296873D01*
X154135476Y-107268663D01*
X154118274Y-107236481D01*
X154107681Y-107201562D01*
X154103500Y-107159105D01*
X154103500Y-105692895D01*
X154107681Y-105650438D01*
X154118274Y-105615519D01*
X154135476Y-105583337D01*
X154158627Y-105555127D01*
X154186837Y-105531976D01*
X154219019Y-105514774D01*
X154253938Y-105504181D01*
X154296395Y-105500000D01*
X155437605Y-105500000D01*
X155480062Y-105504181D01*
G37*
G36*
X152505062Y-105504181D02*
G01*
X152539981Y-105514774D01*
X152572163Y-105531976D01*
X152600373Y-105555127D01*
X152623524Y-105583337D01*
X152640726Y-105615519D01*
X152651319Y-105650438D01*
X152655500Y-105692895D01*
X152655500Y-107159105D01*
X152651319Y-107201562D01*
X152640726Y-107236481D01*
X152623524Y-107268663D01*
X152600373Y-107296873D01*
X152572163Y-107320024D01*
X152539981Y-107337226D01*
X152505062Y-107347819D01*
X152462605Y-107352000D01*
X151321395Y-107352000D01*
X151278938Y-107347819D01*
X151244019Y-107337226D01*
X151211837Y-107320024D01*
X151183627Y-107296873D01*
X151160476Y-107268663D01*
X151143274Y-107236481D01*
X151132681Y-107201562D01*
X151128500Y-107159105D01*
X151128500Y-105692895D01*
X151132681Y-105650438D01*
X151143274Y-105615519D01*
X151160476Y-105583337D01*
X151183627Y-105555127D01*
X151211837Y-105531976D01*
X151244019Y-105514774D01*
X151278938Y-105504181D01*
X151321395Y-105500000D01*
X152462605Y-105500000D01*
X152505062Y-105504181D01*
G37*
G36*
X164581000Y-106990000D02*
G01*
X163419000Y-106990000D01*
X163419000Y-104338000D01*
X164581000Y-104338000D01*
X164581000Y-106990000D01*
G37*
G36*
X166781000Y-106990000D02*
G01*
X165619000Y-106990000D01*
X165619000Y-106238000D01*
X166781000Y-106238000D01*
X166781000Y-106990000D01*
G37*
G36*
X158509562Y-103961681D02*
G01*
X158544481Y-103972274D01*
X158576663Y-103989476D01*
X158604873Y-104012627D01*
X158628024Y-104040837D01*
X158645226Y-104073019D01*
X158655819Y-104107938D01*
X158660000Y-104150395D01*
X158660000Y-105291605D01*
X158655819Y-105334062D01*
X158645226Y-105368981D01*
X158628024Y-105401163D01*
X158604873Y-105429373D01*
X158576663Y-105452524D01*
X158544481Y-105469726D01*
X158509562Y-105480319D01*
X158467105Y-105484500D01*
X157000895Y-105484500D01*
X156958438Y-105480319D01*
X156923519Y-105469726D01*
X156891337Y-105452524D01*
X156863127Y-105429373D01*
X156839976Y-105401163D01*
X156822774Y-105368981D01*
X156812181Y-105334062D01*
X156808000Y-105291605D01*
X156808000Y-104150395D01*
X156812181Y-104107938D01*
X156822774Y-104073019D01*
X156839976Y-104040837D01*
X156863127Y-104012627D01*
X156891337Y-103989476D01*
X156923519Y-103972274D01*
X156958438Y-103961681D01*
X157000895Y-103957500D01*
X158467105Y-103957500D01*
X158509562Y-103961681D01*
G37*
G36*
X162319562Y-103634681D02*
G01*
X162354481Y-103645274D01*
X162386663Y-103662476D01*
X162414873Y-103685627D01*
X162438024Y-103713837D01*
X162455226Y-103746019D01*
X162465819Y-103780938D01*
X162470000Y-103823395D01*
X162470000Y-104964605D01*
X162465819Y-105007062D01*
X162455226Y-105041981D01*
X162438024Y-105074163D01*
X162414873Y-105102373D01*
X162386663Y-105125524D01*
X162354481Y-105142726D01*
X162319562Y-105153319D01*
X162277105Y-105157500D01*
X160810895Y-105157500D01*
X160768438Y-105153319D01*
X160733519Y-105142726D01*
X160701337Y-105125524D01*
X160673127Y-105102373D01*
X160649976Y-105074163D01*
X160632774Y-105041981D01*
X160622181Y-105007062D01*
X160618000Y-104964605D01*
X160618000Y-103823395D01*
X160622181Y-103780938D01*
X160632774Y-103746019D01*
X160649976Y-103713837D01*
X160673127Y-103685627D01*
X160701337Y-103662476D01*
X160733519Y-103645274D01*
X160768438Y-103634681D01*
X160810895Y-103630500D01*
X162277105Y-103630500D01*
X162319562Y-103634681D01*
G37*
G36*
X166781000Y-105090000D02*
G01*
X165619000Y-105090000D01*
X165619000Y-104338000D01*
X166781000Y-104338000D01*
X166781000Y-105090000D01*
G37*
G36*
X155480062Y-102710181D02*
G01*
X155514981Y-102720774D01*
X155547163Y-102737976D01*
X155575373Y-102761127D01*
X155598524Y-102789337D01*
X155615726Y-102821519D01*
X155626319Y-102856438D01*
X155630500Y-102898895D01*
X155630500Y-104365105D01*
X155626319Y-104407562D01*
X155615726Y-104442481D01*
X155598524Y-104474663D01*
X155575373Y-104502873D01*
X155547163Y-104526024D01*
X155514981Y-104543226D01*
X155480062Y-104553819D01*
X155437605Y-104558000D01*
X154296395Y-104558000D01*
X154253938Y-104553819D01*
X154219019Y-104543226D01*
X154186837Y-104526024D01*
X154158627Y-104502873D01*
X154135476Y-104474663D01*
X154118274Y-104442481D01*
X154107681Y-104407562D01*
X154103500Y-104365105D01*
X154103500Y-102898895D01*
X154107681Y-102856438D01*
X154118274Y-102821519D01*
X154135476Y-102789337D01*
X154158627Y-102761127D01*
X154186837Y-102737976D01*
X154219019Y-102720774D01*
X154253938Y-102710181D01*
X154296395Y-102706000D01*
X155437605Y-102706000D01*
X155480062Y-102710181D01*
G37*
G36*
X152505062Y-102710181D02*
G01*
X152539981Y-102720774D01*
X152572163Y-102737976D01*
X152600373Y-102761127D01*
X152623524Y-102789337D01*
X152640726Y-102821519D01*
X152651319Y-102856438D01*
X152655500Y-102898895D01*
X152655500Y-104365105D01*
X152651319Y-104407562D01*
X152640726Y-104442481D01*
X152623524Y-104474663D01*
X152600373Y-104502873D01*
X152572163Y-104526024D01*
X152539981Y-104543226D01*
X152505062Y-104553819D01*
X152462605Y-104558000D01*
X151321395Y-104558000D01*
X151278938Y-104553819D01*
X151244019Y-104543226D01*
X151211837Y-104526024D01*
X151183627Y-104502873D01*
X151160476Y-104474663D01*
X151143274Y-104442481D01*
X151132681Y-104407562D01*
X151128500Y-104365105D01*
X151128500Y-102898895D01*
X151132681Y-102856438D01*
X151143274Y-102821519D01*
X151160476Y-102789337D01*
X151183627Y-102761127D01*
X151211837Y-102737976D01*
X151244019Y-102720774D01*
X151278938Y-102710181D01*
X151321395Y-102706000D01*
X152462605Y-102706000D01*
X152505062Y-102710181D01*
G37*
G36*
X173875000Y-104533000D02*
G01*
X172073000Y-104533000D01*
X172073000Y-102731000D01*
X173875000Y-102731000D01*
X173875000Y-104533000D01*
G37*
G36*
X168669562Y-102110681D02*
G01*
X168704481Y-102121274D01*
X168736663Y-102138476D01*
X168764873Y-102161627D01*
X168788024Y-102189837D01*
X168805226Y-102222019D01*
X168815819Y-102256938D01*
X168820000Y-102299395D01*
X168820000Y-103440605D01*
X168815819Y-103483062D01*
X168805226Y-103517981D01*
X168788024Y-103550163D01*
X168764873Y-103578373D01*
X168736663Y-103601524D01*
X168704481Y-103618726D01*
X168669562Y-103629319D01*
X168627105Y-103633500D01*
X167160895Y-103633500D01*
X167118438Y-103629319D01*
X167083519Y-103618726D01*
X167051337Y-103601524D01*
X167023127Y-103578373D01*
X166999976Y-103550163D01*
X166982774Y-103517981D01*
X166972181Y-103483062D01*
X166968000Y-103440605D01*
X166968000Y-102299395D01*
X166972181Y-102256938D01*
X166982774Y-102222019D01*
X166999976Y-102189837D01*
X167023127Y-102161627D01*
X167051337Y-102138476D01*
X167083519Y-102121274D01*
X167118438Y-102110681D01*
X167160895Y-102106500D01*
X168627105Y-102106500D01*
X168669562Y-102110681D01*
G37*
G36*
X162319562Y-100659681D02*
G01*
X162354481Y-100670274D01*
X162386663Y-100687476D01*
X162414873Y-100710627D01*
X162438024Y-100738837D01*
X162455226Y-100771019D01*
X162465819Y-100805938D01*
X162470000Y-100848395D01*
X162470000Y-101989605D01*
X162465819Y-102032062D01*
X162455226Y-102066981D01*
X162438024Y-102099163D01*
X162414873Y-102127373D01*
X162386663Y-102150524D01*
X162354481Y-102167726D01*
X162319562Y-102178319D01*
X162277105Y-102182500D01*
X160810895Y-102182500D01*
X160768438Y-102178319D01*
X160733519Y-102167726D01*
X160701337Y-102150524D01*
X160673127Y-102127373D01*
X160649976Y-102099163D01*
X160632774Y-102066981D01*
X160622181Y-102032062D01*
X160618000Y-101989605D01*
X160618000Y-100848395D01*
X160622181Y-100805938D01*
X160632774Y-100771019D01*
X160649976Y-100738837D01*
X160673127Y-100710627D01*
X160701337Y-100687476D01*
X160733519Y-100670274D01*
X160768438Y-100659681D01*
X160810895Y-100655500D01*
X162277105Y-100655500D01*
X162319562Y-100659681D01*
G37*
G36*
X155480062Y-100170181D02*
G01*
X155514981Y-100180774D01*
X155547163Y-100197976D01*
X155575373Y-100221127D01*
X155598524Y-100249337D01*
X155615726Y-100281519D01*
X155626319Y-100316438D01*
X155630500Y-100358895D01*
X155630500Y-101825105D01*
X155626319Y-101867562D01*
X155615726Y-101902481D01*
X155598524Y-101934663D01*
X155575373Y-101962873D01*
X155547163Y-101986024D01*
X155514981Y-102003226D01*
X155480062Y-102013819D01*
X155437605Y-102018000D01*
X154296395Y-102018000D01*
X154253938Y-102013819D01*
X154219019Y-102003226D01*
X154186837Y-101986024D01*
X154158627Y-101962873D01*
X154135476Y-101934663D01*
X154118274Y-101902481D01*
X154107681Y-101867562D01*
X154103500Y-101825105D01*
X154103500Y-100358895D01*
X154107681Y-100316438D01*
X154118274Y-100281519D01*
X154135476Y-100249337D01*
X154158627Y-100221127D01*
X154186837Y-100197976D01*
X154219019Y-100180774D01*
X154253938Y-100170181D01*
X154296395Y-100166000D01*
X155437605Y-100166000D01*
X155480062Y-100170181D01*
G37*
G36*
X152505062Y-100170181D02*
G01*
X152539981Y-100180774D01*
X152572163Y-100197976D01*
X152600373Y-100221127D01*
X152623524Y-100249337D01*
X152640726Y-100281519D01*
X152651319Y-100316438D01*
X152655500Y-100358895D01*
X152655500Y-101825105D01*
X152651319Y-101867562D01*
X152640726Y-101902481D01*
X152623524Y-101934663D01*
X152600373Y-101962873D01*
X152572163Y-101986024D01*
X152539981Y-102003226D01*
X152505062Y-102013819D01*
X152462605Y-102018000D01*
X151321395Y-102018000D01*
X151278938Y-102013819D01*
X151244019Y-102003226D01*
X151211837Y-101986024D01*
X151183627Y-101962873D01*
X151160476Y-101934663D01*
X151143274Y-101902481D01*
X151132681Y-101867562D01*
X151128500Y-101825105D01*
X151128500Y-100358895D01*
X151132681Y-100316438D01*
X151143274Y-100281519D01*
X151160476Y-100249337D01*
X151183627Y-100221127D01*
X151211837Y-100197976D01*
X151244019Y-100180774D01*
X151278938Y-100170181D01*
X151321395Y-100166000D01*
X152462605Y-100166000D01*
X152505062Y-100170181D01*
G37*
G36*
X173087512Y-100195927D02*
G01*
X173236812Y-100225624D01*
X173400784Y-100293544D01*
X173548354Y-100392147D01*
X173673853Y-100517646D01*
X173772456Y-100665216D01*
X173840376Y-100829188D01*
X173875000Y-101003259D01*
X173875000Y-101180741D01*
X173840376Y-101354812D01*
X173772456Y-101518784D01*
X173673853Y-101666354D01*
X173548354Y-101791853D01*
X173400784Y-101890456D01*
X173236812Y-101958376D01*
X173087512Y-101988073D01*
X173062742Y-101993000D01*
X172885258Y-101993000D01*
X172860488Y-101988073D01*
X172711188Y-101958376D01*
X172547216Y-101890456D01*
X172399646Y-101791853D01*
X172274147Y-101666354D01*
X172175544Y-101518784D01*
X172107624Y-101354812D01*
X172073000Y-101180741D01*
X172073000Y-101003259D01*
X172107624Y-100829188D01*
X172175544Y-100665216D01*
X172274147Y-100517646D01*
X172399646Y-100392147D01*
X172547216Y-100293544D01*
X172711188Y-100225624D01*
X172860488Y-100195927D01*
X172885258Y-100191000D01*
X173062742Y-100191000D01*
X173087512Y-100195927D01*
G37*
G36*
X168669562Y-99135681D02*
G01*
X168704481Y-99146274D01*
X168736663Y-99163476D01*
X168764873Y-99186627D01*
X168788024Y-99214837D01*
X168805226Y-99247019D01*
X168815819Y-99281938D01*
X168820000Y-99324395D01*
X168820000Y-100465605D01*
X168815819Y-100508062D01*
X168805226Y-100542981D01*
X168788024Y-100575163D01*
X168764873Y-100603373D01*
X168736663Y-100626524D01*
X168704481Y-100643726D01*
X168669562Y-100654319D01*
X168627105Y-100658500D01*
X167160895Y-100658500D01*
X167118438Y-100654319D01*
X167083519Y-100643726D01*
X167051337Y-100626524D01*
X167023127Y-100603373D01*
X166999976Y-100575163D01*
X166982774Y-100542981D01*
X166972181Y-100508062D01*
X166968000Y-100465605D01*
X166968000Y-99324395D01*
X166972181Y-99281938D01*
X166982774Y-99247019D01*
X166999976Y-99214837D01*
X167023127Y-99186627D01*
X167051337Y-99163476D01*
X167083519Y-99146274D01*
X167118438Y-99135681D01*
X167160895Y-99131500D01*
X168627105Y-99131500D01*
X168669562Y-99135681D01*
G37*
G36*
X173087512Y-97655927D02*
G01*
X173236812Y-97685624D01*
X173400784Y-97753544D01*
X173548354Y-97852147D01*
X173673853Y-97977646D01*
X173772456Y-98125216D01*
X173840376Y-98289188D01*
X173875000Y-98463259D01*
X173875000Y-98640741D01*
X173840376Y-98814812D01*
X173772456Y-98978784D01*
X173673853Y-99126354D01*
X173548354Y-99251853D01*
X173400784Y-99350456D01*
X173236812Y-99418376D01*
X173087512Y-99448073D01*
X173062742Y-99453000D01*
X172885258Y-99453000D01*
X172860488Y-99448073D01*
X172711188Y-99418376D01*
X172547216Y-99350456D01*
X172399646Y-99251853D01*
X172274147Y-99126354D01*
X172175544Y-98978784D01*
X172107624Y-98814812D01*
X172073000Y-98640741D01*
X172073000Y-98463259D01*
X172107624Y-98289188D01*
X172175544Y-98125216D01*
X172274147Y-97977646D01*
X172399646Y-97852147D01*
X172547216Y-97753544D01*
X172711188Y-97685624D01*
X172860488Y-97655927D01*
X172885258Y-97651000D01*
X173062742Y-97651000D01*
X173087512Y-97655927D01*
G37*
G36*
X152499916Y-98257334D02*
G01*
X152604925Y-98289189D01*
X152608495Y-98290272D01*
X152644601Y-98309571D01*
X152708557Y-98343756D01*
X152796264Y-98415736D01*
X152868244Y-98503443D01*
X152885111Y-98535000D01*
X152921728Y-98603505D01*
X152921729Y-98603508D01*
X152954666Y-98712084D01*
X152965787Y-98825000D01*
X152954666Y-98937916D01*
X152921729Y-99046492D01*
X152921728Y-99046495D01*
X152902429Y-99082601D01*
X152868244Y-99146557D01*
X152796264Y-99234264D01*
X152708557Y-99306244D01*
X152644601Y-99340429D01*
X152608495Y-99359728D01*
X152608492Y-99359729D01*
X152499916Y-99392666D01*
X152415298Y-99401000D01*
X151508702Y-99401000D01*
X151424084Y-99392666D01*
X151315508Y-99359729D01*
X151315505Y-99359728D01*
X151279399Y-99340429D01*
X151215443Y-99306244D01*
X151127736Y-99234264D01*
X151055756Y-99146557D01*
X151021571Y-99082601D01*
X151002272Y-99046495D01*
X151002271Y-99046492D01*
X150969334Y-98937916D01*
X150958213Y-98825000D01*
X150969334Y-98712084D01*
X151002271Y-98603508D01*
X151002272Y-98603505D01*
X151038889Y-98535000D01*
X151055756Y-98503443D01*
X151127736Y-98415736D01*
X151215443Y-98343756D01*
X151279399Y-98309571D01*
X151315505Y-98290272D01*
X151319075Y-98289189D01*
X151424084Y-98257334D01*
X151508702Y-98249000D01*
X152415298Y-98249000D01*
X152499916Y-98257334D01*
G37*
G36*
X163181512Y-96893927D02*
G01*
X163330812Y-96923624D01*
X163494784Y-96991544D01*
X163642354Y-97090147D01*
X163767853Y-97215646D01*
X163866456Y-97363216D01*
X163934376Y-97527188D01*
X163969000Y-97701259D01*
X163969000Y-97878741D01*
X163934376Y-98052812D01*
X163866456Y-98216784D01*
X163767853Y-98364354D01*
X163642354Y-98489853D01*
X163494784Y-98588456D01*
X163330812Y-98656376D01*
X163181512Y-98686073D01*
X163156742Y-98691000D01*
X162979258Y-98691000D01*
X162954488Y-98686073D01*
X162805188Y-98656376D01*
X162641216Y-98588456D01*
X162493646Y-98489853D01*
X162368147Y-98364354D01*
X162269544Y-98216784D01*
X162201624Y-98052812D01*
X162167000Y-97878741D01*
X162167000Y-97701259D01*
X162201624Y-97527188D01*
X162269544Y-97363216D01*
X162368147Y-97215646D01*
X162493646Y-97090147D01*
X162641216Y-96991544D01*
X162805188Y-96923624D01*
X162954488Y-96893927D01*
X162979258Y-96889000D01*
X163156742Y-96889000D01*
X163181512Y-96893927D01*
G37*
G36*
X167829000Y-98535000D02*
G01*
X165927000Y-98535000D01*
X165927000Y-94933000D01*
X167829000Y-94933000D01*
X167829000Y-98535000D01*
G37*
G36*
X154968000Y-93574001D02*
G01*
X154970402Y-93598387D01*
X154977515Y-93621836D01*
X154989066Y-93643447D01*
X155004611Y-93662389D01*
X155023553Y-93677934D01*
X155045164Y-93689485D01*
X155068613Y-93696598D01*
X155092999Y-93699000D01*
X155363000Y-93699000D01*
X155363000Y-96801000D01*
X155092999Y-96801000D01*
X155068613Y-96803402D01*
X155045164Y-96810515D01*
X155023553Y-96822066D01*
X155004611Y-96837611D01*
X154989066Y-96856553D01*
X154977515Y-96878164D01*
X154970402Y-96901613D01*
X154968000Y-96925999D01*
X154968000Y-98196000D01*
X153416000Y-98196000D01*
X153416000Y-96944000D01*
X153736001Y-96944000D01*
X153760387Y-96941598D01*
X153783836Y-96934485D01*
X153805447Y-96922934D01*
X153824389Y-96907389D01*
X153839934Y-96888447D01*
X153851485Y-96866836D01*
X153858598Y-96843387D01*
X153861000Y-96819001D01*
X153861000Y-93680999D01*
X153858598Y-93656613D01*
X153851485Y-93633164D01*
X153839934Y-93611553D01*
X153824389Y-93592611D01*
X153805447Y-93577066D01*
X153783836Y-93565515D01*
X153760387Y-93558402D01*
X153736001Y-93556000D01*
X153416000Y-93556000D01*
X153416000Y-92304000D01*
X154968000Y-92304000D01*
X154968000Y-93574001D01*
G37*
G36*
X152963000Y-97301000D02*
G01*
X150961000Y-97301000D01*
X150961000Y-95449000D01*
X152963000Y-95449000D01*
X152963000Y-97301000D01*
G37*
G36*
X173087512Y-95115927D02*
G01*
X173236812Y-95145624D01*
X173400784Y-95213544D01*
X173548354Y-95312147D01*
X173673853Y-95437646D01*
X173772456Y-95585216D01*
X173840376Y-95749188D01*
X173875000Y-95923259D01*
X173875000Y-96100741D01*
X173840376Y-96274812D01*
X173772456Y-96438784D01*
X173673853Y-96586354D01*
X173548354Y-96711853D01*
X173400784Y-96810456D01*
X173236812Y-96878376D01*
X173090950Y-96907389D01*
X173062742Y-96913000D01*
X172885258Y-96913000D01*
X172857050Y-96907389D01*
X172711188Y-96878376D01*
X172547216Y-96810456D01*
X172399646Y-96711853D01*
X172274147Y-96586354D01*
X172175544Y-96438784D01*
X172107624Y-96274812D01*
X172073000Y-96100741D01*
X172073000Y-95923259D01*
X172107624Y-95749188D01*
X172175544Y-95585216D01*
X172274147Y-95437646D01*
X172399646Y-95312147D01*
X172547216Y-95213544D01*
X172711188Y-95145624D01*
X172860488Y-95115927D01*
X172885258Y-95111000D01*
X173062742Y-95111000D01*
X173087512Y-95115927D01*
G37*
G36*
X163181512Y-94353927D02*
G01*
X163330812Y-94383624D01*
X163494784Y-94451544D01*
X163642354Y-94550147D01*
X163767853Y-94675646D01*
X163866456Y-94823216D01*
X163934376Y-94987188D01*
X163969000Y-95161259D01*
X163969000Y-95338741D01*
X163934376Y-95512812D01*
X163866456Y-95676784D01*
X163767853Y-95824354D01*
X163642354Y-95949853D01*
X163494784Y-96048456D01*
X163330812Y-96116376D01*
X163181512Y-96146073D01*
X163156742Y-96151000D01*
X162979258Y-96151000D01*
X162954488Y-96146073D01*
X162805188Y-96116376D01*
X162641216Y-96048456D01*
X162493646Y-95949853D01*
X162368147Y-95824354D01*
X162269544Y-95676784D01*
X162201624Y-95512812D01*
X162167000Y-95338741D01*
X162167000Y-95161259D01*
X162201624Y-94987188D01*
X162269544Y-94823216D01*
X162368147Y-94675646D01*
X162493646Y-94550147D01*
X162641216Y-94451544D01*
X162805188Y-94383624D01*
X162954488Y-94353927D01*
X162979258Y-94349000D01*
X163156742Y-94349000D01*
X163181512Y-94353927D01*
G37*
G36*
X159397000Y-96151000D02*
G01*
X157595000Y-96151000D01*
X157595000Y-94349000D01*
X159397000Y-94349000D01*
X159397000Y-96151000D01*
G37*
G36*
X152963000Y-95051000D02*
G01*
X150961000Y-95051000D01*
X150961000Y-93199000D01*
X152963000Y-93199000D01*
X152963000Y-95051000D01*
G37*
G36*
X173087512Y-92575927D02*
G01*
X173236812Y-92605624D01*
X173400784Y-92673544D01*
X173548354Y-92772147D01*
X173673853Y-92897646D01*
X173772456Y-93045216D01*
X173840376Y-93209188D01*
X173870073Y-93358488D01*
X173875000Y-93383258D01*
X173875000Y-93560742D01*
X173871890Y-93576375D01*
X173840376Y-93734812D01*
X173772456Y-93898784D01*
X173673853Y-94046354D01*
X173548354Y-94171853D01*
X173400784Y-94270456D01*
X173236812Y-94338376D01*
X173087512Y-94368073D01*
X173062742Y-94373000D01*
X172885258Y-94373000D01*
X172860488Y-94368073D01*
X172711188Y-94338376D01*
X172547216Y-94270456D01*
X172399646Y-94171853D01*
X172274147Y-94046354D01*
X172175544Y-93898784D01*
X172107624Y-93734812D01*
X172076110Y-93576375D01*
X172073000Y-93560742D01*
X172073000Y-93383258D01*
X172077927Y-93358488D01*
X172107624Y-93209188D01*
X172175544Y-93045216D01*
X172274147Y-92897646D01*
X172399646Y-92772147D01*
X172547216Y-92673544D01*
X172711188Y-92605624D01*
X172860488Y-92575927D01*
X172885258Y-92571000D01*
X173062742Y-92571000D01*
X173087512Y-92575927D01*
G37*
G36*
X163969000Y-93611000D02*
G01*
X162167000Y-93611000D01*
X162167000Y-91809000D01*
X163969000Y-91809000D01*
X163969000Y-93611000D01*
G37*
G36*
X158609512Y-91813927D02*
G01*
X158758812Y-91843624D01*
X158922784Y-91911544D01*
X159070354Y-92010147D01*
X159195853Y-92135646D01*
X159294456Y-92283216D01*
X159362376Y-92447188D01*
X159397000Y-92621259D01*
X159397000Y-92798741D01*
X159362376Y-92972812D01*
X159294456Y-93136784D01*
X159195853Y-93284354D01*
X159070354Y-93409853D01*
X158922784Y-93508456D01*
X158758812Y-93576376D01*
X158609512Y-93606073D01*
X158584742Y-93611000D01*
X158407258Y-93611000D01*
X158382488Y-93606073D01*
X158233188Y-93576376D01*
X158069216Y-93508456D01*
X157921646Y-93409853D01*
X157796147Y-93284354D01*
X157697544Y-93136784D01*
X157629624Y-92972812D01*
X157595000Y-92798741D01*
X157595000Y-92621259D01*
X157629624Y-92447188D01*
X157697544Y-92283216D01*
X157796147Y-92135646D01*
X157921646Y-92010147D01*
X158069216Y-91911544D01*
X158233188Y-91843624D01*
X158382488Y-91813927D01*
X158407258Y-91809000D01*
X158584742Y-91809000D01*
X158609512Y-91813927D01*
G37*
G36*
X167829000Y-93535000D02*
G01*
X165927000Y-93535000D01*
X165927000Y-89933000D01*
X167829000Y-89933000D01*
X167829000Y-93535000D01*
G37*
G36*
X152499916Y-91107334D02*
G01*
X152608492Y-91140271D01*
X152608495Y-91140272D01*
X152644601Y-91159571D01*
X152708557Y-91193756D01*
X152796264Y-91265736D01*
X152868244Y-91353443D01*
X152902429Y-91417399D01*
X152921728Y-91453505D01*
X152921729Y-91453508D01*
X152954666Y-91562084D01*
X152965787Y-91675000D01*
X152954666Y-91787916D01*
X152937766Y-91843625D01*
X152921728Y-91896495D01*
X152913684Y-91911544D01*
X152868244Y-91996557D01*
X152796264Y-92084264D01*
X152708557Y-92156244D01*
X152644601Y-92190429D01*
X152608495Y-92209728D01*
X152608492Y-92209729D01*
X152499916Y-92242666D01*
X152415298Y-92251000D01*
X151508702Y-92251000D01*
X151424084Y-92242666D01*
X151315508Y-92209729D01*
X151315505Y-92209728D01*
X151279399Y-92190429D01*
X151215443Y-92156244D01*
X151127736Y-92084264D01*
X151055756Y-91996557D01*
X151010316Y-91911544D01*
X151002272Y-91896495D01*
X150986234Y-91843625D01*
X150969334Y-91787916D01*
X150958213Y-91675000D01*
X150969334Y-91562084D01*
X151002271Y-91453508D01*
X151002272Y-91453505D01*
X151021571Y-91417399D01*
X151055756Y-91353443D01*
X151127736Y-91265736D01*
X151215443Y-91193756D01*
X151279399Y-91159571D01*
X151315505Y-91140272D01*
X151315508Y-91140271D01*
X151424084Y-91107334D01*
X151508702Y-91099000D01*
X152415298Y-91099000D01*
X152499916Y-91107334D01*
G37*
G36*
X173087512Y-90035927D02*
G01*
X173236812Y-90065624D01*
X173400784Y-90133544D01*
X173548354Y-90232147D01*
X173673853Y-90357646D01*
X173772456Y-90505216D01*
X173840376Y-90669188D01*
X173875000Y-90843259D01*
X173875000Y-91020741D01*
X173840376Y-91194812D01*
X173772456Y-91358784D01*
X173673853Y-91506354D01*
X173548354Y-91631853D01*
X173400784Y-91730456D01*
X173236812Y-91798376D01*
X173087512Y-91828073D01*
X173062742Y-91833000D01*
X172885258Y-91833000D01*
X172860488Y-91828073D01*
X172711188Y-91798376D01*
X172547216Y-91730456D01*
X172399646Y-91631853D01*
X172274147Y-91506354D01*
X172175544Y-91358784D01*
X172107624Y-91194812D01*
X172073000Y-91020741D01*
X172073000Y-90843259D01*
X172107624Y-90669188D01*
X172175544Y-90505216D01*
X172274147Y-90357646D01*
X172399646Y-90232147D01*
X172547216Y-90133544D01*
X172711188Y-90065624D01*
X172860488Y-90035927D01*
X172885258Y-90031000D01*
X173062742Y-90031000D01*
X173087512Y-90035927D01*
G37*
M02*
