M48
; DRILL file {KiCad 5.1.6-c6e7f7d~86~ubuntu18.04.1} date Mon May 25 23:57:24 2020
; FORMAT={-:-/ absolute / metric / decimal}
; #@! TF.CreationDate,2020-05-25T23:57:24-07:00
; #@! TF.GenerationSoftware,Kicad,Pcbnew,5.1.6-c6e7f7d~86~ubuntu18.04.1
FMAT,2
METRIC
T1C0.400
T2C0.450
T3C1.000
%
G90
G05
T1
X151.765Y-109.728
X155.448Y-99.314
X155.702Y-108.204
X155.702Y-109.22
X156.447Y-98.044
X157.497Y-98.044
X159.258Y-106.426
X159.263Y-105.405
X159.766Y-99.568
X165.1Y-98.552
X165.354Y-101.346
X172.847Y-88.773
T3
X163.068Y-92.71
X163.068Y-95.25
X163.068Y-97.79
X158.496Y-92.71
X158.496Y-95.25
X172.974Y-90.932
X172.974Y-93.472
X172.974Y-96.012
X172.974Y-98.552
X172.974Y-101.092
X172.974Y-103.632
T2
G00X151.562Y-91.675
M15
G01X152.362Y-91.675
M16
G05
G00X152.362Y-98.825
M15
G01X151.562Y-98.825
M16
G05
T0
M30
