G04 #@! TF.GenerationSoftware,KiCad,Pcbnew,5.1.6-c6e7f7d~86~ubuntu18.04.1*
G04 #@! TF.CreationDate,2020-05-25T23:57:25-07:00*
G04 #@! TF.ProjectId,usb_power,7573625f-706f-4776-9572-2e6b69636164,rev?*
G04 #@! TF.SameCoordinates,Original*
G04 #@! TF.FileFunction,Copper,L2,Bot*
G04 #@! TF.FilePolarity,Positive*
%FSLAX46Y46*%
G04 Gerber Fmt 4.6, Leading zero omitted, Abs format (unit mm)*
G04 Created by KiCad (PCBNEW 5.1.6-c6e7f7d~86~ubuntu18.04.1) date 2020-05-25 23:57:25*
%MOMM*%
%LPD*%
G01*
G04 APERTURE LIST*
G04 #@! TA.AperFunction,ComponentPad*
%ADD10O,1.900000X1.050000*%
G04 #@! TD*
G04 #@! TA.AperFunction,SMDPad,CuDef*
%ADD11R,1.750000X0.450000*%
G04 #@! TD*
G04 #@! TA.AperFunction,ComponentPad*
%ADD12O,1.700000X1.700000*%
G04 #@! TD*
G04 #@! TA.AperFunction,ComponentPad*
%ADD13R,1.700000X1.700000*%
G04 #@! TD*
G04 #@! TA.AperFunction,ViaPad*
%ADD14C,0.800000*%
G04 #@! TD*
G04 #@! TA.AperFunction,Conductor*
%ADD15C,0.400000*%
G04 #@! TD*
G04 #@! TA.AperFunction,Conductor*
%ADD16C,0.250000*%
G04 #@! TD*
G04 #@! TA.AperFunction,Conductor*
%ADD17C,0.200000*%
G04 #@! TD*
G04 #@! TA.AperFunction,Conductor*
%ADD18C,0.254000*%
G04 #@! TD*
G04 APERTURE END LIST*
D10*
X151962000Y-98825000D03*
X151962000Y-91675000D03*
D11*
X161080000Y-110905000D03*
X161080000Y-110255000D03*
X161080000Y-109605000D03*
X161080000Y-108955000D03*
X161080000Y-108305000D03*
X161080000Y-107655000D03*
X161080000Y-107005000D03*
X161080000Y-106355000D03*
X161080000Y-105705000D03*
X161080000Y-105055000D03*
X161080000Y-104405000D03*
X161080000Y-103755000D03*
X161080000Y-103105000D03*
X161080000Y-102455000D03*
X153880000Y-102455000D03*
X153880000Y-103105000D03*
X153880000Y-103755000D03*
X153880000Y-104405000D03*
X153880000Y-105055000D03*
X153880000Y-105705000D03*
X153880000Y-106355000D03*
X153880000Y-107005000D03*
X153880000Y-107655000D03*
X153880000Y-108305000D03*
X153880000Y-108955000D03*
X153880000Y-109605000D03*
X153880000Y-110255000D03*
X153880000Y-110905000D03*
D12*
X172974000Y-90932000D03*
X172974000Y-93472000D03*
X172974000Y-96012000D03*
X172974000Y-98552000D03*
X172974000Y-101092000D03*
D13*
X172974000Y-103632000D03*
G04 #@! TA.AperFunction,SMDPad,CuDef*
G36*
G01*
X164280001Y-101903000D02*
X163379999Y-101903000D01*
G75*
G02*
X163130000Y-101653001I0J249999D01*
G01*
X163130000Y-101002999D01*
G75*
G02*
X163379999Y-100753000I249999J0D01*
G01*
X164280001Y-100753000D01*
G75*
G02*
X164530000Y-101002999I0J-249999D01*
G01*
X164530000Y-101653001D01*
G75*
G02*
X164280001Y-101903000I-249999J0D01*
G01*
G37*
G04 #@! TD.AperFunction*
G04 #@! TA.AperFunction,SMDPad,CuDef*
G36*
G01*
X164280001Y-103953000D02*
X163379999Y-103953000D01*
G75*
G02*
X163130000Y-103703001I0J249999D01*
G01*
X163130000Y-103052999D01*
G75*
G02*
X163379999Y-102803000I249999J0D01*
G01*
X164280001Y-102803000D01*
G75*
G02*
X164530000Y-103052999I0J-249999D01*
G01*
X164530000Y-103703001D01*
G75*
G02*
X164280001Y-103953000I-249999J0D01*
G01*
G37*
G04 #@! TD.AperFunction*
G04 #@! TA.AperFunction,SMDPad,CuDef*
G36*
G01*
X165838500Y-106289000D02*
X165838500Y-105039000D01*
G75*
G02*
X166088500Y-104789000I250000J0D01*
G01*
X167013500Y-104789000D01*
G75*
G02*
X167263500Y-105039000I0J-250000D01*
G01*
X167263500Y-106289000D01*
G75*
G02*
X167013500Y-106539000I-250000J0D01*
G01*
X166088500Y-106539000D01*
G75*
G02*
X165838500Y-106289000I0J250000D01*
G01*
G37*
G04 #@! TD.AperFunction*
G04 #@! TA.AperFunction,SMDPad,CuDef*
G36*
G01*
X162863500Y-106289000D02*
X162863500Y-105039000D01*
G75*
G02*
X163113500Y-104789000I250000J0D01*
G01*
X164038500Y-104789000D01*
G75*
G02*
X164288500Y-105039000I0J-250000D01*
G01*
X164288500Y-106289000D01*
G75*
G02*
X164038500Y-106539000I-250000J0D01*
G01*
X163113500Y-106539000D01*
G75*
G02*
X162863500Y-106289000I0J250000D01*
G01*
G37*
G04 #@! TD.AperFunction*
G04 #@! TA.AperFunction,SMDPad,CuDef*
G36*
G01*
X165838500Y-108829000D02*
X165838500Y-107579000D01*
G75*
G02*
X166088500Y-107329000I250000J0D01*
G01*
X167013500Y-107329000D01*
G75*
G02*
X167263500Y-107579000I0J-250000D01*
G01*
X167263500Y-108829000D01*
G75*
G02*
X167013500Y-109079000I-250000J0D01*
G01*
X166088500Y-109079000D01*
G75*
G02*
X165838500Y-108829000I0J250000D01*
G01*
G37*
G04 #@! TD.AperFunction*
G04 #@! TA.AperFunction,SMDPad,CuDef*
G36*
G01*
X162863500Y-108829000D02*
X162863500Y-107579000D01*
G75*
G02*
X163113500Y-107329000I250000J0D01*
G01*
X164038500Y-107329000D01*
G75*
G02*
X164288500Y-107579000I0J-250000D01*
G01*
X164288500Y-108829000D01*
G75*
G02*
X164038500Y-109079000I-250000J0D01*
G01*
X163113500Y-109079000D01*
G75*
G02*
X162863500Y-108829000I0J250000D01*
G01*
G37*
G04 #@! TD.AperFunction*
X158496000Y-95250000D03*
D12*
X158496000Y-92710000D03*
D13*
X163068000Y-92710000D03*
D12*
X163068000Y-95250000D03*
X163068000Y-97790000D03*
D14*
X151765000Y-109728000D03*
X172847000Y-88773000D03*
X159766000Y-99568000D03*
X155448000Y-99314000D03*
X165354000Y-101346000D03*
X165100000Y-98552000D03*
X155702000Y-108204000D03*
X159258000Y-106426000D03*
X156447000Y-98044000D03*
X157497000Y-98044000D03*
X159262653Y-105405347D03*
X155702000Y-109220000D03*
D15*
X161818000Y-92710000D02*
X163068000Y-92710000D01*
X161544000Y-92984000D02*
X161818000Y-92710000D01*
X161544000Y-99742000D02*
X161544000Y-92984000D01*
X163130000Y-101328000D02*
X161544000Y-99742000D01*
X163830000Y-101328000D02*
X163130000Y-101328000D01*
D16*
X161080000Y-109430000D02*
X161080000Y-108955000D01*
X161255000Y-109605000D02*
X161080000Y-109430000D01*
X161080000Y-109605000D02*
X161255000Y-109605000D01*
X161080000Y-109605000D02*
X162556000Y-109605000D01*
X151765000Y-107995000D02*
X151765000Y-108458000D01*
X153880000Y-107005000D02*
X152755000Y-107005000D01*
X152755000Y-107005000D02*
X151765000Y-107995000D01*
X162205000Y-108955000D02*
X161080000Y-108955000D01*
X162280001Y-108879999D02*
X162205000Y-108955000D01*
X162280001Y-106519999D02*
X162280001Y-108879999D01*
X162115002Y-106355000D02*
X162280001Y-106519999D01*
X161080000Y-106355000D02*
X162115002Y-106355000D01*
X162804990Y-102814820D02*
X163257810Y-102362000D01*
X162804990Y-103805010D02*
X162804990Y-102814820D01*
X161080000Y-104405000D02*
X162205000Y-104405000D01*
X162205000Y-104405000D02*
X162804990Y-103805010D01*
X165354000Y-101392190D02*
X165354000Y-101346000D01*
X163257810Y-102362000D02*
X164384190Y-102362000D01*
X164384190Y-102362000D02*
X165354000Y-101392190D01*
X163576000Y-107076000D02*
X163576000Y-105664000D01*
X163576000Y-108204000D02*
X163576000Y-107076000D01*
X161121000Y-105664000D02*
X161080000Y-105705000D01*
X163576000Y-105664000D02*
X161121000Y-105664000D01*
X163830000Y-105410000D02*
X163576000Y-105664000D01*
X163830000Y-103378000D02*
X163830000Y-105410000D01*
X156251000Y-107655000D02*
X161080000Y-107655000D01*
X155702000Y-108204000D02*
X156251000Y-107655000D01*
X159837000Y-107005000D02*
X161080000Y-107005000D01*
X159258000Y-106426000D02*
X159837000Y-107005000D01*
D17*
X156747000Y-98344000D02*
X156447000Y-98044000D01*
X159904999Y-102920001D02*
X159904999Y-101929999D01*
X159964999Y-102980001D02*
X159904999Y-102920001D01*
X160955001Y-102980001D02*
X159964999Y-102980001D01*
X161080000Y-103105000D02*
X160955001Y-102980001D01*
X156747000Y-98772000D02*
X156747000Y-98344000D01*
X159904999Y-101929999D02*
X156747000Y-98772000D01*
X161080000Y-102455000D02*
X161066397Y-102455000D01*
X161066397Y-102455000D02*
X157197000Y-98585603D01*
X157197000Y-98585603D02*
X157197000Y-98344000D01*
X157197000Y-98344000D02*
X157497000Y-98044000D01*
D16*
X173823999Y-91781999D02*
X172974000Y-90932000D01*
X174149001Y-104742001D02*
X174149001Y-92107001D01*
X166985992Y-111905010D02*
X174149001Y-104742001D01*
X153195008Y-111905010D02*
X166985992Y-111905010D01*
X152679999Y-111390001D02*
X153195008Y-111905010D01*
X152679999Y-108380001D02*
X152679999Y-111390001D01*
X174149001Y-92107001D02*
X173823999Y-91781999D01*
X152755000Y-108305000D02*
X152679999Y-108380001D01*
X153880000Y-108305000D02*
X152755000Y-108305000D01*
X171196000Y-106934000D02*
X171196000Y-95250000D01*
X166674999Y-111455001D02*
X171196000Y-106934000D01*
X159761000Y-111455001D02*
X166674999Y-111455001D01*
X153880000Y-110905000D02*
X159210999Y-110905000D01*
X171196000Y-95250000D02*
X172974000Y-93472000D01*
X159210999Y-110905000D02*
X159761000Y-111455001D01*
X159955000Y-103755000D02*
X161080000Y-103755000D01*
X159262653Y-104447347D02*
X159955000Y-103755000D01*
X159262653Y-105405347D02*
X159262653Y-104447347D01*
X155437000Y-108955000D02*
X153880000Y-108955000D01*
X155702000Y-109220000D02*
X155437000Y-108955000D01*
D18*
G36*
X173965001Y-89822894D02*
G01*
X173920632Y-89778525D01*
X173677411Y-89616010D01*
X173407158Y-89504068D01*
X173120260Y-89447000D01*
X172827740Y-89447000D01*
X172540842Y-89504068D01*
X172270589Y-89616010D01*
X172027368Y-89778525D01*
X171820525Y-89985368D01*
X171658010Y-90228589D01*
X171546068Y-90498842D01*
X171489000Y-90785740D01*
X171489000Y-91078260D01*
X171546068Y-91365158D01*
X171658010Y-91635411D01*
X171820525Y-91878632D01*
X172027368Y-92085475D01*
X172201760Y-92202000D01*
X172027368Y-92318525D01*
X171820525Y-92525368D01*
X171658010Y-92768589D01*
X171546068Y-93038842D01*
X171489000Y-93325740D01*
X171489000Y-93618260D01*
X171532790Y-93838408D01*
X170684998Y-94686201D01*
X170656000Y-94709999D01*
X170632202Y-94738997D01*
X170632201Y-94738998D01*
X170561026Y-94825724D01*
X170490454Y-94957754D01*
X170446998Y-95101015D01*
X170432324Y-95250000D01*
X170436001Y-95287332D01*
X170436000Y-106619198D01*
X167893419Y-109161779D01*
X167901572Y-109079000D01*
X167898500Y-108489750D01*
X167739750Y-108331000D01*
X166678000Y-108331000D01*
X166678000Y-109555250D01*
X166836750Y-109714000D01*
X167263500Y-109717072D01*
X167346280Y-109708919D01*
X166360198Y-110695001D01*
X162593072Y-110695001D01*
X162593072Y-110680000D01*
X162583223Y-110580000D01*
X162593072Y-110480000D01*
X162593072Y-110030000D01*
X162582944Y-109927162D01*
X162590000Y-109861750D01*
X162557753Y-109829503D01*
X162544502Y-109785820D01*
X162485537Y-109675506D01*
X162427464Y-109604744D01*
X162480772Y-109541524D01*
X162514373Y-109480626D01*
X162620114Y-109567405D01*
X162773650Y-109649472D01*
X162940246Y-109700008D01*
X163113500Y-109717072D01*
X164038500Y-109717072D01*
X164211754Y-109700008D01*
X164378350Y-109649472D01*
X164531886Y-109567405D01*
X164666462Y-109456962D01*
X164776905Y-109322386D01*
X164858972Y-109168850D01*
X164886227Y-109079000D01*
X165200428Y-109079000D01*
X165212688Y-109203482D01*
X165248998Y-109323180D01*
X165307963Y-109433494D01*
X165387315Y-109530185D01*
X165484006Y-109609537D01*
X165594320Y-109668502D01*
X165714018Y-109704812D01*
X165838500Y-109717072D01*
X166265250Y-109714000D01*
X166424000Y-109555250D01*
X166424000Y-108331000D01*
X165362250Y-108331000D01*
X165203500Y-108489750D01*
X165200428Y-109079000D01*
X164886227Y-109079000D01*
X164909508Y-109002254D01*
X164926572Y-108829000D01*
X164926572Y-107579000D01*
X164909508Y-107405746D01*
X164858972Y-107239150D01*
X164776905Y-107085614D01*
X164666462Y-106951038D01*
X164645701Y-106934000D01*
X164666462Y-106916962D01*
X164776905Y-106782386D01*
X164858972Y-106628850D01*
X164886227Y-106539000D01*
X165200428Y-106539000D01*
X165212688Y-106663482D01*
X165248998Y-106783180D01*
X165307963Y-106893494D01*
X165341205Y-106934000D01*
X165307963Y-106974506D01*
X165248998Y-107084820D01*
X165212688Y-107204518D01*
X165200428Y-107329000D01*
X165203500Y-107918250D01*
X165362250Y-108077000D01*
X166424000Y-108077000D01*
X166424000Y-105791000D01*
X166678000Y-105791000D01*
X166678000Y-108077000D01*
X167739750Y-108077000D01*
X167898500Y-107918250D01*
X167901572Y-107329000D01*
X167889312Y-107204518D01*
X167853002Y-107084820D01*
X167794037Y-106974506D01*
X167760795Y-106934000D01*
X167794037Y-106893494D01*
X167853002Y-106783180D01*
X167889312Y-106663482D01*
X167901572Y-106539000D01*
X167898500Y-105949750D01*
X167739750Y-105791000D01*
X166678000Y-105791000D01*
X166424000Y-105791000D01*
X165362250Y-105791000D01*
X165203500Y-105949750D01*
X165200428Y-106539000D01*
X164886227Y-106539000D01*
X164909508Y-106462254D01*
X164926572Y-106289000D01*
X164926572Y-105039000D01*
X164909508Y-104865746D01*
X164886228Y-104789000D01*
X165200428Y-104789000D01*
X165203500Y-105378250D01*
X165362250Y-105537000D01*
X166424000Y-105537000D01*
X166424000Y-104312750D01*
X166678000Y-104312750D01*
X166678000Y-105537000D01*
X167739750Y-105537000D01*
X167898500Y-105378250D01*
X167901572Y-104789000D01*
X167889312Y-104664518D01*
X167853002Y-104544820D01*
X167794037Y-104434506D01*
X167714685Y-104337815D01*
X167617994Y-104258463D01*
X167507680Y-104199498D01*
X167387982Y-104163188D01*
X167263500Y-104150928D01*
X166836750Y-104154000D01*
X166678000Y-104312750D01*
X166424000Y-104312750D01*
X166265250Y-104154000D01*
X165838500Y-104150928D01*
X165714018Y-104163188D01*
X165594320Y-104199498D01*
X165484006Y-104258463D01*
X165387315Y-104337815D01*
X165307963Y-104434506D01*
X165248998Y-104544820D01*
X165212688Y-104664518D01*
X165200428Y-104789000D01*
X164886228Y-104789000D01*
X164858972Y-104699150D01*
X164776905Y-104545614D01*
X164716387Y-104471872D01*
X164773387Y-104441405D01*
X164907962Y-104330962D01*
X165018405Y-104196387D01*
X165100472Y-104042851D01*
X165151008Y-103876255D01*
X165168072Y-103703001D01*
X165168072Y-103052999D01*
X165151008Y-102879745D01*
X165100472Y-102713149D01*
X165018405Y-102559613D01*
X164907962Y-102425038D01*
X164820184Y-102353000D01*
X164907962Y-102280962D01*
X165018405Y-102146387D01*
X165100472Y-101992851D01*
X165151008Y-101826255D01*
X165168072Y-101653001D01*
X165168072Y-101002999D01*
X165151008Y-100829745D01*
X165100472Y-100663149D01*
X165018405Y-100509613D01*
X164907962Y-100375038D01*
X164773387Y-100264595D01*
X164619851Y-100182528D01*
X164453255Y-100131992D01*
X164280001Y-100114928D01*
X163379999Y-100114928D01*
X163206745Y-100131992D01*
X163136246Y-100153378D01*
X162379000Y-99396133D01*
X162379000Y-99111959D01*
X162634842Y-99217932D01*
X162921740Y-99275000D01*
X163214260Y-99275000D01*
X163501158Y-99217932D01*
X163771411Y-99105990D01*
X164014632Y-98943475D01*
X164221475Y-98736632D01*
X164383990Y-98493411D01*
X164495932Y-98223158D01*
X164553000Y-97936260D01*
X164553000Y-97643740D01*
X164495932Y-97356842D01*
X164383990Y-97086589D01*
X164221475Y-96843368D01*
X164014632Y-96636525D01*
X163840240Y-96520000D01*
X164014632Y-96403475D01*
X164221475Y-96196632D01*
X164383990Y-95953411D01*
X164495932Y-95683158D01*
X164553000Y-95396260D01*
X164553000Y-95103740D01*
X164495932Y-94816842D01*
X164383990Y-94546589D01*
X164221475Y-94303368D01*
X164089620Y-94171513D01*
X164162180Y-94149502D01*
X164272494Y-94090537D01*
X164369185Y-94011185D01*
X164448537Y-93914494D01*
X164507502Y-93804180D01*
X164543812Y-93684482D01*
X164556072Y-93560000D01*
X164556072Y-91860000D01*
X164543812Y-91735518D01*
X164507502Y-91615820D01*
X164448537Y-91505506D01*
X164369185Y-91408815D01*
X164272494Y-91329463D01*
X164162180Y-91270498D01*
X164042482Y-91234188D01*
X163918000Y-91221928D01*
X162218000Y-91221928D01*
X162093518Y-91234188D01*
X161973820Y-91270498D01*
X161863506Y-91329463D01*
X161766815Y-91408815D01*
X161687463Y-91505506D01*
X161628498Y-91615820D01*
X161592188Y-91735518D01*
X161579928Y-91860000D01*
X161579928Y-91909646D01*
X161496913Y-91934828D01*
X161351854Y-92012364D01*
X161224709Y-92116709D01*
X161198558Y-92148574D01*
X160982573Y-92364559D01*
X160950710Y-92390709D01*
X160924562Y-92422571D01*
X160846364Y-92517855D01*
X160768828Y-92662914D01*
X160721082Y-92820312D01*
X160704960Y-92984000D01*
X160709001Y-93025028D01*
X160709000Y-99700981D01*
X160704960Y-99742000D01*
X160709000Y-99783018D01*
X160721082Y-99905688D01*
X160768828Y-100063086D01*
X160846364Y-100208145D01*
X160950709Y-100335291D01*
X160982579Y-100361446D01*
X162371395Y-101750263D01*
X162309494Y-101699463D01*
X162199180Y-101640498D01*
X162079482Y-101604188D01*
X161955000Y-101591928D01*
X161242772Y-101591928D01*
X158322438Y-98671595D01*
X158414205Y-98534256D01*
X158492226Y-98345898D01*
X158532000Y-98145939D01*
X158532000Y-97942061D01*
X158492226Y-97742102D01*
X158414205Y-97553744D01*
X158300937Y-97384226D01*
X158156774Y-97240063D01*
X157987256Y-97126795D01*
X157798898Y-97048774D01*
X157598939Y-97009000D01*
X157395061Y-97009000D01*
X157195102Y-97048774D01*
X157006744Y-97126795D01*
X156972000Y-97150010D01*
X156937256Y-97126795D01*
X156748898Y-97048774D01*
X156548939Y-97009000D01*
X156345061Y-97009000D01*
X156145102Y-97048774D01*
X155956744Y-97126795D01*
X155787226Y-97240063D01*
X155643063Y-97384226D01*
X155529795Y-97553744D01*
X155451774Y-97742102D01*
X155412000Y-97942061D01*
X155412000Y-98145939D01*
X155451774Y-98345898D01*
X155529795Y-98534256D01*
X155643063Y-98703774D01*
X155787226Y-98847937D01*
X155956744Y-98961205D01*
X156047758Y-98998905D01*
X156064663Y-99054632D01*
X156132913Y-99182319D01*
X156224762Y-99294237D01*
X156252808Y-99317254D01*
X159170000Y-102234447D01*
X159169999Y-102883895D01*
X159166443Y-102920001D01*
X159179193Y-103049454D01*
X159180634Y-103064085D01*
X159222662Y-103202633D01*
X159290912Y-103330320D01*
X159297207Y-103337991D01*
X158751651Y-103883548D01*
X158722653Y-103907346D01*
X158698855Y-103936344D01*
X158698854Y-103936345D01*
X158627679Y-104023071D01*
X158557107Y-104155101D01*
X158536153Y-104224180D01*
X158513651Y-104298361D01*
X158513431Y-104300595D01*
X158498977Y-104447347D01*
X158502654Y-104484679D01*
X158502654Y-104701635D01*
X158458716Y-104745573D01*
X158345448Y-104915091D01*
X158267427Y-105103449D01*
X158227653Y-105303408D01*
X158227653Y-105507286D01*
X158267427Y-105707245D01*
X158345448Y-105895603D01*
X158356532Y-105912192D01*
X158340795Y-105935744D01*
X158262774Y-106124102D01*
X158223000Y-106324061D01*
X158223000Y-106527939D01*
X158262774Y-106727898D01*
X158331990Y-106895000D01*
X156288322Y-106895000D01*
X156250999Y-106891324D01*
X156213676Y-106895000D01*
X156213667Y-106895000D01*
X156102014Y-106905997D01*
X155958753Y-106949454D01*
X155826724Y-107020026D01*
X155710999Y-107114999D01*
X155687200Y-107143998D01*
X155662198Y-107169000D01*
X155600061Y-107169000D01*
X155400102Y-107208774D01*
X155356894Y-107226671D01*
X155344502Y-107185820D01*
X155285537Y-107075506D01*
X155227674Y-107005000D01*
X155285537Y-106934494D01*
X155344502Y-106824180D01*
X155357753Y-106780497D01*
X155390000Y-106748250D01*
X155382944Y-106682838D01*
X155393072Y-106580000D01*
X155393072Y-106130000D01*
X155383223Y-106030000D01*
X155393072Y-105930000D01*
X155393072Y-105480000D01*
X155383223Y-105380000D01*
X155393072Y-105280000D01*
X155393072Y-104830000D01*
X155383223Y-104730000D01*
X155393072Y-104630000D01*
X155393072Y-104180000D01*
X155383223Y-104080000D01*
X155393072Y-103980000D01*
X155393072Y-103530000D01*
X155383223Y-103430000D01*
X155393072Y-103330000D01*
X155393072Y-102880000D01*
X155383223Y-102780000D01*
X155393072Y-102680000D01*
X155393072Y-102230000D01*
X155380812Y-102105518D01*
X155344502Y-101985820D01*
X155285537Y-101875506D01*
X155206185Y-101778815D01*
X155109494Y-101699463D01*
X154999180Y-101640498D01*
X154879482Y-101604188D01*
X154755000Y-101591928D01*
X153005000Y-101591928D01*
X152880518Y-101604188D01*
X152760820Y-101640498D01*
X152650506Y-101699463D01*
X152553815Y-101778815D01*
X152474463Y-101875506D01*
X152415498Y-101985820D01*
X152379188Y-102105518D01*
X152366928Y-102230000D01*
X152366928Y-102680000D01*
X152376777Y-102780000D01*
X152366928Y-102880000D01*
X152366928Y-103330000D01*
X152376777Y-103430000D01*
X152366928Y-103530000D01*
X152366928Y-103980000D01*
X152376777Y-104080000D01*
X152366928Y-104180000D01*
X152366928Y-104630000D01*
X152376777Y-104730000D01*
X152366928Y-104830000D01*
X152366928Y-105280000D01*
X152376777Y-105380000D01*
X152366928Y-105480000D01*
X152366928Y-105930000D01*
X152376777Y-106030000D01*
X152366928Y-106130000D01*
X152366928Y-106580000D01*
X152377056Y-106682838D01*
X152370000Y-106748250D01*
X152402247Y-106780497D01*
X152415498Y-106824180D01*
X152474463Y-106934494D01*
X152532326Y-107005000D01*
X152474463Y-107075506D01*
X152415498Y-107185820D01*
X152402247Y-107229503D01*
X152370000Y-107261750D01*
X152377056Y-107327162D01*
X152366928Y-107430000D01*
X152366928Y-107650674D01*
X152330724Y-107670026D01*
X152214999Y-107764999D01*
X152191199Y-107793999D01*
X152168999Y-107816199D01*
X152139998Y-107840000D01*
X152089033Y-107902102D01*
X152045025Y-107955725D01*
X152036171Y-107972290D01*
X151974453Y-108087755D01*
X151930996Y-108231016D01*
X151919999Y-108342669D01*
X151919999Y-108342679D01*
X151916323Y-108380001D01*
X151919999Y-108417324D01*
X151920000Y-111352669D01*
X151916323Y-111390001D01*
X151920000Y-111427334D01*
X151930997Y-111538987D01*
X151943797Y-111581185D01*
X151974453Y-111682247D01*
X152045025Y-111814277D01*
X152098370Y-111879277D01*
X152139999Y-111930002D01*
X152168997Y-111953800D01*
X152331197Y-112116000D01*
X151155000Y-112116000D01*
X151155000Y-99921317D01*
X151309600Y-99968215D01*
X151480021Y-99985000D01*
X152443979Y-99985000D01*
X152614400Y-99968215D01*
X152833060Y-99901885D01*
X153034579Y-99794171D01*
X153211212Y-99649212D01*
X153356171Y-99472579D01*
X153463885Y-99271060D01*
X153530215Y-99052400D01*
X153552612Y-98825000D01*
X153530215Y-98597600D01*
X153463885Y-98378940D01*
X153356171Y-98177421D01*
X153211212Y-98000788D01*
X153034579Y-97855829D01*
X152833060Y-97748115D01*
X152614400Y-97681785D01*
X152443979Y-97665000D01*
X151480021Y-97665000D01*
X151309600Y-97681785D01*
X151155000Y-97728683D01*
X151155000Y-94400000D01*
X157007928Y-94400000D01*
X157007928Y-96100000D01*
X157020188Y-96224482D01*
X157056498Y-96344180D01*
X157115463Y-96454494D01*
X157194815Y-96551185D01*
X157291506Y-96630537D01*
X157401820Y-96689502D01*
X157521518Y-96725812D01*
X157646000Y-96738072D01*
X159346000Y-96738072D01*
X159470482Y-96725812D01*
X159590180Y-96689502D01*
X159700494Y-96630537D01*
X159797185Y-96551185D01*
X159876537Y-96454494D01*
X159935502Y-96344180D01*
X159971812Y-96224482D01*
X159984072Y-96100000D01*
X159984072Y-94400000D01*
X159971812Y-94275518D01*
X159935502Y-94155820D01*
X159876537Y-94045506D01*
X159797185Y-93948815D01*
X159700494Y-93869463D01*
X159590180Y-93810498D01*
X159517620Y-93788487D01*
X159649475Y-93656632D01*
X159811990Y-93413411D01*
X159923932Y-93143158D01*
X159981000Y-92856260D01*
X159981000Y-92563740D01*
X159923932Y-92276842D01*
X159811990Y-92006589D01*
X159649475Y-91763368D01*
X159442632Y-91556525D01*
X159199411Y-91394010D01*
X158929158Y-91282068D01*
X158642260Y-91225000D01*
X158349740Y-91225000D01*
X158062842Y-91282068D01*
X157792589Y-91394010D01*
X157549368Y-91556525D01*
X157342525Y-91763368D01*
X157180010Y-92006589D01*
X157068068Y-92276842D01*
X157011000Y-92563740D01*
X157011000Y-92856260D01*
X157068068Y-93143158D01*
X157180010Y-93413411D01*
X157342525Y-93656632D01*
X157474380Y-93788487D01*
X157401820Y-93810498D01*
X157291506Y-93869463D01*
X157194815Y-93948815D01*
X157115463Y-94045506D01*
X157056498Y-94155820D01*
X157020188Y-94275518D01*
X157007928Y-94400000D01*
X151155000Y-94400000D01*
X151155000Y-92771317D01*
X151309600Y-92818215D01*
X151480021Y-92835000D01*
X152443979Y-92835000D01*
X152614400Y-92818215D01*
X152833060Y-92751885D01*
X153034579Y-92644171D01*
X153211212Y-92499212D01*
X153356171Y-92322579D01*
X153463885Y-92121060D01*
X153530215Y-91902400D01*
X153552612Y-91675000D01*
X153530215Y-91447600D01*
X153463885Y-91228940D01*
X153356171Y-91027421D01*
X153211212Y-90850788D01*
X153034579Y-90705829D01*
X152833060Y-90598115D01*
X152614400Y-90531785D01*
X152443979Y-90515000D01*
X151480021Y-90515000D01*
X151309600Y-90531785D01*
X151155000Y-90578683D01*
X151155000Y-88290000D01*
X173965001Y-88290000D01*
X173965001Y-89822894D01*
G37*
X173965001Y-89822894D02*
X173920632Y-89778525D01*
X173677411Y-89616010D01*
X173407158Y-89504068D01*
X173120260Y-89447000D01*
X172827740Y-89447000D01*
X172540842Y-89504068D01*
X172270589Y-89616010D01*
X172027368Y-89778525D01*
X171820525Y-89985368D01*
X171658010Y-90228589D01*
X171546068Y-90498842D01*
X171489000Y-90785740D01*
X171489000Y-91078260D01*
X171546068Y-91365158D01*
X171658010Y-91635411D01*
X171820525Y-91878632D01*
X172027368Y-92085475D01*
X172201760Y-92202000D01*
X172027368Y-92318525D01*
X171820525Y-92525368D01*
X171658010Y-92768589D01*
X171546068Y-93038842D01*
X171489000Y-93325740D01*
X171489000Y-93618260D01*
X171532790Y-93838408D01*
X170684998Y-94686201D01*
X170656000Y-94709999D01*
X170632202Y-94738997D01*
X170632201Y-94738998D01*
X170561026Y-94825724D01*
X170490454Y-94957754D01*
X170446998Y-95101015D01*
X170432324Y-95250000D01*
X170436001Y-95287332D01*
X170436000Y-106619198D01*
X167893419Y-109161779D01*
X167901572Y-109079000D01*
X167898500Y-108489750D01*
X167739750Y-108331000D01*
X166678000Y-108331000D01*
X166678000Y-109555250D01*
X166836750Y-109714000D01*
X167263500Y-109717072D01*
X167346280Y-109708919D01*
X166360198Y-110695001D01*
X162593072Y-110695001D01*
X162593072Y-110680000D01*
X162583223Y-110580000D01*
X162593072Y-110480000D01*
X162593072Y-110030000D01*
X162582944Y-109927162D01*
X162590000Y-109861750D01*
X162557753Y-109829503D01*
X162544502Y-109785820D01*
X162485537Y-109675506D01*
X162427464Y-109604744D01*
X162480772Y-109541524D01*
X162514373Y-109480626D01*
X162620114Y-109567405D01*
X162773650Y-109649472D01*
X162940246Y-109700008D01*
X163113500Y-109717072D01*
X164038500Y-109717072D01*
X164211754Y-109700008D01*
X164378350Y-109649472D01*
X164531886Y-109567405D01*
X164666462Y-109456962D01*
X164776905Y-109322386D01*
X164858972Y-109168850D01*
X164886227Y-109079000D01*
X165200428Y-109079000D01*
X165212688Y-109203482D01*
X165248998Y-109323180D01*
X165307963Y-109433494D01*
X165387315Y-109530185D01*
X165484006Y-109609537D01*
X165594320Y-109668502D01*
X165714018Y-109704812D01*
X165838500Y-109717072D01*
X166265250Y-109714000D01*
X166424000Y-109555250D01*
X166424000Y-108331000D01*
X165362250Y-108331000D01*
X165203500Y-108489750D01*
X165200428Y-109079000D01*
X164886227Y-109079000D01*
X164909508Y-109002254D01*
X164926572Y-108829000D01*
X164926572Y-107579000D01*
X164909508Y-107405746D01*
X164858972Y-107239150D01*
X164776905Y-107085614D01*
X164666462Y-106951038D01*
X164645701Y-106934000D01*
X164666462Y-106916962D01*
X164776905Y-106782386D01*
X164858972Y-106628850D01*
X164886227Y-106539000D01*
X165200428Y-106539000D01*
X165212688Y-106663482D01*
X165248998Y-106783180D01*
X165307963Y-106893494D01*
X165341205Y-106934000D01*
X165307963Y-106974506D01*
X165248998Y-107084820D01*
X165212688Y-107204518D01*
X165200428Y-107329000D01*
X165203500Y-107918250D01*
X165362250Y-108077000D01*
X166424000Y-108077000D01*
X166424000Y-105791000D01*
X166678000Y-105791000D01*
X166678000Y-108077000D01*
X167739750Y-108077000D01*
X167898500Y-107918250D01*
X167901572Y-107329000D01*
X167889312Y-107204518D01*
X167853002Y-107084820D01*
X167794037Y-106974506D01*
X167760795Y-106934000D01*
X167794037Y-106893494D01*
X167853002Y-106783180D01*
X167889312Y-106663482D01*
X167901572Y-106539000D01*
X167898500Y-105949750D01*
X167739750Y-105791000D01*
X166678000Y-105791000D01*
X166424000Y-105791000D01*
X165362250Y-105791000D01*
X165203500Y-105949750D01*
X165200428Y-106539000D01*
X164886227Y-106539000D01*
X164909508Y-106462254D01*
X164926572Y-106289000D01*
X164926572Y-105039000D01*
X164909508Y-104865746D01*
X164886228Y-104789000D01*
X165200428Y-104789000D01*
X165203500Y-105378250D01*
X165362250Y-105537000D01*
X166424000Y-105537000D01*
X166424000Y-104312750D01*
X166678000Y-104312750D01*
X166678000Y-105537000D01*
X167739750Y-105537000D01*
X167898500Y-105378250D01*
X167901572Y-104789000D01*
X167889312Y-104664518D01*
X167853002Y-104544820D01*
X167794037Y-104434506D01*
X167714685Y-104337815D01*
X167617994Y-104258463D01*
X167507680Y-104199498D01*
X167387982Y-104163188D01*
X167263500Y-104150928D01*
X166836750Y-104154000D01*
X166678000Y-104312750D01*
X166424000Y-104312750D01*
X166265250Y-104154000D01*
X165838500Y-104150928D01*
X165714018Y-104163188D01*
X165594320Y-104199498D01*
X165484006Y-104258463D01*
X165387315Y-104337815D01*
X165307963Y-104434506D01*
X165248998Y-104544820D01*
X165212688Y-104664518D01*
X165200428Y-104789000D01*
X164886228Y-104789000D01*
X164858972Y-104699150D01*
X164776905Y-104545614D01*
X164716387Y-104471872D01*
X164773387Y-104441405D01*
X164907962Y-104330962D01*
X165018405Y-104196387D01*
X165100472Y-104042851D01*
X165151008Y-103876255D01*
X165168072Y-103703001D01*
X165168072Y-103052999D01*
X165151008Y-102879745D01*
X165100472Y-102713149D01*
X165018405Y-102559613D01*
X164907962Y-102425038D01*
X164820184Y-102353000D01*
X164907962Y-102280962D01*
X165018405Y-102146387D01*
X165100472Y-101992851D01*
X165151008Y-101826255D01*
X165168072Y-101653001D01*
X165168072Y-101002999D01*
X165151008Y-100829745D01*
X165100472Y-100663149D01*
X165018405Y-100509613D01*
X164907962Y-100375038D01*
X164773387Y-100264595D01*
X164619851Y-100182528D01*
X164453255Y-100131992D01*
X164280001Y-100114928D01*
X163379999Y-100114928D01*
X163206745Y-100131992D01*
X163136246Y-100153378D01*
X162379000Y-99396133D01*
X162379000Y-99111959D01*
X162634842Y-99217932D01*
X162921740Y-99275000D01*
X163214260Y-99275000D01*
X163501158Y-99217932D01*
X163771411Y-99105990D01*
X164014632Y-98943475D01*
X164221475Y-98736632D01*
X164383990Y-98493411D01*
X164495932Y-98223158D01*
X164553000Y-97936260D01*
X164553000Y-97643740D01*
X164495932Y-97356842D01*
X164383990Y-97086589D01*
X164221475Y-96843368D01*
X164014632Y-96636525D01*
X163840240Y-96520000D01*
X164014632Y-96403475D01*
X164221475Y-96196632D01*
X164383990Y-95953411D01*
X164495932Y-95683158D01*
X164553000Y-95396260D01*
X164553000Y-95103740D01*
X164495932Y-94816842D01*
X164383990Y-94546589D01*
X164221475Y-94303368D01*
X164089620Y-94171513D01*
X164162180Y-94149502D01*
X164272494Y-94090537D01*
X164369185Y-94011185D01*
X164448537Y-93914494D01*
X164507502Y-93804180D01*
X164543812Y-93684482D01*
X164556072Y-93560000D01*
X164556072Y-91860000D01*
X164543812Y-91735518D01*
X164507502Y-91615820D01*
X164448537Y-91505506D01*
X164369185Y-91408815D01*
X164272494Y-91329463D01*
X164162180Y-91270498D01*
X164042482Y-91234188D01*
X163918000Y-91221928D01*
X162218000Y-91221928D01*
X162093518Y-91234188D01*
X161973820Y-91270498D01*
X161863506Y-91329463D01*
X161766815Y-91408815D01*
X161687463Y-91505506D01*
X161628498Y-91615820D01*
X161592188Y-91735518D01*
X161579928Y-91860000D01*
X161579928Y-91909646D01*
X161496913Y-91934828D01*
X161351854Y-92012364D01*
X161224709Y-92116709D01*
X161198558Y-92148574D01*
X160982573Y-92364559D01*
X160950710Y-92390709D01*
X160924562Y-92422571D01*
X160846364Y-92517855D01*
X160768828Y-92662914D01*
X160721082Y-92820312D01*
X160704960Y-92984000D01*
X160709001Y-93025028D01*
X160709000Y-99700981D01*
X160704960Y-99742000D01*
X160709000Y-99783018D01*
X160721082Y-99905688D01*
X160768828Y-100063086D01*
X160846364Y-100208145D01*
X160950709Y-100335291D01*
X160982579Y-100361446D01*
X162371395Y-101750263D01*
X162309494Y-101699463D01*
X162199180Y-101640498D01*
X162079482Y-101604188D01*
X161955000Y-101591928D01*
X161242772Y-101591928D01*
X158322438Y-98671595D01*
X158414205Y-98534256D01*
X158492226Y-98345898D01*
X158532000Y-98145939D01*
X158532000Y-97942061D01*
X158492226Y-97742102D01*
X158414205Y-97553744D01*
X158300937Y-97384226D01*
X158156774Y-97240063D01*
X157987256Y-97126795D01*
X157798898Y-97048774D01*
X157598939Y-97009000D01*
X157395061Y-97009000D01*
X157195102Y-97048774D01*
X157006744Y-97126795D01*
X156972000Y-97150010D01*
X156937256Y-97126795D01*
X156748898Y-97048774D01*
X156548939Y-97009000D01*
X156345061Y-97009000D01*
X156145102Y-97048774D01*
X155956744Y-97126795D01*
X155787226Y-97240063D01*
X155643063Y-97384226D01*
X155529795Y-97553744D01*
X155451774Y-97742102D01*
X155412000Y-97942061D01*
X155412000Y-98145939D01*
X155451774Y-98345898D01*
X155529795Y-98534256D01*
X155643063Y-98703774D01*
X155787226Y-98847937D01*
X155956744Y-98961205D01*
X156047758Y-98998905D01*
X156064663Y-99054632D01*
X156132913Y-99182319D01*
X156224762Y-99294237D01*
X156252808Y-99317254D01*
X159170000Y-102234447D01*
X159169999Y-102883895D01*
X159166443Y-102920001D01*
X159179193Y-103049454D01*
X159180634Y-103064085D01*
X159222662Y-103202633D01*
X159290912Y-103330320D01*
X159297207Y-103337991D01*
X158751651Y-103883548D01*
X158722653Y-103907346D01*
X158698855Y-103936344D01*
X158698854Y-103936345D01*
X158627679Y-104023071D01*
X158557107Y-104155101D01*
X158536153Y-104224180D01*
X158513651Y-104298361D01*
X158513431Y-104300595D01*
X158498977Y-104447347D01*
X158502654Y-104484679D01*
X158502654Y-104701635D01*
X158458716Y-104745573D01*
X158345448Y-104915091D01*
X158267427Y-105103449D01*
X158227653Y-105303408D01*
X158227653Y-105507286D01*
X158267427Y-105707245D01*
X158345448Y-105895603D01*
X158356532Y-105912192D01*
X158340795Y-105935744D01*
X158262774Y-106124102D01*
X158223000Y-106324061D01*
X158223000Y-106527939D01*
X158262774Y-106727898D01*
X158331990Y-106895000D01*
X156288322Y-106895000D01*
X156250999Y-106891324D01*
X156213676Y-106895000D01*
X156213667Y-106895000D01*
X156102014Y-106905997D01*
X155958753Y-106949454D01*
X155826724Y-107020026D01*
X155710999Y-107114999D01*
X155687200Y-107143998D01*
X155662198Y-107169000D01*
X155600061Y-107169000D01*
X155400102Y-107208774D01*
X155356894Y-107226671D01*
X155344502Y-107185820D01*
X155285537Y-107075506D01*
X155227674Y-107005000D01*
X155285537Y-106934494D01*
X155344502Y-106824180D01*
X155357753Y-106780497D01*
X155390000Y-106748250D01*
X155382944Y-106682838D01*
X155393072Y-106580000D01*
X155393072Y-106130000D01*
X155383223Y-106030000D01*
X155393072Y-105930000D01*
X155393072Y-105480000D01*
X155383223Y-105380000D01*
X155393072Y-105280000D01*
X155393072Y-104830000D01*
X155383223Y-104730000D01*
X155393072Y-104630000D01*
X155393072Y-104180000D01*
X155383223Y-104080000D01*
X155393072Y-103980000D01*
X155393072Y-103530000D01*
X155383223Y-103430000D01*
X155393072Y-103330000D01*
X155393072Y-102880000D01*
X155383223Y-102780000D01*
X155393072Y-102680000D01*
X155393072Y-102230000D01*
X155380812Y-102105518D01*
X155344502Y-101985820D01*
X155285537Y-101875506D01*
X155206185Y-101778815D01*
X155109494Y-101699463D01*
X154999180Y-101640498D01*
X154879482Y-101604188D01*
X154755000Y-101591928D01*
X153005000Y-101591928D01*
X152880518Y-101604188D01*
X152760820Y-101640498D01*
X152650506Y-101699463D01*
X152553815Y-101778815D01*
X152474463Y-101875506D01*
X152415498Y-101985820D01*
X152379188Y-102105518D01*
X152366928Y-102230000D01*
X152366928Y-102680000D01*
X152376777Y-102780000D01*
X152366928Y-102880000D01*
X152366928Y-103330000D01*
X152376777Y-103430000D01*
X152366928Y-103530000D01*
X152366928Y-103980000D01*
X152376777Y-104080000D01*
X152366928Y-104180000D01*
X152366928Y-104630000D01*
X152376777Y-104730000D01*
X152366928Y-104830000D01*
X152366928Y-105280000D01*
X152376777Y-105380000D01*
X152366928Y-105480000D01*
X152366928Y-105930000D01*
X152376777Y-106030000D01*
X152366928Y-106130000D01*
X152366928Y-106580000D01*
X152377056Y-106682838D01*
X152370000Y-106748250D01*
X152402247Y-106780497D01*
X152415498Y-106824180D01*
X152474463Y-106934494D01*
X152532326Y-107005000D01*
X152474463Y-107075506D01*
X152415498Y-107185820D01*
X152402247Y-107229503D01*
X152370000Y-107261750D01*
X152377056Y-107327162D01*
X152366928Y-107430000D01*
X152366928Y-107650674D01*
X152330724Y-107670026D01*
X152214999Y-107764999D01*
X152191199Y-107793999D01*
X152168999Y-107816199D01*
X152139998Y-107840000D01*
X152089033Y-107902102D01*
X152045025Y-107955725D01*
X152036171Y-107972290D01*
X151974453Y-108087755D01*
X151930996Y-108231016D01*
X151919999Y-108342669D01*
X151919999Y-108342679D01*
X151916323Y-108380001D01*
X151919999Y-108417324D01*
X151920000Y-111352669D01*
X151916323Y-111390001D01*
X151920000Y-111427334D01*
X151930997Y-111538987D01*
X151943797Y-111581185D01*
X151974453Y-111682247D01*
X152045025Y-111814277D01*
X152098370Y-111879277D01*
X152139999Y-111930002D01*
X152168997Y-111953800D01*
X152331197Y-112116000D01*
X151155000Y-112116000D01*
X151155000Y-99921317D01*
X151309600Y-99968215D01*
X151480021Y-99985000D01*
X152443979Y-99985000D01*
X152614400Y-99968215D01*
X152833060Y-99901885D01*
X153034579Y-99794171D01*
X153211212Y-99649212D01*
X153356171Y-99472579D01*
X153463885Y-99271060D01*
X153530215Y-99052400D01*
X153552612Y-98825000D01*
X153530215Y-98597600D01*
X153463885Y-98378940D01*
X153356171Y-98177421D01*
X153211212Y-98000788D01*
X153034579Y-97855829D01*
X152833060Y-97748115D01*
X152614400Y-97681785D01*
X152443979Y-97665000D01*
X151480021Y-97665000D01*
X151309600Y-97681785D01*
X151155000Y-97728683D01*
X151155000Y-94400000D01*
X157007928Y-94400000D01*
X157007928Y-96100000D01*
X157020188Y-96224482D01*
X157056498Y-96344180D01*
X157115463Y-96454494D01*
X157194815Y-96551185D01*
X157291506Y-96630537D01*
X157401820Y-96689502D01*
X157521518Y-96725812D01*
X157646000Y-96738072D01*
X159346000Y-96738072D01*
X159470482Y-96725812D01*
X159590180Y-96689502D01*
X159700494Y-96630537D01*
X159797185Y-96551185D01*
X159876537Y-96454494D01*
X159935502Y-96344180D01*
X159971812Y-96224482D01*
X159984072Y-96100000D01*
X159984072Y-94400000D01*
X159971812Y-94275518D01*
X159935502Y-94155820D01*
X159876537Y-94045506D01*
X159797185Y-93948815D01*
X159700494Y-93869463D01*
X159590180Y-93810498D01*
X159517620Y-93788487D01*
X159649475Y-93656632D01*
X159811990Y-93413411D01*
X159923932Y-93143158D01*
X159981000Y-92856260D01*
X159981000Y-92563740D01*
X159923932Y-92276842D01*
X159811990Y-92006589D01*
X159649475Y-91763368D01*
X159442632Y-91556525D01*
X159199411Y-91394010D01*
X158929158Y-91282068D01*
X158642260Y-91225000D01*
X158349740Y-91225000D01*
X158062842Y-91282068D01*
X157792589Y-91394010D01*
X157549368Y-91556525D01*
X157342525Y-91763368D01*
X157180010Y-92006589D01*
X157068068Y-92276842D01*
X157011000Y-92563740D01*
X157011000Y-92856260D01*
X157068068Y-93143158D01*
X157180010Y-93413411D01*
X157342525Y-93656632D01*
X157474380Y-93788487D01*
X157401820Y-93810498D01*
X157291506Y-93869463D01*
X157194815Y-93948815D01*
X157115463Y-94045506D01*
X157056498Y-94155820D01*
X157020188Y-94275518D01*
X157007928Y-94400000D01*
X151155000Y-94400000D01*
X151155000Y-92771317D01*
X151309600Y-92818215D01*
X151480021Y-92835000D01*
X152443979Y-92835000D01*
X152614400Y-92818215D01*
X152833060Y-92751885D01*
X153034579Y-92644171D01*
X153211212Y-92499212D01*
X153356171Y-92322579D01*
X153463885Y-92121060D01*
X153530215Y-91902400D01*
X153552612Y-91675000D01*
X153530215Y-91447600D01*
X153463885Y-91228940D01*
X153356171Y-91027421D01*
X153211212Y-90850788D01*
X153034579Y-90705829D01*
X152833060Y-90598115D01*
X152614400Y-90531785D01*
X152443979Y-90515000D01*
X151480021Y-90515000D01*
X151309600Y-90531785D01*
X151155000Y-90578683D01*
X151155000Y-88290000D01*
X173965001Y-88290000D01*
X173965001Y-89822894D01*
G36*
X173101000Y-95885000D02*
G01*
X173121000Y-95885000D01*
X173121000Y-96139000D01*
X173101000Y-96139000D01*
X173101000Y-96159000D01*
X172847000Y-96159000D01*
X172847000Y-96139000D01*
X172827000Y-96139000D01*
X172827000Y-95885000D01*
X172847000Y-95885000D01*
X172847000Y-95865000D01*
X173101000Y-95865000D01*
X173101000Y-95885000D01*
G37*
X173101000Y-95885000D02*
X173121000Y-95885000D01*
X173121000Y-96139000D01*
X173101000Y-96139000D01*
X173101000Y-96159000D01*
X172847000Y-96159000D01*
X172847000Y-96139000D01*
X172827000Y-96139000D01*
X172827000Y-95885000D01*
X172847000Y-95885000D01*
X172847000Y-95865000D01*
X173101000Y-95865000D01*
X173101000Y-95885000D01*
M02*
