G04 #@! TF.GenerationSoftware,KiCad,Pcbnew,5.1.5-52549c5~84~ubuntu18.04.1*
G04 #@! TF.CreationDate,2020-01-13T13:08:31-08:00*
G04 #@! TF.ProjectId,Extention Boards,45787465-6e74-4696-9f6e-20426f617264,rev?*
G04 #@! TF.SameCoordinates,Original*
G04 #@! TF.FileFunction,Soldermask,Top*
G04 #@! TF.FilePolarity,Negative*
%FSLAX46Y46*%
G04 Gerber Fmt 4.6, Leading zero omitted, Abs format (unit mm)*
G04 Created by KiCad (PCBNEW 5.1.5-52549c5~84~ubuntu18.04.1) date 2020-01-13 13:08:31*
%MOMM*%
%LPD*%
G04 APERTURE LIST*
%ADD10C,0.100000*%
G04 APERTURE END LIST*
D10*
G36*
X92297617Y-172286420D02*
G01*
X92377242Y-172310574D01*
X92420335Y-172323646D01*
X92533424Y-172384094D01*
X92632554Y-172465447D01*
X92713906Y-172564575D01*
X92774354Y-172677664D01*
X92784040Y-172709596D01*
X92811580Y-172800382D01*
X92811580Y-172800384D01*
X92820763Y-172893615D01*
X92821000Y-172896027D01*
X92821000Y-173559973D01*
X92811580Y-173655618D01*
X92787028Y-173736554D01*
X92774354Y-173778336D01*
X92713906Y-173891425D01*
X92632554Y-173990554D01*
X92533425Y-174071906D01*
X92420336Y-174132354D01*
X92388404Y-174142040D01*
X92297618Y-174169580D01*
X92170000Y-174182149D01*
X92042383Y-174169580D01*
X91951597Y-174142040D01*
X91919665Y-174132354D01*
X91806576Y-174071906D01*
X91707447Y-173990554D01*
X91626096Y-173891427D01*
X91565645Y-173778333D01*
X91543906Y-173706669D01*
X91528420Y-173655618D01*
X91519000Y-173559973D01*
X91519000Y-172896028D01*
X91519238Y-172893616D01*
X91528420Y-172800385D01*
X91528420Y-172800383D01*
X91565645Y-172677669D01*
X91565646Y-172677665D01*
X91626094Y-172564576D01*
X91707447Y-172465446D01*
X91806575Y-172384094D01*
X91919664Y-172323646D01*
X91962757Y-172310574D01*
X92042382Y-172286420D01*
X92170000Y-172273851D01*
X92297617Y-172286420D01*
G37*
G36*
X82899617Y-172286420D02*
G01*
X82979242Y-172310574D01*
X83022335Y-172323646D01*
X83135424Y-172384094D01*
X83234554Y-172465447D01*
X83315906Y-172564575D01*
X83376354Y-172677664D01*
X83386040Y-172709596D01*
X83413580Y-172800382D01*
X83413580Y-172800384D01*
X83422763Y-172893615D01*
X83423000Y-172896027D01*
X83423000Y-173559973D01*
X83413580Y-173655618D01*
X83389028Y-173736554D01*
X83376354Y-173778336D01*
X83315906Y-173891425D01*
X83234554Y-173990554D01*
X83135425Y-174071906D01*
X83022336Y-174132354D01*
X82990404Y-174142040D01*
X82899618Y-174169580D01*
X82772000Y-174182149D01*
X82644383Y-174169580D01*
X82553597Y-174142040D01*
X82521665Y-174132354D01*
X82408576Y-174071906D01*
X82309447Y-173990554D01*
X82228096Y-173891427D01*
X82167645Y-173778333D01*
X82145906Y-173706669D01*
X82130420Y-173655618D01*
X82121000Y-173559973D01*
X82121000Y-172896028D01*
X82121238Y-172893616D01*
X82130420Y-172800385D01*
X82130420Y-172800383D01*
X82167645Y-172677669D01*
X82167646Y-172677665D01*
X82228094Y-172564576D01*
X82309447Y-172465446D01*
X82408575Y-172384094D01*
X82521664Y-172323646D01*
X82564757Y-172310574D01*
X82644382Y-172286420D01*
X82772000Y-172273851D01*
X82899617Y-172286420D01*
G37*
G36*
X80899617Y-172286420D02*
G01*
X80979242Y-172310574D01*
X81022335Y-172323646D01*
X81135424Y-172384094D01*
X81234554Y-172465447D01*
X81315906Y-172564575D01*
X81376354Y-172677664D01*
X81386040Y-172709596D01*
X81413580Y-172800382D01*
X81413580Y-172800384D01*
X81422763Y-172893615D01*
X81423000Y-172896027D01*
X81423000Y-173559973D01*
X81413580Y-173655618D01*
X81389028Y-173736554D01*
X81376354Y-173778336D01*
X81315906Y-173891425D01*
X81234554Y-173990554D01*
X81135425Y-174071906D01*
X81022336Y-174132354D01*
X80990404Y-174142040D01*
X80899618Y-174169580D01*
X80772000Y-174182149D01*
X80644383Y-174169580D01*
X80553597Y-174142040D01*
X80521665Y-174132354D01*
X80408576Y-174071906D01*
X80309447Y-173990554D01*
X80228096Y-173891427D01*
X80167645Y-173778333D01*
X80145906Y-173706669D01*
X80130420Y-173655618D01*
X80121000Y-173559973D01*
X80121000Y-172896028D01*
X80121238Y-172893616D01*
X80130420Y-172800385D01*
X80130420Y-172800383D01*
X80167645Y-172677669D01*
X80167646Y-172677665D01*
X80228094Y-172564576D01*
X80309447Y-172465446D01*
X80408575Y-172384094D01*
X80521664Y-172323646D01*
X80564757Y-172310574D01*
X80644382Y-172286420D01*
X80772000Y-172273851D01*
X80899617Y-172286420D01*
G37*
G36*
X94297617Y-172286420D02*
G01*
X94377242Y-172310574D01*
X94420335Y-172323646D01*
X94533424Y-172384094D01*
X94632554Y-172465447D01*
X94713906Y-172564575D01*
X94774354Y-172677664D01*
X94784040Y-172709596D01*
X94811580Y-172800382D01*
X94811580Y-172800384D01*
X94820763Y-172893615D01*
X94821000Y-172896027D01*
X94821000Y-173559973D01*
X94811580Y-173655618D01*
X94787028Y-173736554D01*
X94774354Y-173778336D01*
X94713906Y-173891425D01*
X94632554Y-173990554D01*
X94533425Y-174071906D01*
X94420336Y-174132354D01*
X94388404Y-174142040D01*
X94297618Y-174169580D01*
X94170000Y-174182149D01*
X94042383Y-174169580D01*
X93951597Y-174142040D01*
X93919665Y-174132354D01*
X93806576Y-174071906D01*
X93707447Y-173990554D01*
X93626096Y-173891427D01*
X93565645Y-173778333D01*
X93543906Y-173706669D01*
X93528420Y-173655618D01*
X93519000Y-173559973D01*
X93519000Y-172896028D01*
X93519238Y-172893616D01*
X93528420Y-172800385D01*
X93528420Y-172800383D01*
X93565645Y-172677669D01*
X93565646Y-172677665D01*
X93626094Y-172564576D01*
X93707447Y-172465446D01*
X93806575Y-172384094D01*
X93919664Y-172323646D01*
X93962757Y-172310574D01*
X94042382Y-172286420D01*
X94170000Y-172273851D01*
X94297617Y-172286420D01*
G37*
G36*
X103727617Y-172286420D02*
G01*
X103807242Y-172310574D01*
X103850335Y-172323646D01*
X103963424Y-172384094D01*
X104062554Y-172465447D01*
X104143906Y-172564575D01*
X104204354Y-172677664D01*
X104214040Y-172709596D01*
X104241580Y-172800382D01*
X104241580Y-172800384D01*
X104250763Y-172893615D01*
X104251000Y-172896027D01*
X104251000Y-173559973D01*
X104241580Y-173655618D01*
X104217028Y-173736554D01*
X104204354Y-173778336D01*
X104143906Y-173891425D01*
X104062554Y-173990554D01*
X103963425Y-174071906D01*
X103850336Y-174132354D01*
X103818404Y-174142040D01*
X103727618Y-174169580D01*
X103600000Y-174182149D01*
X103472383Y-174169580D01*
X103381597Y-174142040D01*
X103349665Y-174132354D01*
X103236576Y-174071906D01*
X103137447Y-173990554D01*
X103056096Y-173891427D01*
X102995645Y-173778333D01*
X102973906Y-173706669D01*
X102958420Y-173655618D01*
X102949000Y-173559973D01*
X102949000Y-172896028D01*
X102949238Y-172893616D01*
X102958420Y-172800385D01*
X102958420Y-172800383D01*
X102995645Y-172677669D01*
X102995646Y-172677665D01*
X103056094Y-172564576D01*
X103137447Y-172465446D01*
X103236575Y-172384094D01*
X103349664Y-172323646D01*
X103392757Y-172310574D01*
X103472382Y-172286420D01*
X103600000Y-172273851D01*
X103727617Y-172286420D01*
G37*
G36*
X79263242Y-172281404D02*
G01*
X79300337Y-172292657D01*
X79334515Y-172310925D01*
X79364481Y-172335519D01*
X79389075Y-172365485D01*
X79407343Y-172399663D01*
X79418596Y-172436758D01*
X79423000Y-172481474D01*
X79423000Y-173974526D01*
X79418596Y-174019242D01*
X79407343Y-174056337D01*
X79389075Y-174090515D01*
X79364481Y-174120481D01*
X79334515Y-174145075D01*
X79300337Y-174163343D01*
X79263242Y-174174596D01*
X79218526Y-174179000D01*
X78325474Y-174179000D01*
X78280758Y-174174596D01*
X78243663Y-174163343D01*
X78209485Y-174145075D01*
X78179519Y-174120481D01*
X78154925Y-174090515D01*
X78136657Y-174056337D01*
X78125404Y-174019242D01*
X78121000Y-173974526D01*
X78121000Y-172481474D01*
X78125404Y-172436758D01*
X78136657Y-172399663D01*
X78154925Y-172365485D01*
X78179519Y-172335519D01*
X78209485Y-172310925D01*
X78243663Y-172292657D01*
X78280758Y-172281404D01*
X78325474Y-172277000D01*
X79218526Y-172277000D01*
X79263242Y-172281404D01*
G37*
G36*
X90661242Y-172281404D02*
G01*
X90698337Y-172292657D01*
X90732515Y-172310925D01*
X90762481Y-172335519D01*
X90787075Y-172365485D01*
X90805343Y-172399663D01*
X90816596Y-172436758D01*
X90821000Y-172481474D01*
X90821000Y-173974526D01*
X90816596Y-174019242D01*
X90805343Y-174056337D01*
X90787075Y-174090515D01*
X90762481Y-174120481D01*
X90732515Y-174145075D01*
X90698337Y-174163343D01*
X90661242Y-174174596D01*
X90616526Y-174179000D01*
X89723474Y-174179000D01*
X89678758Y-174174596D01*
X89641663Y-174163343D01*
X89607485Y-174145075D01*
X89577519Y-174120481D01*
X89552925Y-174090515D01*
X89534657Y-174056337D01*
X89523404Y-174019242D01*
X89519000Y-173974526D01*
X89519000Y-172481474D01*
X89523404Y-172436758D01*
X89534657Y-172399663D01*
X89552925Y-172365485D01*
X89577519Y-172335519D01*
X89607485Y-172310925D01*
X89641663Y-172292657D01*
X89678758Y-172281404D01*
X89723474Y-172277000D01*
X90616526Y-172277000D01*
X90661242Y-172281404D01*
G37*
G36*
X102091242Y-172281404D02*
G01*
X102128337Y-172292657D01*
X102162515Y-172310925D01*
X102192481Y-172335519D01*
X102217075Y-172365485D01*
X102235343Y-172399663D01*
X102246596Y-172436758D01*
X102251000Y-172481474D01*
X102251000Y-173974526D01*
X102246596Y-174019242D01*
X102235343Y-174056337D01*
X102217075Y-174090515D01*
X102192481Y-174120481D01*
X102162515Y-174145075D01*
X102128337Y-174163343D01*
X102091242Y-174174596D01*
X102046526Y-174179000D01*
X101153474Y-174179000D01*
X101108758Y-174174596D01*
X101071663Y-174163343D01*
X101037485Y-174145075D01*
X101007519Y-174120481D01*
X100982925Y-174090515D01*
X100964657Y-174056337D01*
X100953404Y-174019242D01*
X100949000Y-173974526D01*
X100949000Y-172481474D01*
X100953404Y-172436758D01*
X100964657Y-172399663D01*
X100982925Y-172365485D01*
X101007519Y-172335519D01*
X101037485Y-172310925D01*
X101071663Y-172292657D01*
X101108758Y-172281404D01*
X101153474Y-172277000D01*
X102046526Y-172277000D01*
X102091242Y-172281404D01*
G37*
G36*
X60007617Y-172032420D02*
G01*
X60088399Y-172056925D01*
X60130335Y-172069646D01*
X60243424Y-172130094D01*
X60342554Y-172211447D01*
X60423906Y-172310575D01*
X60484354Y-172423664D01*
X60488326Y-172436758D01*
X60521580Y-172546382D01*
X60531000Y-172642027D01*
X60531000Y-173305973D01*
X60521580Y-173401618D01*
X60494040Y-173492404D01*
X60484354Y-173524336D01*
X60423906Y-173637425D01*
X60342554Y-173736554D01*
X60243425Y-173817906D01*
X60130336Y-173878354D01*
X60098404Y-173888040D01*
X60007618Y-173915580D01*
X59880000Y-173928149D01*
X59752383Y-173915580D01*
X59661597Y-173888040D01*
X59629665Y-173878354D01*
X59516576Y-173817906D01*
X59417447Y-173736554D01*
X59336096Y-173637427D01*
X59275645Y-173524333D01*
X59263237Y-173483427D01*
X59238420Y-173401618D01*
X59229000Y-173305973D01*
X59229000Y-172642028D01*
X59238420Y-172546383D01*
X59275645Y-172423669D01*
X59275646Y-172423665D01*
X59336094Y-172310576D01*
X59417447Y-172211446D01*
X59516575Y-172130094D01*
X59629664Y-172069646D01*
X59671600Y-172056925D01*
X59752382Y-172032420D01*
X59880000Y-172019851D01*
X60007617Y-172032420D01*
G37*
G36*
X58007617Y-172032420D02*
G01*
X58088399Y-172056925D01*
X58130335Y-172069646D01*
X58243424Y-172130094D01*
X58342554Y-172211447D01*
X58423906Y-172310575D01*
X58484354Y-172423664D01*
X58488326Y-172436758D01*
X58521580Y-172546382D01*
X58531000Y-172642027D01*
X58531000Y-173305973D01*
X58521580Y-173401618D01*
X58494040Y-173492404D01*
X58484354Y-173524336D01*
X58423906Y-173637425D01*
X58342554Y-173736554D01*
X58243425Y-173817906D01*
X58130336Y-173878354D01*
X58098404Y-173888040D01*
X58007618Y-173915580D01*
X57880000Y-173928149D01*
X57752383Y-173915580D01*
X57661597Y-173888040D01*
X57629665Y-173878354D01*
X57516576Y-173817906D01*
X57417447Y-173736554D01*
X57336096Y-173637427D01*
X57275645Y-173524333D01*
X57263237Y-173483427D01*
X57238420Y-173401618D01*
X57229000Y-173305973D01*
X57229000Y-172642028D01*
X57238420Y-172546383D01*
X57275645Y-172423669D01*
X57275646Y-172423665D01*
X57336094Y-172310576D01*
X57417447Y-172211446D01*
X57516575Y-172130094D01*
X57629664Y-172069646D01*
X57671600Y-172056925D01*
X57752382Y-172032420D01*
X57880000Y-172019851D01*
X58007617Y-172032420D01*
G37*
G36*
X56371242Y-172027404D02*
G01*
X56408337Y-172038657D01*
X56442515Y-172056925D01*
X56472481Y-172081519D01*
X56497075Y-172111485D01*
X56515343Y-172145663D01*
X56526596Y-172182758D01*
X56531000Y-172227474D01*
X56531000Y-173720526D01*
X56526596Y-173765242D01*
X56515343Y-173802337D01*
X56497075Y-173836515D01*
X56472481Y-173866481D01*
X56442515Y-173891075D01*
X56408337Y-173909343D01*
X56371242Y-173920596D01*
X56326526Y-173925000D01*
X55433474Y-173925000D01*
X55388758Y-173920596D01*
X55351663Y-173909343D01*
X55317485Y-173891075D01*
X55287519Y-173866481D01*
X55262925Y-173836515D01*
X55244657Y-173802337D01*
X55233404Y-173765242D01*
X55229000Y-173720526D01*
X55229000Y-172227474D01*
X55233404Y-172182758D01*
X55244657Y-172145663D01*
X55262925Y-172111485D01*
X55287519Y-172081519D01*
X55317485Y-172056925D01*
X55351663Y-172038657D01*
X55388758Y-172027404D01*
X55433474Y-172023000D01*
X56326526Y-172023000D01*
X56371242Y-172027404D01*
G37*
G36*
X69501618Y-171524420D02*
G01*
X69582400Y-171548925D01*
X69624336Y-171561646D01*
X69737425Y-171622094D01*
X69836554Y-171703446D01*
X69917906Y-171802575D01*
X69978354Y-171915664D01*
X69978355Y-171915668D01*
X70015580Y-172038382D01*
X70021860Y-172102145D01*
X70025000Y-172134026D01*
X70025000Y-172797974D01*
X70021860Y-172829855D01*
X70015580Y-172893618D01*
X69988040Y-172984404D01*
X69978354Y-173016336D01*
X69917906Y-173129425D01*
X69836554Y-173228553D01*
X69737424Y-173309906D01*
X69624335Y-173370354D01*
X69592403Y-173380040D01*
X69501617Y-173407580D01*
X69374000Y-173420149D01*
X69246382Y-173407580D01*
X69155596Y-173380040D01*
X69123664Y-173370354D01*
X69010575Y-173309906D01*
X68911447Y-173228554D01*
X68830094Y-173129424D01*
X68769646Y-173016335D01*
X68759960Y-172984403D01*
X68732420Y-172893617D01*
X68723238Y-172800385D01*
X68723000Y-172797973D01*
X68723000Y-172134026D01*
X68726140Y-172102145D01*
X68732420Y-172038382D01*
X68769645Y-171915668D01*
X68769645Y-171915667D01*
X68830096Y-171802573D01*
X68911447Y-171703446D01*
X69010576Y-171622094D01*
X69123665Y-171561646D01*
X69165601Y-171548925D01*
X69246383Y-171524420D01*
X69374000Y-171511851D01*
X69501618Y-171524420D01*
G37*
G36*
X67501618Y-171524420D02*
G01*
X67582400Y-171548925D01*
X67624336Y-171561646D01*
X67737425Y-171622094D01*
X67836554Y-171703446D01*
X67917906Y-171802575D01*
X67978354Y-171915664D01*
X67978355Y-171915668D01*
X68015580Y-172038382D01*
X68021860Y-172102145D01*
X68025000Y-172134026D01*
X68025000Y-172797974D01*
X68021860Y-172829855D01*
X68015580Y-172893618D01*
X67988040Y-172984404D01*
X67978354Y-173016336D01*
X67917906Y-173129425D01*
X67836554Y-173228553D01*
X67737424Y-173309906D01*
X67624335Y-173370354D01*
X67592403Y-173380040D01*
X67501617Y-173407580D01*
X67374000Y-173420149D01*
X67246382Y-173407580D01*
X67155596Y-173380040D01*
X67123664Y-173370354D01*
X67010575Y-173309906D01*
X66911447Y-173228554D01*
X66830094Y-173129424D01*
X66769646Y-173016335D01*
X66759960Y-172984403D01*
X66732420Y-172893617D01*
X66723238Y-172800385D01*
X66723000Y-172797973D01*
X66723000Y-172134026D01*
X66726140Y-172102145D01*
X66732420Y-172038382D01*
X66769645Y-171915668D01*
X66769645Y-171915667D01*
X66830096Y-171802573D01*
X66911447Y-171703446D01*
X67010576Y-171622094D01*
X67123665Y-171561646D01*
X67165601Y-171548925D01*
X67246383Y-171524420D01*
X67374000Y-171511851D01*
X67501618Y-171524420D01*
G37*
G36*
X71865242Y-171519404D02*
G01*
X71902337Y-171530657D01*
X71936515Y-171548925D01*
X71966481Y-171573519D01*
X71991075Y-171603485D01*
X72009343Y-171637663D01*
X72020596Y-171674758D01*
X72025000Y-171719474D01*
X72025000Y-173212526D01*
X72020596Y-173257242D01*
X72009343Y-173294337D01*
X71991075Y-173328515D01*
X71966481Y-173358481D01*
X71936515Y-173383075D01*
X71902337Y-173401343D01*
X71865242Y-173412596D01*
X71820526Y-173417000D01*
X70927474Y-173417000D01*
X70882758Y-173412596D01*
X70845663Y-173401343D01*
X70811485Y-173383075D01*
X70781519Y-173358481D01*
X70756925Y-173328515D01*
X70738657Y-173294337D01*
X70727404Y-173257242D01*
X70723000Y-173212526D01*
X70723000Y-171719474D01*
X70727404Y-171674758D01*
X70738657Y-171637663D01*
X70756925Y-171603485D01*
X70781519Y-171573519D01*
X70811485Y-171548925D01*
X70845663Y-171530657D01*
X70882758Y-171519404D01*
X70927474Y-171515000D01*
X71820526Y-171515000D01*
X71865242Y-171519404D01*
G37*
G36*
X60325617Y-163005421D02*
G01*
X60406399Y-163029926D01*
X60448335Y-163042647D01*
X60561424Y-163103095D01*
X60660554Y-163184448D01*
X60741906Y-163283576D01*
X60802354Y-163396665D01*
X60804089Y-163402384D01*
X60839580Y-163519383D01*
X60849000Y-163615028D01*
X60849000Y-164278974D01*
X60839580Y-164374619D01*
X60812040Y-164465405D01*
X60802354Y-164497337D01*
X60741906Y-164610426D01*
X60660554Y-164709555D01*
X60561425Y-164790907D01*
X60448336Y-164851355D01*
X60416404Y-164861041D01*
X60325618Y-164888581D01*
X60198000Y-164901150D01*
X60070383Y-164888581D01*
X59979597Y-164861041D01*
X59947665Y-164851355D01*
X59834576Y-164790907D01*
X59735447Y-164709555D01*
X59654096Y-164610428D01*
X59593645Y-164497334D01*
X59581237Y-164456428D01*
X59556420Y-164374619D01*
X59547000Y-164278974D01*
X59547000Y-163615029D01*
X59556420Y-163519384D01*
X59591911Y-163402385D01*
X59593646Y-163396666D01*
X59654094Y-163283577D01*
X59735447Y-163184447D01*
X59834575Y-163103095D01*
X59947664Y-163042647D01*
X59989600Y-163029926D01*
X60070382Y-163005421D01*
X60198000Y-162992852D01*
X60325617Y-163005421D01*
G37*
G36*
X58325617Y-163005421D02*
G01*
X58406399Y-163029926D01*
X58448335Y-163042647D01*
X58561424Y-163103095D01*
X58660554Y-163184448D01*
X58741906Y-163283576D01*
X58802354Y-163396665D01*
X58804089Y-163402384D01*
X58839580Y-163519383D01*
X58849000Y-163615028D01*
X58849000Y-164278974D01*
X58839580Y-164374619D01*
X58812040Y-164465405D01*
X58802354Y-164497337D01*
X58741906Y-164610426D01*
X58660554Y-164709555D01*
X58561425Y-164790907D01*
X58448336Y-164851355D01*
X58416404Y-164861041D01*
X58325618Y-164888581D01*
X58198000Y-164901150D01*
X58070383Y-164888581D01*
X57979597Y-164861041D01*
X57947665Y-164851355D01*
X57834576Y-164790907D01*
X57735447Y-164709555D01*
X57654096Y-164610428D01*
X57593645Y-164497334D01*
X57581237Y-164456428D01*
X57556420Y-164374619D01*
X57547000Y-164278974D01*
X57547000Y-163615029D01*
X57556420Y-163519384D01*
X57591911Y-163402385D01*
X57593646Y-163396666D01*
X57654094Y-163283577D01*
X57735447Y-163184447D01*
X57834575Y-163103095D01*
X57947664Y-163042647D01*
X57989600Y-163029926D01*
X58070382Y-163005421D01*
X58198000Y-162992852D01*
X58325617Y-163005421D01*
G37*
G36*
X71691617Y-163005421D02*
G01*
X71772399Y-163029926D01*
X71814335Y-163042647D01*
X71927424Y-163103095D01*
X72026554Y-163184448D01*
X72107906Y-163283576D01*
X72168354Y-163396665D01*
X72170089Y-163402384D01*
X72205580Y-163519383D01*
X72215000Y-163615028D01*
X72215000Y-164278974D01*
X72205580Y-164374619D01*
X72178040Y-164465405D01*
X72168354Y-164497337D01*
X72107906Y-164610426D01*
X72026554Y-164709555D01*
X71927425Y-164790907D01*
X71814336Y-164851355D01*
X71782404Y-164861041D01*
X71691618Y-164888581D01*
X71564000Y-164901150D01*
X71436383Y-164888581D01*
X71345597Y-164861041D01*
X71313665Y-164851355D01*
X71200576Y-164790907D01*
X71101447Y-164709555D01*
X71020096Y-164610428D01*
X70959645Y-164497334D01*
X70947237Y-164456428D01*
X70922420Y-164374619D01*
X70913000Y-164278974D01*
X70913000Y-163615029D01*
X70922420Y-163519384D01*
X70957911Y-163402385D01*
X70959646Y-163396666D01*
X71020094Y-163283577D01*
X71101447Y-163184447D01*
X71200575Y-163103095D01*
X71313664Y-163042647D01*
X71355600Y-163029926D01*
X71436382Y-163005421D01*
X71564000Y-162992852D01*
X71691617Y-163005421D01*
G37*
G36*
X69691617Y-163005421D02*
G01*
X69772399Y-163029926D01*
X69814335Y-163042647D01*
X69927424Y-163103095D01*
X70026554Y-163184448D01*
X70107906Y-163283576D01*
X70168354Y-163396665D01*
X70170089Y-163402384D01*
X70205580Y-163519383D01*
X70215000Y-163615028D01*
X70215000Y-164278974D01*
X70205580Y-164374619D01*
X70178040Y-164465405D01*
X70168354Y-164497337D01*
X70107906Y-164610426D01*
X70026554Y-164709555D01*
X69927425Y-164790907D01*
X69814336Y-164851355D01*
X69782404Y-164861041D01*
X69691618Y-164888581D01*
X69564000Y-164901150D01*
X69436383Y-164888581D01*
X69345597Y-164861041D01*
X69313665Y-164851355D01*
X69200576Y-164790907D01*
X69101447Y-164709555D01*
X69020096Y-164610428D01*
X68959645Y-164497334D01*
X68947237Y-164456428D01*
X68922420Y-164374619D01*
X68913000Y-164278974D01*
X68913000Y-163615029D01*
X68922420Y-163519384D01*
X68957911Y-163402385D01*
X68959646Y-163396666D01*
X69020094Y-163283577D01*
X69101447Y-163184447D01*
X69200575Y-163103095D01*
X69313664Y-163042647D01*
X69355600Y-163029926D01*
X69436382Y-163005421D01*
X69564000Y-162992852D01*
X69691617Y-163005421D01*
G37*
G36*
X68055242Y-163000405D02*
G01*
X68092337Y-163011658D01*
X68126515Y-163029926D01*
X68156481Y-163054520D01*
X68181075Y-163084486D01*
X68199343Y-163118664D01*
X68210596Y-163155759D01*
X68215000Y-163200475D01*
X68215000Y-164693527D01*
X68210596Y-164738243D01*
X68199343Y-164775338D01*
X68181075Y-164809516D01*
X68156481Y-164839482D01*
X68126515Y-164864076D01*
X68092337Y-164882344D01*
X68055242Y-164893597D01*
X68010526Y-164898001D01*
X67117474Y-164898001D01*
X67072758Y-164893597D01*
X67035663Y-164882344D01*
X67001485Y-164864076D01*
X66971519Y-164839482D01*
X66946925Y-164809516D01*
X66928657Y-164775338D01*
X66917404Y-164738243D01*
X66913000Y-164693527D01*
X66913000Y-163200475D01*
X66917404Y-163155759D01*
X66928657Y-163118664D01*
X66946925Y-163084486D01*
X66971519Y-163054520D01*
X67001485Y-163029926D01*
X67035663Y-163011658D01*
X67072758Y-163000405D01*
X67117474Y-162996001D01*
X68010526Y-162996001D01*
X68055242Y-163000405D01*
G37*
G36*
X56689242Y-163000405D02*
G01*
X56726337Y-163011658D01*
X56760515Y-163029926D01*
X56790481Y-163054520D01*
X56815075Y-163084486D01*
X56833343Y-163118664D01*
X56844596Y-163155759D01*
X56849000Y-163200475D01*
X56849000Y-164693527D01*
X56844596Y-164738243D01*
X56833343Y-164775338D01*
X56815075Y-164809516D01*
X56790481Y-164839482D01*
X56760515Y-164864076D01*
X56726337Y-164882344D01*
X56689242Y-164893597D01*
X56644526Y-164898001D01*
X55751474Y-164898001D01*
X55706758Y-164893597D01*
X55669663Y-164882344D01*
X55635485Y-164864076D01*
X55605519Y-164839482D01*
X55580925Y-164809516D01*
X55562657Y-164775338D01*
X55551404Y-164738243D01*
X55547000Y-164693527D01*
X55547000Y-163200475D01*
X55551404Y-163155759D01*
X55562657Y-163118664D01*
X55580925Y-163084486D01*
X55605519Y-163054520D01*
X55635485Y-163029926D01*
X55669663Y-163011658D01*
X55706758Y-163000405D01*
X55751474Y-162996001D01*
X56644526Y-162996001D01*
X56689242Y-163000405D01*
G37*
G36*
X80931617Y-162888420D02*
G01*
X81012399Y-162912925D01*
X81054335Y-162925646D01*
X81167424Y-162986094D01*
X81266554Y-163067447D01*
X81347906Y-163166575D01*
X81408354Y-163279664D01*
X81409541Y-163283577D01*
X81445580Y-163402382D01*
X81455000Y-163498027D01*
X81455000Y-164161973D01*
X81445580Y-164257618D01*
X81439101Y-164278975D01*
X81408354Y-164380336D01*
X81347906Y-164493425D01*
X81266554Y-164592554D01*
X81167425Y-164673906D01*
X81054336Y-164734354D01*
X81041515Y-164738243D01*
X80931618Y-164771580D01*
X80804000Y-164784149D01*
X80676383Y-164771580D01*
X80566486Y-164738243D01*
X80553665Y-164734354D01*
X80440576Y-164673906D01*
X80341447Y-164592554D01*
X80260096Y-164493427D01*
X80199645Y-164380333D01*
X80168899Y-164278975D01*
X80162420Y-164257618D01*
X80153000Y-164161973D01*
X80153000Y-163498028D01*
X80162420Y-163402383D01*
X80189960Y-163311597D01*
X80199646Y-163279665D01*
X80260094Y-163166576D01*
X80341447Y-163067446D01*
X80440575Y-162986094D01*
X80553664Y-162925646D01*
X80595600Y-162912925D01*
X80676382Y-162888420D01*
X80804000Y-162875851D01*
X80931617Y-162888420D01*
G37*
G36*
X82931617Y-162888420D02*
G01*
X83012399Y-162912925D01*
X83054335Y-162925646D01*
X83167424Y-162986094D01*
X83266554Y-163067447D01*
X83347906Y-163166575D01*
X83408354Y-163279664D01*
X83409541Y-163283577D01*
X83445580Y-163402382D01*
X83455000Y-163498027D01*
X83455000Y-164161973D01*
X83445580Y-164257618D01*
X83439101Y-164278975D01*
X83408354Y-164380336D01*
X83347906Y-164493425D01*
X83266554Y-164592554D01*
X83167425Y-164673906D01*
X83054336Y-164734354D01*
X83041515Y-164738243D01*
X82931618Y-164771580D01*
X82804000Y-164784149D01*
X82676383Y-164771580D01*
X82566486Y-164738243D01*
X82553665Y-164734354D01*
X82440576Y-164673906D01*
X82341447Y-164592554D01*
X82260096Y-164493427D01*
X82199645Y-164380333D01*
X82168899Y-164278975D01*
X82162420Y-164257618D01*
X82153000Y-164161973D01*
X82153000Y-163498028D01*
X82162420Y-163402383D01*
X82189960Y-163311597D01*
X82199646Y-163279665D01*
X82260094Y-163166576D01*
X82341447Y-163067446D01*
X82440575Y-162986094D01*
X82553664Y-162925646D01*
X82595600Y-162912925D01*
X82676382Y-162888420D01*
X82804000Y-162875851D01*
X82931617Y-162888420D01*
G37*
G36*
X92297617Y-162888420D02*
G01*
X92378399Y-162912925D01*
X92420335Y-162925646D01*
X92533424Y-162986094D01*
X92632554Y-163067447D01*
X92713906Y-163166575D01*
X92774354Y-163279664D01*
X92775541Y-163283577D01*
X92811580Y-163402382D01*
X92821000Y-163498027D01*
X92821000Y-164161973D01*
X92811580Y-164257618D01*
X92805101Y-164278975D01*
X92774354Y-164380336D01*
X92713906Y-164493425D01*
X92632554Y-164592554D01*
X92533425Y-164673906D01*
X92420336Y-164734354D01*
X92407515Y-164738243D01*
X92297618Y-164771580D01*
X92170000Y-164784149D01*
X92042383Y-164771580D01*
X91932486Y-164738243D01*
X91919665Y-164734354D01*
X91806576Y-164673906D01*
X91707447Y-164592554D01*
X91626096Y-164493427D01*
X91565645Y-164380333D01*
X91534899Y-164278975D01*
X91528420Y-164257618D01*
X91519000Y-164161973D01*
X91519000Y-163498028D01*
X91528420Y-163402383D01*
X91555960Y-163311597D01*
X91565646Y-163279665D01*
X91626094Y-163166576D01*
X91707447Y-163067446D01*
X91806575Y-162986094D01*
X91919664Y-162925646D01*
X91961600Y-162912925D01*
X92042382Y-162888420D01*
X92170000Y-162875851D01*
X92297617Y-162888420D01*
G37*
G36*
X94297617Y-162888420D02*
G01*
X94378399Y-162912925D01*
X94420335Y-162925646D01*
X94533424Y-162986094D01*
X94632554Y-163067447D01*
X94713906Y-163166575D01*
X94774354Y-163279664D01*
X94775541Y-163283577D01*
X94811580Y-163402382D01*
X94821000Y-163498027D01*
X94821000Y-164161973D01*
X94811580Y-164257618D01*
X94805101Y-164278975D01*
X94774354Y-164380336D01*
X94713906Y-164493425D01*
X94632554Y-164592554D01*
X94533425Y-164673906D01*
X94420336Y-164734354D01*
X94407515Y-164738243D01*
X94297618Y-164771580D01*
X94170000Y-164784149D01*
X94042383Y-164771580D01*
X93932486Y-164738243D01*
X93919665Y-164734354D01*
X93806576Y-164673906D01*
X93707447Y-164592554D01*
X93626096Y-164493427D01*
X93565645Y-164380333D01*
X93534899Y-164278975D01*
X93528420Y-164257618D01*
X93519000Y-164161973D01*
X93519000Y-163498028D01*
X93528420Y-163402383D01*
X93555960Y-163311597D01*
X93565646Y-163279665D01*
X93626094Y-163166576D01*
X93707447Y-163067446D01*
X93806575Y-162986094D01*
X93919664Y-162925646D01*
X93961600Y-162912925D01*
X94042382Y-162888420D01*
X94170000Y-162875851D01*
X94297617Y-162888420D01*
G37*
G36*
X103727617Y-162888420D02*
G01*
X103808399Y-162912925D01*
X103850335Y-162925646D01*
X103963424Y-162986094D01*
X104062554Y-163067447D01*
X104143906Y-163166575D01*
X104204354Y-163279664D01*
X104205541Y-163283577D01*
X104241580Y-163402382D01*
X104251000Y-163498027D01*
X104251000Y-164161973D01*
X104241580Y-164257618D01*
X104235101Y-164278975D01*
X104204354Y-164380336D01*
X104143906Y-164493425D01*
X104062554Y-164592554D01*
X103963425Y-164673906D01*
X103850336Y-164734354D01*
X103837515Y-164738243D01*
X103727618Y-164771580D01*
X103600000Y-164784149D01*
X103472383Y-164771580D01*
X103362486Y-164738243D01*
X103349665Y-164734354D01*
X103236576Y-164673906D01*
X103137447Y-164592554D01*
X103056096Y-164493427D01*
X102995645Y-164380333D01*
X102964899Y-164278975D01*
X102958420Y-164257618D01*
X102949000Y-164161973D01*
X102949000Y-163498028D01*
X102958420Y-163402383D01*
X102985960Y-163311597D01*
X102995646Y-163279665D01*
X103056094Y-163166576D01*
X103137447Y-163067446D01*
X103236575Y-162986094D01*
X103349664Y-162925646D01*
X103391600Y-162912925D01*
X103472382Y-162888420D01*
X103600000Y-162875851D01*
X103727617Y-162888420D01*
G37*
G36*
X102091242Y-162883404D02*
G01*
X102128337Y-162894657D01*
X102162515Y-162912925D01*
X102192481Y-162937519D01*
X102217075Y-162967485D01*
X102235343Y-163001663D01*
X102246596Y-163038758D01*
X102251000Y-163083474D01*
X102251000Y-164576526D01*
X102246596Y-164621242D01*
X102235343Y-164658337D01*
X102217075Y-164692515D01*
X102192481Y-164722481D01*
X102162515Y-164747075D01*
X102128337Y-164765343D01*
X102091242Y-164776596D01*
X102046526Y-164781000D01*
X101153474Y-164781000D01*
X101108758Y-164776596D01*
X101071663Y-164765343D01*
X101037485Y-164747075D01*
X101007519Y-164722481D01*
X100982925Y-164692515D01*
X100964657Y-164658337D01*
X100953404Y-164621242D01*
X100949000Y-164576526D01*
X100949000Y-163083474D01*
X100953404Y-163038758D01*
X100964657Y-163001663D01*
X100982925Y-162967485D01*
X101007519Y-162937519D01*
X101037485Y-162912925D01*
X101071663Y-162894657D01*
X101108758Y-162883404D01*
X101153474Y-162879000D01*
X102046526Y-162879000D01*
X102091242Y-162883404D01*
G37*
G36*
X90661242Y-162883404D02*
G01*
X90698337Y-162894657D01*
X90732515Y-162912925D01*
X90762481Y-162937519D01*
X90787075Y-162967485D01*
X90805343Y-163001663D01*
X90816596Y-163038758D01*
X90821000Y-163083474D01*
X90821000Y-164576526D01*
X90816596Y-164621242D01*
X90805343Y-164658337D01*
X90787075Y-164692515D01*
X90762481Y-164722481D01*
X90732515Y-164747075D01*
X90698337Y-164765343D01*
X90661242Y-164776596D01*
X90616526Y-164781000D01*
X89723474Y-164781000D01*
X89678758Y-164776596D01*
X89641663Y-164765343D01*
X89607485Y-164747075D01*
X89577519Y-164722481D01*
X89552925Y-164692515D01*
X89534657Y-164658337D01*
X89523404Y-164621242D01*
X89519000Y-164576526D01*
X89519000Y-163083474D01*
X89523404Y-163038758D01*
X89534657Y-163001663D01*
X89552925Y-162967485D01*
X89577519Y-162937519D01*
X89607485Y-162912925D01*
X89641663Y-162894657D01*
X89678758Y-162883404D01*
X89723474Y-162879000D01*
X90616526Y-162879000D01*
X90661242Y-162883404D01*
G37*
G36*
X79295242Y-162883404D02*
G01*
X79332337Y-162894657D01*
X79366515Y-162912925D01*
X79396481Y-162937519D01*
X79421075Y-162967485D01*
X79439343Y-163001663D01*
X79450596Y-163038758D01*
X79455000Y-163083474D01*
X79455000Y-164576526D01*
X79450596Y-164621242D01*
X79439343Y-164658337D01*
X79421075Y-164692515D01*
X79396481Y-164722481D01*
X79366515Y-164747075D01*
X79332337Y-164765343D01*
X79295242Y-164776596D01*
X79250526Y-164781000D01*
X78357474Y-164781000D01*
X78312758Y-164776596D01*
X78275663Y-164765343D01*
X78241485Y-164747075D01*
X78211519Y-164722481D01*
X78186925Y-164692515D01*
X78168657Y-164658337D01*
X78157404Y-164621242D01*
X78153000Y-164576526D01*
X78153000Y-163083474D01*
X78157404Y-163038758D01*
X78168657Y-163001663D01*
X78186925Y-162967485D01*
X78211519Y-162937519D01*
X78241485Y-162912925D01*
X78275663Y-162894657D01*
X78312758Y-162883404D01*
X78357474Y-162879000D01*
X79250526Y-162879000D01*
X79295242Y-162883404D01*
G37*
G36*
X98017642Y-158227781D02*
G01*
X98163414Y-158288162D01*
X98163416Y-158288163D01*
X98294608Y-158375822D01*
X98406178Y-158487392D01*
X98493837Y-158618584D01*
X98493838Y-158618586D01*
X98554219Y-158764358D01*
X98585000Y-158919107D01*
X98585000Y-159076893D01*
X98554219Y-159231642D01*
X98493838Y-159377414D01*
X98493837Y-159377416D01*
X98406178Y-159508608D01*
X98294608Y-159620178D01*
X98163416Y-159707837D01*
X98163415Y-159707838D01*
X98163414Y-159707838D01*
X98017642Y-159768219D01*
X97862893Y-159799000D01*
X97705107Y-159799000D01*
X97550358Y-159768219D01*
X97404586Y-159707838D01*
X97404585Y-159707838D01*
X97404584Y-159707837D01*
X97273392Y-159620178D01*
X97161822Y-159508608D01*
X97074163Y-159377416D01*
X97074162Y-159377414D01*
X97013781Y-159231642D01*
X96983000Y-159076893D01*
X96983000Y-158919107D01*
X97013781Y-158764358D01*
X97074162Y-158618586D01*
X97074163Y-158618584D01*
X97161822Y-158487392D01*
X97273392Y-158375822D01*
X97404584Y-158288163D01*
X97404586Y-158288162D01*
X97550358Y-158227781D01*
X97705107Y-158197000D01*
X97862893Y-158197000D01*
X98017642Y-158227781D01*
G37*
G36*
X90913642Y-158227781D02*
G01*
X91059414Y-158288162D01*
X91059416Y-158288163D01*
X91190608Y-158375822D01*
X91302178Y-158487392D01*
X91389837Y-158618584D01*
X91389838Y-158618586D01*
X91450219Y-158764358D01*
X91481000Y-158919107D01*
X91481000Y-159076893D01*
X91450219Y-159231642D01*
X91389838Y-159377414D01*
X91389837Y-159377416D01*
X91302178Y-159508608D01*
X91190608Y-159620178D01*
X91059416Y-159707837D01*
X91059415Y-159707838D01*
X91059414Y-159707838D01*
X90913642Y-159768219D01*
X90758893Y-159799000D01*
X90601107Y-159799000D01*
X90446358Y-159768219D01*
X90300586Y-159707838D01*
X90300585Y-159707838D01*
X90300584Y-159707837D01*
X90169392Y-159620178D01*
X90057822Y-159508608D01*
X89970163Y-159377416D01*
X89970162Y-159377414D01*
X89909781Y-159231642D01*
X89879000Y-159076893D01*
X89879000Y-158919107D01*
X89909781Y-158764358D01*
X89970162Y-158618586D01*
X89970163Y-158618584D01*
X90057822Y-158487392D01*
X90169392Y-158375822D01*
X90300584Y-158288163D01*
X90300586Y-158288162D01*
X90446358Y-158227781D01*
X90601107Y-158197000D01*
X90758893Y-158197000D01*
X90913642Y-158227781D01*
G37*
G36*
X94463642Y-158227781D02*
G01*
X94609414Y-158288162D01*
X94609416Y-158288163D01*
X94740608Y-158375822D01*
X94852178Y-158487392D01*
X94939837Y-158618584D01*
X94939838Y-158618586D01*
X95000219Y-158764358D01*
X95031000Y-158919107D01*
X95031000Y-159076893D01*
X95000219Y-159231642D01*
X94939838Y-159377414D01*
X94939837Y-159377416D01*
X94852178Y-159508608D01*
X94740608Y-159620178D01*
X94609416Y-159707837D01*
X94609415Y-159707838D01*
X94609414Y-159707838D01*
X94463642Y-159768219D01*
X94308893Y-159799000D01*
X94151107Y-159799000D01*
X93996358Y-159768219D01*
X93850586Y-159707838D01*
X93850585Y-159707838D01*
X93850584Y-159707837D01*
X93719392Y-159620178D01*
X93607822Y-159508608D01*
X93520163Y-159377416D01*
X93520162Y-159377414D01*
X93459781Y-159231642D01*
X93429000Y-159076893D01*
X93429000Y-158919107D01*
X93459781Y-158764358D01*
X93520162Y-158618586D01*
X93520163Y-158618584D01*
X93607822Y-158487392D01*
X93719392Y-158375822D01*
X93850584Y-158288163D01*
X93850586Y-158288162D01*
X93996358Y-158227781D01*
X94151107Y-158197000D01*
X94308893Y-158197000D01*
X94463642Y-158227781D01*
G37*
G36*
X101567642Y-158227781D02*
G01*
X101713414Y-158288162D01*
X101713416Y-158288163D01*
X101844608Y-158375822D01*
X101956178Y-158487392D01*
X102043837Y-158618584D01*
X102043838Y-158618586D01*
X102104219Y-158764358D01*
X102135000Y-158919107D01*
X102135000Y-159076893D01*
X102104219Y-159231642D01*
X102043838Y-159377414D01*
X102043837Y-159377416D01*
X101956178Y-159508608D01*
X101844608Y-159620178D01*
X101713416Y-159707837D01*
X101713415Y-159707838D01*
X101713414Y-159707838D01*
X101567642Y-159768219D01*
X101412893Y-159799000D01*
X101255107Y-159799000D01*
X101100358Y-159768219D01*
X100954586Y-159707838D01*
X100954585Y-159707838D01*
X100954584Y-159707837D01*
X100823392Y-159620178D01*
X100711822Y-159508608D01*
X100624163Y-159377416D01*
X100624162Y-159377414D01*
X100563781Y-159231642D01*
X100533000Y-159076893D01*
X100533000Y-158919107D01*
X100563781Y-158764358D01*
X100624162Y-158618586D01*
X100624163Y-158618584D01*
X100711822Y-158487392D01*
X100823392Y-158375822D01*
X100954584Y-158288163D01*
X100954586Y-158288162D01*
X101100358Y-158227781D01*
X101255107Y-158197000D01*
X101412893Y-158197000D01*
X101567642Y-158227781D01*
G37*
G36*
X105389642Y-157471781D02*
G01*
X105535414Y-157532162D01*
X105535416Y-157532163D01*
X105666608Y-157619822D01*
X105778178Y-157731392D01*
X105865837Y-157862584D01*
X105865838Y-157862586D01*
X105926219Y-158008358D01*
X105957000Y-158163107D01*
X105957000Y-158320893D01*
X105926219Y-158475642D01*
X105867010Y-158618584D01*
X105865837Y-158621416D01*
X105778178Y-158752608D01*
X105666608Y-158864178D01*
X105535416Y-158951837D01*
X105535415Y-158951838D01*
X105535414Y-158951838D01*
X105389642Y-159012219D01*
X105234893Y-159043000D01*
X105077107Y-159043000D01*
X104922358Y-159012219D01*
X104776586Y-158951838D01*
X104776585Y-158951838D01*
X104776584Y-158951837D01*
X104645392Y-158864178D01*
X104533822Y-158752608D01*
X104446163Y-158621416D01*
X104444990Y-158618584D01*
X104385781Y-158475642D01*
X104355000Y-158320893D01*
X104355000Y-158163107D01*
X104385781Y-158008358D01*
X104446162Y-157862586D01*
X104446163Y-157862584D01*
X104533822Y-157731392D01*
X104645392Y-157619822D01*
X104776584Y-157532163D01*
X104776586Y-157532162D01*
X104922358Y-157471781D01*
X105077107Y-157441000D01*
X105234893Y-157441000D01*
X105389642Y-157471781D01*
G37*
G36*
X105389642Y-154931781D02*
G01*
X105535414Y-154992162D01*
X105535416Y-154992163D01*
X105666608Y-155079822D01*
X105778178Y-155191392D01*
X105859334Y-155312852D01*
X105865838Y-155322586D01*
X105926219Y-155468358D01*
X105957000Y-155623107D01*
X105957000Y-155780893D01*
X105926219Y-155935642D01*
X105916706Y-155958608D01*
X105865837Y-156081416D01*
X105778178Y-156212608D01*
X105666608Y-156324178D01*
X105535416Y-156411837D01*
X105535415Y-156411838D01*
X105535414Y-156411838D01*
X105389642Y-156472219D01*
X105234893Y-156503000D01*
X105077107Y-156503000D01*
X104922358Y-156472219D01*
X104776586Y-156411838D01*
X104776585Y-156411838D01*
X104776584Y-156411837D01*
X104645392Y-156324178D01*
X104533822Y-156212608D01*
X104446163Y-156081416D01*
X104395294Y-155958608D01*
X104385781Y-155935642D01*
X104355000Y-155780893D01*
X104355000Y-155623107D01*
X104385781Y-155468358D01*
X104446162Y-155322586D01*
X104452666Y-155312852D01*
X104533822Y-155191392D01*
X104645392Y-155079822D01*
X104776584Y-154992163D01*
X104776586Y-154992162D01*
X104922358Y-154931781D01*
X105077107Y-154901000D01*
X105234893Y-154901000D01*
X105389642Y-154931781D01*
G37*
G36*
X65702000Y-156404000D02*
G01*
X64150000Y-156404000D01*
X64150000Y-151952000D01*
X65702000Y-151952000D01*
X65702000Y-156404000D01*
G37*
G36*
X59802000Y-156404000D02*
G01*
X58250000Y-156404000D01*
X58250000Y-151952000D01*
X59802000Y-151952000D01*
X59802000Y-156404000D01*
G37*
G36*
X101567642Y-154677781D02*
G01*
X101713414Y-154738162D01*
X101713416Y-154738163D01*
X101844608Y-154825822D01*
X101956178Y-154937392D01*
X102043837Y-155068584D01*
X102043838Y-155068586D01*
X102104219Y-155214358D01*
X102135000Y-155369107D01*
X102135000Y-155526893D01*
X102104219Y-155681642D01*
X102043838Y-155827414D01*
X102043837Y-155827416D01*
X101956178Y-155958608D01*
X101844608Y-156070178D01*
X101713416Y-156157837D01*
X101713415Y-156157838D01*
X101713414Y-156157838D01*
X101567642Y-156218219D01*
X101412893Y-156249000D01*
X101255107Y-156249000D01*
X101100358Y-156218219D01*
X100954586Y-156157838D01*
X100954585Y-156157838D01*
X100954584Y-156157837D01*
X100823392Y-156070178D01*
X100711822Y-155958608D01*
X100624163Y-155827416D01*
X100624162Y-155827414D01*
X100563781Y-155681642D01*
X100533000Y-155526893D01*
X100533000Y-155369107D01*
X100563781Y-155214358D01*
X100624162Y-155068586D01*
X100624163Y-155068584D01*
X100711822Y-154937392D01*
X100823392Y-154825822D01*
X100954584Y-154738163D01*
X100954586Y-154738162D01*
X101100358Y-154677781D01*
X101255107Y-154647000D01*
X101412893Y-154647000D01*
X101567642Y-154677781D01*
G37*
G36*
X98017642Y-154677781D02*
G01*
X98163414Y-154738162D01*
X98163416Y-154738163D01*
X98294608Y-154825822D01*
X98406178Y-154937392D01*
X98493837Y-155068584D01*
X98493838Y-155068586D01*
X98554219Y-155214358D01*
X98585000Y-155369107D01*
X98585000Y-155526893D01*
X98554219Y-155681642D01*
X98493838Y-155827414D01*
X98493837Y-155827416D01*
X98406178Y-155958608D01*
X98294608Y-156070178D01*
X98163416Y-156157837D01*
X98163415Y-156157838D01*
X98163414Y-156157838D01*
X98017642Y-156218219D01*
X97862893Y-156249000D01*
X97705107Y-156249000D01*
X97550358Y-156218219D01*
X97404586Y-156157838D01*
X97404585Y-156157838D01*
X97404584Y-156157837D01*
X97273392Y-156070178D01*
X97161822Y-155958608D01*
X97074163Y-155827416D01*
X97074162Y-155827414D01*
X97013781Y-155681642D01*
X96983000Y-155526893D01*
X96983000Y-155369107D01*
X97013781Y-155214358D01*
X97074162Y-155068586D01*
X97074163Y-155068584D01*
X97161822Y-154937392D01*
X97273392Y-154825822D01*
X97404584Y-154738163D01*
X97404586Y-154738162D01*
X97550358Y-154677781D01*
X97705107Y-154647000D01*
X97862893Y-154647000D01*
X98017642Y-154677781D01*
G37*
G36*
X94463642Y-154677781D02*
G01*
X94609414Y-154738162D01*
X94609416Y-154738163D01*
X94740608Y-154825822D01*
X94852178Y-154937392D01*
X94939837Y-155068584D01*
X94939838Y-155068586D01*
X95000219Y-155214358D01*
X95031000Y-155369107D01*
X95031000Y-155526893D01*
X95000219Y-155681642D01*
X94939838Y-155827414D01*
X94939837Y-155827416D01*
X94852178Y-155958608D01*
X94740608Y-156070178D01*
X94609416Y-156157837D01*
X94609415Y-156157838D01*
X94609414Y-156157838D01*
X94463642Y-156218219D01*
X94308893Y-156249000D01*
X94151107Y-156249000D01*
X93996358Y-156218219D01*
X93850586Y-156157838D01*
X93850585Y-156157838D01*
X93850584Y-156157837D01*
X93719392Y-156070178D01*
X93607822Y-155958608D01*
X93520163Y-155827416D01*
X93520162Y-155827414D01*
X93459781Y-155681642D01*
X93429000Y-155526893D01*
X93429000Y-155369107D01*
X93459781Y-155214358D01*
X93520162Y-155068586D01*
X93520163Y-155068584D01*
X93607822Y-154937392D01*
X93719392Y-154825822D01*
X93850584Y-154738163D01*
X93850586Y-154738162D01*
X93996358Y-154677781D01*
X94151107Y-154647000D01*
X94308893Y-154647000D01*
X94463642Y-154677781D01*
G37*
G36*
X90913642Y-154677781D02*
G01*
X91059414Y-154738162D01*
X91059416Y-154738163D01*
X91190608Y-154825822D01*
X91302178Y-154937392D01*
X91389837Y-155068584D01*
X91389838Y-155068586D01*
X91450219Y-155214358D01*
X91481000Y-155369107D01*
X91481000Y-155526893D01*
X91450219Y-155681642D01*
X91389838Y-155827414D01*
X91389837Y-155827416D01*
X91302178Y-155958608D01*
X91190608Y-156070178D01*
X91059416Y-156157837D01*
X91059415Y-156157838D01*
X91059414Y-156157838D01*
X90913642Y-156218219D01*
X90758893Y-156249000D01*
X90601107Y-156249000D01*
X90446358Y-156218219D01*
X90300586Y-156157838D01*
X90300585Y-156157838D01*
X90300584Y-156157837D01*
X90169392Y-156070178D01*
X90057822Y-155958608D01*
X89970163Y-155827416D01*
X89970162Y-155827414D01*
X89909781Y-155681642D01*
X89879000Y-155526893D01*
X89879000Y-155369107D01*
X89909781Y-155214358D01*
X89970162Y-155068586D01*
X89970163Y-155068584D01*
X90057822Y-154937392D01*
X90169392Y-154825822D01*
X90300584Y-154738163D01*
X90300586Y-154738162D01*
X90446358Y-154677781D01*
X90601107Y-154647000D01*
X90758893Y-154647000D01*
X90913642Y-154677781D01*
G37*
G36*
X76559062Y-153510181D02*
G01*
X76593981Y-153520774D01*
X76626163Y-153537976D01*
X76654373Y-153561127D01*
X76677524Y-153589337D01*
X76694726Y-153621519D01*
X76705319Y-153656438D01*
X76709500Y-153698895D01*
X76709500Y-155165105D01*
X76705319Y-155207562D01*
X76694726Y-155242481D01*
X76677524Y-155274663D01*
X76654373Y-155302873D01*
X76626163Y-155326024D01*
X76593981Y-155343226D01*
X76559062Y-155353819D01*
X76516605Y-155358000D01*
X75375395Y-155358000D01*
X75332938Y-155353819D01*
X75298019Y-155343226D01*
X75265837Y-155326024D01*
X75237627Y-155302873D01*
X75214476Y-155274663D01*
X75197274Y-155242481D01*
X75186681Y-155207562D01*
X75182500Y-155165105D01*
X75182500Y-153698895D01*
X75186681Y-153656438D01*
X75197274Y-153621519D01*
X75214476Y-153589337D01*
X75237627Y-153561127D01*
X75265837Y-153537976D01*
X75298019Y-153520774D01*
X75332938Y-153510181D01*
X75375395Y-153506000D01*
X76516605Y-153506000D01*
X76559062Y-153510181D01*
G37*
G36*
X73584062Y-153510181D02*
G01*
X73618981Y-153520774D01*
X73651163Y-153537976D01*
X73679373Y-153561127D01*
X73702524Y-153589337D01*
X73719726Y-153621519D01*
X73730319Y-153656438D01*
X73734500Y-153698895D01*
X73734500Y-155165105D01*
X73730319Y-155207562D01*
X73719726Y-155242481D01*
X73702524Y-155274663D01*
X73679373Y-155302873D01*
X73651163Y-155326024D01*
X73618981Y-155343226D01*
X73584062Y-155353819D01*
X73541605Y-155358000D01*
X72400395Y-155358000D01*
X72357938Y-155353819D01*
X72323019Y-155343226D01*
X72290837Y-155326024D01*
X72262627Y-155302873D01*
X72239476Y-155274663D01*
X72222274Y-155242481D01*
X72211681Y-155207562D01*
X72207500Y-155165105D01*
X72207500Y-153698895D01*
X72211681Y-153656438D01*
X72222274Y-153621519D01*
X72239476Y-153589337D01*
X72262627Y-153561127D01*
X72290837Y-153537976D01*
X72323019Y-153520774D01*
X72357938Y-153510181D01*
X72400395Y-153506000D01*
X73541605Y-153506000D01*
X73584062Y-153510181D01*
G37*
G36*
X105897642Y-151395781D02*
G01*
X106043414Y-151456162D01*
X106043416Y-151456163D01*
X106174608Y-151543822D01*
X106286178Y-151655392D01*
X106373837Y-151786584D01*
X106373838Y-151786586D01*
X106434219Y-151932358D01*
X106465000Y-152087107D01*
X106465000Y-152244893D01*
X106434219Y-152399642D01*
X106373838Y-152545414D01*
X106373837Y-152545416D01*
X106286178Y-152676608D01*
X106174608Y-152788178D01*
X106043416Y-152875837D01*
X106043415Y-152875838D01*
X106043414Y-152875838D01*
X105897642Y-152936219D01*
X105742893Y-152967000D01*
X105585107Y-152967000D01*
X105430358Y-152936219D01*
X105284586Y-152875838D01*
X105284585Y-152875838D01*
X105284584Y-152875837D01*
X105153392Y-152788178D01*
X105041822Y-152676608D01*
X104954163Y-152545416D01*
X104954162Y-152545414D01*
X104893781Y-152399642D01*
X104863000Y-152244893D01*
X104863000Y-152087107D01*
X104893781Y-151932358D01*
X104954162Y-151786586D01*
X104954163Y-151786584D01*
X105041822Y-151655392D01*
X105153392Y-151543822D01*
X105284584Y-151456163D01*
X105284586Y-151456162D01*
X105430358Y-151395781D01*
X105585107Y-151365000D01*
X105742893Y-151365000D01*
X105897642Y-151395781D01*
G37*
G36*
X87171997Y-151045051D02*
G01*
X87205652Y-151055261D01*
X87236665Y-151071838D01*
X87263851Y-151094149D01*
X87286162Y-151121335D01*
X87302739Y-151152348D01*
X87312949Y-151186003D01*
X87317000Y-151227138D01*
X87317000Y-152556862D01*
X87312949Y-152597997D01*
X87302739Y-152631652D01*
X87286162Y-152662665D01*
X87263851Y-152689851D01*
X87236665Y-152712162D01*
X87205652Y-152728739D01*
X87171997Y-152738949D01*
X87130862Y-152743000D01*
X84401138Y-152743000D01*
X84360003Y-152738949D01*
X84326348Y-152728739D01*
X84295335Y-152712162D01*
X84268149Y-152689851D01*
X84245838Y-152662665D01*
X84229261Y-152631652D01*
X84219051Y-152597997D01*
X84215000Y-152556862D01*
X84215000Y-151227138D01*
X84219051Y-151186003D01*
X84229261Y-151152348D01*
X84245838Y-151121335D01*
X84268149Y-151094149D01*
X84295335Y-151071838D01*
X84326348Y-151055261D01*
X84360003Y-151045051D01*
X84401138Y-151041000D01*
X87130862Y-151041000D01*
X87171997Y-151045051D01*
G37*
G36*
X82771997Y-151045051D02*
G01*
X82805652Y-151055261D01*
X82836665Y-151071838D01*
X82863851Y-151094149D01*
X82886162Y-151121335D01*
X82902739Y-151152348D01*
X82912949Y-151186003D01*
X82917000Y-151227138D01*
X82917000Y-152556862D01*
X82912949Y-152597997D01*
X82902739Y-152631652D01*
X82886162Y-152662665D01*
X82863851Y-152689851D01*
X82836665Y-152712162D01*
X82805652Y-152728739D01*
X82771997Y-152738949D01*
X82730862Y-152743000D01*
X80001138Y-152743000D01*
X79960003Y-152738949D01*
X79926348Y-152728739D01*
X79895335Y-152712162D01*
X79868149Y-152689851D01*
X79845838Y-152662665D01*
X79829261Y-152631652D01*
X79819051Y-152597997D01*
X79815000Y-152556862D01*
X79815000Y-151227138D01*
X79819051Y-151186003D01*
X79829261Y-151152348D01*
X79845838Y-151121335D01*
X79868149Y-151094149D01*
X79895335Y-151071838D01*
X79926348Y-151055261D01*
X79960003Y-151045051D01*
X80001138Y-151041000D01*
X82730862Y-151041000D01*
X82771997Y-151045051D01*
G37*
G36*
X70951000Y-150701000D02*
G01*
X70149000Y-150701000D01*
X70149000Y-149019000D01*
X70951000Y-149019000D01*
X70951000Y-150701000D01*
G37*
G36*
X69551000Y-150701000D02*
G01*
X68749000Y-150701000D01*
X68749000Y-149019000D01*
X69551000Y-149019000D01*
X69551000Y-150701000D01*
G37*
G36*
X97177000Y-150678000D02*
G01*
X95515000Y-150678000D01*
X95515000Y-148026000D01*
X97177000Y-148026000D01*
X97177000Y-150678000D01*
G37*
G36*
X94477000Y-150678000D02*
G01*
X92815000Y-150678000D01*
X92815000Y-148026000D01*
X94477000Y-148026000D01*
X94477000Y-150678000D01*
G37*
G36*
X105897642Y-148327781D02*
G01*
X106043414Y-148388162D01*
X106043416Y-148388163D01*
X106174608Y-148475822D01*
X106286178Y-148587392D01*
X106373837Y-148718584D01*
X106373838Y-148718586D01*
X106434219Y-148864358D01*
X106465000Y-149019107D01*
X106465000Y-149176893D01*
X106434219Y-149331642D01*
X106373838Y-149477414D01*
X106373837Y-149477416D01*
X106286178Y-149608608D01*
X106174608Y-149720178D01*
X106043416Y-149807837D01*
X106043415Y-149807838D01*
X106043414Y-149807838D01*
X105897642Y-149868219D01*
X105742893Y-149899000D01*
X105585107Y-149899000D01*
X105430358Y-149868219D01*
X105284586Y-149807838D01*
X105284585Y-149807838D01*
X105284584Y-149807837D01*
X105153392Y-149720178D01*
X105041822Y-149608608D01*
X104954163Y-149477416D01*
X104954162Y-149477414D01*
X104893781Y-149331642D01*
X104863000Y-149176893D01*
X104863000Y-149019107D01*
X104893781Y-148864358D01*
X104954162Y-148718586D01*
X104954163Y-148718584D01*
X105041822Y-148587392D01*
X105153392Y-148475822D01*
X105284584Y-148388163D01*
X105284586Y-148388162D01*
X105430358Y-148327781D01*
X105585107Y-148297000D01*
X105742893Y-148297000D01*
X105897642Y-148327781D01*
G37*
G36*
X81751997Y-145965051D02*
G01*
X81785652Y-145975261D01*
X81816665Y-145991838D01*
X81843851Y-146014149D01*
X81866162Y-146041335D01*
X81882739Y-146072348D01*
X81892949Y-146106003D01*
X81897000Y-146147138D01*
X81897000Y-147476862D01*
X81892949Y-147517997D01*
X81882739Y-147551652D01*
X81866162Y-147582665D01*
X81843851Y-147609851D01*
X81816665Y-147632162D01*
X81785652Y-147648739D01*
X81751997Y-147658949D01*
X81710862Y-147663000D01*
X78981138Y-147663000D01*
X78940003Y-147658949D01*
X78906348Y-147648739D01*
X78875335Y-147632162D01*
X78848149Y-147609851D01*
X78825838Y-147582665D01*
X78809261Y-147551652D01*
X78799051Y-147517997D01*
X78795000Y-147476862D01*
X78795000Y-146147138D01*
X78799051Y-146106003D01*
X78809261Y-146072348D01*
X78825838Y-146041335D01*
X78848149Y-146014149D01*
X78875335Y-145991838D01*
X78906348Y-145975261D01*
X78940003Y-145965051D01*
X78981138Y-145961000D01*
X81710862Y-145961000D01*
X81751997Y-145965051D01*
G37*
G36*
X77351997Y-145965051D02*
G01*
X77385652Y-145975261D01*
X77416665Y-145991838D01*
X77443851Y-146014149D01*
X77466162Y-146041335D01*
X77482739Y-146072348D01*
X77492949Y-146106003D01*
X77497000Y-146147138D01*
X77497000Y-147476862D01*
X77492949Y-147517997D01*
X77482739Y-147551652D01*
X77466162Y-147582665D01*
X77443851Y-147609851D01*
X77416665Y-147632162D01*
X77385652Y-147648739D01*
X77351997Y-147658949D01*
X77310862Y-147663000D01*
X74581138Y-147663000D01*
X74540003Y-147658949D01*
X74506348Y-147648739D01*
X74475335Y-147632162D01*
X74448149Y-147609851D01*
X74425838Y-147582665D01*
X74409261Y-147551652D01*
X74399051Y-147517997D01*
X74395000Y-147476862D01*
X74395000Y-146147138D01*
X74399051Y-146106003D01*
X74409261Y-146072348D01*
X74425838Y-146041335D01*
X74448149Y-146014149D01*
X74475335Y-145991838D01*
X74506348Y-145975261D01*
X74540003Y-145965051D01*
X74581138Y-145961000D01*
X77310862Y-145961000D01*
X77351997Y-145965051D01*
G37*
G36*
X57935000Y-147437000D02*
G01*
X57133000Y-147437000D01*
X57133000Y-145755000D01*
X57935000Y-145755000D01*
X57935000Y-147437000D01*
G37*
G36*
X56535000Y-147437000D02*
G01*
X55733000Y-147437000D01*
X55733000Y-145755000D01*
X56535000Y-145755000D01*
X56535000Y-147437000D01*
G37*
G36*
X105897642Y-144765781D02*
G01*
X106043414Y-144826162D01*
X106043416Y-144826163D01*
X106174608Y-144913822D01*
X106286178Y-145025392D01*
X106373837Y-145156584D01*
X106373838Y-145156586D01*
X106434219Y-145302358D01*
X106465000Y-145457107D01*
X106465000Y-145614893D01*
X106434219Y-145769642D01*
X106373838Y-145915414D01*
X106373837Y-145915416D01*
X106286178Y-146046608D01*
X106174608Y-146158178D01*
X106043416Y-146245837D01*
X106043415Y-146245838D01*
X106043414Y-146245838D01*
X105897642Y-146306219D01*
X105742893Y-146337000D01*
X105585107Y-146337000D01*
X105430358Y-146306219D01*
X105284586Y-146245838D01*
X105284585Y-146245838D01*
X105284584Y-146245837D01*
X105153392Y-146158178D01*
X105041822Y-146046608D01*
X104954163Y-145915416D01*
X104954162Y-145915414D01*
X104893781Y-145769642D01*
X104863000Y-145614893D01*
X104863000Y-145457107D01*
X104893781Y-145302358D01*
X104954162Y-145156586D01*
X104954163Y-145156584D01*
X105041822Y-145025392D01*
X105153392Y-144913822D01*
X105284584Y-144826163D01*
X105284586Y-144826162D01*
X105430358Y-144765781D01*
X105585107Y-144735000D01*
X105742893Y-144735000D01*
X105897642Y-144765781D01*
G37*
G36*
X92177000Y-144328000D02*
G01*
X90515000Y-144328000D01*
X90515000Y-141676000D01*
X92177000Y-141676000D01*
X92177000Y-144328000D01*
G37*
G36*
X89477000Y-144328000D02*
G01*
X87815000Y-144328000D01*
X87815000Y-141676000D01*
X89477000Y-141676000D01*
X89477000Y-144328000D01*
G37*
G36*
X99557000Y-144328000D02*
G01*
X97895000Y-144328000D01*
X97895000Y-141676000D01*
X99557000Y-141676000D01*
X99557000Y-144328000D01*
G37*
G36*
X102257000Y-144328000D02*
G01*
X100595000Y-144328000D01*
X100595000Y-141676000D01*
X102257000Y-141676000D01*
X102257000Y-144328000D01*
G37*
G36*
X67141000Y-143081000D02*
G01*
X66339000Y-143081000D01*
X66339000Y-141399000D01*
X67141000Y-141399000D01*
X67141000Y-143081000D01*
G37*
G36*
X65741000Y-143081000D02*
G01*
X64939000Y-143081000D01*
X64939000Y-141399000D01*
X65741000Y-141399000D01*
X65741000Y-143081000D01*
G37*
G36*
X105897642Y-141215781D02*
G01*
X106043414Y-141276162D01*
X106043416Y-141276163D01*
X106174608Y-141363822D01*
X106286178Y-141475392D01*
X106373837Y-141606584D01*
X106373838Y-141606586D01*
X106434219Y-141752358D01*
X106465000Y-141907107D01*
X106465000Y-142064893D01*
X106434219Y-142219642D01*
X106384779Y-142339000D01*
X106373837Y-142365416D01*
X106286178Y-142496608D01*
X106174608Y-142608178D01*
X106043416Y-142695837D01*
X106043415Y-142695838D01*
X106043414Y-142695838D01*
X105897642Y-142756219D01*
X105742893Y-142787000D01*
X105585107Y-142787000D01*
X105430358Y-142756219D01*
X105284586Y-142695838D01*
X105284585Y-142695838D01*
X105284584Y-142695837D01*
X105153392Y-142608178D01*
X105041822Y-142496608D01*
X104954163Y-142365416D01*
X104943221Y-142339000D01*
X104893781Y-142219642D01*
X104863000Y-142064893D01*
X104863000Y-141907107D01*
X104893781Y-141752358D01*
X104954162Y-141606586D01*
X104954163Y-141606584D01*
X105041822Y-141475392D01*
X105153392Y-141363822D01*
X105284584Y-141276163D01*
X105284586Y-141276162D01*
X105430358Y-141215781D01*
X105585107Y-141185000D01*
X105742893Y-141185000D01*
X105897642Y-141215781D01*
G37*
G36*
X92920000Y-139610000D02*
G01*
X91368000Y-139610000D01*
X91368000Y-135158000D01*
X92920000Y-135158000D01*
X92920000Y-139610000D01*
G37*
G36*
X98820000Y-139610000D02*
G01*
X97268000Y-139610000D01*
X97268000Y-135158000D01*
X98820000Y-135158000D01*
X98820000Y-139610000D01*
G37*
G36*
X56364295Y-137463323D02*
G01*
X56371309Y-137465451D01*
X56385077Y-137472810D01*
X56407716Y-137482187D01*
X56431749Y-137486967D01*
X56456253Y-137486967D01*
X56480286Y-137482186D01*
X56502923Y-137472810D01*
X56516691Y-137465451D01*
X56523705Y-137463323D01*
X56537140Y-137462000D01*
X56850860Y-137462000D01*
X56864295Y-137463323D01*
X56871309Y-137465451D01*
X56885077Y-137472810D01*
X56907716Y-137482187D01*
X56931749Y-137486967D01*
X56956253Y-137486967D01*
X56980286Y-137482186D01*
X57002923Y-137472810D01*
X57016691Y-137465451D01*
X57023705Y-137463323D01*
X57037140Y-137462000D01*
X57350860Y-137462000D01*
X57364295Y-137463323D01*
X57371309Y-137465451D01*
X57385077Y-137472810D01*
X57407716Y-137482187D01*
X57431749Y-137486967D01*
X57456253Y-137486967D01*
X57480286Y-137482186D01*
X57502923Y-137472810D01*
X57516691Y-137465451D01*
X57523705Y-137463323D01*
X57537140Y-137462000D01*
X57850860Y-137462000D01*
X57864295Y-137463323D01*
X57871309Y-137465451D01*
X57885077Y-137472810D01*
X57907716Y-137482187D01*
X57931749Y-137486967D01*
X57956253Y-137486967D01*
X57980286Y-137482186D01*
X58002923Y-137472810D01*
X58016691Y-137465451D01*
X58023705Y-137463323D01*
X58037140Y-137462000D01*
X58350860Y-137462000D01*
X58364295Y-137463323D01*
X58371309Y-137465451D01*
X58385077Y-137472810D01*
X58407716Y-137482187D01*
X58431749Y-137486967D01*
X58456253Y-137486967D01*
X58480286Y-137482186D01*
X58502923Y-137472810D01*
X58516691Y-137465451D01*
X58523705Y-137463323D01*
X58537140Y-137462000D01*
X58850860Y-137462000D01*
X58864295Y-137463323D01*
X58871309Y-137465451D01*
X58885077Y-137472810D01*
X58907716Y-137482187D01*
X58931749Y-137486967D01*
X58956253Y-137486967D01*
X58980286Y-137482186D01*
X59002923Y-137472810D01*
X59016691Y-137465451D01*
X59023705Y-137463323D01*
X59037140Y-137462000D01*
X59350860Y-137462000D01*
X59364295Y-137463323D01*
X59371309Y-137465451D01*
X59385077Y-137472810D01*
X59407716Y-137482187D01*
X59431749Y-137486967D01*
X59456253Y-137486967D01*
X59480286Y-137482186D01*
X59502923Y-137472810D01*
X59516691Y-137465451D01*
X59523705Y-137463323D01*
X59537140Y-137462000D01*
X59850860Y-137462000D01*
X59864295Y-137463323D01*
X59871309Y-137465451D01*
X59885077Y-137472810D01*
X59907716Y-137482187D01*
X59931749Y-137486967D01*
X59956253Y-137486967D01*
X59980286Y-137482186D01*
X60002923Y-137472810D01*
X60016691Y-137465451D01*
X60023705Y-137463323D01*
X60037140Y-137462000D01*
X60350860Y-137462000D01*
X60364295Y-137463323D01*
X60371309Y-137465451D01*
X60385077Y-137472810D01*
X60407716Y-137482187D01*
X60431749Y-137486967D01*
X60456253Y-137486967D01*
X60480286Y-137482186D01*
X60502923Y-137472810D01*
X60516691Y-137465451D01*
X60523705Y-137463323D01*
X60537140Y-137462000D01*
X60850860Y-137462000D01*
X60864295Y-137463323D01*
X60871309Y-137465451D01*
X60885077Y-137472810D01*
X60907716Y-137482187D01*
X60931749Y-137486967D01*
X60956253Y-137486967D01*
X60980286Y-137482186D01*
X61002923Y-137472810D01*
X61016691Y-137465451D01*
X61023705Y-137463323D01*
X61037140Y-137462000D01*
X61350860Y-137462000D01*
X61364295Y-137463323D01*
X61371309Y-137465451D01*
X61385077Y-137472810D01*
X61407716Y-137482187D01*
X61431749Y-137486967D01*
X61456253Y-137486967D01*
X61480286Y-137482186D01*
X61502923Y-137472810D01*
X61516691Y-137465451D01*
X61523705Y-137463323D01*
X61537140Y-137462000D01*
X61850860Y-137462000D01*
X61864295Y-137463323D01*
X61871309Y-137465451D01*
X61885077Y-137472810D01*
X61907716Y-137482187D01*
X61931749Y-137486967D01*
X61956253Y-137486967D01*
X61980286Y-137482186D01*
X62002923Y-137472810D01*
X62016691Y-137465451D01*
X62023705Y-137463323D01*
X62037140Y-137462000D01*
X62350860Y-137462000D01*
X62364295Y-137463323D01*
X62371309Y-137465451D01*
X62385077Y-137472810D01*
X62407716Y-137482187D01*
X62431749Y-137486967D01*
X62456253Y-137486967D01*
X62480286Y-137482186D01*
X62502923Y-137472810D01*
X62516691Y-137465451D01*
X62523705Y-137463323D01*
X62537140Y-137462000D01*
X62850860Y-137462000D01*
X62864295Y-137463323D01*
X62871309Y-137465451D01*
X62885077Y-137472810D01*
X62907716Y-137482187D01*
X62931749Y-137486967D01*
X62956253Y-137486967D01*
X62980286Y-137482186D01*
X63002923Y-137472810D01*
X63016691Y-137465451D01*
X63023705Y-137463323D01*
X63037140Y-137462000D01*
X63350860Y-137462000D01*
X63364295Y-137463323D01*
X63371309Y-137465451D01*
X63385077Y-137472810D01*
X63407716Y-137482187D01*
X63431749Y-137486967D01*
X63456253Y-137486967D01*
X63480286Y-137482186D01*
X63502923Y-137472810D01*
X63516691Y-137465451D01*
X63523705Y-137463323D01*
X63537140Y-137462000D01*
X63850860Y-137462000D01*
X63864295Y-137463323D01*
X63871310Y-137465451D01*
X63877776Y-137468908D01*
X63883442Y-137473558D01*
X63888092Y-137479224D01*
X63891549Y-137485690D01*
X63893677Y-137492705D01*
X63895000Y-137506140D01*
X63895000Y-138994860D01*
X63893677Y-139008295D01*
X63891549Y-139015310D01*
X63888092Y-139021776D01*
X63883442Y-139027442D01*
X63877776Y-139032092D01*
X63871310Y-139035549D01*
X63864295Y-139037677D01*
X63850860Y-139039000D01*
X63537140Y-139039000D01*
X63523705Y-139037677D01*
X63516691Y-139035549D01*
X63502923Y-139028190D01*
X63480284Y-139018813D01*
X63456251Y-139014033D01*
X63431747Y-139014033D01*
X63407714Y-139018814D01*
X63385077Y-139028190D01*
X63371309Y-139035549D01*
X63364295Y-139037677D01*
X63350860Y-139039000D01*
X63037140Y-139039000D01*
X63023705Y-139037677D01*
X63016691Y-139035549D01*
X63002923Y-139028190D01*
X62980284Y-139018813D01*
X62956251Y-139014033D01*
X62931747Y-139014033D01*
X62907714Y-139018814D01*
X62885077Y-139028190D01*
X62871309Y-139035549D01*
X62864295Y-139037677D01*
X62850860Y-139039000D01*
X62537140Y-139039000D01*
X62523705Y-139037677D01*
X62516691Y-139035549D01*
X62502923Y-139028190D01*
X62480284Y-139018813D01*
X62456251Y-139014033D01*
X62431747Y-139014033D01*
X62407714Y-139018814D01*
X62385077Y-139028190D01*
X62371309Y-139035549D01*
X62364295Y-139037677D01*
X62350860Y-139039000D01*
X62037140Y-139039000D01*
X62023705Y-139037677D01*
X62016691Y-139035549D01*
X62002923Y-139028190D01*
X61980284Y-139018813D01*
X61956251Y-139014033D01*
X61931747Y-139014033D01*
X61907714Y-139018814D01*
X61885077Y-139028190D01*
X61871309Y-139035549D01*
X61864295Y-139037677D01*
X61850860Y-139039000D01*
X61537140Y-139039000D01*
X61523705Y-139037677D01*
X61516691Y-139035549D01*
X61502923Y-139028190D01*
X61480284Y-139018813D01*
X61456251Y-139014033D01*
X61431747Y-139014033D01*
X61407714Y-139018814D01*
X61385077Y-139028190D01*
X61371309Y-139035549D01*
X61364295Y-139037677D01*
X61350860Y-139039000D01*
X61037140Y-139039000D01*
X61023705Y-139037677D01*
X61016691Y-139035549D01*
X61002923Y-139028190D01*
X60980284Y-139018813D01*
X60956251Y-139014033D01*
X60931747Y-139014033D01*
X60907714Y-139018814D01*
X60885077Y-139028190D01*
X60871309Y-139035549D01*
X60864295Y-139037677D01*
X60850860Y-139039000D01*
X60537140Y-139039000D01*
X60523705Y-139037677D01*
X60516691Y-139035549D01*
X60502923Y-139028190D01*
X60480284Y-139018813D01*
X60456251Y-139014033D01*
X60431747Y-139014033D01*
X60407714Y-139018814D01*
X60385077Y-139028190D01*
X60371309Y-139035549D01*
X60364295Y-139037677D01*
X60350860Y-139039000D01*
X60037140Y-139039000D01*
X60023705Y-139037677D01*
X60016691Y-139035549D01*
X60002923Y-139028190D01*
X59980284Y-139018813D01*
X59956251Y-139014033D01*
X59931747Y-139014033D01*
X59907714Y-139018814D01*
X59885077Y-139028190D01*
X59871309Y-139035549D01*
X59864295Y-139037677D01*
X59850860Y-139039000D01*
X59537140Y-139039000D01*
X59523705Y-139037677D01*
X59516691Y-139035549D01*
X59502923Y-139028190D01*
X59480284Y-139018813D01*
X59456251Y-139014033D01*
X59431747Y-139014033D01*
X59407714Y-139018814D01*
X59385077Y-139028190D01*
X59371309Y-139035549D01*
X59364295Y-139037677D01*
X59350860Y-139039000D01*
X59037140Y-139039000D01*
X59023705Y-139037677D01*
X59016691Y-139035549D01*
X59002923Y-139028190D01*
X58980284Y-139018813D01*
X58956251Y-139014033D01*
X58931747Y-139014033D01*
X58907714Y-139018814D01*
X58885077Y-139028190D01*
X58871309Y-139035549D01*
X58864295Y-139037677D01*
X58850860Y-139039000D01*
X58537140Y-139039000D01*
X58523705Y-139037677D01*
X58516691Y-139035549D01*
X58502923Y-139028190D01*
X58480284Y-139018813D01*
X58456251Y-139014033D01*
X58431747Y-139014033D01*
X58407714Y-139018814D01*
X58385077Y-139028190D01*
X58371309Y-139035549D01*
X58364295Y-139037677D01*
X58350860Y-139039000D01*
X58037140Y-139039000D01*
X58023705Y-139037677D01*
X58016691Y-139035549D01*
X58002923Y-139028190D01*
X57980284Y-139018813D01*
X57956251Y-139014033D01*
X57931747Y-139014033D01*
X57907714Y-139018814D01*
X57885077Y-139028190D01*
X57871309Y-139035549D01*
X57864295Y-139037677D01*
X57850860Y-139039000D01*
X57537140Y-139039000D01*
X57523705Y-139037677D01*
X57516691Y-139035549D01*
X57502923Y-139028190D01*
X57480284Y-139018813D01*
X57456251Y-139014033D01*
X57431747Y-139014033D01*
X57407714Y-139018814D01*
X57385077Y-139028190D01*
X57371309Y-139035549D01*
X57364295Y-139037677D01*
X57350860Y-139039000D01*
X57037140Y-139039000D01*
X57023705Y-139037677D01*
X57016691Y-139035549D01*
X57002923Y-139028190D01*
X56980284Y-139018813D01*
X56956251Y-139014033D01*
X56931747Y-139014033D01*
X56907714Y-139018814D01*
X56885077Y-139028190D01*
X56871309Y-139035549D01*
X56864295Y-139037677D01*
X56850860Y-139039000D01*
X56537140Y-139039000D01*
X56523705Y-139037677D01*
X56516691Y-139035549D01*
X56502923Y-139028190D01*
X56480284Y-139018813D01*
X56456251Y-139014033D01*
X56431747Y-139014033D01*
X56407714Y-139018814D01*
X56385077Y-139028190D01*
X56371309Y-139035549D01*
X56364295Y-139037677D01*
X56350860Y-139039000D01*
X56037140Y-139039000D01*
X56023705Y-139037677D01*
X56016690Y-139035549D01*
X56010224Y-139032092D01*
X56004558Y-139027442D01*
X55999908Y-139021776D01*
X55996451Y-139015310D01*
X55994323Y-139008295D01*
X55993000Y-138994860D01*
X55993000Y-137506140D01*
X55994323Y-137492705D01*
X55996451Y-137485690D01*
X55999908Y-137479224D01*
X56004558Y-137473558D01*
X56010224Y-137468908D01*
X56016690Y-137465451D01*
X56023705Y-137463323D01*
X56037140Y-137462000D01*
X56350860Y-137462000D01*
X56364295Y-137463323D01*
G37*
G36*
X102337642Y-136837781D02*
G01*
X102483414Y-136898162D01*
X102483416Y-136898163D01*
X102614608Y-136985822D01*
X102726178Y-137097392D01*
X102812110Y-137226000D01*
X102813838Y-137228586D01*
X102874219Y-137374358D01*
X102905000Y-137529107D01*
X102905000Y-137686893D01*
X102874219Y-137841642D01*
X102817737Y-137978000D01*
X102813837Y-137987416D01*
X102726178Y-138118608D01*
X102614608Y-138230178D01*
X102483416Y-138317837D01*
X102483415Y-138317838D01*
X102483414Y-138317838D01*
X102337642Y-138378219D01*
X102182893Y-138409000D01*
X102025107Y-138409000D01*
X101870358Y-138378219D01*
X101724586Y-138317838D01*
X101724585Y-138317838D01*
X101724584Y-138317837D01*
X101593392Y-138230178D01*
X101481822Y-138118608D01*
X101394163Y-137987416D01*
X101390263Y-137978000D01*
X101333781Y-137841642D01*
X101303000Y-137686893D01*
X101303000Y-137529107D01*
X101333781Y-137374358D01*
X101394162Y-137228586D01*
X101395890Y-137226000D01*
X101481822Y-137097392D01*
X101593392Y-136985822D01*
X101724584Y-136898163D01*
X101724586Y-136898162D01*
X101870358Y-136837781D01*
X102025107Y-136807000D01*
X102182893Y-136807000D01*
X102337642Y-136837781D01*
G37*
G36*
X105887642Y-136837781D02*
G01*
X106033414Y-136898162D01*
X106033416Y-136898163D01*
X106164608Y-136985822D01*
X106276178Y-137097392D01*
X106362110Y-137226000D01*
X106363838Y-137228586D01*
X106424219Y-137374358D01*
X106455000Y-137529107D01*
X106455000Y-137686893D01*
X106424219Y-137841642D01*
X106367737Y-137978000D01*
X106363837Y-137987416D01*
X106276178Y-138118608D01*
X106164608Y-138230178D01*
X106033416Y-138317837D01*
X106033415Y-138317838D01*
X106033414Y-138317838D01*
X105887642Y-138378219D01*
X105732893Y-138409000D01*
X105575107Y-138409000D01*
X105420358Y-138378219D01*
X105274586Y-138317838D01*
X105274585Y-138317838D01*
X105274584Y-138317837D01*
X105143392Y-138230178D01*
X105031822Y-138118608D01*
X104944163Y-137987416D01*
X104940263Y-137978000D01*
X104883781Y-137841642D01*
X104853000Y-137686893D01*
X104853000Y-137529107D01*
X104883781Y-137374358D01*
X104944162Y-137228586D01*
X104945890Y-137226000D01*
X105031822Y-137097392D01*
X105143392Y-136985822D01*
X105274584Y-136898163D01*
X105274586Y-136898162D01*
X105420358Y-136837781D01*
X105575107Y-136807000D01*
X105732893Y-136807000D01*
X105887642Y-136837781D01*
G37*
G36*
X70347000Y-137978000D02*
G01*
X68685000Y-137978000D01*
X68685000Y-135326000D01*
X70347000Y-135326000D01*
X70347000Y-137978000D01*
G37*
G36*
X73047000Y-137978000D02*
G01*
X71385000Y-137978000D01*
X71385000Y-135326000D01*
X73047000Y-135326000D01*
X73047000Y-137978000D01*
G37*
G36*
X78881562Y-135730181D02*
G01*
X78916481Y-135740774D01*
X78948663Y-135757976D01*
X78976873Y-135781127D01*
X79000024Y-135809337D01*
X79017226Y-135841519D01*
X79027819Y-135876438D01*
X79032000Y-135918895D01*
X79032000Y-137385105D01*
X79027819Y-137427562D01*
X79017226Y-137462481D01*
X79000024Y-137494663D01*
X78976873Y-137522873D01*
X78948663Y-137546024D01*
X78916481Y-137563226D01*
X78881562Y-137573819D01*
X78839105Y-137578000D01*
X77697895Y-137578000D01*
X77655438Y-137573819D01*
X77620519Y-137563226D01*
X77588337Y-137546024D01*
X77560127Y-137522873D01*
X77536976Y-137494663D01*
X77519774Y-137462481D01*
X77509181Y-137427562D01*
X77505000Y-137385105D01*
X77505000Y-135918895D01*
X77509181Y-135876438D01*
X77519774Y-135841519D01*
X77536976Y-135809337D01*
X77560127Y-135781127D01*
X77588337Y-135757976D01*
X77620519Y-135740774D01*
X77655438Y-135730181D01*
X77697895Y-135726000D01*
X78839105Y-135726000D01*
X78881562Y-135730181D01*
G37*
G36*
X81856562Y-135730181D02*
G01*
X81891481Y-135740774D01*
X81923663Y-135757976D01*
X81951873Y-135781127D01*
X81975024Y-135809337D01*
X81992226Y-135841519D01*
X82002819Y-135876438D01*
X82007000Y-135918895D01*
X82007000Y-137385105D01*
X82002819Y-137427562D01*
X81992226Y-137462481D01*
X81975024Y-137494663D01*
X81951873Y-137522873D01*
X81923663Y-137546024D01*
X81891481Y-137563226D01*
X81856562Y-137573819D01*
X81814105Y-137578000D01*
X80672895Y-137578000D01*
X80630438Y-137573819D01*
X80595519Y-137563226D01*
X80563337Y-137546024D01*
X80535127Y-137522873D01*
X80511976Y-137494663D01*
X80494774Y-137462481D01*
X80484181Y-137427562D01*
X80480000Y-137385105D01*
X80480000Y-135918895D01*
X80484181Y-135876438D01*
X80494774Y-135841519D01*
X80511976Y-135809337D01*
X80535127Y-135781127D01*
X80563337Y-135757976D01*
X80595519Y-135740774D01*
X80630438Y-135730181D01*
X80672895Y-135726000D01*
X81814105Y-135726000D01*
X81856562Y-135730181D01*
G37*
G36*
X55039295Y-128638323D02*
G01*
X55046310Y-128640451D01*
X55052776Y-128643908D01*
X55058442Y-128648558D01*
X55063092Y-128654224D01*
X55066549Y-128660690D01*
X55068677Y-128667705D01*
X55070000Y-128681140D01*
X55070000Y-128994860D01*
X55068677Y-129008295D01*
X55066549Y-129015309D01*
X55059190Y-129029077D01*
X55049813Y-129051716D01*
X55045033Y-129075749D01*
X55045033Y-129100253D01*
X55049814Y-129124286D01*
X55059190Y-129146923D01*
X55066549Y-129160691D01*
X55068677Y-129167705D01*
X55070000Y-129181140D01*
X55070000Y-129494860D01*
X55068677Y-129508295D01*
X55066549Y-129515309D01*
X55059190Y-129529077D01*
X55049813Y-129551716D01*
X55045033Y-129575749D01*
X55045033Y-129600253D01*
X55049814Y-129624286D01*
X55059190Y-129646923D01*
X55066549Y-129660691D01*
X55068677Y-129667705D01*
X55070000Y-129681140D01*
X55070000Y-129994860D01*
X55068677Y-130008295D01*
X55066549Y-130015309D01*
X55059190Y-130029077D01*
X55049813Y-130051716D01*
X55045033Y-130075749D01*
X55045033Y-130100253D01*
X55049814Y-130124286D01*
X55059190Y-130146923D01*
X55066549Y-130160691D01*
X55068677Y-130167705D01*
X55070000Y-130181140D01*
X55070000Y-130494860D01*
X55068677Y-130508295D01*
X55066549Y-130515309D01*
X55059190Y-130529077D01*
X55049813Y-130551716D01*
X55045033Y-130575749D01*
X55045033Y-130600253D01*
X55049814Y-130624286D01*
X55059190Y-130646923D01*
X55066549Y-130660691D01*
X55068677Y-130667705D01*
X55070000Y-130681140D01*
X55070000Y-130994860D01*
X55068677Y-131008295D01*
X55066549Y-131015309D01*
X55059190Y-131029077D01*
X55049813Y-131051716D01*
X55045033Y-131075749D01*
X55045033Y-131100253D01*
X55049814Y-131124286D01*
X55059190Y-131146923D01*
X55066549Y-131160691D01*
X55068677Y-131167705D01*
X55070000Y-131181140D01*
X55070000Y-131494860D01*
X55068677Y-131508295D01*
X55066549Y-131515309D01*
X55059190Y-131529077D01*
X55049813Y-131551716D01*
X55045033Y-131575749D01*
X55045033Y-131600253D01*
X55049814Y-131624286D01*
X55059190Y-131646923D01*
X55066549Y-131660691D01*
X55068677Y-131667705D01*
X55070000Y-131681140D01*
X55070000Y-131994860D01*
X55068677Y-132008295D01*
X55066549Y-132015309D01*
X55059190Y-132029077D01*
X55049813Y-132051716D01*
X55045033Y-132075749D01*
X55045033Y-132100253D01*
X55049814Y-132124286D01*
X55059190Y-132146923D01*
X55066549Y-132160691D01*
X55068677Y-132167705D01*
X55070000Y-132181140D01*
X55070000Y-132494860D01*
X55068677Y-132508295D01*
X55066549Y-132515309D01*
X55059190Y-132529077D01*
X55049813Y-132551716D01*
X55045033Y-132575749D01*
X55045033Y-132600253D01*
X55049814Y-132624286D01*
X55059190Y-132646923D01*
X55066549Y-132660691D01*
X55068677Y-132667705D01*
X55070000Y-132681140D01*
X55070000Y-132994860D01*
X55068677Y-133008295D01*
X55066549Y-133015309D01*
X55059190Y-133029077D01*
X55049813Y-133051716D01*
X55045033Y-133075749D01*
X55045033Y-133100253D01*
X55049814Y-133124286D01*
X55059190Y-133146923D01*
X55066549Y-133160691D01*
X55068677Y-133167705D01*
X55070000Y-133181140D01*
X55070000Y-133494860D01*
X55068677Y-133508295D01*
X55066549Y-133515309D01*
X55059190Y-133529077D01*
X55049813Y-133551716D01*
X55045033Y-133575749D01*
X55045033Y-133600253D01*
X55049814Y-133624286D01*
X55059190Y-133646923D01*
X55066549Y-133660691D01*
X55068677Y-133667705D01*
X55070000Y-133681140D01*
X55070000Y-133994860D01*
X55068677Y-134008295D01*
X55066549Y-134015309D01*
X55059190Y-134029077D01*
X55049813Y-134051716D01*
X55045033Y-134075749D01*
X55045033Y-134100253D01*
X55049814Y-134124286D01*
X55059190Y-134146923D01*
X55066549Y-134160691D01*
X55068677Y-134167705D01*
X55070000Y-134181140D01*
X55070000Y-134494860D01*
X55068677Y-134508295D01*
X55066549Y-134515309D01*
X55059190Y-134529077D01*
X55049813Y-134551716D01*
X55045033Y-134575749D01*
X55045033Y-134600253D01*
X55049814Y-134624286D01*
X55059190Y-134646923D01*
X55066549Y-134660691D01*
X55068677Y-134667705D01*
X55070000Y-134681140D01*
X55070000Y-134994860D01*
X55068677Y-135008295D01*
X55066549Y-135015309D01*
X55059190Y-135029077D01*
X55049813Y-135051716D01*
X55045033Y-135075749D01*
X55045033Y-135100253D01*
X55049814Y-135124286D01*
X55059190Y-135146923D01*
X55066549Y-135160691D01*
X55068677Y-135167705D01*
X55070000Y-135181140D01*
X55070000Y-135494860D01*
X55068677Y-135508295D01*
X55066549Y-135515309D01*
X55059190Y-135529077D01*
X55049813Y-135551716D01*
X55045033Y-135575749D01*
X55045033Y-135600253D01*
X55049814Y-135624286D01*
X55059190Y-135646923D01*
X55066549Y-135660691D01*
X55068677Y-135667705D01*
X55070000Y-135681140D01*
X55070000Y-135994860D01*
X55068677Y-136008295D01*
X55066549Y-136015309D01*
X55059190Y-136029077D01*
X55049813Y-136051716D01*
X55045033Y-136075749D01*
X55045033Y-136100253D01*
X55049814Y-136124286D01*
X55059190Y-136146923D01*
X55066549Y-136160691D01*
X55068677Y-136167705D01*
X55070000Y-136181140D01*
X55070000Y-136494860D01*
X55068677Y-136508295D01*
X55066549Y-136515310D01*
X55063092Y-136521776D01*
X55058442Y-136527442D01*
X55052776Y-136532092D01*
X55046310Y-136535549D01*
X55039295Y-136537677D01*
X55025860Y-136539000D01*
X53537140Y-136539000D01*
X53523705Y-136537677D01*
X53516690Y-136535549D01*
X53510224Y-136532092D01*
X53504558Y-136527442D01*
X53499908Y-136521776D01*
X53496451Y-136515310D01*
X53494323Y-136508295D01*
X53493000Y-136494860D01*
X53493000Y-136181140D01*
X53494323Y-136167705D01*
X53496451Y-136160691D01*
X53503810Y-136146923D01*
X53513187Y-136124284D01*
X53517967Y-136100251D01*
X53517967Y-136075747D01*
X53513186Y-136051714D01*
X53503810Y-136029077D01*
X53496451Y-136015309D01*
X53494323Y-136008295D01*
X53493000Y-135994860D01*
X53493000Y-135681140D01*
X53494323Y-135667705D01*
X53496451Y-135660691D01*
X53503810Y-135646923D01*
X53513187Y-135624284D01*
X53517967Y-135600251D01*
X53517967Y-135575747D01*
X53513186Y-135551714D01*
X53503810Y-135529077D01*
X53496451Y-135515309D01*
X53494323Y-135508295D01*
X53493000Y-135494860D01*
X53493000Y-135181140D01*
X53494323Y-135167705D01*
X53496451Y-135160691D01*
X53503810Y-135146923D01*
X53513187Y-135124284D01*
X53517967Y-135100251D01*
X53517967Y-135075747D01*
X53513186Y-135051714D01*
X53503810Y-135029077D01*
X53496451Y-135015309D01*
X53494323Y-135008295D01*
X53493000Y-134994860D01*
X53493000Y-134681140D01*
X53494323Y-134667705D01*
X53496451Y-134660691D01*
X53503810Y-134646923D01*
X53513187Y-134624284D01*
X53517967Y-134600251D01*
X53517967Y-134575747D01*
X53513186Y-134551714D01*
X53503810Y-134529077D01*
X53496451Y-134515309D01*
X53494323Y-134508295D01*
X53493000Y-134494860D01*
X53493000Y-134181140D01*
X53494323Y-134167705D01*
X53496451Y-134160691D01*
X53503810Y-134146923D01*
X53513187Y-134124284D01*
X53517967Y-134100251D01*
X53517967Y-134075747D01*
X53513186Y-134051714D01*
X53503810Y-134029077D01*
X53496451Y-134015309D01*
X53494323Y-134008295D01*
X53493000Y-133994860D01*
X53493000Y-133681140D01*
X53494323Y-133667705D01*
X53496451Y-133660691D01*
X53503810Y-133646923D01*
X53513187Y-133624284D01*
X53517967Y-133600251D01*
X53517967Y-133575747D01*
X53513186Y-133551714D01*
X53503810Y-133529077D01*
X53496451Y-133515309D01*
X53494323Y-133508295D01*
X53493000Y-133494860D01*
X53493000Y-133181140D01*
X53494323Y-133167705D01*
X53496451Y-133160691D01*
X53503810Y-133146923D01*
X53513187Y-133124284D01*
X53517967Y-133100251D01*
X53517967Y-133075747D01*
X53513186Y-133051714D01*
X53503810Y-133029077D01*
X53496451Y-133015309D01*
X53494323Y-133008295D01*
X53493000Y-132994860D01*
X53493000Y-132681140D01*
X53494323Y-132667705D01*
X53496451Y-132660691D01*
X53503810Y-132646923D01*
X53513187Y-132624284D01*
X53517967Y-132600251D01*
X53517967Y-132575747D01*
X53513186Y-132551714D01*
X53503810Y-132529077D01*
X53496451Y-132515309D01*
X53494323Y-132508295D01*
X53493000Y-132494860D01*
X53493000Y-132181140D01*
X53494323Y-132167705D01*
X53496451Y-132160691D01*
X53503810Y-132146923D01*
X53513187Y-132124284D01*
X53517967Y-132100251D01*
X53517967Y-132075747D01*
X53513186Y-132051714D01*
X53503810Y-132029077D01*
X53496451Y-132015309D01*
X53494323Y-132008295D01*
X53493000Y-131994860D01*
X53493000Y-131681140D01*
X53494323Y-131667705D01*
X53496451Y-131660691D01*
X53503810Y-131646923D01*
X53513187Y-131624284D01*
X53517967Y-131600251D01*
X53517967Y-131575747D01*
X53513186Y-131551714D01*
X53503810Y-131529077D01*
X53496451Y-131515309D01*
X53494323Y-131508295D01*
X53493000Y-131494860D01*
X53493000Y-131181140D01*
X53494323Y-131167705D01*
X53496451Y-131160691D01*
X53503810Y-131146923D01*
X53513187Y-131124284D01*
X53517967Y-131100251D01*
X53517967Y-131075747D01*
X53513186Y-131051714D01*
X53503810Y-131029077D01*
X53496451Y-131015309D01*
X53494323Y-131008295D01*
X53493000Y-130994860D01*
X53493000Y-130681140D01*
X53494323Y-130667705D01*
X53496451Y-130660691D01*
X53503810Y-130646923D01*
X53513187Y-130624284D01*
X53517967Y-130600251D01*
X53517967Y-130575747D01*
X53513186Y-130551714D01*
X53503810Y-130529077D01*
X53496451Y-130515309D01*
X53494323Y-130508295D01*
X53493000Y-130494860D01*
X53493000Y-130181140D01*
X53494323Y-130167705D01*
X53496451Y-130160691D01*
X53503810Y-130146923D01*
X53513187Y-130124284D01*
X53517967Y-130100251D01*
X53517967Y-130075747D01*
X53513186Y-130051714D01*
X53503810Y-130029077D01*
X53496451Y-130015309D01*
X53494323Y-130008295D01*
X53493000Y-129994860D01*
X53493000Y-129681140D01*
X53494323Y-129667705D01*
X53496451Y-129660691D01*
X53503810Y-129646923D01*
X53513187Y-129624284D01*
X53517967Y-129600251D01*
X53517967Y-129575747D01*
X53513186Y-129551714D01*
X53503810Y-129529077D01*
X53496451Y-129515309D01*
X53494323Y-129508295D01*
X53493000Y-129494860D01*
X53493000Y-129181140D01*
X53494323Y-129167705D01*
X53496451Y-129160691D01*
X53503810Y-129146923D01*
X53513187Y-129124284D01*
X53517967Y-129100251D01*
X53517967Y-129075747D01*
X53513186Y-129051714D01*
X53503810Y-129029077D01*
X53496451Y-129015309D01*
X53494323Y-129008295D01*
X53493000Y-128994860D01*
X53493000Y-128681140D01*
X53494323Y-128667705D01*
X53496451Y-128660690D01*
X53499908Y-128654224D01*
X53504558Y-128648558D01*
X53510224Y-128643908D01*
X53516690Y-128640451D01*
X53523705Y-128638323D01*
X53537140Y-128637000D01*
X55025860Y-128637000D01*
X55039295Y-128638323D01*
G37*
G36*
X66364295Y-128638323D02*
G01*
X66371310Y-128640451D01*
X66377776Y-128643908D01*
X66383442Y-128648558D01*
X66388092Y-128654224D01*
X66391549Y-128660690D01*
X66393677Y-128667705D01*
X66395000Y-128681140D01*
X66395000Y-128994860D01*
X66393677Y-129008295D01*
X66391549Y-129015309D01*
X66384190Y-129029077D01*
X66374813Y-129051716D01*
X66370033Y-129075749D01*
X66370033Y-129100253D01*
X66374814Y-129124286D01*
X66384190Y-129146923D01*
X66391549Y-129160691D01*
X66393677Y-129167705D01*
X66395000Y-129181140D01*
X66395000Y-129494860D01*
X66393677Y-129508295D01*
X66391549Y-129515309D01*
X66384190Y-129529077D01*
X66374813Y-129551716D01*
X66370033Y-129575749D01*
X66370033Y-129600253D01*
X66374814Y-129624286D01*
X66384190Y-129646923D01*
X66391549Y-129660691D01*
X66393677Y-129667705D01*
X66395000Y-129681140D01*
X66395000Y-129994860D01*
X66393677Y-130008295D01*
X66391549Y-130015309D01*
X66384190Y-130029077D01*
X66374813Y-130051716D01*
X66370033Y-130075749D01*
X66370033Y-130100253D01*
X66374814Y-130124286D01*
X66384190Y-130146923D01*
X66391549Y-130160691D01*
X66393677Y-130167705D01*
X66395000Y-130181140D01*
X66395000Y-130494860D01*
X66393677Y-130508295D01*
X66391549Y-130515309D01*
X66384190Y-130529077D01*
X66374813Y-130551716D01*
X66370033Y-130575749D01*
X66370033Y-130600253D01*
X66374814Y-130624286D01*
X66384190Y-130646923D01*
X66391549Y-130660691D01*
X66393677Y-130667705D01*
X66395000Y-130681140D01*
X66395000Y-130994860D01*
X66393677Y-131008295D01*
X66391549Y-131015309D01*
X66384190Y-131029077D01*
X66374813Y-131051716D01*
X66370033Y-131075749D01*
X66370033Y-131100253D01*
X66374814Y-131124286D01*
X66384190Y-131146923D01*
X66391549Y-131160691D01*
X66393677Y-131167705D01*
X66395000Y-131181140D01*
X66395000Y-131494860D01*
X66393677Y-131508295D01*
X66391549Y-131515309D01*
X66384190Y-131529077D01*
X66374813Y-131551716D01*
X66370033Y-131575749D01*
X66370033Y-131600253D01*
X66374814Y-131624286D01*
X66384190Y-131646923D01*
X66391549Y-131660691D01*
X66393677Y-131667705D01*
X66395000Y-131681140D01*
X66395000Y-131994860D01*
X66393677Y-132008295D01*
X66391549Y-132015309D01*
X66384190Y-132029077D01*
X66374813Y-132051716D01*
X66370033Y-132075749D01*
X66370033Y-132100253D01*
X66374814Y-132124286D01*
X66384190Y-132146923D01*
X66391549Y-132160691D01*
X66393677Y-132167705D01*
X66395000Y-132181140D01*
X66395000Y-132494860D01*
X66393677Y-132508295D01*
X66391549Y-132515309D01*
X66384190Y-132529077D01*
X66374813Y-132551716D01*
X66370033Y-132575749D01*
X66370033Y-132600253D01*
X66374814Y-132624286D01*
X66384190Y-132646923D01*
X66391549Y-132660691D01*
X66393677Y-132667705D01*
X66395000Y-132681140D01*
X66395000Y-132994860D01*
X66393677Y-133008295D01*
X66391549Y-133015309D01*
X66384190Y-133029077D01*
X66374813Y-133051716D01*
X66370033Y-133075749D01*
X66370033Y-133100253D01*
X66374814Y-133124286D01*
X66384190Y-133146923D01*
X66391549Y-133160691D01*
X66393677Y-133167705D01*
X66395000Y-133181140D01*
X66395000Y-133494860D01*
X66393677Y-133508295D01*
X66391549Y-133515309D01*
X66384190Y-133529077D01*
X66374813Y-133551716D01*
X66370033Y-133575749D01*
X66370033Y-133600253D01*
X66374814Y-133624286D01*
X66384190Y-133646923D01*
X66391549Y-133660691D01*
X66393677Y-133667705D01*
X66395000Y-133681140D01*
X66395000Y-133994860D01*
X66393677Y-134008295D01*
X66391549Y-134015309D01*
X66384190Y-134029077D01*
X66374813Y-134051716D01*
X66370033Y-134075749D01*
X66370033Y-134100253D01*
X66374814Y-134124286D01*
X66384190Y-134146923D01*
X66391549Y-134160691D01*
X66393677Y-134167705D01*
X66395000Y-134181140D01*
X66395000Y-134494860D01*
X66393677Y-134508295D01*
X66391549Y-134515309D01*
X66384190Y-134529077D01*
X66374813Y-134551716D01*
X66370033Y-134575749D01*
X66370033Y-134600253D01*
X66374814Y-134624286D01*
X66384190Y-134646923D01*
X66391549Y-134660691D01*
X66393677Y-134667705D01*
X66395000Y-134681140D01*
X66395000Y-134994860D01*
X66393677Y-135008295D01*
X66391549Y-135015309D01*
X66384190Y-135029077D01*
X66374813Y-135051716D01*
X66370033Y-135075749D01*
X66370033Y-135100253D01*
X66374814Y-135124286D01*
X66384190Y-135146923D01*
X66391549Y-135160691D01*
X66393677Y-135167705D01*
X66395000Y-135181140D01*
X66395000Y-135494860D01*
X66393677Y-135508295D01*
X66391549Y-135515309D01*
X66384190Y-135529077D01*
X66374813Y-135551716D01*
X66370033Y-135575749D01*
X66370033Y-135600253D01*
X66374814Y-135624286D01*
X66384190Y-135646923D01*
X66391549Y-135660691D01*
X66393677Y-135667705D01*
X66395000Y-135681140D01*
X66395000Y-135994860D01*
X66393677Y-136008295D01*
X66391549Y-136015309D01*
X66384190Y-136029077D01*
X66374813Y-136051716D01*
X66370033Y-136075749D01*
X66370033Y-136100253D01*
X66374814Y-136124286D01*
X66384190Y-136146923D01*
X66391549Y-136160691D01*
X66393677Y-136167705D01*
X66395000Y-136181140D01*
X66395000Y-136494860D01*
X66393677Y-136508295D01*
X66391549Y-136515310D01*
X66388092Y-136521776D01*
X66383442Y-136527442D01*
X66377776Y-136532092D01*
X66371310Y-136535549D01*
X66364295Y-136537677D01*
X66350860Y-136539000D01*
X64862140Y-136539000D01*
X64848705Y-136537677D01*
X64841690Y-136535549D01*
X64835224Y-136532092D01*
X64829558Y-136527442D01*
X64824908Y-136521776D01*
X64821451Y-136515310D01*
X64819323Y-136508295D01*
X64818000Y-136494860D01*
X64818000Y-136181140D01*
X64819323Y-136167705D01*
X64821451Y-136160691D01*
X64828810Y-136146923D01*
X64838187Y-136124284D01*
X64842967Y-136100251D01*
X64842967Y-136075747D01*
X64838186Y-136051714D01*
X64828810Y-136029077D01*
X64821451Y-136015309D01*
X64819323Y-136008295D01*
X64818000Y-135994860D01*
X64818000Y-135681140D01*
X64819323Y-135667705D01*
X64821451Y-135660691D01*
X64828810Y-135646923D01*
X64838187Y-135624284D01*
X64842967Y-135600251D01*
X64842967Y-135575747D01*
X64838186Y-135551714D01*
X64828810Y-135529077D01*
X64821451Y-135515309D01*
X64819323Y-135508295D01*
X64818000Y-135494860D01*
X64818000Y-135181140D01*
X64819323Y-135167705D01*
X64821451Y-135160691D01*
X64828810Y-135146923D01*
X64838187Y-135124284D01*
X64842967Y-135100251D01*
X64842967Y-135075747D01*
X64838186Y-135051714D01*
X64828810Y-135029077D01*
X64821451Y-135015309D01*
X64819323Y-135008295D01*
X64818000Y-134994860D01*
X64818000Y-134681140D01*
X64819323Y-134667705D01*
X64821451Y-134660691D01*
X64828810Y-134646923D01*
X64838187Y-134624284D01*
X64842967Y-134600251D01*
X64842967Y-134575747D01*
X64838186Y-134551714D01*
X64828810Y-134529077D01*
X64821451Y-134515309D01*
X64819323Y-134508295D01*
X64818000Y-134494860D01*
X64818000Y-134181140D01*
X64819323Y-134167705D01*
X64821451Y-134160691D01*
X64828810Y-134146923D01*
X64838187Y-134124284D01*
X64842967Y-134100251D01*
X64842967Y-134075747D01*
X64838186Y-134051714D01*
X64828810Y-134029077D01*
X64821451Y-134015309D01*
X64819323Y-134008295D01*
X64818000Y-133994860D01*
X64818000Y-133681140D01*
X64819323Y-133667705D01*
X64821451Y-133660691D01*
X64828810Y-133646923D01*
X64838187Y-133624284D01*
X64842967Y-133600251D01*
X64842967Y-133575747D01*
X64838186Y-133551714D01*
X64828810Y-133529077D01*
X64821451Y-133515309D01*
X64819323Y-133508295D01*
X64818000Y-133494860D01*
X64818000Y-133181140D01*
X64819323Y-133167705D01*
X64821451Y-133160691D01*
X64828810Y-133146923D01*
X64838187Y-133124284D01*
X64842967Y-133100251D01*
X64842967Y-133075747D01*
X64838186Y-133051714D01*
X64828810Y-133029077D01*
X64821451Y-133015309D01*
X64819323Y-133008295D01*
X64818000Y-132994860D01*
X64818000Y-132681140D01*
X64819323Y-132667705D01*
X64821451Y-132660691D01*
X64828810Y-132646923D01*
X64838187Y-132624284D01*
X64842967Y-132600251D01*
X64842967Y-132575747D01*
X64838186Y-132551714D01*
X64828810Y-132529077D01*
X64821451Y-132515309D01*
X64819323Y-132508295D01*
X64818000Y-132494860D01*
X64818000Y-132181140D01*
X64819323Y-132167705D01*
X64821451Y-132160691D01*
X64828810Y-132146923D01*
X64838187Y-132124284D01*
X64842967Y-132100251D01*
X64842967Y-132075747D01*
X64838186Y-132051714D01*
X64828810Y-132029077D01*
X64821451Y-132015309D01*
X64819323Y-132008295D01*
X64818000Y-131994860D01*
X64818000Y-131681140D01*
X64819323Y-131667705D01*
X64821451Y-131660691D01*
X64828810Y-131646923D01*
X64838187Y-131624284D01*
X64842967Y-131600251D01*
X64842967Y-131575747D01*
X64838186Y-131551714D01*
X64828810Y-131529077D01*
X64821451Y-131515309D01*
X64819323Y-131508295D01*
X64818000Y-131494860D01*
X64818000Y-131181140D01*
X64819323Y-131167705D01*
X64821451Y-131160691D01*
X64828810Y-131146923D01*
X64838187Y-131124284D01*
X64842967Y-131100251D01*
X64842967Y-131075747D01*
X64838186Y-131051714D01*
X64828810Y-131029077D01*
X64821451Y-131015309D01*
X64819323Y-131008295D01*
X64818000Y-130994860D01*
X64818000Y-130681140D01*
X64819323Y-130667705D01*
X64821451Y-130660691D01*
X64828810Y-130646923D01*
X64838187Y-130624284D01*
X64842967Y-130600251D01*
X64842967Y-130575747D01*
X64838186Y-130551714D01*
X64828810Y-130529077D01*
X64821451Y-130515309D01*
X64819323Y-130508295D01*
X64818000Y-130494860D01*
X64818000Y-130181140D01*
X64819323Y-130167705D01*
X64821451Y-130160691D01*
X64828810Y-130146923D01*
X64838187Y-130124284D01*
X64842967Y-130100251D01*
X64842967Y-130075747D01*
X64838186Y-130051714D01*
X64828810Y-130029077D01*
X64821451Y-130015309D01*
X64819323Y-130008295D01*
X64818000Y-129994860D01*
X64818000Y-129681140D01*
X64819323Y-129667705D01*
X64821451Y-129660691D01*
X64828810Y-129646923D01*
X64838187Y-129624284D01*
X64842967Y-129600251D01*
X64842967Y-129575747D01*
X64838186Y-129551714D01*
X64828810Y-129529077D01*
X64821451Y-129515309D01*
X64819323Y-129508295D01*
X64818000Y-129494860D01*
X64818000Y-129181140D01*
X64819323Y-129167705D01*
X64821451Y-129160691D01*
X64828810Y-129146923D01*
X64838187Y-129124284D01*
X64842967Y-129100251D01*
X64842967Y-129075747D01*
X64838186Y-129051714D01*
X64828810Y-129029077D01*
X64821451Y-129015309D01*
X64819323Y-129008295D01*
X64818000Y-128994860D01*
X64818000Y-128681140D01*
X64819323Y-128667705D01*
X64821451Y-128660690D01*
X64824908Y-128654224D01*
X64829558Y-128648558D01*
X64835224Y-128643908D01*
X64841690Y-128640451D01*
X64848705Y-128638323D01*
X64862140Y-128637000D01*
X66350860Y-128637000D01*
X66364295Y-128638323D01*
G37*
G36*
X80335563Y-131531182D02*
G01*
X80370482Y-131541775D01*
X80402664Y-131558977D01*
X80430874Y-131582128D01*
X80454025Y-131610338D01*
X80471227Y-131642520D01*
X80481820Y-131677439D01*
X80486001Y-131719896D01*
X80486001Y-133186106D01*
X80481820Y-133228563D01*
X80471227Y-133263482D01*
X80454025Y-133295664D01*
X80430874Y-133323874D01*
X80402664Y-133347025D01*
X80370482Y-133364227D01*
X80335563Y-133374820D01*
X80293106Y-133379001D01*
X79151896Y-133379001D01*
X79109439Y-133374820D01*
X79074520Y-133364227D01*
X79042338Y-133347025D01*
X79014128Y-133323874D01*
X78990977Y-133295664D01*
X78973775Y-133263482D01*
X78963182Y-133228563D01*
X78959001Y-133186106D01*
X78959001Y-131719896D01*
X78963182Y-131677439D01*
X78973775Y-131642520D01*
X78990977Y-131610338D01*
X79014128Y-131582128D01*
X79042338Y-131558977D01*
X79074520Y-131541775D01*
X79109439Y-131531182D01*
X79151896Y-131527001D01*
X80293106Y-131527001D01*
X80335563Y-131531182D01*
G37*
G36*
X77360563Y-131531182D02*
G01*
X77395482Y-131541775D01*
X77427664Y-131558977D01*
X77455874Y-131582128D01*
X77479025Y-131610338D01*
X77496227Y-131642520D01*
X77506820Y-131677439D01*
X77511001Y-131719896D01*
X77511001Y-133186106D01*
X77506820Y-133228563D01*
X77496227Y-133263482D01*
X77479025Y-133295664D01*
X77455874Y-133323874D01*
X77427664Y-133347025D01*
X77395482Y-133364227D01*
X77360563Y-133374820D01*
X77318106Y-133379001D01*
X76176896Y-133379001D01*
X76134439Y-133374820D01*
X76099520Y-133364227D01*
X76067338Y-133347025D01*
X76039128Y-133323874D01*
X76015977Y-133295664D01*
X75998775Y-133263482D01*
X75988182Y-133228563D01*
X75984001Y-133186106D01*
X75984001Y-131719896D01*
X75988182Y-131677439D01*
X75998775Y-131642520D01*
X76015977Y-131610338D01*
X76039128Y-131582128D01*
X76067338Y-131558977D01*
X76099520Y-131541775D01*
X76134439Y-131531182D01*
X76176896Y-131527001D01*
X77318106Y-131527001D01*
X77360563Y-131531182D01*
G37*
G36*
X82691562Y-129380181D02*
G01*
X82726481Y-129390774D01*
X82758663Y-129407976D01*
X82786873Y-129431127D01*
X82810024Y-129459337D01*
X82827226Y-129491519D01*
X82837819Y-129526438D01*
X82842000Y-129568895D01*
X82842000Y-131035105D01*
X82837819Y-131077562D01*
X82827226Y-131112481D01*
X82810024Y-131144663D01*
X82786873Y-131172873D01*
X82758663Y-131196024D01*
X82726481Y-131213226D01*
X82691562Y-131223819D01*
X82649105Y-131228000D01*
X81507895Y-131228000D01*
X81465438Y-131223819D01*
X81430519Y-131213226D01*
X81398337Y-131196024D01*
X81370127Y-131172873D01*
X81346976Y-131144663D01*
X81329774Y-131112481D01*
X81319181Y-131077562D01*
X81315000Y-131035105D01*
X81315000Y-129568895D01*
X81319181Y-129526438D01*
X81329774Y-129491519D01*
X81346976Y-129459337D01*
X81370127Y-129431127D01*
X81398337Y-129407976D01*
X81430519Y-129390774D01*
X81465438Y-129380181D01*
X81507895Y-129376000D01*
X82649105Y-129376000D01*
X82691562Y-129380181D01*
G37*
G36*
X85666562Y-129380181D02*
G01*
X85701481Y-129390774D01*
X85733663Y-129407976D01*
X85761873Y-129431127D01*
X85785024Y-129459337D01*
X85802226Y-129491519D01*
X85812819Y-129526438D01*
X85817000Y-129568895D01*
X85817000Y-131035105D01*
X85812819Y-131077562D01*
X85802226Y-131112481D01*
X85785024Y-131144663D01*
X85761873Y-131172873D01*
X85733663Y-131196024D01*
X85701481Y-131213226D01*
X85666562Y-131223819D01*
X85624105Y-131228000D01*
X84482895Y-131228000D01*
X84440438Y-131223819D01*
X84405519Y-131213226D01*
X84373337Y-131196024D01*
X84345127Y-131172873D01*
X84321976Y-131144663D01*
X84304774Y-131112481D01*
X84294181Y-131077562D01*
X84290000Y-131035105D01*
X84290000Y-129568895D01*
X84294181Y-129526438D01*
X84304774Y-129491519D01*
X84321976Y-129459337D01*
X84345127Y-129431127D01*
X84373337Y-129407976D01*
X84405519Y-129390774D01*
X84440438Y-129380181D01*
X84482895Y-129376000D01*
X85624105Y-129376000D01*
X85666562Y-129380181D01*
G37*
G36*
X104049000Y-130866000D02*
G01*
X102387000Y-130866000D01*
X102387000Y-128214000D01*
X104049000Y-128214000D01*
X104049000Y-130866000D01*
G37*
G36*
X106749000Y-130866000D02*
G01*
X105087000Y-130866000D01*
X105087000Y-128214000D01*
X106749000Y-128214000D01*
X106749000Y-130866000D01*
G37*
G36*
X94043617Y-128344420D02*
G01*
X94124399Y-128368925D01*
X94166335Y-128381646D01*
X94279424Y-128442094D01*
X94378554Y-128523447D01*
X94459906Y-128622575D01*
X94520354Y-128735664D01*
X94520911Y-128737500D01*
X94557580Y-128858382D01*
X94557580Y-128858384D01*
X94567000Y-128954026D01*
X94567000Y-129617974D01*
X94566378Y-129624286D01*
X94557580Y-129713618D01*
X94556283Y-129717893D01*
X94520354Y-129836336D01*
X94459906Y-129949425D01*
X94378554Y-130048554D01*
X94279425Y-130129906D01*
X94166336Y-130190354D01*
X94134404Y-130200040D01*
X94043618Y-130227580D01*
X93916000Y-130240149D01*
X93788383Y-130227580D01*
X93697597Y-130200040D01*
X93665665Y-130190354D01*
X93552576Y-130129906D01*
X93453447Y-130048554D01*
X93372096Y-129949427D01*
X93311645Y-129836333D01*
X93275717Y-129717893D01*
X93274420Y-129713618D01*
X93265622Y-129624286D01*
X93265000Y-129617974D01*
X93265000Y-128954027D01*
X93274420Y-128858385D01*
X93274420Y-128858383D01*
X93301960Y-128767597D01*
X93311646Y-128735665D01*
X93372094Y-128622576D01*
X93453447Y-128523446D01*
X93552575Y-128442094D01*
X93665664Y-128381646D01*
X93707600Y-128368925D01*
X93788382Y-128344420D01*
X93916000Y-128331851D01*
X94043617Y-128344420D01*
G37*
G36*
X92043617Y-128344420D02*
G01*
X92124399Y-128368925D01*
X92166335Y-128381646D01*
X92279424Y-128442094D01*
X92378554Y-128523447D01*
X92459906Y-128622575D01*
X92520354Y-128735664D01*
X92520911Y-128737500D01*
X92557580Y-128858382D01*
X92557580Y-128858384D01*
X92567000Y-128954026D01*
X92567000Y-129617974D01*
X92566378Y-129624286D01*
X92557580Y-129713618D01*
X92556283Y-129717893D01*
X92520354Y-129836336D01*
X92459906Y-129949425D01*
X92378554Y-130048554D01*
X92279425Y-130129906D01*
X92166336Y-130190354D01*
X92134404Y-130200040D01*
X92043618Y-130227580D01*
X91916000Y-130240149D01*
X91788383Y-130227580D01*
X91697597Y-130200040D01*
X91665665Y-130190354D01*
X91552576Y-130129906D01*
X91453447Y-130048554D01*
X91372096Y-129949427D01*
X91311645Y-129836333D01*
X91275717Y-129717893D01*
X91274420Y-129713618D01*
X91265622Y-129624286D01*
X91265000Y-129617974D01*
X91265000Y-128954027D01*
X91274420Y-128858385D01*
X91274420Y-128858383D01*
X91301960Y-128767597D01*
X91311646Y-128735665D01*
X91372094Y-128622576D01*
X91453447Y-128523446D01*
X91552575Y-128442094D01*
X91665664Y-128381646D01*
X91707600Y-128368925D01*
X91788382Y-128344420D01*
X91916000Y-128331851D01*
X92043617Y-128344420D01*
G37*
G36*
X96043617Y-128344420D02*
G01*
X96124399Y-128368925D01*
X96166335Y-128381646D01*
X96279424Y-128442094D01*
X96378554Y-128523447D01*
X96459906Y-128622575D01*
X96520354Y-128735664D01*
X96520911Y-128737500D01*
X96557580Y-128858382D01*
X96557580Y-128858384D01*
X96567000Y-128954026D01*
X96567000Y-129617974D01*
X96566378Y-129624286D01*
X96557580Y-129713618D01*
X96556283Y-129717893D01*
X96520354Y-129836336D01*
X96459906Y-129949425D01*
X96378554Y-130048554D01*
X96279425Y-130129906D01*
X96166336Y-130190354D01*
X96134404Y-130200040D01*
X96043618Y-130227580D01*
X95916000Y-130240149D01*
X95788383Y-130227580D01*
X95697597Y-130200040D01*
X95665665Y-130190354D01*
X95552576Y-130129906D01*
X95453447Y-130048554D01*
X95372096Y-129949427D01*
X95311645Y-129836333D01*
X95275717Y-129717893D01*
X95274420Y-129713618D01*
X95265622Y-129624286D01*
X95265000Y-129617974D01*
X95265000Y-128954027D01*
X95274420Y-128858385D01*
X95274420Y-128858383D01*
X95301960Y-128767597D01*
X95311646Y-128735665D01*
X95372094Y-128622576D01*
X95453447Y-128523446D01*
X95552575Y-128442094D01*
X95665664Y-128381646D01*
X95707600Y-128368925D01*
X95788382Y-128344420D01*
X95916000Y-128331851D01*
X96043617Y-128344420D01*
G37*
G36*
X98043617Y-128344420D02*
G01*
X98124399Y-128368925D01*
X98166335Y-128381646D01*
X98279424Y-128442094D01*
X98378554Y-128523447D01*
X98459906Y-128622575D01*
X98520354Y-128735664D01*
X98520911Y-128737500D01*
X98557580Y-128858382D01*
X98557580Y-128858384D01*
X98567000Y-128954026D01*
X98567000Y-129617974D01*
X98566378Y-129624286D01*
X98557580Y-129713618D01*
X98556283Y-129717893D01*
X98520354Y-129836336D01*
X98459906Y-129949425D01*
X98378554Y-130048554D01*
X98279425Y-130129906D01*
X98166336Y-130190354D01*
X98134404Y-130200040D01*
X98043618Y-130227580D01*
X97916000Y-130240149D01*
X97788383Y-130227580D01*
X97697597Y-130200040D01*
X97665665Y-130190354D01*
X97552576Y-130129906D01*
X97453447Y-130048554D01*
X97372096Y-129949427D01*
X97311645Y-129836333D01*
X97275717Y-129717893D01*
X97274420Y-129713618D01*
X97265622Y-129624286D01*
X97265000Y-129617974D01*
X97265000Y-128954027D01*
X97274420Y-128858385D01*
X97274420Y-128858383D01*
X97301960Y-128767597D01*
X97311646Y-128735665D01*
X97372094Y-128622576D01*
X97453447Y-128523446D01*
X97552575Y-128442094D01*
X97665664Y-128381646D01*
X97707600Y-128368925D01*
X97788382Y-128344420D01*
X97916000Y-128331851D01*
X98043617Y-128344420D01*
G37*
G36*
X90407242Y-128339404D02*
G01*
X90444337Y-128350657D01*
X90478515Y-128368925D01*
X90508481Y-128393519D01*
X90533075Y-128423485D01*
X90551343Y-128457663D01*
X90562596Y-128494758D01*
X90567000Y-128539471D01*
X90567000Y-130032526D01*
X90562596Y-130077242D01*
X90551343Y-130114337D01*
X90533075Y-130148515D01*
X90508481Y-130178481D01*
X90478515Y-130203075D01*
X90444337Y-130221343D01*
X90407242Y-130232596D01*
X90362526Y-130237000D01*
X89469474Y-130237000D01*
X89424758Y-130232596D01*
X89387663Y-130221343D01*
X89353485Y-130203075D01*
X89323519Y-130178481D01*
X89298925Y-130148515D01*
X89280657Y-130114337D01*
X89269404Y-130077242D01*
X89265000Y-130032526D01*
X89265000Y-128539471D01*
X89269404Y-128494758D01*
X89280657Y-128457663D01*
X89298925Y-128423485D01*
X89323519Y-128393519D01*
X89353485Y-128368925D01*
X89387663Y-128350657D01*
X89424758Y-128339404D01*
X89469474Y-128335000D01*
X90362526Y-128335000D01*
X90407242Y-128339404D01*
G37*
G36*
X77360563Y-128241182D02*
G01*
X77395482Y-128251775D01*
X77427664Y-128268977D01*
X77455874Y-128292128D01*
X77479025Y-128320338D01*
X77496227Y-128352520D01*
X77506820Y-128387439D01*
X77511001Y-128429896D01*
X77511001Y-129896106D01*
X77506820Y-129938563D01*
X77496227Y-129973482D01*
X77479025Y-130005664D01*
X77455874Y-130033874D01*
X77427664Y-130057025D01*
X77395482Y-130074227D01*
X77360563Y-130084820D01*
X77318106Y-130089001D01*
X76176896Y-130089001D01*
X76134439Y-130084820D01*
X76099520Y-130074227D01*
X76067338Y-130057025D01*
X76039128Y-130033874D01*
X76015977Y-130005664D01*
X75998775Y-129973482D01*
X75988182Y-129938563D01*
X75984001Y-129896106D01*
X75984001Y-128429896D01*
X75988182Y-128387439D01*
X75998775Y-128352520D01*
X76015977Y-128320338D01*
X76039128Y-128292128D01*
X76067338Y-128268977D01*
X76099520Y-128251775D01*
X76134439Y-128241182D01*
X76176896Y-128237001D01*
X77318106Y-128237001D01*
X77360563Y-128241182D01*
G37*
G36*
X80335563Y-128241182D02*
G01*
X80370482Y-128251775D01*
X80402664Y-128268977D01*
X80430874Y-128292128D01*
X80454025Y-128320338D01*
X80471227Y-128352520D01*
X80481820Y-128387439D01*
X80486001Y-128429896D01*
X80486001Y-129896106D01*
X80481820Y-129938563D01*
X80471227Y-129973482D01*
X80454025Y-130005664D01*
X80430874Y-130033874D01*
X80402664Y-130057025D01*
X80370482Y-130074227D01*
X80335563Y-130084820D01*
X80293106Y-130089001D01*
X79151896Y-130089001D01*
X79109439Y-130084820D01*
X79074520Y-130074227D01*
X79042338Y-130057025D01*
X79014128Y-130033874D01*
X78990977Y-130005664D01*
X78973775Y-129973482D01*
X78963182Y-129938563D01*
X78959001Y-129896106D01*
X78959001Y-128429896D01*
X78963182Y-128387439D01*
X78973775Y-128352520D01*
X78990977Y-128320338D01*
X79014128Y-128292128D01*
X79042338Y-128268977D01*
X79074520Y-128251775D01*
X79109439Y-128241182D01*
X79151896Y-128237001D01*
X80293106Y-128237001D01*
X80335563Y-128241182D01*
G37*
G36*
X56364295Y-126138323D02*
G01*
X56371309Y-126140451D01*
X56385077Y-126147810D01*
X56407716Y-126157187D01*
X56431749Y-126161967D01*
X56456253Y-126161967D01*
X56480286Y-126157186D01*
X56502923Y-126147810D01*
X56516691Y-126140451D01*
X56523705Y-126138323D01*
X56537140Y-126137000D01*
X56850860Y-126137000D01*
X56864295Y-126138323D01*
X56871309Y-126140451D01*
X56885077Y-126147810D01*
X56907716Y-126157187D01*
X56931749Y-126161967D01*
X56956253Y-126161967D01*
X56980286Y-126157186D01*
X57002923Y-126147810D01*
X57016691Y-126140451D01*
X57023705Y-126138323D01*
X57037140Y-126137000D01*
X57350860Y-126137000D01*
X57364295Y-126138323D01*
X57371309Y-126140451D01*
X57385077Y-126147810D01*
X57407716Y-126157187D01*
X57431749Y-126161967D01*
X57456253Y-126161967D01*
X57480286Y-126157186D01*
X57502923Y-126147810D01*
X57516691Y-126140451D01*
X57523705Y-126138323D01*
X57537140Y-126137000D01*
X57850860Y-126137000D01*
X57864295Y-126138323D01*
X57871309Y-126140451D01*
X57885077Y-126147810D01*
X57907716Y-126157187D01*
X57931749Y-126161967D01*
X57956253Y-126161967D01*
X57980286Y-126157186D01*
X58002923Y-126147810D01*
X58016691Y-126140451D01*
X58023705Y-126138323D01*
X58037140Y-126137000D01*
X58350860Y-126137000D01*
X58364295Y-126138323D01*
X58371309Y-126140451D01*
X58385077Y-126147810D01*
X58407716Y-126157187D01*
X58431749Y-126161967D01*
X58456253Y-126161967D01*
X58480286Y-126157186D01*
X58502923Y-126147810D01*
X58516691Y-126140451D01*
X58523705Y-126138323D01*
X58537140Y-126137000D01*
X58850860Y-126137000D01*
X58864295Y-126138323D01*
X58871309Y-126140451D01*
X58885077Y-126147810D01*
X58907716Y-126157187D01*
X58931749Y-126161967D01*
X58956253Y-126161967D01*
X58980286Y-126157186D01*
X59002923Y-126147810D01*
X59016691Y-126140451D01*
X59023705Y-126138323D01*
X59037140Y-126137000D01*
X59350860Y-126137000D01*
X59364295Y-126138323D01*
X59371309Y-126140451D01*
X59385077Y-126147810D01*
X59407716Y-126157187D01*
X59431749Y-126161967D01*
X59456253Y-126161967D01*
X59480286Y-126157186D01*
X59502923Y-126147810D01*
X59516691Y-126140451D01*
X59523705Y-126138323D01*
X59537140Y-126137000D01*
X59850860Y-126137000D01*
X59864295Y-126138323D01*
X59871309Y-126140451D01*
X59885077Y-126147810D01*
X59907716Y-126157187D01*
X59931749Y-126161967D01*
X59956253Y-126161967D01*
X59980286Y-126157186D01*
X60002923Y-126147810D01*
X60016691Y-126140451D01*
X60023705Y-126138323D01*
X60037140Y-126137000D01*
X60350860Y-126137000D01*
X60364295Y-126138323D01*
X60371309Y-126140451D01*
X60385077Y-126147810D01*
X60407716Y-126157187D01*
X60431749Y-126161967D01*
X60456253Y-126161967D01*
X60480286Y-126157186D01*
X60502923Y-126147810D01*
X60516691Y-126140451D01*
X60523705Y-126138323D01*
X60537140Y-126137000D01*
X60850860Y-126137000D01*
X60864295Y-126138323D01*
X60871309Y-126140451D01*
X60885077Y-126147810D01*
X60907716Y-126157187D01*
X60931749Y-126161967D01*
X60956253Y-126161967D01*
X60980286Y-126157186D01*
X61002923Y-126147810D01*
X61016691Y-126140451D01*
X61023705Y-126138323D01*
X61037140Y-126137000D01*
X61350860Y-126137000D01*
X61364295Y-126138323D01*
X61371309Y-126140451D01*
X61385077Y-126147810D01*
X61407716Y-126157187D01*
X61431749Y-126161967D01*
X61456253Y-126161967D01*
X61480286Y-126157186D01*
X61502923Y-126147810D01*
X61516691Y-126140451D01*
X61523705Y-126138323D01*
X61537140Y-126137000D01*
X61850860Y-126137000D01*
X61864295Y-126138323D01*
X61871309Y-126140451D01*
X61885077Y-126147810D01*
X61907716Y-126157187D01*
X61931749Y-126161967D01*
X61956253Y-126161967D01*
X61980286Y-126157186D01*
X62002923Y-126147810D01*
X62016691Y-126140451D01*
X62023705Y-126138323D01*
X62037140Y-126137000D01*
X62350860Y-126137000D01*
X62364295Y-126138323D01*
X62371309Y-126140451D01*
X62385077Y-126147810D01*
X62407716Y-126157187D01*
X62431749Y-126161967D01*
X62456253Y-126161967D01*
X62480286Y-126157186D01*
X62502923Y-126147810D01*
X62516691Y-126140451D01*
X62523705Y-126138323D01*
X62537140Y-126137000D01*
X62850860Y-126137000D01*
X62864295Y-126138323D01*
X62871309Y-126140451D01*
X62885077Y-126147810D01*
X62907716Y-126157187D01*
X62931749Y-126161967D01*
X62956253Y-126161967D01*
X62980286Y-126157186D01*
X63002923Y-126147810D01*
X63016691Y-126140451D01*
X63023705Y-126138323D01*
X63037140Y-126137000D01*
X63350860Y-126137000D01*
X63364295Y-126138323D01*
X63371309Y-126140451D01*
X63385077Y-126147810D01*
X63407716Y-126157187D01*
X63431749Y-126161967D01*
X63456253Y-126161967D01*
X63480286Y-126157186D01*
X63502923Y-126147810D01*
X63516691Y-126140451D01*
X63523705Y-126138323D01*
X63537140Y-126137000D01*
X63850860Y-126137000D01*
X63864295Y-126138323D01*
X63871310Y-126140451D01*
X63877776Y-126143908D01*
X63883442Y-126148558D01*
X63888092Y-126154224D01*
X63891549Y-126160690D01*
X63893677Y-126167705D01*
X63895000Y-126181140D01*
X63895000Y-127669860D01*
X63893677Y-127683295D01*
X63891549Y-127690310D01*
X63888092Y-127696776D01*
X63883442Y-127702442D01*
X63877776Y-127707092D01*
X63871310Y-127710549D01*
X63864295Y-127712677D01*
X63850860Y-127714000D01*
X63537140Y-127714000D01*
X63523705Y-127712677D01*
X63516691Y-127710549D01*
X63502923Y-127703190D01*
X63480284Y-127693813D01*
X63456251Y-127689033D01*
X63431747Y-127689033D01*
X63407714Y-127693814D01*
X63385077Y-127703190D01*
X63371309Y-127710549D01*
X63364295Y-127712677D01*
X63350860Y-127714000D01*
X63037140Y-127714000D01*
X63023705Y-127712677D01*
X63016691Y-127710549D01*
X63002923Y-127703190D01*
X62980284Y-127693813D01*
X62956251Y-127689033D01*
X62931747Y-127689033D01*
X62907714Y-127693814D01*
X62885077Y-127703190D01*
X62871309Y-127710549D01*
X62864295Y-127712677D01*
X62850860Y-127714000D01*
X62537140Y-127714000D01*
X62523705Y-127712677D01*
X62516691Y-127710549D01*
X62502923Y-127703190D01*
X62480284Y-127693813D01*
X62456251Y-127689033D01*
X62431747Y-127689033D01*
X62407714Y-127693814D01*
X62385077Y-127703190D01*
X62371309Y-127710549D01*
X62364295Y-127712677D01*
X62350860Y-127714000D01*
X62037140Y-127714000D01*
X62023705Y-127712677D01*
X62016691Y-127710549D01*
X62002923Y-127703190D01*
X61980284Y-127693813D01*
X61956251Y-127689033D01*
X61931747Y-127689033D01*
X61907714Y-127693814D01*
X61885077Y-127703190D01*
X61871309Y-127710549D01*
X61864295Y-127712677D01*
X61850860Y-127714000D01*
X61537140Y-127714000D01*
X61523705Y-127712677D01*
X61516691Y-127710549D01*
X61502923Y-127703190D01*
X61480284Y-127693813D01*
X61456251Y-127689033D01*
X61431747Y-127689033D01*
X61407714Y-127693814D01*
X61385077Y-127703190D01*
X61371309Y-127710549D01*
X61364295Y-127712677D01*
X61350860Y-127714000D01*
X61037140Y-127714000D01*
X61023705Y-127712677D01*
X61016691Y-127710549D01*
X61002923Y-127703190D01*
X60980284Y-127693813D01*
X60956251Y-127689033D01*
X60931747Y-127689033D01*
X60907714Y-127693814D01*
X60885077Y-127703190D01*
X60871309Y-127710549D01*
X60864295Y-127712677D01*
X60850860Y-127714000D01*
X60537140Y-127714000D01*
X60523705Y-127712677D01*
X60516691Y-127710549D01*
X60502923Y-127703190D01*
X60480284Y-127693813D01*
X60456251Y-127689033D01*
X60431747Y-127689033D01*
X60407714Y-127693814D01*
X60385077Y-127703190D01*
X60371309Y-127710549D01*
X60364295Y-127712677D01*
X60350860Y-127714000D01*
X60037140Y-127714000D01*
X60023705Y-127712677D01*
X60016691Y-127710549D01*
X60002923Y-127703190D01*
X59980284Y-127693813D01*
X59956251Y-127689033D01*
X59931747Y-127689033D01*
X59907714Y-127693814D01*
X59885077Y-127703190D01*
X59871309Y-127710549D01*
X59864295Y-127712677D01*
X59850860Y-127714000D01*
X59537140Y-127714000D01*
X59523705Y-127712677D01*
X59516691Y-127710549D01*
X59502923Y-127703190D01*
X59480284Y-127693813D01*
X59456251Y-127689033D01*
X59431747Y-127689033D01*
X59407714Y-127693814D01*
X59385077Y-127703190D01*
X59371309Y-127710549D01*
X59364295Y-127712677D01*
X59350860Y-127714000D01*
X59037140Y-127714000D01*
X59023705Y-127712677D01*
X59016691Y-127710549D01*
X59002923Y-127703190D01*
X58980284Y-127693813D01*
X58956251Y-127689033D01*
X58931747Y-127689033D01*
X58907714Y-127693814D01*
X58885077Y-127703190D01*
X58871309Y-127710549D01*
X58864295Y-127712677D01*
X58850860Y-127714000D01*
X58537140Y-127714000D01*
X58523705Y-127712677D01*
X58516691Y-127710549D01*
X58502923Y-127703190D01*
X58480284Y-127693813D01*
X58456251Y-127689033D01*
X58431747Y-127689033D01*
X58407714Y-127693814D01*
X58385077Y-127703190D01*
X58371309Y-127710549D01*
X58364295Y-127712677D01*
X58350860Y-127714000D01*
X58037140Y-127714000D01*
X58023705Y-127712677D01*
X58016691Y-127710549D01*
X58002923Y-127703190D01*
X57980284Y-127693813D01*
X57956251Y-127689033D01*
X57931747Y-127689033D01*
X57907714Y-127693814D01*
X57885077Y-127703190D01*
X57871309Y-127710549D01*
X57864295Y-127712677D01*
X57850860Y-127714000D01*
X57537140Y-127714000D01*
X57523705Y-127712677D01*
X57516691Y-127710549D01*
X57502923Y-127703190D01*
X57480284Y-127693813D01*
X57456251Y-127689033D01*
X57431747Y-127689033D01*
X57407714Y-127693814D01*
X57385077Y-127703190D01*
X57371309Y-127710549D01*
X57364295Y-127712677D01*
X57350860Y-127714000D01*
X57037140Y-127714000D01*
X57023705Y-127712677D01*
X57016691Y-127710549D01*
X57002923Y-127703190D01*
X56980284Y-127693813D01*
X56956251Y-127689033D01*
X56931747Y-127689033D01*
X56907714Y-127693814D01*
X56885077Y-127703190D01*
X56871309Y-127710549D01*
X56864295Y-127712677D01*
X56850860Y-127714000D01*
X56537140Y-127714000D01*
X56523705Y-127712677D01*
X56516691Y-127710549D01*
X56502923Y-127703190D01*
X56480284Y-127693813D01*
X56456251Y-127689033D01*
X56431747Y-127689033D01*
X56407714Y-127693814D01*
X56385077Y-127703190D01*
X56371309Y-127710549D01*
X56364295Y-127712677D01*
X56350860Y-127714000D01*
X56037140Y-127714000D01*
X56023705Y-127712677D01*
X56016690Y-127710549D01*
X56010224Y-127707092D01*
X56004558Y-127702442D01*
X55999908Y-127696776D01*
X55996451Y-127690310D01*
X55994323Y-127683295D01*
X55993000Y-127669860D01*
X55993000Y-126181140D01*
X55994323Y-126167705D01*
X55996451Y-126160690D01*
X55999908Y-126154224D01*
X56004558Y-126148558D01*
X56010224Y-126143908D01*
X56016690Y-126140451D01*
X56023705Y-126138323D01*
X56037140Y-126137000D01*
X56350860Y-126137000D01*
X56364295Y-126138323D01*
G37*
G36*
X72531562Y-124300181D02*
G01*
X72566481Y-124310774D01*
X72598663Y-124327976D01*
X72626873Y-124351127D01*
X72650024Y-124379337D01*
X72667226Y-124411519D01*
X72677819Y-124446438D01*
X72682000Y-124488895D01*
X72682000Y-125955105D01*
X72677819Y-125997562D01*
X72667226Y-126032481D01*
X72650024Y-126064663D01*
X72626873Y-126092873D01*
X72598663Y-126116024D01*
X72566481Y-126133226D01*
X72531562Y-126143819D01*
X72489105Y-126148000D01*
X71347895Y-126148000D01*
X71305438Y-126143819D01*
X71270519Y-126133226D01*
X71238337Y-126116024D01*
X71210127Y-126092873D01*
X71186976Y-126064663D01*
X71169774Y-126032481D01*
X71159181Y-125997562D01*
X71155000Y-125955105D01*
X71155000Y-124488895D01*
X71159181Y-124446438D01*
X71169774Y-124411519D01*
X71186976Y-124379337D01*
X71210127Y-124351127D01*
X71238337Y-124327976D01*
X71270519Y-124310774D01*
X71305438Y-124300181D01*
X71347895Y-124296000D01*
X72489105Y-124296000D01*
X72531562Y-124300181D01*
G37*
G36*
X75506562Y-124300181D02*
G01*
X75541481Y-124310774D01*
X75573663Y-124327976D01*
X75601873Y-124351127D01*
X75625024Y-124379337D01*
X75642226Y-124411519D01*
X75652819Y-124446438D01*
X75657000Y-124488895D01*
X75657000Y-125955105D01*
X75652819Y-125997562D01*
X75642226Y-126032481D01*
X75625024Y-126064663D01*
X75601873Y-126092873D01*
X75573663Y-126116024D01*
X75541481Y-126133226D01*
X75506562Y-126143819D01*
X75464105Y-126148000D01*
X74322895Y-126148000D01*
X74280438Y-126143819D01*
X74245519Y-126133226D01*
X74213337Y-126116024D01*
X74185127Y-126092873D01*
X74161976Y-126064663D01*
X74144774Y-126032481D01*
X74134181Y-125997562D01*
X74130000Y-125955105D01*
X74130000Y-124488895D01*
X74134181Y-124446438D01*
X74144774Y-124411519D01*
X74161976Y-124379337D01*
X74185127Y-124351127D01*
X74213337Y-124327976D01*
X74245519Y-124310774D01*
X74280438Y-124300181D01*
X74322895Y-124296000D01*
X75464105Y-124296000D01*
X75506562Y-124300181D01*
G37*
G36*
X84179062Y-123030181D02*
G01*
X84213981Y-123040774D01*
X84246163Y-123057976D01*
X84274373Y-123081127D01*
X84297524Y-123109337D01*
X84314726Y-123141519D01*
X84325319Y-123176438D01*
X84329500Y-123218895D01*
X84329500Y-124685105D01*
X84325319Y-124727562D01*
X84314726Y-124762481D01*
X84297524Y-124794663D01*
X84274373Y-124822873D01*
X84246163Y-124846024D01*
X84213981Y-124863226D01*
X84179062Y-124873819D01*
X84136605Y-124878000D01*
X82995395Y-124878000D01*
X82952938Y-124873819D01*
X82918019Y-124863226D01*
X82885837Y-124846024D01*
X82857627Y-124822873D01*
X82834476Y-124794663D01*
X82817274Y-124762481D01*
X82806681Y-124727562D01*
X82802500Y-124685105D01*
X82802500Y-123218895D01*
X82806681Y-123176438D01*
X82817274Y-123141519D01*
X82834476Y-123109337D01*
X82857627Y-123081127D01*
X82885837Y-123057976D01*
X82918019Y-123040774D01*
X82952938Y-123030181D01*
X82995395Y-123026000D01*
X84136605Y-123026000D01*
X84179062Y-123030181D01*
G37*
G36*
X81204062Y-123030181D02*
G01*
X81238981Y-123040774D01*
X81271163Y-123057976D01*
X81299373Y-123081127D01*
X81322524Y-123109337D01*
X81339726Y-123141519D01*
X81350319Y-123176438D01*
X81354500Y-123218895D01*
X81354500Y-124685105D01*
X81350319Y-124727562D01*
X81339726Y-124762481D01*
X81322524Y-124794663D01*
X81299373Y-124822873D01*
X81271163Y-124846024D01*
X81238981Y-124863226D01*
X81204062Y-124873819D01*
X81161605Y-124878000D01*
X80020395Y-124878000D01*
X79977938Y-124873819D01*
X79943019Y-124863226D01*
X79910837Y-124846024D01*
X79882627Y-124822873D01*
X79859476Y-124794663D01*
X79842274Y-124762481D01*
X79831681Y-124727562D01*
X79827500Y-124685105D01*
X79827500Y-123218895D01*
X79831681Y-123176438D01*
X79842274Y-123141519D01*
X79859476Y-123109337D01*
X79882627Y-123081127D01*
X79910837Y-123057976D01*
X79943019Y-123040774D01*
X79977938Y-123030181D01*
X80020395Y-123026000D01*
X81161605Y-123026000D01*
X81204062Y-123030181D01*
G37*
G36*
X103657000Y-123181000D02*
G01*
X101905000Y-123181000D01*
X101905000Y-119649000D01*
X103657000Y-119649000D01*
X103657000Y-123181000D01*
G37*
G36*
X57070000Y-123181000D02*
G01*
X55318000Y-123181000D01*
X55318000Y-119649000D01*
X57070000Y-119649000D01*
X57070000Y-123181000D01*
G37*
G36*
X69120062Y-119982181D02*
G01*
X69154981Y-119992774D01*
X69187163Y-120009976D01*
X69215373Y-120033127D01*
X69238524Y-120061337D01*
X69255726Y-120093519D01*
X69266319Y-120128438D01*
X69270500Y-120170895D01*
X69270500Y-121637105D01*
X69266319Y-121679562D01*
X69255726Y-121714481D01*
X69238524Y-121746663D01*
X69215373Y-121774873D01*
X69187163Y-121798024D01*
X69154981Y-121815226D01*
X69120062Y-121825819D01*
X69077605Y-121830000D01*
X67936395Y-121830000D01*
X67893938Y-121825819D01*
X67859019Y-121815226D01*
X67826837Y-121798024D01*
X67798627Y-121774873D01*
X67775476Y-121746663D01*
X67758274Y-121714481D01*
X67747681Y-121679562D01*
X67743500Y-121637105D01*
X67743500Y-120170895D01*
X67747681Y-120128438D01*
X67758274Y-120093519D01*
X67775476Y-120061337D01*
X67798627Y-120033127D01*
X67826837Y-120009976D01*
X67859019Y-119992774D01*
X67893938Y-119982181D01*
X67936395Y-119978000D01*
X69077605Y-119978000D01*
X69120062Y-119982181D01*
G37*
G36*
X66145062Y-119982181D02*
G01*
X66179981Y-119992774D01*
X66212163Y-120009976D01*
X66240373Y-120033127D01*
X66263524Y-120061337D01*
X66280726Y-120093519D01*
X66291319Y-120128438D01*
X66295500Y-120170895D01*
X66295500Y-121637105D01*
X66291319Y-121679562D01*
X66280726Y-121714481D01*
X66263524Y-121746663D01*
X66240373Y-121774873D01*
X66212163Y-121798024D01*
X66179981Y-121815226D01*
X66145062Y-121825819D01*
X66102605Y-121830000D01*
X64961395Y-121830000D01*
X64918938Y-121825819D01*
X64884019Y-121815226D01*
X64851837Y-121798024D01*
X64823627Y-121774873D01*
X64800476Y-121746663D01*
X64783274Y-121714481D01*
X64772681Y-121679562D01*
X64768500Y-121637105D01*
X64768500Y-120170895D01*
X64772681Y-120128438D01*
X64783274Y-120093519D01*
X64800476Y-120061337D01*
X64823627Y-120033127D01*
X64851837Y-120009976D01*
X64884019Y-119992774D01*
X64918938Y-119982181D01*
X64961395Y-119978000D01*
X66102605Y-119978000D01*
X66145062Y-119982181D01*
G37*
G36*
X80950062Y-118204181D02*
G01*
X80984981Y-118214774D01*
X81017163Y-118231976D01*
X81045373Y-118255127D01*
X81068524Y-118283337D01*
X81085726Y-118315519D01*
X81096319Y-118350438D01*
X81100500Y-118392895D01*
X81100500Y-119859105D01*
X81096319Y-119901562D01*
X81085726Y-119936481D01*
X81068524Y-119968663D01*
X81045373Y-119996873D01*
X81017163Y-120020024D01*
X80984981Y-120037226D01*
X80950062Y-120047819D01*
X80907605Y-120052000D01*
X79766395Y-120052000D01*
X79723938Y-120047819D01*
X79689019Y-120037226D01*
X79656837Y-120020024D01*
X79628627Y-119996873D01*
X79605476Y-119968663D01*
X79588274Y-119936481D01*
X79577681Y-119901562D01*
X79573500Y-119859105D01*
X79573500Y-118392895D01*
X79577681Y-118350438D01*
X79588274Y-118315519D01*
X79605476Y-118283337D01*
X79628627Y-118255127D01*
X79656837Y-118231976D01*
X79689019Y-118214774D01*
X79723938Y-118204181D01*
X79766395Y-118200000D01*
X80907605Y-118200000D01*
X80950062Y-118204181D01*
G37*
G36*
X89259062Y-118204181D02*
G01*
X89293981Y-118214774D01*
X89326163Y-118231976D01*
X89354373Y-118255127D01*
X89377524Y-118283337D01*
X89394726Y-118315519D01*
X89405319Y-118350438D01*
X89409500Y-118392895D01*
X89409500Y-119859105D01*
X89405319Y-119901562D01*
X89394726Y-119936481D01*
X89377524Y-119968663D01*
X89354373Y-119996873D01*
X89326163Y-120020024D01*
X89293981Y-120037226D01*
X89259062Y-120047819D01*
X89216605Y-120052000D01*
X88075395Y-120052000D01*
X88032938Y-120047819D01*
X87998019Y-120037226D01*
X87965837Y-120020024D01*
X87937627Y-119996873D01*
X87914476Y-119968663D01*
X87897274Y-119936481D01*
X87886681Y-119901562D01*
X87882500Y-119859105D01*
X87882500Y-118392895D01*
X87886681Y-118350438D01*
X87897274Y-118315519D01*
X87914476Y-118283337D01*
X87937627Y-118255127D01*
X87965837Y-118231976D01*
X87998019Y-118214774D01*
X88032938Y-118204181D01*
X88075395Y-118200000D01*
X89216605Y-118200000D01*
X89259062Y-118204181D01*
G37*
G36*
X86284062Y-118204181D02*
G01*
X86318981Y-118214774D01*
X86351163Y-118231976D01*
X86379373Y-118255127D01*
X86402524Y-118283337D01*
X86419726Y-118315519D01*
X86430319Y-118350438D01*
X86434500Y-118392895D01*
X86434500Y-119859105D01*
X86430319Y-119901562D01*
X86419726Y-119936481D01*
X86402524Y-119968663D01*
X86379373Y-119996873D01*
X86351163Y-120020024D01*
X86318981Y-120037226D01*
X86284062Y-120047819D01*
X86241605Y-120052000D01*
X85100395Y-120052000D01*
X85057938Y-120047819D01*
X85023019Y-120037226D01*
X84990837Y-120020024D01*
X84962627Y-119996873D01*
X84939476Y-119968663D01*
X84922274Y-119936481D01*
X84911681Y-119901562D01*
X84907500Y-119859105D01*
X84907500Y-118392895D01*
X84911681Y-118350438D01*
X84922274Y-118315519D01*
X84939476Y-118283337D01*
X84962627Y-118255127D01*
X84990837Y-118231976D01*
X85023019Y-118214774D01*
X85057938Y-118204181D01*
X85100395Y-118200000D01*
X86241605Y-118200000D01*
X86284062Y-118204181D01*
G37*
G36*
X83925062Y-118204181D02*
G01*
X83959981Y-118214774D01*
X83992163Y-118231976D01*
X84020373Y-118255127D01*
X84043524Y-118283337D01*
X84060726Y-118315519D01*
X84071319Y-118350438D01*
X84075500Y-118392895D01*
X84075500Y-119859105D01*
X84071319Y-119901562D01*
X84060726Y-119936481D01*
X84043524Y-119968663D01*
X84020373Y-119996873D01*
X83992163Y-120020024D01*
X83959981Y-120037226D01*
X83925062Y-120047819D01*
X83882605Y-120052000D01*
X82741395Y-120052000D01*
X82698938Y-120047819D01*
X82664019Y-120037226D01*
X82631837Y-120020024D01*
X82603627Y-119996873D01*
X82580476Y-119968663D01*
X82563274Y-119936481D01*
X82552681Y-119901562D01*
X82548500Y-119859105D01*
X82548500Y-118392895D01*
X82552681Y-118350438D01*
X82563274Y-118315519D01*
X82580476Y-118283337D01*
X82603627Y-118255127D01*
X82631837Y-118231976D01*
X82664019Y-118214774D01*
X82698938Y-118204181D01*
X82741395Y-118200000D01*
X83882605Y-118200000D01*
X83925062Y-118204181D01*
G37*
G36*
X76517000Y-120023000D02*
G01*
X75415000Y-120023000D01*
X75415000Y-119121000D01*
X76517000Y-119121000D01*
X76517000Y-120023000D01*
G37*
G36*
X79017000Y-120023000D02*
G01*
X77915000Y-120023000D01*
X77915000Y-119121000D01*
X79017000Y-119121000D01*
X79017000Y-120023000D01*
G37*
G36*
X76517000Y-118623000D02*
G01*
X75415000Y-118623000D01*
X75415000Y-117721000D01*
X76517000Y-117721000D01*
X76517000Y-118623000D01*
G37*
G36*
X79017000Y-118623000D02*
G01*
X77915000Y-118623000D01*
X77915000Y-117721000D01*
X79017000Y-117721000D01*
X79017000Y-118623000D01*
G37*
G36*
X63175000Y-118216000D02*
G01*
X60153000Y-118216000D01*
X60153000Y-116844000D01*
X63175000Y-116844000D01*
X63175000Y-118216000D01*
G37*
G36*
X67805000Y-118216000D02*
G01*
X64783000Y-118216000D01*
X64783000Y-116844000D01*
X67805000Y-116844000D01*
X67805000Y-118216000D01*
G37*
G36*
X94192000Y-118216000D02*
G01*
X91170000Y-118216000D01*
X91170000Y-116844000D01*
X94192000Y-116844000D01*
X94192000Y-118216000D01*
G37*
G36*
X98822000Y-118216000D02*
G01*
X95800000Y-118216000D01*
X95800000Y-116844000D01*
X98822000Y-116844000D01*
X98822000Y-118216000D01*
G37*
G36*
X72903928Y-113465764D02*
G01*
X72925009Y-113472160D01*
X72944445Y-113482548D01*
X72961476Y-113496524D01*
X72975452Y-113513555D01*
X72985840Y-113532991D01*
X72992236Y-113554072D01*
X72995000Y-113582140D01*
X72995000Y-115395860D01*
X72992236Y-115423928D01*
X72985840Y-115445009D01*
X72975452Y-115464445D01*
X72961476Y-115481476D01*
X72944445Y-115495452D01*
X72925009Y-115505840D01*
X72903928Y-115512236D01*
X72875860Y-115515000D01*
X72412140Y-115515000D01*
X72384072Y-115512236D01*
X72362991Y-115505840D01*
X72343555Y-115495452D01*
X72326524Y-115481476D01*
X72312548Y-115464445D01*
X72302160Y-115445009D01*
X72295764Y-115423928D01*
X72293000Y-115395860D01*
X72293000Y-113582140D01*
X72295764Y-113554072D01*
X72302160Y-113532991D01*
X72312548Y-113513555D01*
X72326524Y-113496524D01*
X72343555Y-113482548D01*
X72362991Y-113472160D01*
X72384072Y-113465764D01*
X72412140Y-113463000D01*
X72875860Y-113463000D01*
X72903928Y-113465764D01*
G37*
G36*
X71633928Y-113465764D02*
G01*
X71655009Y-113472160D01*
X71674445Y-113482548D01*
X71691476Y-113496524D01*
X71705452Y-113513555D01*
X71715840Y-113532991D01*
X71722236Y-113554072D01*
X71725000Y-113582140D01*
X71725000Y-115395860D01*
X71722236Y-115423928D01*
X71715840Y-115445009D01*
X71705452Y-115464445D01*
X71691476Y-115481476D01*
X71674445Y-115495452D01*
X71655009Y-115505840D01*
X71633928Y-115512236D01*
X71605860Y-115515000D01*
X71142140Y-115515000D01*
X71114072Y-115512236D01*
X71092991Y-115505840D01*
X71073555Y-115495452D01*
X71056524Y-115481476D01*
X71042548Y-115464445D01*
X71032160Y-115445009D01*
X71025764Y-115423928D01*
X71023000Y-115395860D01*
X71023000Y-113582140D01*
X71025764Y-113554072D01*
X71032160Y-113532991D01*
X71042548Y-113513555D01*
X71056524Y-113496524D01*
X71073555Y-113482548D01*
X71092991Y-113472160D01*
X71114072Y-113465764D01*
X71142140Y-113463000D01*
X71605860Y-113463000D01*
X71633928Y-113465764D01*
G37*
G36*
X70363928Y-113465764D02*
G01*
X70385009Y-113472160D01*
X70404445Y-113482548D01*
X70421476Y-113496524D01*
X70435452Y-113513555D01*
X70445840Y-113532991D01*
X70452236Y-113554072D01*
X70455000Y-113582140D01*
X70455000Y-115395860D01*
X70452236Y-115423928D01*
X70445840Y-115445009D01*
X70435452Y-115464445D01*
X70421476Y-115481476D01*
X70404445Y-115495452D01*
X70385009Y-115505840D01*
X70363928Y-115512236D01*
X70335860Y-115515000D01*
X69872140Y-115515000D01*
X69844072Y-115512236D01*
X69822991Y-115505840D01*
X69803555Y-115495452D01*
X69786524Y-115481476D01*
X69772548Y-115464445D01*
X69762160Y-115445009D01*
X69755764Y-115423928D01*
X69753000Y-115395860D01*
X69753000Y-113582140D01*
X69755764Y-113554072D01*
X69762160Y-113532991D01*
X69772548Y-113513555D01*
X69786524Y-113496524D01*
X69803555Y-113482548D01*
X69822991Y-113472160D01*
X69844072Y-113465764D01*
X69872140Y-113463000D01*
X70335860Y-113463000D01*
X70363928Y-113465764D01*
G37*
G36*
X77983928Y-113465764D02*
G01*
X78005009Y-113472160D01*
X78024445Y-113482548D01*
X78041476Y-113496524D01*
X78055452Y-113513555D01*
X78065840Y-113532991D01*
X78072236Y-113554072D01*
X78075000Y-113582140D01*
X78075000Y-115395860D01*
X78072236Y-115423928D01*
X78065840Y-115445009D01*
X78055452Y-115464445D01*
X78041476Y-115481476D01*
X78024445Y-115495452D01*
X78005009Y-115505840D01*
X77983928Y-115512236D01*
X77955860Y-115515000D01*
X77492140Y-115515000D01*
X77464072Y-115512236D01*
X77442991Y-115505840D01*
X77423555Y-115495452D01*
X77406524Y-115481476D01*
X77392548Y-115464445D01*
X77382160Y-115445009D01*
X77375764Y-115423928D01*
X77373000Y-115395860D01*
X77373000Y-113582140D01*
X77375764Y-113554072D01*
X77382160Y-113532991D01*
X77392548Y-113513555D01*
X77406524Y-113496524D01*
X77423555Y-113482548D01*
X77442991Y-113472160D01*
X77464072Y-113465764D01*
X77492140Y-113463000D01*
X77955860Y-113463000D01*
X77983928Y-113465764D01*
G37*
G36*
X76713928Y-113465764D02*
G01*
X76735009Y-113472160D01*
X76754445Y-113482548D01*
X76771476Y-113496524D01*
X76785452Y-113513555D01*
X76795840Y-113532991D01*
X76802236Y-113554072D01*
X76805000Y-113582140D01*
X76805000Y-115395860D01*
X76802236Y-115423928D01*
X76795840Y-115445009D01*
X76785452Y-115464445D01*
X76771476Y-115481476D01*
X76754445Y-115495452D01*
X76735009Y-115505840D01*
X76713928Y-115512236D01*
X76685860Y-115515000D01*
X76222140Y-115515000D01*
X76194072Y-115512236D01*
X76172991Y-115505840D01*
X76153555Y-115495452D01*
X76136524Y-115481476D01*
X76122548Y-115464445D01*
X76112160Y-115445009D01*
X76105764Y-115423928D01*
X76103000Y-115395860D01*
X76103000Y-113582140D01*
X76105764Y-113554072D01*
X76112160Y-113532991D01*
X76122548Y-113513555D01*
X76136524Y-113496524D01*
X76153555Y-113482548D01*
X76172991Y-113472160D01*
X76194072Y-113465764D01*
X76222140Y-113463000D01*
X76685860Y-113463000D01*
X76713928Y-113465764D01*
G37*
G36*
X75443928Y-113465764D02*
G01*
X75465009Y-113472160D01*
X75484445Y-113482548D01*
X75501476Y-113496524D01*
X75515452Y-113513555D01*
X75525840Y-113532991D01*
X75532236Y-113554072D01*
X75535000Y-113582140D01*
X75535000Y-115395860D01*
X75532236Y-115423928D01*
X75525840Y-115445009D01*
X75515452Y-115464445D01*
X75501476Y-115481476D01*
X75484445Y-115495452D01*
X75465009Y-115505840D01*
X75443928Y-115512236D01*
X75415860Y-115515000D01*
X74952140Y-115515000D01*
X74924072Y-115512236D01*
X74902991Y-115505840D01*
X74883555Y-115495452D01*
X74866524Y-115481476D01*
X74852548Y-115464445D01*
X74842160Y-115445009D01*
X74835764Y-115423928D01*
X74833000Y-115395860D01*
X74833000Y-113582140D01*
X74835764Y-113554072D01*
X74842160Y-113532991D01*
X74852548Y-113513555D01*
X74866524Y-113496524D01*
X74883555Y-113482548D01*
X74902991Y-113472160D01*
X74924072Y-113465764D01*
X74952140Y-113463000D01*
X75415860Y-113463000D01*
X75443928Y-113465764D01*
G37*
G36*
X74173928Y-113465764D02*
G01*
X74195009Y-113472160D01*
X74214445Y-113482548D01*
X74231476Y-113496524D01*
X74245452Y-113513555D01*
X74255840Y-113532991D01*
X74262236Y-113554072D01*
X74265000Y-113582140D01*
X74265000Y-115395860D01*
X74262236Y-115423928D01*
X74255840Y-115445009D01*
X74245452Y-115464445D01*
X74231476Y-115481476D01*
X74214445Y-115495452D01*
X74195009Y-115505840D01*
X74173928Y-115512236D01*
X74145860Y-115515000D01*
X73682140Y-115515000D01*
X73654072Y-115512236D01*
X73632991Y-115505840D01*
X73613555Y-115495452D01*
X73596524Y-115481476D01*
X73582548Y-115464445D01*
X73572160Y-115445009D01*
X73565764Y-115423928D01*
X73563000Y-115395860D01*
X73563000Y-113582140D01*
X73565764Y-113554072D01*
X73572160Y-113532991D01*
X73582548Y-113513555D01*
X73596524Y-113496524D01*
X73613555Y-113482548D01*
X73632991Y-113472160D01*
X73654072Y-113465764D01*
X73682140Y-113463000D01*
X74145860Y-113463000D01*
X74173928Y-113465764D01*
G37*
G36*
X63175000Y-115216000D02*
G01*
X60153000Y-115216000D01*
X60153000Y-113844000D01*
X63175000Y-113844000D01*
X63175000Y-115216000D01*
G37*
G36*
X67805000Y-115216000D02*
G01*
X64783000Y-115216000D01*
X64783000Y-113844000D01*
X67805000Y-113844000D01*
X67805000Y-115216000D01*
G37*
G36*
X94192000Y-115216000D02*
G01*
X91170000Y-115216000D01*
X91170000Y-113844000D01*
X94192000Y-113844000D01*
X94192000Y-115216000D01*
G37*
G36*
X98822000Y-115216000D02*
G01*
X95800000Y-115216000D01*
X95800000Y-113844000D01*
X98822000Y-113844000D01*
X98822000Y-115216000D01*
G37*
G36*
X94192000Y-112216000D02*
G01*
X91170000Y-112216000D01*
X91170000Y-110844000D01*
X94192000Y-110844000D01*
X94192000Y-112216000D01*
G37*
G36*
X63175000Y-112216000D02*
G01*
X60153000Y-112216000D01*
X60153000Y-110844000D01*
X63175000Y-110844000D01*
X63175000Y-112216000D01*
G37*
G36*
X98822000Y-112216000D02*
G01*
X95800000Y-112216000D01*
X95800000Y-110844000D01*
X98822000Y-110844000D01*
X98822000Y-112216000D01*
G37*
G36*
X67805000Y-112216000D02*
G01*
X64783000Y-112216000D01*
X64783000Y-110844000D01*
X67805000Y-110844000D01*
X67805000Y-112216000D01*
G37*
G36*
X70363928Y-108515764D02*
G01*
X70385009Y-108522160D01*
X70404445Y-108532548D01*
X70421476Y-108546524D01*
X70435452Y-108563555D01*
X70445840Y-108582991D01*
X70452236Y-108604072D01*
X70455000Y-108632140D01*
X70455000Y-110445860D01*
X70452236Y-110473928D01*
X70445840Y-110495009D01*
X70435452Y-110514445D01*
X70421476Y-110531476D01*
X70404445Y-110545452D01*
X70385009Y-110555840D01*
X70363928Y-110562236D01*
X70335860Y-110565000D01*
X69872140Y-110565000D01*
X69844072Y-110562236D01*
X69822991Y-110555840D01*
X69803555Y-110545452D01*
X69786524Y-110531476D01*
X69772548Y-110514445D01*
X69762160Y-110495009D01*
X69755764Y-110473928D01*
X69753000Y-110445860D01*
X69753000Y-108632140D01*
X69755764Y-108604072D01*
X69762160Y-108582991D01*
X69772548Y-108563555D01*
X69786524Y-108546524D01*
X69803555Y-108532548D01*
X69822991Y-108522160D01*
X69844072Y-108515764D01*
X69872140Y-108513000D01*
X70335860Y-108513000D01*
X70363928Y-108515764D01*
G37*
G36*
X75443928Y-108515764D02*
G01*
X75465009Y-108522160D01*
X75484445Y-108532548D01*
X75501476Y-108546524D01*
X75515452Y-108563555D01*
X75525840Y-108582991D01*
X75532236Y-108604072D01*
X75535000Y-108632140D01*
X75535000Y-110445860D01*
X75532236Y-110473928D01*
X75525840Y-110495009D01*
X75515452Y-110514445D01*
X75501476Y-110531476D01*
X75484445Y-110545452D01*
X75465009Y-110555840D01*
X75443928Y-110562236D01*
X75415860Y-110565000D01*
X74952140Y-110565000D01*
X74924072Y-110562236D01*
X74902991Y-110555840D01*
X74883555Y-110545452D01*
X74866524Y-110531476D01*
X74852548Y-110514445D01*
X74842160Y-110495009D01*
X74835764Y-110473928D01*
X74833000Y-110445860D01*
X74833000Y-108632140D01*
X74835764Y-108604072D01*
X74842160Y-108582991D01*
X74852548Y-108563555D01*
X74866524Y-108546524D01*
X74883555Y-108532548D01*
X74902991Y-108522160D01*
X74924072Y-108515764D01*
X74952140Y-108513000D01*
X75415860Y-108513000D01*
X75443928Y-108515764D01*
G37*
G36*
X74173928Y-108515764D02*
G01*
X74195009Y-108522160D01*
X74214445Y-108532548D01*
X74231476Y-108546524D01*
X74245452Y-108563555D01*
X74255840Y-108582991D01*
X74262236Y-108604072D01*
X74265000Y-108632140D01*
X74265000Y-110445860D01*
X74262236Y-110473928D01*
X74255840Y-110495009D01*
X74245452Y-110514445D01*
X74231476Y-110531476D01*
X74214445Y-110545452D01*
X74195009Y-110555840D01*
X74173928Y-110562236D01*
X74145860Y-110565000D01*
X73682140Y-110565000D01*
X73654072Y-110562236D01*
X73632991Y-110555840D01*
X73613555Y-110545452D01*
X73596524Y-110531476D01*
X73582548Y-110514445D01*
X73572160Y-110495009D01*
X73565764Y-110473928D01*
X73563000Y-110445860D01*
X73563000Y-108632140D01*
X73565764Y-108604072D01*
X73572160Y-108582991D01*
X73582548Y-108563555D01*
X73596524Y-108546524D01*
X73613555Y-108532548D01*
X73632991Y-108522160D01*
X73654072Y-108515764D01*
X73682140Y-108513000D01*
X74145860Y-108513000D01*
X74173928Y-108515764D01*
G37*
G36*
X71633928Y-108515764D02*
G01*
X71655009Y-108522160D01*
X71674445Y-108532548D01*
X71691476Y-108546524D01*
X71705452Y-108563555D01*
X71715840Y-108582991D01*
X71722236Y-108604072D01*
X71725000Y-108632140D01*
X71725000Y-110445860D01*
X71722236Y-110473928D01*
X71715840Y-110495009D01*
X71705452Y-110514445D01*
X71691476Y-110531476D01*
X71674445Y-110545452D01*
X71655009Y-110555840D01*
X71633928Y-110562236D01*
X71605860Y-110565000D01*
X71142140Y-110565000D01*
X71114072Y-110562236D01*
X71092991Y-110555840D01*
X71073555Y-110545452D01*
X71056524Y-110531476D01*
X71042548Y-110514445D01*
X71032160Y-110495009D01*
X71025764Y-110473928D01*
X71023000Y-110445860D01*
X71023000Y-108632140D01*
X71025764Y-108604072D01*
X71032160Y-108582991D01*
X71042548Y-108563555D01*
X71056524Y-108546524D01*
X71073555Y-108532548D01*
X71092991Y-108522160D01*
X71114072Y-108515764D01*
X71142140Y-108513000D01*
X71605860Y-108513000D01*
X71633928Y-108515764D01*
G37*
G36*
X77983928Y-108515764D02*
G01*
X78005009Y-108522160D01*
X78024445Y-108532548D01*
X78041476Y-108546524D01*
X78055452Y-108563555D01*
X78065840Y-108582991D01*
X78072236Y-108604072D01*
X78075000Y-108632140D01*
X78075000Y-110445860D01*
X78072236Y-110473928D01*
X78065840Y-110495009D01*
X78055452Y-110514445D01*
X78041476Y-110531476D01*
X78024445Y-110545452D01*
X78005009Y-110555840D01*
X77983928Y-110562236D01*
X77955860Y-110565000D01*
X77492140Y-110565000D01*
X77464072Y-110562236D01*
X77442991Y-110555840D01*
X77423555Y-110545452D01*
X77406524Y-110531476D01*
X77392548Y-110514445D01*
X77382160Y-110495009D01*
X77375764Y-110473928D01*
X77373000Y-110445860D01*
X77373000Y-108632140D01*
X77375764Y-108604072D01*
X77382160Y-108582991D01*
X77392548Y-108563555D01*
X77406524Y-108546524D01*
X77423555Y-108532548D01*
X77442991Y-108522160D01*
X77464072Y-108515764D01*
X77492140Y-108513000D01*
X77955860Y-108513000D01*
X77983928Y-108515764D01*
G37*
G36*
X76713928Y-108515764D02*
G01*
X76735009Y-108522160D01*
X76754445Y-108532548D01*
X76771476Y-108546524D01*
X76785452Y-108563555D01*
X76795840Y-108582991D01*
X76802236Y-108604072D01*
X76805000Y-108632140D01*
X76805000Y-110445860D01*
X76802236Y-110473928D01*
X76795840Y-110495009D01*
X76785452Y-110514445D01*
X76771476Y-110531476D01*
X76754445Y-110545452D01*
X76735009Y-110555840D01*
X76713928Y-110562236D01*
X76685860Y-110565000D01*
X76222140Y-110565000D01*
X76194072Y-110562236D01*
X76172991Y-110555840D01*
X76153555Y-110545452D01*
X76136524Y-110531476D01*
X76122548Y-110514445D01*
X76112160Y-110495009D01*
X76105764Y-110473928D01*
X76103000Y-110445860D01*
X76103000Y-108632140D01*
X76105764Y-108604072D01*
X76112160Y-108582991D01*
X76122548Y-108563555D01*
X76136524Y-108546524D01*
X76153555Y-108532548D01*
X76172991Y-108522160D01*
X76194072Y-108515764D01*
X76222140Y-108513000D01*
X76685860Y-108513000D01*
X76713928Y-108515764D01*
G37*
G36*
X72903928Y-108515764D02*
G01*
X72925009Y-108522160D01*
X72944445Y-108532548D01*
X72961476Y-108546524D01*
X72975452Y-108563555D01*
X72985840Y-108582991D01*
X72992236Y-108604072D01*
X72995000Y-108632140D01*
X72995000Y-110445860D01*
X72992236Y-110473928D01*
X72985840Y-110495009D01*
X72975452Y-110514445D01*
X72961476Y-110531476D01*
X72944445Y-110545452D01*
X72925009Y-110555840D01*
X72903928Y-110562236D01*
X72875860Y-110565000D01*
X72412140Y-110565000D01*
X72384072Y-110562236D01*
X72362991Y-110555840D01*
X72343555Y-110545452D01*
X72326524Y-110531476D01*
X72312548Y-110514445D01*
X72302160Y-110495009D01*
X72295764Y-110473928D01*
X72293000Y-110445860D01*
X72293000Y-108632140D01*
X72295764Y-108604072D01*
X72302160Y-108582991D01*
X72312548Y-108563555D01*
X72326524Y-108546524D01*
X72343555Y-108532548D01*
X72362991Y-108522160D01*
X72384072Y-108515764D01*
X72412140Y-108513000D01*
X72875860Y-108513000D01*
X72903928Y-108515764D01*
G37*
G36*
X63175000Y-109216000D02*
G01*
X60153000Y-109216000D01*
X60153000Y-107844000D01*
X63175000Y-107844000D01*
X63175000Y-109216000D01*
G37*
G36*
X67805000Y-109216000D02*
G01*
X64783000Y-109216000D01*
X64783000Y-107844000D01*
X67805000Y-107844000D01*
X67805000Y-109216000D01*
G37*
G36*
X98822000Y-109216000D02*
G01*
X95800000Y-109216000D01*
X95800000Y-107844000D01*
X98822000Y-107844000D01*
X98822000Y-109216000D01*
G37*
G36*
X94192000Y-109216000D02*
G01*
X91170000Y-109216000D01*
X91170000Y-107844000D01*
X94192000Y-107844000D01*
X94192000Y-109216000D01*
G37*
G36*
X86158564Y-106613389D02*
G01*
X86349833Y-106692615D01*
X86349835Y-106692616D01*
X86521973Y-106807635D01*
X86668365Y-106954027D01*
X86783385Y-107126167D01*
X86862611Y-107317436D01*
X86903000Y-107520484D01*
X86903000Y-107727516D01*
X86862611Y-107930564D01*
X86783385Y-108121833D01*
X86783384Y-108121835D01*
X86668365Y-108293973D01*
X86521973Y-108440365D01*
X86349835Y-108555384D01*
X86349834Y-108555385D01*
X86349833Y-108555385D01*
X86158564Y-108634611D01*
X85955516Y-108675000D01*
X85748484Y-108675000D01*
X85545436Y-108634611D01*
X85354167Y-108555385D01*
X85354166Y-108555385D01*
X85354165Y-108555384D01*
X85182027Y-108440365D01*
X85035635Y-108293973D01*
X84920616Y-108121835D01*
X84920615Y-108121833D01*
X84841389Y-107930564D01*
X84801000Y-107727516D01*
X84801000Y-107520484D01*
X84841389Y-107317436D01*
X84920615Y-107126167D01*
X85035635Y-106954027D01*
X85182027Y-106807635D01*
X85354165Y-106692616D01*
X85354167Y-106692615D01*
X85545436Y-106613389D01*
X85748484Y-106573000D01*
X85955516Y-106573000D01*
X86158564Y-106613389D01*
G37*
G36*
X79658564Y-106613389D02*
G01*
X79849833Y-106692615D01*
X79849835Y-106692616D01*
X80021973Y-106807635D01*
X80168365Y-106954027D01*
X80283385Y-107126167D01*
X80362611Y-107317436D01*
X80403000Y-107520484D01*
X80403000Y-107727516D01*
X80362611Y-107930564D01*
X80283385Y-108121833D01*
X80283384Y-108121835D01*
X80168365Y-108293973D01*
X80021973Y-108440365D01*
X79849835Y-108555384D01*
X79849834Y-108555385D01*
X79849833Y-108555385D01*
X79658564Y-108634611D01*
X79455516Y-108675000D01*
X79248484Y-108675000D01*
X79045436Y-108634611D01*
X78854167Y-108555385D01*
X78854166Y-108555385D01*
X78854165Y-108555384D01*
X78682027Y-108440365D01*
X78535635Y-108293973D01*
X78420616Y-108121835D01*
X78420615Y-108121833D01*
X78341389Y-107930564D01*
X78301000Y-107727516D01*
X78301000Y-107520484D01*
X78341389Y-107317436D01*
X78420615Y-107126167D01*
X78535635Y-106954027D01*
X78682027Y-106807635D01*
X78854165Y-106692616D01*
X78854167Y-106692615D01*
X79045436Y-106613389D01*
X79248484Y-106573000D01*
X79455516Y-106573000D01*
X79658564Y-106613389D01*
G37*
G36*
X57070000Y-106411000D02*
G01*
X55318000Y-106411000D01*
X55318000Y-102879000D01*
X57070000Y-102879000D01*
X57070000Y-106411000D01*
G37*
G36*
X103657000Y-106411000D02*
G01*
X101905000Y-106411000D01*
X101905000Y-102879000D01*
X103657000Y-102879000D01*
X103657000Y-106411000D01*
G37*
G36*
X69248721Y-103864174D02*
G01*
X69348995Y-103905709D01*
X69348996Y-103905710D01*
X69439242Y-103966010D01*
X69515990Y-104042758D01*
X69515991Y-104042760D01*
X69576291Y-104133005D01*
X69607516Y-104208389D01*
X69619067Y-104230000D01*
X69634612Y-104248941D01*
X69653554Y-104264487D01*
X69675165Y-104276038D01*
X69698614Y-104283151D01*
X69723000Y-104285553D01*
X69747386Y-104283151D01*
X69770835Y-104276038D01*
X69792446Y-104264487D01*
X69811387Y-104248942D01*
X69826933Y-104230000D01*
X69838484Y-104208389D01*
X69869709Y-104133005D01*
X69930009Y-104042760D01*
X69930010Y-104042758D01*
X70006758Y-103966010D01*
X70097004Y-103905710D01*
X70097005Y-103905709D01*
X70197279Y-103864174D01*
X70303730Y-103843000D01*
X70412270Y-103843000D01*
X70518721Y-103864174D01*
X70618995Y-103905709D01*
X70618996Y-103905710D01*
X70709242Y-103966010D01*
X70785990Y-104042758D01*
X70785991Y-104042760D01*
X70846291Y-104133005D01*
X70877516Y-104208389D01*
X70889067Y-104230000D01*
X70904612Y-104248941D01*
X70923554Y-104264487D01*
X70945165Y-104276038D01*
X70968614Y-104283151D01*
X70993000Y-104285553D01*
X71017386Y-104283151D01*
X71040835Y-104276038D01*
X71062446Y-104264487D01*
X71081387Y-104248942D01*
X71096933Y-104230000D01*
X71108484Y-104208389D01*
X71139709Y-104133005D01*
X71200009Y-104042760D01*
X71200010Y-104042758D01*
X71276758Y-103966010D01*
X71367004Y-103905710D01*
X71367005Y-103905709D01*
X71467279Y-103864174D01*
X71573730Y-103843000D01*
X71682270Y-103843000D01*
X71788721Y-103864174D01*
X71888995Y-103905709D01*
X71888996Y-103905710D01*
X71979242Y-103966010D01*
X72055990Y-104042758D01*
X72055991Y-104042760D01*
X72116291Y-104133005D01*
X72147516Y-104208389D01*
X72159067Y-104230000D01*
X72174612Y-104248941D01*
X72193554Y-104264487D01*
X72215165Y-104276038D01*
X72238614Y-104283151D01*
X72263000Y-104285553D01*
X72287386Y-104283151D01*
X72310835Y-104276038D01*
X72332446Y-104264487D01*
X72351387Y-104248942D01*
X72366933Y-104230000D01*
X72378484Y-104208389D01*
X72409709Y-104133005D01*
X72470009Y-104042760D01*
X72470010Y-104042758D01*
X72546758Y-103966010D01*
X72637004Y-103905710D01*
X72637005Y-103905709D01*
X72737279Y-103864174D01*
X72843730Y-103843000D01*
X72952270Y-103843000D01*
X73058721Y-103864174D01*
X73158995Y-103905709D01*
X73158996Y-103905710D01*
X73249242Y-103966010D01*
X73325990Y-104042758D01*
X73325991Y-104042760D01*
X73386291Y-104133005D01*
X73417516Y-104208389D01*
X73429067Y-104230000D01*
X73444612Y-104248941D01*
X73463554Y-104264487D01*
X73485165Y-104276038D01*
X73508614Y-104283151D01*
X73533000Y-104285553D01*
X73557386Y-104283151D01*
X73580835Y-104276038D01*
X73602446Y-104264487D01*
X73621387Y-104248942D01*
X73636933Y-104230000D01*
X73648484Y-104208389D01*
X73679709Y-104133005D01*
X73740009Y-104042760D01*
X73740010Y-104042758D01*
X73816758Y-103966010D01*
X73907004Y-103905710D01*
X73907005Y-103905709D01*
X74007279Y-103864174D01*
X74113730Y-103843000D01*
X74222270Y-103843000D01*
X74328721Y-103864174D01*
X74428995Y-103905709D01*
X74428996Y-103905710D01*
X74519242Y-103966010D01*
X74595990Y-104042758D01*
X74595991Y-104042760D01*
X74656291Y-104133005D01*
X74697826Y-104233279D01*
X74719000Y-104339730D01*
X74719000Y-104448270D01*
X74697826Y-104554721D01*
X74656291Y-104654995D01*
X74656290Y-104654996D01*
X74595990Y-104745242D01*
X74519242Y-104821990D01*
X74473812Y-104852345D01*
X74428995Y-104882291D01*
X74353611Y-104913516D01*
X74332000Y-104925067D01*
X74313059Y-104940612D01*
X74297513Y-104959554D01*
X74285962Y-104981165D01*
X74278849Y-105004614D01*
X74276447Y-105029000D01*
X74278849Y-105053386D01*
X74285962Y-105076835D01*
X74297513Y-105098446D01*
X74313058Y-105117387D01*
X74332000Y-105132933D01*
X74353611Y-105144484D01*
X74428995Y-105175709D01*
X74428996Y-105175710D01*
X74519242Y-105236010D01*
X74595990Y-105312758D01*
X74595991Y-105312760D01*
X74656291Y-105403005D01*
X74697826Y-105503279D01*
X74719000Y-105609730D01*
X74719000Y-105718270D01*
X74697826Y-105824721D01*
X74656291Y-105924995D01*
X74656290Y-105924996D01*
X74595990Y-106015242D01*
X74519242Y-106091990D01*
X74473812Y-106122345D01*
X74428995Y-106152291D01*
X74328721Y-106193826D01*
X74222270Y-106215000D01*
X74113730Y-106215000D01*
X74007279Y-106193826D01*
X73907005Y-106152291D01*
X73862188Y-106122345D01*
X73816758Y-106091990D01*
X73740010Y-106015242D01*
X73679710Y-105924996D01*
X73679709Y-105924995D01*
X73648484Y-105849611D01*
X73636933Y-105828000D01*
X73621388Y-105809059D01*
X73602446Y-105793513D01*
X73580835Y-105781962D01*
X73557386Y-105774849D01*
X73533000Y-105772447D01*
X73508614Y-105774849D01*
X73485165Y-105781962D01*
X73463554Y-105793513D01*
X73444613Y-105809058D01*
X73429067Y-105828000D01*
X73417516Y-105849611D01*
X73386291Y-105924995D01*
X73386290Y-105924996D01*
X73325990Y-106015242D01*
X73249242Y-106091990D01*
X73203812Y-106122345D01*
X73158995Y-106152291D01*
X73058721Y-106193826D01*
X72952270Y-106215000D01*
X72843730Y-106215000D01*
X72737279Y-106193826D01*
X72637005Y-106152291D01*
X72592188Y-106122345D01*
X72546758Y-106091990D01*
X72470010Y-106015242D01*
X72409710Y-105924996D01*
X72409709Y-105924995D01*
X72378484Y-105849611D01*
X72366933Y-105828000D01*
X72351388Y-105809059D01*
X72332446Y-105793513D01*
X72310835Y-105781962D01*
X72287386Y-105774849D01*
X72263000Y-105772447D01*
X72238614Y-105774849D01*
X72215165Y-105781962D01*
X72193554Y-105793513D01*
X72174613Y-105809058D01*
X72159067Y-105828000D01*
X72147516Y-105849611D01*
X72116291Y-105924995D01*
X72116290Y-105924996D01*
X72055990Y-106015242D01*
X71979242Y-106091990D01*
X71933812Y-106122345D01*
X71888995Y-106152291D01*
X71788721Y-106193826D01*
X71682270Y-106215000D01*
X71573730Y-106215000D01*
X71467279Y-106193826D01*
X71367005Y-106152291D01*
X71322188Y-106122345D01*
X71276758Y-106091990D01*
X71200010Y-106015242D01*
X71139710Y-105924996D01*
X71139709Y-105924995D01*
X71108484Y-105849611D01*
X71096933Y-105828000D01*
X71081388Y-105809059D01*
X71062446Y-105793513D01*
X71040835Y-105781962D01*
X71017386Y-105774849D01*
X70993000Y-105772447D01*
X70968614Y-105774849D01*
X70945165Y-105781962D01*
X70923554Y-105793513D01*
X70904613Y-105809058D01*
X70889067Y-105828000D01*
X70877516Y-105849611D01*
X70846291Y-105924995D01*
X70846290Y-105924996D01*
X70785990Y-106015242D01*
X70709242Y-106091990D01*
X70663812Y-106122345D01*
X70618995Y-106152291D01*
X70518721Y-106193826D01*
X70412270Y-106215000D01*
X70303730Y-106215000D01*
X70197279Y-106193826D01*
X70097005Y-106152291D01*
X70052188Y-106122345D01*
X70006758Y-106091990D01*
X69930010Y-106015242D01*
X69909012Y-105983816D01*
X69867932Y-105922336D01*
X69852386Y-105903394D01*
X69833444Y-105887849D01*
X69811833Y-105876298D01*
X69788385Y-105869185D01*
X69763998Y-105866783D01*
X69739612Y-105869185D01*
X69716163Y-105876298D01*
X69694553Y-105887849D01*
X69675611Y-105903395D01*
X69660066Y-105922337D01*
X69648515Y-105943948D01*
X69641402Y-105967396D01*
X69639000Y-105991782D01*
X69639000Y-106215000D01*
X68537000Y-106215000D01*
X68537000Y-105113000D01*
X68760218Y-105113000D01*
X68784604Y-105110598D01*
X68808053Y-105103485D01*
X68829664Y-105091934D01*
X68848606Y-105076389D01*
X68864151Y-105057447D01*
X68875702Y-105035836D01*
X68882815Y-105012387D01*
X68885216Y-104988002D01*
X69290783Y-104988002D01*
X69293185Y-105012388D01*
X69300298Y-105035837D01*
X69311849Y-105057447D01*
X69327395Y-105076389D01*
X69346337Y-105091934D01*
X69367948Y-105103485D01*
X69391396Y-105110598D01*
X69415782Y-105113000D01*
X69639000Y-105113000D01*
X69639000Y-105336218D01*
X69641402Y-105360604D01*
X69648515Y-105384053D01*
X69660066Y-105405664D01*
X69675611Y-105424606D01*
X69694553Y-105440151D01*
X69716164Y-105451702D01*
X69739613Y-105458815D01*
X69763999Y-105461217D01*
X69788385Y-105458815D01*
X69811834Y-105451702D01*
X69833445Y-105440151D01*
X69852387Y-105424606D01*
X69867932Y-105405664D01*
X69930009Y-105312760D01*
X69930010Y-105312758D01*
X70006758Y-105236010D01*
X70097004Y-105175710D01*
X70097005Y-105175709D01*
X70172389Y-105144484D01*
X70194000Y-105132933D01*
X70212941Y-105117388D01*
X70228487Y-105098446D01*
X70240038Y-105076835D01*
X70247151Y-105053386D01*
X70249553Y-105029000D01*
X70466447Y-105029000D01*
X70468849Y-105053386D01*
X70475962Y-105076835D01*
X70487513Y-105098446D01*
X70503058Y-105117387D01*
X70522000Y-105132933D01*
X70543611Y-105144484D01*
X70618995Y-105175709D01*
X70618996Y-105175710D01*
X70709242Y-105236010D01*
X70785990Y-105312758D01*
X70785991Y-105312760D01*
X70846291Y-105403005D01*
X70877516Y-105478389D01*
X70889067Y-105500000D01*
X70904612Y-105518941D01*
X70923554Y-105534487D01*
X70945165Y-105546038D01*
X70968614Y-105553151D01*
X70993000Y-105555553D01*
X71017386Y-105553151D01*
X71040835Y-105546038D01*
X71062446Y-105534487D01*
X71081387Y-105518942D01*
X71096933Y-105500000D01*
X71108484Y-105478389D01*
X71139709Y-105403005D01*
X71200009Y-105312760D01*
X71200010Y-105312758D01*
X71276758Y-105236010D01*
X71367004Y-105175710D01*
X71367005Y-105175709D01*
X71442389Y-105144484D01*
X71464000Y-105132933D01*
X71482941Y-105117388D01*
X71498487Y-105098446D01*
X71510038Y-105076835D01*
X71517151Y-105053386D01*
X71519553Y-105029000D01*
X71736447Y-105029000D01*
X71738849Y-105053386D01*
X71745962Y-105076835D01*
X71757513Y-105098446D01*
X71773058Y-105117387D01*
X71792000Y-105132933D01*
X71813611Y-105144484D01*
X71888995Y-105175709D01*
X71888996Y-105175710D01*
X71979242Y-105236010D01*
X72055990Y-105312758D01*
X72055991Y-105312760D01*
X72116291Y-105403005D01*
X72147516Y-105478389D01*
X72159067Y-105500000D01*
X72174612Y-105518941D01*
X72193554Y-105534487D01*
X72215165Y-105546038D01*
X72238614Y-105553151D01*
X72263000Y-105555553D01*
X72287386Y-105553151D01*
X72310835Y-105546038D01*
X72332446Y-105534487D01*
X72351387Y-105518942D01*
X72366933Y-105500000D01*
X72378484Y-105478389D01*
X72409709Y-105403005D01*
X72470009Y-105312760D01*
X72470010Y-105312758D01*
X72546758Y-105236010D01*
X72637004Y-105175710D01*
X72637005Y-105175709D01*
X72712389Y-105144484D01*
X72734000Y-105132933D01*
X72752941Y-105117388D01*
X72768487Y-105098446D01*
X72780038Y-105076835D01*
X72787151Y-105053386D01*
X72789553Y-105029000D01*
X73006447Y-105029000D01*
X73008849Y-105053386D01*
X73015962Y-105076835D01*
X73027513Y-105098446D01*
X73043058Y-105117387D01*
X73062000Y-105132933D01*
X73083611Y-105144484D01*
X73158995Y-105175709D01*
X73158996Y-105175710D01*
X73249242Y-105236010D01*
X73325990Y-105312758D01*
X73325991Y-105312760D01*
X73386291Y-105403005D01*
X73417516Y-105478389D01*
X73429067Y-105500000D01*
X73444612Y-105518941D01*
X73463554Y-105534487D01*
X73485165Y-105546038D01*
X73508614Y-105553151D01*
X73533000Y-105555553D01*
X73557386Y-105553151D01*
X73580835Y-105546038D01*
X73602446Y-105534487D01*
X73621387Y-105518942D01*
X73636933Y-105500000D01*
X73648484Y-105478389D01*
X73679709Y-105403005D01*
X73740009Y-105312760D01*
X73740010Y-105312758D01*
X73816758Y-105236010D01*
X73907004Y-105175710D01*
X73907005Y-105175709D01*
X73982389Y-105144484D01*
X74004000Y-105132933D01*
X74022941Y-105117388D01*
X74038487Y-105098446D01*
X74050038Y-105076835D01*
X74057151Y-105053386D01*
X74059553Y-105029000D01*
X74057151Y-105004614D01*
X74050038Y-104981165D01*
X74038487Y-104959554D01*
X74022942Y-104940613D01*
X74004000Y-104925067D01*
X73982389Y-104913516D01*
X73907005Y-104882291D01*
X73862188Y-104852345D01*
X73816758Y-104821990D01*
X73740010Y-104745242D01*
X73679710Y-104654996D01*
X73679709Y-104654995D01*
X73648484Y-104579611D01*
X73636933Y-104558000D01*
X73621388Y-104539059D01*
X73602446Y-104523513D01*
X73580835Y-104511962D01*
X73557386Y-104504849D01*
X73533000Y-104502447D01*
X73508614Y-104504849D01*
X73485165Y-104511962D01*
X73463554Y-104523513D01*
X73444613Y-104539058D01*
X73429067Y-104558000D01*
X73417516Y-104579611D01*
X73386291Y-104654995D01*
X73386290Y-104654996D01*
X73325990Y-104745242D01*
X73249242Y-104821990D01*
X73203812Y-104852345D01*
X73158995Y-104882291D01*
X73083611Y-104913516D01*
X73062000Y-104925067D01*
X73043059Y-104940612D01*
X73027513Y-104959554D01*
X73015962Y-104981165D01*
X73008849Y-105004614D01*
X73006447Y-105029000D01*
X72789553Y-105029000D01*
X72787151Y-105004614D01*
X72780038Y-104981165D01*
X72768487Y-104959554D01*
X72752942Y-104940613D01*
X72734000Y-104925067D01*
X72712389Y-104913516D01*
X72637005Y-104882291D01*
X72592188Y-104852345D01*
X72546758Y-104821990D01*
X72470010Y-104745242D01*
X72409710Y-104654996D01*
X72409709Y-104654995D01*
X72378484Y-104579611D01*
X72366933Y-104558000D01*
X72351388Y-104539059D01*
X72332446Y-104523513D01*
X72310835Y-104511962D01*
X72287386Y-104504849D01*
X72263000Y-104502447D01*
X72238614Y-104504849D01*
X72215165Y-104511962D01*
X72193554Y-104523513D01*
X72174613Y-104539058D01*
X72159067Y-104558000D01*
X72147516Y-104579611D01*
X72116291Y-104654995D01*
X72116290Y-104654996D01*
X72055990Y-104745242D01*
X71979242Y-104821990D01*
X71933812Y-104852345D01*
X71888995Y-104882291D01*
X71813611Y-104913516D01*
X71792000Y-104925067D01*
X71773059Y-104940612D01*
X71757513Y-104959554D01*
X71745962Y-104981165D01*
X71738849Y-105004614D01*
X71736447Y-105029000D01*
X71519553Y-105029000D01*
X71517151Y-105004614D01*
X71510038Y-104981165D01*
X71498487Y-104959554D01*
X71482942Y-104940613D01*
X71464000Y-104925067D01*
X71442389Y-104913516D01*
X71367005Y-104882291D01*
X71322188Y-104852345D01*
X71276758Y-104821990D01*
X71200010Y-104745242D01*
X71139710Y-104654996D01*
X71139709Y-104654995D01*
X71108484Y-104579611D01*
X71096933Y-104558000D01*
X71081388Y-104539059D01*
X71062446Y-104523513D01*
X71040835Y-104511962D01*
X71017386Y-104504849D01*
X70993000Y-104502447D01*
X70968614Y-104504849D01*
X70945165Y-104511962D01*
X70923554Y-104523513D01*
X70904613Y-104539058D01*
X70889067Y-104558000D01*
X70877516Y-104579611D01*
X70846291Y-104654995D01*
X70846290Y-104654996D01*
X70785990Y-104745242D01*
X70709242Y-104821990D01*
X70663812Y-104852345D01*
X70618995Y-104882291D01*
X70543611Y-104913516D01*
X70522000Y-104925067D01*
X70503059Y-104940612D01*
X70487513Y-104959554D01*
X70475962Y-104981165D01*
X70468849Y-105004614D01*
X70466447Y-105029000D01*
X70249553Y-105029000D01*
X70247151Y-105004614D01*
X70240038Y-104981165D01*
X70228487Y-104959554D01*
X70212942Y-104940613D01*
X70194000Y-104925067D01*
X70172389Y-104913516D01*
X70097005Y-104882291D01*
X70052188Y-104852345D01*
X70006758Y-104821990D01*
X69930010Y-104745242D01*
X69869710Y-104654996D01*
X69869709Y-104654995D01*
X69838484Y-104579611D01*
X69826933Y-104558000D01*
X69811388Y-104539059D01*
X69792446Y-104523513D01*
X69770835Y-104511962D01*
X69747386Y-104504849D01*
X69723000Y-104502447D01*
X69698614Y-104504849D01*
X69675165Y-104511962D01*
X69653554Y-104523513D01*
X69634613Y-104539058D01*
X69619067Y-104558000D01*
X69607516Y-104579611D01*
X69576291Y-104654995D01*
X69576290Y-104654996D01*
X69515990Y-104745242D01*
X69439242Y-104821990D01*
X69407816Y-104842988D01*
X69346336Y-104884068D01*
X69327394Y-104899614D01*
X69311849Y-104918556D01*
X69300298Y-104940167D01*
X69293185Y-104963615D01*
X69290783Y-104988002D01*
X68885216Y-104988002D01*
X68885217Y-104988001D01*
X68882815Y-104963615D01*
X68875702Y-104940166D01*
X68864151Y-104918555D01*
X68848606Y-104899613D01*
X68829664Y-104884068D01*
X68768184Y-104842988D01*
X68736758Y-104821990D01*
X68660010Y-104745242D01*
X68599710Y-104654996D01*
X68599709Y-104654995D01*
X68558174Y-104554721D01*
X68537000Y-104448270D01*
X68537000Y-104339730D01*
X68558174Y-104233279D01*
X68599709Y-104133005D01*
X68660009Y-104042760D01*
X68660010Y-104042758D01*
X68736758Y-103966010D01*
X68827004Y-103905710D01*
X68827005Y-103905709D01*
X68927279Y-103864174D01*
X69033730Y-103843000D01*
X69142270Y-103843000D01*
X69248721Y-103864174D01*
G37*
G36*
X86158564Y-102113389D02*
G01*
X86349833Y-102192615D01*
X86349835Y-102192616D01*
X86521973Y-102307635D01*
X86668365Y-102454027D01*
X86783385Y-102626167D01*
X86862611Y-102817436D01*
X86903000Y-103020484D01*
X86903000Y-103227516D01*
X86862611Y-103430564D01*
X86783385Y-103621833D01*
X86783384Y-103621835D01*
X86668365Y-103793973D01*
X86521973Y-103940365D01*
X86349835Y-104055384D01*
X86349834Y-104055385D01*
X86349833Y-104055385D01*
X86158564Y-104134611D01*
X85955516Y-104175000D01*
X85748484Y-104175000D01*
X85545436Y-104134611D01*
X85354167Y-104055385D01*
X85354166Y-104055385D01*
X85354165Y-104055384D01*
X85182027Y-103940365D01*
X85035635Y-103793973D01*
X84920616Y-103621835D01*
X84920615Y-103621833D01*
X84841389Y-103430564D01*
X84801000Y-103227516D01*
X84801000Y-103020484D01*
X84841389Y-102817436D01*
X84920615Y-102626167D01*
X85035635Y-102454027D01*
X85182027Y-102307635D01*
X85354165Y-102192616D01*
X85354167Y-102192615D01*
X85545436Y-102113389D01*
X85748484Y-102073000D01*
X85955516Y-102073000D01*
X86158564Y-102113389D01*
G37*
G36*
X79658564Y-102113389D02*
G01*
X79849833Y-102192615D01*
X79849835Y-102192616D01*
X80021973Y-102307635D01*
X80168365Y-102454027D01*
X80283385Y-102626167D01*
X80362611Y-102817436D01*
X80403000Y-103020484D01*
X80403000Y-103227516D01*
X80362611Y-103430564D01*
X80283385Y-103621833D01*
X80283384Y-103621835D01*
X80168365Y-103793973D01*
X80021973Y-103940365D01*
X79849835Y-104055384D01*
X79849834Y-104055385D01*
X79849833Y-104055385D01*
X79658564Y-104134611D01*
X79455516Y-104175000D01*
X79248484Y-104175000D01*
X79045436Y-104134611D01*
X78854167Y-104055385D01*
X78854166Y-104055385D01*
X78854165Y-104055384D01*
X78682027Y-103940365D01*
X78535635Y-103793973D01*
X78420616Y-103621835D01*
X78420615Y-103621833D01*
X78341389Y-103430564D01*
X78301000Y-103227516D01*
X78301000Y-103020484D01*
X78341389Y-102817436D01*
X78420615Y-102626167D01*
X78535635Y-102454027D01*
X78682027Y-102307635D01*
X78854165Y-102192616D01*
X78854167Y-102192615D01*
X79045436Y-102113389D01*
X79248484Y-102073000D01*
X79455516Y-102073000D01*
X79658564Y-102113389D01*
G37*
M02*
