G04 #@! TF.GenerationSoftware,KiCad,Pcbnew,5.1.5-52549c5~84~ubuntu18.04.1*
G04 #@! TF.CreationDate,2020-01-13T13:08:31-08:00*
G04 #@! TF.ProjectId,Extention Boards,45787465-6e74-4696-9f6e-20426f617264,rev?*
G04 #@! TF.SameCoordinates,Original*
G04 #@! TF.FileFunction,Legend,Bot*
G04 #@! TF.FilePolarity,Positive*
%FSLAX46Y46*%
G04 Gerber Fmt 4.6, Leading zero omitted, Abs format (unit mm)*
G04 Created by KiCad (PCBNEW 5.1.5-52549c5~84~ubuntu18.04.1) date 2020-01-13 13:08:31*
%MOMM*%
%LPD*%
G04 APERTURE LIST*
%ADD10C,0.120000*%
%ADD11C,0.150000*%
G04 APERTURE END LIST*
D10*
X67518222Y-107778999D02*
X67843780Y-107778999D01*
X67518222Y-108798999D02*
X67843780Y-108798999D01*
X60797221Y-106682000D02*
X61122779Y-106682000D01*
X60797221Y-105662000D02*
X61122779Y-105662000D01*
X93682222Y-155556999D02*
X94007780Y-155556999D01*
X93682222Y-156576999D02*
X94007780Y-156576999D01*
X97692222Y-159086999D02*
X98017780Y-159086999D01*
X97692222Y-158066999D02*
X98017780Y-158066999D01*
X89672222Y-150906999D02*
X89997780Y-150906999D01*
X89672222Y-151926999D02*
X89997780Y-151926999D01*
X75372222Y-136526999D02*
X75697780Y-136526999D01*
X75372222Y-137546999D02*
X75697780Y-137546999D01*
X84052222Y-144116999D02*
X84377780Y-144116999D01*
X84052222Y-145136999D02*
X84377780Y-145136999D01*
X93682222Y-158066999D02*
X94007780Y-158066999D01*
X93682222Y-159086999D02*
X94007780Y-159086999D01*
X83392222Y-142626999D02*
X83717780Y-142626999D01*
X83392222Y-141606999D02*
X83717780Y-141606999D01*
X97692222Y-155556999D02*
X98017780Y-155556999D01*
X97692222Y-156576999D02*
X98017780Y-156576999D01*
X101702222Y-158066999D02*
X102027780Y-158066999D01*
X101702222Y-159086999D02*
X102027780Y-159086999D01*
X79382222Y-140056999D02*
X79707780Y-140056999D01*
X79382222Y-139036999D02*
X79707780Y-139036999D01*
X93682222Y-153046999D02*
X94007780Y-153046999D01*
X93682222Y-154066999D02*
X94007780Y-154066999D01*
X87832222Y-147646999D02*
X88157780Y-147646999D01*
X87832222Y-146626999D02*
X88157780Y-146626999D01*
X93682222Y-150536999D02*
X94007780Y-150536999D01*
X93682222Y-151556999D02*
X94007780Y-151556999D01*
X91842222Y-149046999D02*
X92167780Y-149046999D01*
X91842222Y-148026999D02*
X92167780Y-148026999D01*
X97692222Y-154066999D02*
X98017780Y-154066999D01*
X97692222Y-153046999D02*
X98017780Y-153046999D01*
X87402222Y-136586999D02*
X87727780Y-136586999D01*
X87402222Y-137606999D02*
X87727780Y-137606999D01*
X80042222Y-145136999D02*
X80367780Y-145136999D01*
X80042222Y-144116999D02*
X80367780Y-144116999D01*
X96782222Y-161596999D02*
X97107780Y-161596999D01*
X96782222Y-160576999D02*
X97107780Y-160576999D01*
X89672222Y-153416999D02*
X89997780Y-153416999D01*
X89672222Y-154436999D02*
X89997780Y-154436999D01*
X75372222Y-140056999D02*
X75697780Y-140056999D01*
X75372222Y-139036999D02*
X75697780Y-139036999D01*
X83822222Y-147646999D02*
X84147780Y-147646999D01*
X83822222Y-146626999D02*
X84147780Y-146626999D01*
X75372222Y-142566999D02*
X75697780Y-142566999D01*
X75372222Y-141546999D02*
X75697780Y-141546999D01*
X89672222Y-156946999D02*
X89997780Y-156946999D01*
X89672222Y-155926999D02*
X89997780Y-155926999D01*
X75578222Y-126276999D02*
X75903780Y-126276999D01*
X75578222Y-127296999D02*
X75903780Y-127296999D01*
X76032222Y-145076999D02*
X76357780Y-145076999D01*
X76032222Y-144056999D02*
X76357780Y-144056999D01*
X100792222Y-161596999D02*
X101117780Y-161596999D01*
X100792222Y-160576999D02*
X101117780Y-160576999D01*
X88194222Y-105994999D02*
X88519780Y-105994999D01*
X88194222Y-104974999D02*
X88519780Y-104974999D01*
X53913721Y-149858000D02*
X54239279Y-149858000D01*
X53913721Y-150878000D02*
X54239279Y-150878000D01*
X94044222Y-109844999D02*
X94369780Y-109844999D01*
X94044222Y-108824999D02*
X94369780Y-108824999D01*
X97144222Y-114144999D02*
X97469780Y-114144999D01*
X97144222Y-113124999D02*
X97469780Y-113124999D01*
X102994222Y-116974999D02*
X103319780Y-116974999D01*
X102994222Y-117994999D02*
X103319780Y-117994999D01*
X92204222Y-104974999D02*
X92529780Y-104974999D01*
X92204222Y-105994999D02*
X92529780Y-105994999D01*
X98054222Y-111634999D02*
X98379780Y-111634999D01*
X98054222Y-110614999D02*
X98379780Y-110614999D01*
X102994222Y-114464999D02*
X103319780Y-114464999D01*
X102994222Y-115484999D02*
X103319780Y-115484999D01*
X53913721Y-152398000D02*
X54239279Y-152398000D01*
X53913721Y-153418000D02*
X54239279Y-153418000D01*
X98054222Y-109124999D02*
X98379780Y-109124999D01*
X98054222Y-108104999D02*
X98379780Y-108104999D01*
X96214222Y-106614999D02*
X96539780Y-106614999D01*
X96214222Y-105594999D02*
X96539780Y-105594999D01*
X62380222Y-149176999D02*
X62705780Y-149176999D01*
X62380222Y-150196999D02*
X62705780Y-150196999D01*
X57830222Y-147686999D02*
X58155780Y-147686999D01*
X57830222Y-146666999D02*
X58155780Y-146666999D01*
X53820222Y-144626999D02*
X54145780Y-144626999D01*
X53820222Y-145646999D02*
X54145780Y-145646999D01*
X65850222Y-146666999D02*
X66175780Y-146666999D01*
X65850222Y-147686999D02*
X66175780Y-147686999D01*
X61840222Y-145176999D02*
X62165780Y-145176999D01*
X61840222Y-144156999D02*
X62165780Y-144156999D01*
X70400222Y-154276999D02*
X70725780Y-154276999D01*
X70400222Y-153256999D02*
X70725780Y-153256999D01*
X70940222Y-156786999D02*
X71265780Y-156786999D01*
X70940222Y-155766999D02*
X71265780Y-155766999D01*
X66390222Y-150746999D02*
X66715780Y-150746999D01*
X66390222Y-151766999D02*
X66715780Y-151766999D01*
X61840222Y-146666999D02*
X62165780Y-146666999D01*
X61840222Y-147686999D02*
X62165780Y-147686999D01*
X71480222Y-159296999D02*
X71805780Y-159296999D01*
X71480222Y-158276999D02*
X71805780Y-158276999D01*
X66390222Y-153256999D02*
X66715780Y-153256999D01*
X66390222Y-154276999D02*
X66715780Y-154276999D01*
X57830222Y-144156999D02*
X58155780Y-144156999D01*
X57830222Y-145176999D02*
X58155780Y-145176999D01*
X93817221Y-118362000D02*
X94142779Y-118362000D01*
X93817221Y-119382000D02*
X94142779Y-119382000D01*
X90538222Y-134590999D02*
X90863780Y-134590999D01*
X90538222Y-133570999D02*
X90863780Y-133570999D01*
X95088222Y-138120999D02*
X95413780Y-138120999D01*
X95088222Y-139140999D02*
X95413780Y-139140999D01*
X85988222Y-130040999D02*
X86313780Y-130040999D01*
X85988222Y-129020999D02*
X86313780Y-129020999D01*
X99098222Y-139140999D02*
X99423780Y-139140999D01*
X99098222Y-138120999D02*
X99423780Y-138120999D01*
X95088222Y-136630999D02*
X95413780Y-136630999D01*
X95088222Y-135610999D02*
X95413780Y-135610999D01*
X93842721Y-123696000D02*
X94168279Y-123696000D01*
X93842721Y-124716000D02*
X94168279Y-124716000D01*
X94548222Y-134120999D02*
X94873780Y-134120999D01*
X94548222Y-133100999D02*
X94873780Y-133100999D01*
X103108222Y-138120999D02*
X103433780Y-138120999D01*
X103108222Y-139140999D02*
X103433780Y-139140999D01*
X99098222Y-135610999D02*
X99423780Y-135610999D01*
X99098222Y-136630999D02*
X99423780Y-136630999D01*
X63586222Y-126084999D02*
X63911780Y-126084999D01*
X63586222Y-127104999D02*
X63911780Y-127104999D01*
X55436222Y-121534999D02*
X55761780Y-121534999D01*
X55436222Y-122554999D02*
X55761780Y-122554999D01*
X55436222Y-124044999D02*
X55761780Y-124044999D01*
X55436222Y-125064999D02*
X55761780Y-125064999D01*
X58726222Y-155548999D02*
X59051780Y-155548999D01*
X58726222Y-156568999D02*
X59051780Y-156568999D01*
X54716222Y-156568999D02*
X55041780Y-156568999D01*
X54716222Y-155548999D02*
X55041780Y-155548999D01*
X58739721Y-159006000D02*
X59065279Y-159006000D01*
X58739721Y-157986000D02*
X59065279Y-157986000D01*
X80074222Y-147884999D02*
X80399780Y-147884999D01*
X80074222Y-148904999D02*
X80399780Y-148904999D01*
X72054222Y-146864999D02*
X72379780Y-146864999D01*
X72054222Y-145844999D02*
X72379780Y-145844999D01*
X57122222Y-114496999D02*
X57447780Y-114496999D01*
X57122222Y-115516999D02*
X57447780Y-115516999D01*
X87704222Y-162844999D02*
X88029780Y-162844999D01*
X87704222Y-161824999D02*
X88029780Y-161824999D01*
X83204222Y-159554999D02*
X83529780Y-159554999D01*
X83204222Y-158534999D02*
X83529780Y-158534999D01*
X79194222Y-155414999D02*
X79519780Y-155414999D01*
X79194222Y-156434999D02*
X79519780Y-156434999D01*
X59322222Y-120866999D02*
X59647780Y-120866999D01*
X59322222Y-119846999D02*
X59647780Y-119846999D01*
X59322222Y-117336999D02*
X59647780Y-117336999D01*
X59322222Y-118356999D02*
X59647780Y-118356999D01*
X79194222Y-158944999D02*
X79519780Y-158944999D01*
X79194222Y-157924999D02*
X79519780Y-157924999D01*
X74254222Y-153374999D02*
X74579780Y-153374999D01*
X74254222Y-154394999D02*
X74579780Y-154394999D01*
X75300721Y-174500000D02*
X75626279Y-174500000D01*
X75300721Y-173480000D02*
X75626279Y-173480000D01*
X57122222Y-113006999D02*
X57447780Y-113006999D01*
X57122222Y-111986999D02*
X57447780Y-111986999D01*
X72054222Y-148354999D02*
X72379780Y-148354999D01*
X72054222Y-149374999D02*
X72379780Y-149374999D01*
X74254222Y-151884999D02*
X74579780Y-151884999D01*
X74254222Y-150864999D02*
X74579780Y-150864999D01*
X56292001Y-136652999D02*
X56292001Y-134652999D01*
X56292001Y-134652999D02*
X60142001Y-134652999D01*
X56292001Y-136652999D02*
X60142001Y-136652999D01*
X91644000Y-117858000D02*
X91644000Y-114858000D01*
X91644000Y-114858000D02*
X79044000Y-114858000D01*
X79044000Y-114858000D02*
X79044000Y-117858000D01*
X79044000Y-124458000D02*
X79044000Y-127458000D01*
X79044000Y-127458000D02*
X91644000Y-127458000D01*
X91644000Y-127458000D02*
X91644000Y-124458000D01*
X53815001Y-112406999D02*
X53815001Y-113336999D01*
X53815001Y-115566999D02*
X53815001Y-114636999D01*
X53815001Y-115566999D02*
X51655001Y-115566999D01*
X53815001Y-112406999D02*
X52355001Y-112406999D01*
X76436000Y-169550000D02*
X74976000Y-169550000D01*
X76436000Y-172710000D02*
X74276000Y-172710000D01*
X76436000Y-172710000D02*
X76436000Y-171780000D01*
X76436000Y-169550000D02*
X76436000Y-170480000D01*
X80246000Y-167904000D02*
X80246000Y-168834000D01*
X80246000Y-171064000D02*
X80246000Y-170134000D01*
X80246000Y-171064000D02*
X78086000Y-171064000D01*
X80246000Y-167904000D02*
X78786000Y-167904000D01*
X67909221Y-111254000D02*
X68234779Y-111254000D01*
X67909221Y-110234000D02*
X68234779Y-110234000D01*
X71528222Y-108798999D02*
X71853780Y-108798999D01*
X71528222Y-107778999D02*
X71853780Y-107778999D01*
X61084222Y-132212999D02*
X61409780Y-132212999D01*
X61084222Y-133232999D02*
X61409780Y-133232999D01*
X57074222Y-130312999D02*
X57399780Y-130312999D01*
X57074222Y-129292999D02*
X57399780Y-129292999D01*
X63054222Y-135562999D02*
X63379780Y-135562999D01*
X63054222Y-136582999D02*
X63379780Y-136582999D01*
X63524222Y-139872999D02*
X63849780Y-139872999D01*
X63524222Y-138852999D02*
X63849780Y-138852999D01*
X57074222Y-131802999D02*
X57399780Y-131802999D01*
X57074222Y-132822999D02*
X57399780Y-132822999D01*
X60822721Y-104396000D02*
X61148279Y-104396000D01*
X60822721Y-103376000D02*
X61148279Y-103376000D01*
X64353221Y-103376000D02*
X64678779Y-103376000D01*
X64353221Y-104396000D02*
X64678779Y-104396000D01*
X92772222Y-161596999D02*
X93097780Y-161596999D01*
X92772222Y-160576999D02*
X93097780Y-160576999D01*
X79382222Y-137546999D02*
X79707780Y-137546999D01*
X79382222Y-136526999D02*
X79707780Y-136526999D01*
X104802222Y-160576999D02*
X105127780Y-160576999D01*
X104802222Y-161596999D02*
X105127780Y-161596999D01*
X91412222Y-142626999D02*
X91737780Y-142626999D01*
X91412222Y-141606999D02*
X91737780Y-141606999D01*
X105712222Y-155556999D02*
X106037780Y-155556999D01*
X105712222Y-156576999D02*
X106037780Y-156576999D01*
X83392222Y-139096999D02*
X83717780Y-139096999D01*
X83392222Y-140116999D02*
X83717780Y-140116999D01*
X101702222Y-150536999D02*
X102027780Y-150536999D01*
X101702222Y-151556999D02*
X102027780Y-151556999D01*
X97692222Y-151556999D02*
X98017780Y-151556999D01*
X97692222Y-150536999D02*
X98017780Y-150536999D01*
X92072222Y-145516999D02*
X92397780Y-145516999D01*
X92072222Y-146536999D02*
X92397780Y-146536999D01*
X87402222Y-140116999D02*
X87727780Y-140116999D01*
X87402222Y-139096999D02*
X87727780Y-139096999D01*
X101702222Y-153046999D02*
X102027780Y-153046999D01*
X101702222Y-154066999D02*
X102027780Y-154066999D01*
X95852222Y-149046999D02*
X96177780Y-149046999D01*
X95852222Y-148026999D02*
X96177780Y-148026999D01*
X88062222Y-145136999D02*
X88387780Y-145136999D01*
X88062222Y-144116999D02*
X88387780Y-144116999D01*
X87402222Y-141606999D02*
X87727780Y-141606999D01*
X87402222Y-142626999D02*
X87727780Y-142626999D01*
X101702222Y-156576999D02*
X102027780Y-156576999D01*
X101702222Y-155556999D02*
X102027780Y-155556999D01*
X105712222Y-158066999D02*
X106037780Y-158066999D01*
X105712222Y-159086999D02*
X106037780Y-159086999D01*
X83392222Y-136586999D02*
X83717780Y-136586999D01*
X83392222Y-137606999D02*
X83717780Y-137606999D01*
X105712222Y-151556999D02*
X106037780Y-151556999D01*
X105712222Y-150536999D02*
X106037780Y-150536999D01*
X95422222Y-143006999D02*
X95747780Y-143006999D01*
X95422222Y-144026999D02*
X95747780Y-144026999D01*
X96082222Y-146536999D02*
X96407780Y-146536999D01*
X96082222Y-145516999D02*
X96407780Y-145516999D01*
X104102222Y-145516999D02*
X104427780Y-145516999D01*
X104102222Y-146536999D02*
X104427780Y-146536999D01*
X99432222Y-144026999D02*
X99757780Y-144026999D01*
X99432222Y-143006999D02*
X99757780Y-143006999D01*
X103872222Y-148026999D02*
X104197780Y-148026999D01*
X103872222Y-149046999D02*
X104197780Y-149046999D01*
X95422222Y-140496999D02*
X95747780Y-140496999D01*
X95422222Y-141516999D02*
X95747780Y-141516999D01*
X79382222Y-141546999D02*
X79707780Y-141546999D01*
X79382222Y-142566999D02*
X79707780Y-142566999D01*
X91412222Y-137606999D02*
X91737780Y-137606999D01*
X91412222Y-136586999D02*
X91737780Y-136586999D01*
X100092222Y-146536999D02*
X100417780Y-146536999D01*
X100092222Y-145516999D02*
X100417780Y-145516999D01*
X99862222Y-148026999D02*
X100187780Y-148026999D01*
X99862222Y-149046999D02*
X100187780Y-149046999D01*
X91412222Y-140116999D02*
X91737780Y-140116999D01*
X91412222Y-139096999D02*
X91737780Y-139096999D01*
X105712222Y-154066999D02*
X106037780Y-154066999D01*
X105712222Y-153046999D02*
X106037780Y-153046999D01*
X66930222Y-155766999D02*
X67255780Y-155766999D01*
X66930222Y-156786999D02*
X67255780Y-156786999D01*
X58370222Y-152706999D02*
X58695780Y-152706999D01*
X58370222Y-151686999D02*
X58695780Y-151686999D01*
X53820222Y-148156999D02*
X54145780Y-148156999D01*
X53820222Y-147136999D02*
X54145780Y-147136999D01*
X58370222Y-150196999D02*
X58695780Y-150196999D01*
X58370222Y-149176999D02*
X58695780Y-149176999D01*
X62380222Y-151686999D02*
X62705780Y-151686999D01*
X62380222Y-152706999D02*
X62705780Y-152706999D01*
X67470222Y-158276999D02*
X67795780Y-158276999D01*
X67470222Y-159296999D02*
X67795780Y-159296999D01*
X71480222Y-161806999D02*
X71805780Y-161806999D01*
X71480222Y-160786999D02*
X71805780Y-160786999D01*
X67470222Y-160786999D02*
X67795780Y-160786999D01*
X67470222Y-161806999D02*
X67795780Y-161806999D01*
X62920222Y-156236999D02*
X63245780Y-156236999D01*
X62920222Y-157256999D02*
X63245780Y-157256999D01*
X70400222Y-151766999D02*
X70725780Y-151766999D01*
X70400222Y-150746999D02*
X70725780Y-150746999D01*
X93842721Y-127002000D02*
X94168279Y-127002000D01*
X93842721Y-125982000D02*
X94168279Y-125982000D01*
X98558222Y-134120999D02*
X98883780Y-134120999D01*
X98558222Y-133100999D02*
X98883780Y-133100999D01*
X93817221Y-121918000D02*
X94142779Y-121918000D01*
X93817221Y-122938000D02*
X94142779Y-122938000D01*
X103108222Y-135610999D02*
X103433780Y-135610999D01*
X103108222Y-136630999D02*
X103433780Y-136630999D01*
X93817221Y-120140000D02*
X94142779Y-120140000D01*
X93817221Y-121160000D02*
X94142779Y-121160000D01*
X102568222Y-133100999D02*
X102893780Y-133100999D01*
X102568222Y-134120999D02*
X102893780Y-134120999D01*
X63586222Y-128594999D02*
X63911780Y-128594999D01*
X63586222Y-129614999D02*
X63911780Y-129614999D01*
X55436222Y-120044999D02*
X55761780Y-120044999D01*
X55436222Y-119024999D02*
X55761780Y-119024999D01*
X59446222Y-124044999D02*
X59771780Y-124044999D01*
X59446222Y-125064999D02*
X59771780Y-125064999D01*
X75798222Y-107602999D02*
X76123780Y-107602999D01*
X75798222Y-108622999D02*
X76123780Y-108622999D01*
X75798222Y-111132999D02*
X76123780Y-111132999D01*
X75798222Y-110112999D02*
X76123780Y-110112999D01*
X54850222Y-157970999D02*
X55175780Y-157970999D01*
X54850222Y-158990999D02*
X55175780Y-158990999D01*
X87214222Y-157824999D02*
X87539780Y-157824999D01*
X87214222Y-156804999D02*
X87539780Y-156804999D01*
X80074222Y-151414999D02*
X80399780Y-151414999D01*
X80074222Y-150394999D02*
X80399780Y-150394999D01*
X76064222Y-146864999D02*
X76389780Y-146864999D01*
X76064222Y-145844999D02*
X76389780Y-145844999D01*
X83204222Y-154534999D02*
X83529780Y-154534999D01*
X83204222Y-153514999D02*
X83529780Y-153514999D01*
X87214222Y-160334999D02*
X87539780Y-160334999D01*
X87214222Y-159314999D02*
X87539780Y-159314999D01*
X83204222Y-156024999D02*
X83529780Y-156024999D01*
X83204222Y-157044999D02*
X83529780Y-157044999D01*
X76064222Y-149374999D02*
X76389780Y-149374999D01*
X76064222Y-148354999D02*
X76389780Y-148354999D01*
X78264222Y-152904999D02*
X78589780Y-152904999D01*
X78264222Y-153924999D02*
X78589780Y-153924999D01*
X57215000Y-137775000D02*
X59165000Y-137775000D01*
X57215000Y-137775000D02*
X55265000Y-137775000D01*
X57215000Y-142895000D02*
X59165000Y-142895000D01*
X57215000Y-142895000D02*
X53765000Y-142895000D01*
X69511001Y-124811999D02*
X71461001Y-124811999D01*
X69511001Y-124811999D02*
X67561001Y-124811999D01*
X69511001Y-133681999D02*
X71461001Y-133681999D01*
X69511001Y-133681999D02*
X66061001Y-133681999D01*
X75061001Y-123426999D02*
X72111001Y-123426999D01*
X73261001Y-120206999D02*
X75061001Y-120206999D01*
X69511001Y-143891999D02*
X66061001Y-143891999D01*
X69511001Y-143891999D02*
X71461001Y-143891999D01*
X69511001Y-135021999D02*
X67561001Y-135021999D01*
X69511001Y-135021999D02*
X71461001Y-135021999D01*
X98927001Y-117974999D02*
X97027001Y-117974999D01*
X97527001Y-115654999D02*
X98927001Y-115654999D01*
X88454000Y-109838000D02*
X89854000Y-109838000D01*
X89854000Y-112158000D02*
X87954000Y-112158000D01*
D11*
X71460000Y-113607000D02*
X75860000Y-113607000D01*
X69885000Y-119132000D02*
X75860000Y-119132000D01*
X61503000Y-123196000D02*
X67478000Y-123196000D01*
X63078000Y-117671000D02*
X67478000Y-117671000D01*
X101407000Y-125328000D02*
X105857000Y-125328000D01*
X99882000Y-132228000D02*
X105857000Y-132228000D01*
D10*
X85344000Y-134960000D02*
X83844000Y-134960000D01*
X85344000Y-134960000D02*
X86844000Y-134960000D01*
X85344000Y-131740000D02*
X83844000Y-131740000D01*
X85344000Y-131740000D02*
X88269000Y-131740000D01*
X78151500Y-134777000D02*
X75226500Y-134777000D01*
X78151500Y-134777000D02*
X79651500Y-134777000D01*
X78151500Y-131557000D02*
X76651500Y-131557000D01*
X78151500Y-131557000D02*
X79651500Y-131557000D01*
X86679000Y-171343000D02*
X83229000Y-171343000D01*
X86679000Y-171343000D02*
X88629000Y-171343000D01*
X86679000Y-166223000D02*
X84729000Y-166223000D01*
X86679000Y-166223000D02*
X88629000Y-166223000D01*
X64008000Y-165588000D02*
X65958000Y-165588000D01*
X64008000Y-165588000D02*
X62058000Y-165588000D01*
X64008000Y-170708000D02*
X65958000Y-170708000D01*
X64008000Y-170708000D02*
X60558000Y-170708000D01*
X79162000Y-113838500D02*
X79162000Y-109538500D01*
X79162000Y-109538500D02*
X84562000Y-109538500D01*
D11*
X67847667Y-110076141D02*
X67895286Y-110123760D01*
X68038143Y-110171379D01*
X68133381Y-110171379D01*
X68276239Y-110123760D01*
X68371477Y-110028522D01*
X68419096Y-109933284D01*
X68466715Y-109742808D01*
X68466715Y-109599951D01*
X68419096Y-109409475D01*
X68371477Y-109314237D01*
X68276239Y-109218999D01*
X68133381Y-109171379D01*
X68038143Y-109171379D01*
X67895286Y-109218999D01*
X67847667Y-109266618D01*
X66895286Y-110171379D02*
X67466715Y-110171379D01*
X67181001Y-110171379D02*
X67181001Y-109171379D01*
X67276239Y-109314237D01*
X67371477Y-109409475D01*
X67466715Y-109457094D01*
X61126666Y-107959142D02*
X61174285Y-108006761D01*
X61317142Y-108054380D01*
X61412380Y-108054380D01*
X61555238Y-108006761D01*
X61650476Y-107911523D01*
X61698095Y-107816285D01*
X61745714Y-107625809D01*
X61745714Y-107482952D01*
X61698095Y-107292476D01*
X61650476Y-107197238D01*
X61555238Y-107102000D01*
X61412380Y-107054380D01*
X61317142Y-107054380D01*
X61174285Y-107102000D01*
X61126666Y-107149619D01*
X60793333Y-107054380D02*
X60174285Y-107054380D01*
X60507619Y-107435333D01*
X60364761Y-107435333D01*
X60269523Y-107482952D01*
X60221904Y-107530571D01*
X60174285Y-107625809D01*
X60174285Y-107863904D01*
X60221904Y-107959142D01*
X60269523Y-108006761D01*
X60364761Y-108054380D01*
X60650476Y-108054380D01*
X60745714Y-108006761D01*
X60793333Y-107959142D01*
X94011667Y-157854141D02*
X94059286Y-157901760D01*
X94202143Y-157949379D01*
X94297381Y-157949379D01*
X94440239Y-157901760D01*
X94535477Y-157806522D01*
X94583096Y-157711284D01*
X94630715Y-157520808D01*
X94630715Y-157377951D01*
X94583096Y-157187475D01*
X94535477Y-157092237D01*
X94440239Y-156996999D01*
X94297381Y-156949379D01*
X94202143Y-156949379D01*
X94059286Y-156996999D01*
X94011667Y-157044618D01*
X93154524Y-156949379D02*
X93345001Y-156949379D01*
X93440239Y-156996999D01*
X93487858Y-157044618D01*
X93583096Y-157187475D01*
X93630715Y-157377951D01*
X93630715Y-157758903D01*
X93583096Y-157854141D01*
X93535477Y-157901760D01*
X93440239Y-157949379D01*
X93249762Y-157949379D01*
X93154524Y-157901760D01*
X93106905Y-157854141D01*
X93059286Y-157758903D01*
X93059286Y-157520808D01*
X93106905Y-157425570D01*
X93154524Y-157377951D01*
X93249762Y-157330332D01*
X93440239Y-157330332D01*
X93535477Y-157377951D01*
X93583096Y-157425570D01*
X93630715Y-157520808D01*
X98021667Y-160364141D02*
X98069286Y-160411760D01*
X98212143Y-160459379D01*
X98307381Y-160459379D01*
X98450239Y-160411760D01*
X98545477Y-160316522D01*
X98593096Y-160221284D01*
X98640715Y-160030808D01*
X98640715Y-159887951D01*
X98593096Y-159697475D01*
X98545477Y-159602237D01*
X98450239Y-159506999D01*
X98307381Y-159459379D01*
X98212143Y-159459379D01*
X98069286Y-159506999D01*
X98021667Y-159554618D01*
X97688334Y-159459379D02*
X97021667Y-159459379D01*
X97450239Y-160459379D01*
X90001667Y-153204141D02*
X90049286Y-153251760D01*
X90192143Y-153299379D01*
X90287381Y-153299379D01*
X90430239Y-153251760D01*
X90525477Y-153156522D01*
X90573096Y-153061284D01*
X90620715Y-152870808D01*
X90620715Y-152727951D01*
X90573096Y-152537475D01*
X90525477Y-152442237D01*
X90430239Y-152346999D01*
X90287381Y-152299379D01*
X90192143Y-152299379D01*
X90049286Y-152346999D01*
X90001667Y-152394618D01*
X89430239Y-152727951D02*
X89525477Y-152680332D01*
X89573096Y-152632713D01*
X89620715Y-152537475D01*
X89620715Y-152489856D01*
X89573096Y-152394618D01*
X89525477Y-152346999D01*
X89430239Y-152299379D01*
X89239762Y-152299379D01*
X89144524Y-152346999D01*
X89096905Y-152394618D01*
X89049286Y-152489856D01*
X89049286Y-152537475D01*
X89096905Y-152632713D01*
X89144524Y-152680332D01*
X89239762Y-152727951D01*
X89430239Y-152727951D01*
X89525477Y-152775570D01*
X89573096Y-152823189D01*
X89620715Y-152918427D01*
X89620715Y-153108903D01*
X89573096Y-153204141D01*
X89525477Y-153251760D01*
X89430239Y-153299379D01*
X89239762Y-153299379D01*
X89144524Y-153251760D01*
X89096905Y-153204141D01*
X89049286Y-153108903D01*
X89049286Y-152918427D01*
X89096905Y-152823189D01*
X89144524Y-152775570D01*
X89239762Y-152727951D01*
X75701667Y-138824141D02*
X75749286Y-138871760D01*
X75892143Y-138919379D01*
X75987381Y-138919379D01*
X76130239Y-138871760D01*
X76225477Y-138776522D01*
X76273096Y-138681284D01*
X76320715Y-138490808D01*
X76320715Y-138347951D01*
X76273096Y-138157475D01*
X76225477Y-138062237D01*
X76130239Y-137966999D01*
X75987381Y-137919379D01*
X75892143Y-137919379D01*
X75749286Y-137966999D01*
X75701667Y-138014618D01*
X75225477Y-138919379D02*
X75035001Y-138919379D01*
X74939762Y-138871760D01*
X74892143Y-138824141D01*
X74796905Y-138681284D01*
X74749286Y-138490808D01*
X74749286Y-138109856D01*
X74796905Y-138014618D01*
X74844524Y-137966999D01*
X74939762Y-137919379D01*
X75130239Y-137919379D01*
X75225477Y-137966999D01*
X75273096Y-138014618D01*
X75320715Y-138109856D01*
X75320715Y-138347951D01*
X75273096Y-138443189D01*
X75225477Y-138490808D01*
X75130239Y-138538427D01*
X74939762Y-138538427D01*
X74844524Y-138490808D01*
X74796905Y-138443189D01*
X74749286Y-138347951D01*
X84857858Y-146414141D02*
X84905477Y-146461760D01*
X85048334Y-146509379D01*
X85143572Y-146509379D01*
X85286429Y-146461760D01*
X85381667Y-146366522D01*
X85429286Y-146271284D01*
X85476905Y-146080808D01*
X85476905Y-145937951D01*
X85429286Y-145747475D01*
X85381667Y-145652237D01*
X85286429Y-145556999D01*
X85143572Y-145509379D01*
X85048334Y-145509379D01*
X84905477Y-145556999D01*
X84857858Y-145604618D01*
X83905477Y-146509379D02*
X84476905Y-146509379D01*
X84191191Y-146509379D02*
X84191191Y-145509379D01*
X84286429Y-145652237D01*
X84381667Y-145747475D01*
X84476905Y-145795094D01*
X83286429Y-145509379D02*
X83191191Y-145509379D01*
X83095953Y-145556999D01*
X83048334Y-145604618D01*
X83000715Y-145699856D01*
X82953096Y-145890332D01*
X82953096Y-146128427D01*
X83000715Y-146318903D01*
X83048334Y-146414141D01*
X83095953Y-146461760D01*
X83191191Y-146509379D01*
X83286429Y-146509379D01*
X83381667Y-146461760D01*
X83429286Y-146414141D01*
X83476905Y-146318903D01*
X83524524Y-146128427D01*
X83524524Y-145890332D01*
X83476905Y-145699856D01*
X83429286Y-145604618D01*
X83381667Y-145556999D01*
X83286429Y-145509379D01*
X94487858Y-160364141D02*
X94535477Y-160411760D01*
X94678334Y-160459379D01*
X94773572Y-160459379D01*
X94916429Y-160411760D01*
X95011667Y-160316522D01*
X95059286Y-160221284D01*
X95106905Y-160030808D01*
X95106905Y-159887951D01*
X95059286Y-159697475D01*
X95011667Y-159602237D01*
X94916429Y-159506999D01*
X94773572Y-159459379D01*
X94678334Y-159459379D01*
X94535477Y-159506999D01*
X94487858Y-159554618D01*
X93535477Y-160459379D02*
X94106905Y-160459379D01*
X93821191Y-160459379D02*
X93821191Y-159459379D01*
X93916429Y-159602237D01*
X94011667Y-159697475D01*
X94106905Y-159745094D01*
X92583096Y-160459379D02*
X93154524Y-160459379D01*
X92868810Y-160459379D02*
X92868810Y-159459379D01*
X92964048Y-159602237D01*
X93059286Y-159697475D01*
X93154524Y-159745094D01*
X84197858Y-143904141D02*
X84245477Y-143951760D01*
X84388334Y-143999379D01*
X84483572Y-143999379D01*
X84626429Y-143951760D01*
X84721667Y-143856522D01*
X84769286Y-143761284D01*
X84816905Y-143570808D01*
X84816905Y-143427951D01*
X84769286Y-143237475D01*
X84721667Y-143142237D01*
X84626429Y-143046999D01*
X84483572Y-142999379D01*
X84388334Y-142999379D01*
X84245477Y-143046999D01*
X84197858Y-143094618D01*
X83245477Y-143999379D02*
X83816905Y-143999379D01*
X83531191Y-143999379D02*
X83531191Y-142999379D01*
X83626429Y-143142237D01*
X83721667Y-143237475D01*
X83816905Y-143285094D01*
X82864524Y-143094618D02*
X82816905Y-143046999D01*
X82721667Y-142999379D01*
X82483572Y-142999379D01*
X82388334Y-143046999D01*
X82340715Y-143094618D01*
X82293096Y-143189856D01*
X82293096Y-143285094D01*
X82340715Y-143427951D01*
X82912143Y-143999379D01*
X82293096Y-143999379D01*
X98497858Y-157854141D02*
X98545477Y-157901760D01*
X98688334Y-157949379D01*
X98783572Y-157949379D01*
X98926429Y-157901760D01*
X99021667Y-157806522D01*
X99069286Y-157711284D01*
X99116905Y-157520808D01*
X99116905Y-157377951D01*
X99069286Y-157187475D01*
X99021667Y-157092237D01*
X98926429Y-156996999D01*
X98783572Y-156949379D01*
X98688334Y-156949379D01*
X98545477Y-156996999D01*
X98497858Y-157044618D01*
X97545477Y-157949379D02*
X98116905Y-157949379D01*
X97831191Y-157949379D02*
X97831191Y-156949379D01*
X97926429Y-157092237D01*
X98021667Y-157187475D01*
X98116905Y-157235094D01*
X97212143Y-156949379D02*
X96593096Y-156949379D01*
X96926429Y-157330332D01*
X96783572Y-157330332D01*
X96688334Y-157377951D01*
X96640715Y-157425570D01*
X96593096Y-157520808D01*
X96593096Y-157758903D01*
X96640715Y-157854141D01*
X96688334Y-157901760D01*
X96783572Y-157949379D01*
X97069286Y-157949379D01*
X97164524Y-157901760D01*
X97212143Y-157854141D01*
X102507858Y-160364141D02*
X102555477Y-160411760D01*
X102698334Y-160459379D01*
X102793572Y-160459379D01*
X102936429Y-160411760D01*
X103031667Y-160316522D01*
X103079286Y-160221284D01*
X103126905Y-160030808D01*
X103126905Y-159887951D01*
X103079286Y-159697475D01*
X103031667Y-159602237D01*
X102936429Y-159506999D01*
X102793572Y-159459379D01*
X102698334Y-159459379D01*
X102555477Y-159506999D01*
X102507858Y-159554618D01*
X101555477Y-160459379D02*
X102126905Y-160459379D01*
X101841191Y-160459379D02*
X101841191Y-159459379D01*
X101936429Y-159602237D01*
X102031667Y-159697475D01*
X102126905Y-159745094D01*
X100698334Y-159792713D02*
X100698334Y-160459379D01*
X100936429Y-159411760D02*
X101174524Y-160126046D01*
X100555477Y-160126046D01*
X80187858Y-141334141D02*
X80235477Y-141381760D01*
X80378334Y-141429379D01*
X80473572Y-141429379D01*
X80616429Y-141381760D01*
X80711667Y-141286522D01*
X80759286Y-141191284D01*
X80806905Y-141000808D01*
X80806905Y-140857951D01*
X80759286Y-140667475D01*
X80711667Y-140572237D01*
X80616429Y-140476999D01*
X80473572Y-140429379D01*
X80378334Y-140429379D01*
X80235477Y-140476999D01*
X80187858Y-140524618D01*
X79235477Y-141429379D02*
X79806905Y-141429379D01*
X79521191Y-141429379D02*
X79521191Y-140429379D01*
X79616429Y-140572237D01*
X79711667Y-140667475D01*
X79806905Y-140715094D01*
X78330715Y-140429379D02*
X78806905Y-140429379D01*
X78854524Y-140905570D01*
X78806905Y-140857951D01*
X78711667Y-140810332D01*
X78473572Y-140810332D01*
X78378334Y-140857951D01*
X78330715Y-140905570D01*
X78283096Y-141000808D01*
X78283096Y-141238903D01*
X78330715Y-141334141D01*
X78378334Y-141381760D01*
X78473572Y-141429379D01*
X78711667Y-141429379D01*
X78806905Y-141381760D01*
X78854524Y-141334141D01*
X94487858Y-155344141D02*
X94535477Y-155391760D01*
X94678334Y-155439379D01*
X94773572Y-155439379D01*
X94916429Y-155391760D01*
X95011667Y-155296522D01*
X95059286Y-155201284D01*
X95106905Y-155010808D01*
X95106905Y-154867951D01*
X95059286Y-154677475D01*
X95011667Y-154582237D01*
X94916429Y-154486999D01*
X94773572Y-154439379D01*
X94678334Y-154439379D01*
X94535477Y-154486999D01*
X94487858Y-154534618D01*
X93535477Y-155439379D02*
X94106905Y-155439379D01*
X93821191Y-155439379D02*
X93821191Y-154439379D01*
X93916429Y-154582237D01*
X94011667Y-154677475D01*
X94106905Y-154725094D01*
X92678334Y-154439379D02*
X92868810Y-154439379D01*
X92964048Y-154486999D01*
X93011667Y-154534618D01*
X93106905Y-154677475D01*
X93154524Y-154867951D01*
X93154524Y-155248903D01*
X93106905Y-155344141D01*
X93059286Y-155391760D01*
X92964048Y-155439379D01*
X92773572Y-155439379D01*
X92678334Y-155391760D01*
X92630715Y-155344141D01*
X92583096Y-155248903D01*
X92583096Y-155010808D01*
X92630715Y-154915570D01*
X92678334Y-154867951D01*
X92773572Y-154820332D01*
X92964048Y-154820332D01*
X93059286Y-154867951D01*
X93106905Y-154915570D01*
X93154524Y-155010808D01*
X88637858Y-148924141D02*
X88685477Y-148971760D01*
X88828334Y-149019379D01*
X88923572Y-149019379D01*
X89066429Y-148971760D01*
X89161667Y-148876522D01*
X89209286Y-148781284D01*
X89256905Y-148590808D01*
X89256905Y-148447951D01*
X89209286Y-148257475D01*
X89161667Y-148162237D01*
X89066429Y-148066999D01*
X88923572Y-148019379D01*
X88828334Y-148019379D01*
X88685477Y-148066999D01*
X88637858Y-148114618D01*
X87685477Y-149019379D02*
X88256905Y-149019379D01*
X87971191Y-149019379D02*
X87971191Y-148019379D01*
X88066429Y-148162237D01*
X88161667Y-148257475D01*
X88256905Y-148305094D01*
X87352143Y-148019379D02*
X86685477Y-148019379D01*
X87114048Y-149019379D01*
X94487858Y-152834141D02*
X94535477Y-152881760D01*
X94678334Y-152929379D01*
X94773572Y-152929379D01*
X94916429Y-152881760D01*
X95011667Y-152786522D01*
X95059286Y-152691284D01*
X95106905Y-152500808D01*
X95106905Y-152357951D01*
X95059286Y-152167475D01*
X95011667Y-152072237D01*
X94916429Y-151976999D01*
X94773572Y-151929379D01*
X94678334Y-151929379D01*
X94535477Y-151976999D01*
X94487858Y-152024618D01*
X93535477Y-152929379D02*
X94106905Y-152929379D01*
X93821191Y-152929379D02*
X93821191Y-151929379D01*
X93916429Y-152072237D01*
X94011667Y-152167475D01*
X94106905Y-152215094D01*
X92964048Y-152357951D02*
X93059286Y-152310332D01*
X93106905Y-152262713D01*
X93154524Y-152167475D01*
X93154524Y-152119856D01*
X93106905Y-152024618D01*
X93059286Y-151976999D01*
X92964048Y-151929379D01*
X92773572Y-151929379D01*
X92678334Y-151976999D01*
X92630715Y-152024618D01*
X92583096Y-152119856D01*
X92583096Y-152167475D01*
X92630715Y-152262713D01*
X92678334Y-152310332D01*
X92773572Y-152357951D01*
X92964048Y-152357951D01*
X93059286Y-152405570D01*
X93106905Y-152453189D01*
X93154524Y-152548427D01*
X93154524Y-152738903D01*
X93106905Y-152834141D01*
X93059286Y-152881760D01*
X92964048Y-152929379D01*
X92773572Y-152929379D01*
X92678334Y-152881760D01*
X92630715Y-152834141D01*
X92583096Y-152738903D01*
X92583096Y-152548427D01*
X92630715Y-152453189D01*
X92678334Y-152405570D01*
X92773572Y-152357951D01*
X92647858Y-150324141D02*
X92695477Y-150371760D01*
X92838334Y-150419379D01*
X92933572Y-150419379D01*
X93076429Y-150371760D01*
X93171667Y-150276522D01*
X93219286Y-150181284D01*
X93266905Y-149990808D01*
X93266905Y-149847951D01*
X93219286Y-149657475D01*
X93171667Y-149562237D01*
X93076429Y-149466999D01*
X92933572Y-149419379D01*
X92838334Y-149419379D01*
X92695477Y-149466999D01*
X92647858Y-149514618D01*
X91695477Y-150419379D02*
X92266905Y-150419379D01*
X91981191Y-150419379D02*
X91981191Y-149419379D01*
X92076429Y-149562237D01*
X92171667Y-149657475D01*
X92266905Y-149705094D01*
X91219286Y-150419379D02*
X91028810Y-150419379D01*
X90933572Y-150371760D01*
X90885953Y-150324141D01*
X90790715Y-150181284D01*
X90743096Y-149990808D01*
X90743096Y-149609856D01*
X90790715Y-149514618D01*
X90838334Y-149466999D01*
X90933572Y-149419379D01*
X91124048Y-149419379D01*
X91219286Y-149466999D01*
X91266905Y-149514618D01*
X91314524Y-149609856D01*
X91314524Y-149847951D01*
X91266905Y-149943189D01*
X91219286Y-149990808D01*
X91124048Y-150038427D01*
X90933572Y-150038427D01*
X90838334Y-149990808D01*
X90790715Y-149943189D01*
X90743096Y-149847951D01*
X98497858Y-155344141D02*
X98545477Y-155391760D01*
X98688334Y-155439379D01*
X98783572Y-155439379D01*
X98926429Y-155391760D01*
X99021667Y-155296522D01*
X99069286Y-155201284D01*
X99116905Y-155010808D01*
X99116905Y-154867951D01*
X99069286Y-154677475D01*
X99021667Y-154582237D01*
X98926429Y-154486999D01*
X98783572Y-154439379D01*
X98688334Y-154439379D01*
X98545477Y-154486999D01*
X98497858Y-154534618D01*
X98116905Y-154534618D02*
X98069286Y-154486999D01*
X97974048Y-154439379D01*
X97735953Y-154439379D01*
X97640715Y-154486999D01*
X97593096Y-154534618D01*
X97545477Y-154629856D01*
X97545477Y-154725094D01*
X97593096Y-154867951D01*
X98164524Y-155439379D01*
X97545477Y-155439379D01*
X96926429Y-154439379D02*
X96831191Y-154439379D01*
X96735953Y-154486999D01*
X96688334Y-154534618D01*
X96640715Y-154629856D01*
X96593096Y-154820332D01*
X96593096Y-155058427D01*
X96640715Y-155248903D01*
X96688334Y-155344141D01*
X96735953Y-155391760D01*
X96831191Y-155439379D01*
X96926429Y-155439379D01*
X97021667Y-155391760D01*
X97069286Y-155344141D01*
X97116905Y-155248903D01*
X97164524Y-155058427D01*
X97164524Y-154820332D01*
X97116905Y-154629856D01*
X97069286Y-154534618D01*
X97021667Y-154486999D01*
X96926429Y-154439379D01*
X88207858Y-138884141D02*
X88255477Y-138931760D01*
X88398334Y-138979379D01*
X88493572Y-138979379D01*
X88636429Y-138931760D01*
X88731667Y-138836522D01*
X88779286Y-138741284D01*
X88826905Y-138550808D01*
X88826905Y-138407951D01*
X88779286Y-138217475D01*
X88731667Y-138122237D01*
X88636429Y-138026999D01*
X88493572Y-137979379D01*
X88398334Y-137979379D01*
X88255477Y-138026999D01*
X88207858Y-138074618D01*
X87826905Y-138074618D02*
X87779286Y-138026999D01*
X87684048Y-137979379D01*
X87445953Y-137979379D01*
X87350715Y-138026999D01*
X87303096Y-138074618D01*
X87255477Y-138169856D01*
X87255477Y-138265094D01*
X87303096Y-138407951D01*
X87874524Y-138979379D01*
X87255477Y-138979379D01*
X86303096Y-138979379D02*
X86874524Y-138979379D01*
X86588810Y-138979379D02*
X86588810Y-137979379D01*
X86684048Y-138122237D01*
X86779286Y-138217475D01*
X86874524Y-138265094D01*
X80847858Y-146414141D02*
X80895477Y-146461760D01*
X81038334Y-146509379D01*
X81133572Y-146509379D01*
X81276429Y-146461760D01*
X81371667Y-146366522D01*
X81419286Y-146271284D01*
X81466905Y-146080808D01*
X81466905Y-145937951D01*
X81419286Y-145747475D01*
X81371667Y-145652237D01*
X81276429Y-145556999D01*
X81133572Y-145509379D01*
X81038334Y-145509379D01*
X80895477Y-145556999D01*
X80847858Y-145604618D01*
X80466905Y-145604618D02*
X80419286Y-145556999D01*
X80324048Y-145509379D01*
X80085953Y-145509379D01*
X79990715Y-145556999D01*
X79943096Y-145604618D01*
X79895477Y-145699856D01*
X79895477Y-145795094D01*
X79943096Y-145937951D01*
X80514524Y-146509379D01*
X79895477Y-146509379D01*
X79514524Y-145604618D02*
X79466905Y-145556999D01*
X79371667Y-145509379D01*
X79133572Y-145509379D01*
X79038334Y-145556999D01*
X78990715Y-145604618D01*
X78943096Y-145699856D01*
X78943096Y-145795094D01*
X78990715Y-145937951D01*
X79562143Y-146509379D01*
X78943096Y-146509379D01*
X97587858Y-162874141D02*
X97635477Y-162921760D01*
X97778334Y-162969379D01*
X97873572Y-162969379D01*
X98016429Y-162921760D01*
X98111667Y-162826522D01*
X98159286Y-162731284D01*
X98206905Y-162540808D01*
X98206905Y-162397951D01*
X98159286Y-162207475D01*
X98111667Y-162112237D01*
X98016429Y-162016999D01*
X97873572Y-161969379D01*
X97778334Y-161969379D01*
X97635477Y-162016999D01*
X97587858Y-162064618D01*
X97206905Y-162064618D02*
X97159286Y-162016999D01*
X97064048Y-161969379D01*
X96825953Y-161969379D01*
X96730715Y-162016999D01*
X96683096Y-162064618D01*
X96635477Y-162159856D01*
X96635477Y-162255094D01*
X96683096Y-162397951D01*
X97254524Y-162969379D01*
X96635477Y-162969379D01*
X96302143Y-161969379D02*
X95683096Y-161969379D01*
X96016429Y-162350332D01*
X95873572Y-162350332D01*
X95778334Y-162397951D01*
X95730715Y-162445570D01*
X95683096Y-162540808D01*
X95683096Y-162778903D01*
X95730715Y-162874141D01*
X95778334Y-162921760D01*
X95873572Y-162969379D01*
X96159286Y-162969379D01*
X96254524Y-162921760D01*
X96302143Y-162874141D01*
X90477858Y-155714141D02*
X90525477Y-155761760D01*
X90668334Y-155809379D01*
X90763572Y-155809379D01*
X90906429Y-155761760D01*
X91001667Y-155666522D01*
X91049286Y-155571284D01*
X91096905Y-155380808D01*
X91096905Y-155237951D01*
X91049286Y-155047475D01*
X91001667Y-154952237D01*
X90906429Y-154856999D01*
X90763572Y-154809379D01*
X90668334Y-154809379D01*
X90525477Y-154856999D01*
X90477858Y-154904618D01*
X90096905Y-154904618D02*
X90049286Y-154856999D01*
X89954048Y-154809379D01*
X89715953Y-154809379D01*
X89620715Y-154856999D01*
X89573096Y-154904618D01*
X89525477Y-154999856D01*
X89525477Y-155095094D01*
X89573096Y-155237951D01*
X90144524Y-155809379D01*
X89525477Y-155809379D01*
X88668334Y-155142713D02*
X88668334Y-155809379D01*
X88906429Y-154761760D02*
X89144524Y-155476046D01*
X88525477Y-155476046D01*
X76177858Y-141334141D02*
X76225477Y-141381760D01*
X76368334Y-141429379D01*
X76463572Y-141429379D01*
X76606429Y-141381760D01*
X76701667Y-141286522D01*
X76749286Y-141191284D01*
X76796905Y-141000808D01*
X76796905Y-140857951D01*
X76749286Y-140667475D01*
X76701667Y-140572237D01*
X76606429Y-140476999D01*
X76463572Y-140429379D01*
X76368334Y-140429379D01*
X76225477Y-140476999D01*
X76177858Y-140524618D01*
X75796905Y-140524618D02*
X75749286Y-140476999D01*
X75654048Y-140429379D01*
X75415953Y-140429379D01*
X75320715Y-140476999D01*
X75273096Y-140524618D01*
X75225477Y-140619856D01*
X75225477Y-140715094D01*
X75273096Y-140857951D01*
X75844524Y-141429379D01*
X75225477Y-141429379D01*
X74320715Y-140429379D02*
X74796905Y-140429379D01*
X74844524Y-140905570D01*
X74796905Y-140857951D01*
X74701667Y-140810332D01*
X74463572Y-140810332D01*
X74368334Y-140857951D01*
X74320715Y-140905570D01*
X74273096Y-141000808D01*
X74273096Y-141238903D01*
X74320715Y-141334141D01*
X74368334Y-141381760D01*
X74463572Y-141429379D01*
X74701667Y-141429379D01*
X74796905Y-141381760D01*
X74844524Y-141334141D01*
X84627858Y-148924141D02*
X84675477Y-148971760D01*
X84818334Y-149019379D01*
X84913572Y-149019379D01*
X85056429Y-148971760D01*
X85151667Y-148876522D01*
X85199286Y-148781284D01*
X85246905Y-148590808D01*
X85246905Y-148447951D01*
X85199286Y-148257475D01*
X85151667Y-148162237D01*
X85056429Y-148066999D01*
X84913572Y-148019379D01*
X84818334Y-148019379D01*
X84675477Y-148066999D01*
X84627858Y-148114618D01*
X84246905Y-148114618D02*
X84199286Y-148066999D01*
X84104048Y-148019379D01*
X83865953Y-148019379D01*
X83770715Y-148066999D01*
X83723096Y-148114618D01*
X83675477Y-148209856D01*
X83675477Y-148305094D01*
X83723096Y-148447951D01*
X84294524Y-149019379D01*
X83675477Y-149019379D01*
X82818334Y-148019379D02*
X83008810Y-148019379D01*
X83104048Y-148066999D01*
X83151667Y-148114618D01*
X83246905Y-148257475D01*
X83294524Y-148447951D01*
X83294524Y-148828903D01*
X83246905Y-148924141D01*
X83199286Y-148971760D01*
X83104048Y-149019379D01*
X82913572Y-149019379D01*
X82818334Y-148971760D01*
X82770715Y-148924141D01*
X82723096Y-148828903D01*
X82723096Y-148590808D01*
X82770715Y-148495570D01*
X82818334Y-148447951D01*
X82913572Y-148400332D01*
X83104048Y-148400332D01*
X83199286Y-148447951D01*
X83246905Y-148495570D01*
X83294524Y-148590808D01*
X76177858Y-143844141D02*
X76225477Y-143891760D01*
X76368334Y-143939379D01*
X76463572Y-143939379D01*
X76606429Y-143891760D01*
X76701667Y-143796522D01*
X76749286Y-143701284D01*
X76796905Y-143510808D01*
X76796905Y-143367951D01*
X76749286Y-143177475D01*
X76701667Y-143082237D01*
X76606429Y-142986999D01*
X76463572Y-142939379D01*
X76368334Y-142939379D01*
X76225477Y-142986999D01*
X76177858Y-143034618D01*
X75796905Y-143034618D02*
X75749286Y-142986999D01*
X75654048Y-142939379D01*
X75415953Y-142939379D01*
X75320715Y-142986999D01*
X75273096Y-143034618D01*
X75225477Y-143129856D01*
X75225477Y-143225094D01*
X75273096Y-143367951D01*
X75844524Y-143939379D01*
X75225477Y-143939379D01*
X74892143Y-142939379D02*
X74225477Y-142939379D01*
X74654048Y-143939379D01*
X90477858Y-158224141D02*
X90525477Y-158271760D01*
X90668334Y-158319379D01*
X90763572Y-158319379D01*
X90906429Y-158271760D01*
X91001667Y-158176522D01*
X91049286Y-158081284D01*
X91096905Y-157890808D01*
X91096905Y-157747951D01*
X91049286Y-157557475D01*
X91001667Y-157462237D01*
X90906429Y-157366999D01*
X90763572Y-157319379D01*
X90668334Y-157319379D01*
X90525477Y-157366999D01*
X90477858Y-157414618D01*
X90096905Y-157414618D02*
X90049286Y-157366999D01*
X89954048Y-157319379D01*
X89715953Y-157319379D01*
X89620715Y-157366999D01*
X89573096Y-157414618D01*
X89525477Y-157509856D01*
X89525477Y-157605094D01*
X89573096Y-157747951D01*
X90144524Y-158319379D01*
X89525477Y-158319379D01*
X88954048Y-157747951D02*
X89049286Y-157700332D01*
X89096905Y-157652713D01*
X89144524Y-157557475D01*
X89144524Y-157509856D01*
X89096905Y-157414618D01*
X89049286Y-157366999D01*
X88954048Y-157319379D01*
X88763572Y-157319379D01*
X88668334Y-157366999D01*
X88620715Y-157414618D01*
X88573096Y-157509856D01*
X88573096Y-157557475D01*
X88620715Y-157652713D01*
X88668334Y-157700332D01*
X88763572Y-157747951D01*
X88954048Y-157747951D01*
X89049286Y-157795570D01*
X89096905Y-157843189D01*
X89144524Y-157938427D01*
X89144524Y-158128903D01*
X89096905Y-158224141D01*
X89049286Y-158271760D01*
X88954048Y-158319379D01*
X88763572Y-158319379D01*
X88668334Y-158271760D01*
X88620715Y-158224141D01*
X88573096Y-158128903D01*
X88573096Y-157938427D01*
X88620715Y-157843189D01*
X88668334Y-157795570D01*
X88763572Y-157747951D01*
X76383858Y-128574141D02*
X76431477Y-128621760D01*
X76574334Y-128669379D01*
X76669572Y-128669379D01*
X76812429Y-128621760D01*
X76907667Y-128526522D01*
X76955286Y-128431284D01*
X77002905Y-128240808D01*
X77002905Y-128097951D01*
X76955286Y-127907475D01*
X76907667Y-127812237D01*
X76812429Y-127716999D01*
X76669572Y-127669379D01*
X76574334Y-127669379D01*
X76431477Y-127716999D01*
X76383858Y-127764618D01*
X76002905Y-127764618D02*
X75955286Y-127716999D01*
X75860048Y-127669379D01*
X75621953Y-127669379D01*
X75526715Y-127716999D01*
X75479096Y-127764618D01*
X75431477Y-127859856D01*
X75431477Y-127955094D01*
X75479096Y-128097951D01*
X76050524Y-128669379D01*
X75431477Y-128669379D01*
X74955286Y-128669379D02*
X74764810Y-128669379D01*
X74669572Y-128621760D01*
X74621953Y-128574141D01*
X74526715Y-128431284D01*
X74479096Y-128240808D01*
X74479096Y-127859856D01*
X74526715Y-127764618D01*
X74574334Y-127716999D01*
X74669572Y-127669379D01*
X74860048Y-127669379D01*
X74955286Y-127716999D01*
X75002905Y-127764618D01*
X75050524Y-127859856D01*
X75050524Y-128097951D01*
X75002905Y-128193189D01*
X74955286Y-128240808D01*
X74860048Y-128288427D01*
X74669572Y-128288427D01*
X74574334Y-128240808D01*
X74526715Y-128193189D01*
X74479096Y-128097951D01*
X76837858Y-146354141D02*
X76885477Y-146401760D01*
X77028334Y-146449379D01*
X77123572Y-146449379D01*
X77266429Y-146401760D01*
X77361667Y-146306522D01*
X77409286Y-146211284D01*
X77456905Y-146020808D01*
X77456905Y-145877951D01*
X77409286Y-145687475D01*
X77361667Y-145592237D01*
X77266429Y-145496999D01*
X77123572Y-145449379D01*
X77028334Y-145449379D01*
X76885477Y-145496999D01*
X76837858Y-145544618D01*
X76504524Y-145449379D02*
X75885477Y-145449379D01*
X76218810Y-145830332D01*
X76075953Y-145830332D01*
X75980715Y-145877951D01*
X75933096Y-145925570D01*
X75885477Y-146020808D01*
X75885477Y-146258903D01*
X75933096Y-146354141D01*
X75980715Y-146401760D01*
X76075953Y-146449379D01*
X76361667Y-146449379D01*
X76456905Y-146401760D01*
X76504524Y-146354141D01*
X75266429Y-145449379D02*
X75171191Y-145449379D01*
X75075953Y-145496999D01*
X75028334Y-145544618D01*
X74980715Y-145639856D01*
X74933096Y-145830332D01*
X74933096Y-146068427D01*
X74980715Y-146258903D01*
X75028334Y-146354141D01*
X75075953Y-146401760D01*
X75171191Y-146449379D01*
X75266429Y-146449379D01*
X75361667Y-146401760D01*
X75409286Y-146354141D01*
X75456905Y-146258903D01*
X75504524Y-146068427D01*
X75504524Y-145830332D01*
X75456905Y-145639856D01*
X75409286Y-145544618D01*
X75361667Y-145496999D01*
X75266429Y-145449379D01*
X101597858Y-162874141D02*
X101645477Y-162921760D01*
X101788334Y-162969379D01*
X101883572Y-162969379D01*
X102026429Y-162921760D01*
X102121667Y-162826522D01*
X102169286Y-162731284D01*
X102216905Y-162540808D01*
X102216905Y-162397951D01*
X102169286Y-162207475D01*
X102121667Y-162112237D01*
X102026429Y-162016999D01*
X101883572Y-161969379D01*
X101788334Y-161969379D01*
X101645477Y-162016999D01*
X101597858Y-162064618D01*
X101264524Y-161969379D02*
X100645477Y-161969379D01*
X100978810Y-162350332D01*
X100835953Y-162350332D01*
X100740715Y-162397951D01*
X100693096Y-162445570D01*
X100645477Y-162540808D01*
X100645477Y-162778903D01*
X100693096Y-162874141D01*
X100740715Y-162921760D01*
X100835953Y-162969379D01*
X101121667Y-162969379D01*
X101216905Y-162921760D01*
X101264524Y-162874141D01*
X99693096Y-162969379D02*
X100264524Y-162969379D01*
X99978810Y-162969379D02*
X99978810Y-161969379D01*
X100074048Y-162112237D01*
X100169286Y-162207475D01*
X100264524Y-162255094D01*
X88999858Y-107272141D02*
X89047477Y-107319760D01*
X89190334Y-107367379D01*
X89285572Y-107367379D01*
X89428429Y-107319760D01*
X89523667Y-107224522D01*
X89571286Y-107129284D01*
X89618905Y-106938808D01*
X89618905Y-106795951D01*
X89571286Y-106605475D01*
X89523667Y-106510237D01*
X89428429Y-106414999D01*
X89285572Y-106367379D01*
X89190334Y-106367379D01*
X89047477Y-106414999D01*
X88999858Y-106462618D01*
X88666524Y-106367379D02*
X88047477Y-106367379D01*
X88380810Y-106748332D01*
X88237953Y-106748332D01*
X88142715Y-106795951D01*
X88095096Y-106843570D01*
X88047477Y-106938808D01*
X88047477Y-107176903D01*
X88095096Y-107272141D01*
X88142715Y-107319760D01*
X88237953Y-107367379D01*
X88523667Y-107367379D01*
X88618905Y-107319760D01*
X88666524Y-107272141D01*
X87666524Y-106462618D02*
X87618905Y-106414999D01*
X87523667Y-106367379D01*
X87285572Y-106367379D01*
X87190334Y-106414999D01*
X87142715Y-106462618D01*
X87095096Y-106557856D01*
X87095096Y-106653094D01*
X87142715Y-106795951D01*
X87714143Y-107367379D01*
X87095096Y-107367379D01*
X54719357Y-152155142D02*
X54766976Y-152202761D01*
X54909833Y-152250380D01*
X55005071Y-152250380D01*
X55147928Y-152202761D01*
X55243166Y-152107523D01*
X55290785Y-152012285D01*
X55338404Y-151821809D01*
X55338404Y-151678952D01*
X55290785Y-151488476D01*
X55243166Y-151393238D01*
X55147928Y-151298000D01*
X55005071Y-151250380D01*
X54909833Y-151250380D01*
X54766976Y-151298000D01*
X54719357Y-151345619D01*
X54386023Y-151250380D02*
X53766976Y-151250380D01*
X54100309Y-151631333D01*
X53957452Y-151631333D01*
X53862214Y-151678952D01*
X53814595Y-151726571D01*
X53766976Y-151821809D01*
X53766976Y-152059904D01*
X53814595Y-152155142D01*
X53862214Y-152202761D01*
X53957452Y-152250380D01*
X54243166Y-152250380D01*
X54338404Y-152202761D01*
X54386023Y-152155142D01*
X53433642Y-151250380D02*
X52814595Y-151250380D01*
X53147928Y-151631333D01*
X53005071Y-151631333D01*
X52909833Y-151678952D01*
X52862214Y-151726571D01*
X52814595Y-151821809D01*
X52814595Y-152059904D01*
X52862214Y-152155142D01*
X52909833Y-152202761D01*
X53005071Y-152250380D01*
X53290785Y-152250380D01*
X53386023Y-152202761D01*
X53433642Y-152155142D01*
X94849858Y-111122141D02*
X94897477Y-111169760D01*
X95040334Y-111217379D01*
X95135572Y-111217379D01*
X95278429Y-111169760D01*
X95373667Y-111074522D01*
X95421286Y-110979284D01*
X95468905Y-110788808D01*
X95468905Y-110645951D01*
X95421286Y-110455475D01*
X95373667Y-110360237D01*
X95278429Y-110264999D01*
X95135572Y-110217379D01*
X95040334Y-110217379D01*
X94897477Y-110264999D01*
X94849858Y-110312618D01*
X94516524Y-110217379D02*
X93897477Y-110217379D01*
X94230810Y-110598332D01*
X94087953Y-110598332D01*
X93992715Y-110645951D01*
X93945096Y-110693570D01*
X93897477Y-110788808D01*
X93897477Y-111026903D01*
X93945096Y-111122141D01*
X93992715Y-111169760D01*
X94087953Y-111217379D01*
X94373667Y-111217379D01*
X94468905Y-111169760D01*
X94516524Y-111122141D01*
X93040334Y-110550713D02*
X93040334Y-111217379D01*
X93278429Y-110169760D02*
X93516524Y-110884046D01*
X92897477Y-110884046D01*
X97949858Y-115422141D02*
X97997477Y-115469760D01*
X98140334Y-115517379D01*
X98235572Y-115517379D01*
X98378429Y-115469760D01*
X98473667Y-115374522D01*
X98521286Y-115279284D01*
X98568905Y-115088808D01*
X98568905Y-114945951D01*
X98521286Y-114755475D01*
X98473667Y-114660237D01*
X98378429Y-114564999D01*
X98235572Y-114517379D01*
X98140334Y-114517379D01*
X97997477Y-114564999D01*
X97949858Y-114612618D01*
X97616524Y-114517379D02*
X96997477Y-114517379D01*
X97330810Y-114898332D01*
X97187953Y-114898332D01*
X97092715Y-114945951D01*
X97045096Y-114993570D01*
X96997477Y-115088808D01*
X96997477Y-115326903D01*
X97045096Y-115422141D01*
X97092715Y-115469760D01*
X97187953Y-115517379D01*
X97473667Y-115517379D01*
X97568905Y-115469760D01*
X97616524Y-115422141D01*
X96092715Y-114517379D02*
X96568905Y-114517379D01*
X96616524Y-114993570D01*
X96568905Y-114945951D01*
X96473667Y-114898332D01*
X96235572Y-114898332D01*
X96140334Y-114945951D01*
X96092715Y-114993570D01*
X96045096Y-115088808D01*
X96045096Y-115326903D01*
X96092715Y-115422141D01*
X96140334Y-115469760D01*
X96235572Y-115517379D01*
X96473667Y-115517379D01*
X96568905Y-115469760D01*
X96616524Y-115422141D01*
X103799858Y-119272141D02*
X103847477Y-119319760D01*
X103990334Y-119367379D01*
X104085572Y-119367379D01*
X104228429Y-119319760D01*
X104323667Y-119224522D01*
X104371286Y-119129284D01*
X104418905Y-118938808D01*
X104418905Y-118795951D01*
X104371286Y-118605475D01*
X104323667Y-118510237D01*
X104228429Y-118414999D01*
X104085572Y-118367379D01*
X103990334Y-118367379D01*
X103847477Y-118414999D01*
X103799858Y-118462618D01*
X103466524Y-118367379D02*
X102847477Y-118367379D01*
X103180810Y-118748332D01*
X103037953Y-118748332D01*
X102942715Y-118795951D01*
X102895096Y-118843570D01*
X102847477Y-118938808D01*
X102847477Y-119176903D01*
X102895096Y-119272141D01*
X102942715Y-119319760D01*
X103037953Y-119367379D01*
X103323667Y-119367379D01*
X103418905Y-119319760D01*
X103466524Y-119272141D01*
X101990334Y-118367379D02*
X102180810Y-118367379D01*
X102276048Y-118414999D01*
X102323667Y-118462618D01*
X102418905Y-118605475D01*
X102466524Y-118795951D01*
X102466524Y-119176903D01*
X102418905Y-119272141D01*
X102371286Y-119319760D01*
X102276048Y-119367379D01*
X102085572Y-119367379D01*
X101990334Y-119319760D01*
X101942715Y-119272141D01*
X101895096Y-119176903D01*
X101895096Y-118938808D01*
X101942715Y-118843570D01*
X101990334Y-118795951D01*
X102085572Y-118748332D01*
X102276048Y-118748332D01*
X102371286Y-118795951D01*
X102418905Y-118843570D01*
X102466524Y-118938808D01*
X93009858Y-107272141D02*
X93057477Y-107319760D01*
X93200334Y-107367379D01*
X93295572Y-107367379D01*
X93438429Y-107319760D01*
X93533667Y-107224522D01*
X93581286Y-107129284D01*
X93628905Y-106938808D01*
X93628905Y-106795951D01*
X93581286Y-106605475D01*
X93533667Y-106510237D01*
X93438429Y-106414999D01*
X93295572Y-106367379D01*
X93200334Y-106367379D01*
X93057477Y-106414999D01*
X93009858Y-106462618D01*
X92676524Y-106367379D02*
X92057477Y-106367379D01*
X92390810Y-106748332D01*
X92247953Y-106748332D01*
X92152715Y-106795951D01*
X92105096Y-106843570D01*
X92057477Y-106938808D01*
X92057477Y-107176903D01*
X92105096Y-107272141D01*
X92152715Y-107319760D01*
X92247953Y-107367379D01*
X92533667Y-107367379D01*
X92628905Y-107319760D01*
X92676524Y-107272141D01*
X91724143Y-106367379D02*
X91057477Y-106367379D01*
X91486048Y-107367379D01*
X98859858Y-112912141D02*
X98907477Y-112959760D01*
X99050334Y-113007379D01*
X99145572Y-113007379D01*
X99288429Y-112959760D01*
X99383667Y-112864522D01*
X99431286Y-112769284D01*
X99478905Y-112578808D01*
X99478905Y-112435951D01*
X99431286Y-112245475D01*
X99383667Y-112150237D01*
X99288429Y-112054999D01*
X99145572Y-112007379D01*
X99050334Y-112007379D01*
X98907477Y-112054999D01*
X98859858Y-112102618D01*
X98526524Y-112007379D02*
X97907477Y-112007379D01*
X98240810Y-112388332D01*
X98097953Y-112388332D01*
X98002715Y-112435951D01*
X97955096Y-112483570D01*
X97907477Y-112578808D01*
X97907477Y-112816903D01*
X97955096Y-112912141D01*
X98002715Y-112959760D01*
X98097953Y-113007379D01*
X98383667Y-113007379D01*
X98478905Y-112959760D01*
X98526524Y-112912141D01*
X97336048Y-112435951D02*
X97431286Y-112388332D01*
X97478905Y-112340713D01*
X97526524Y-112245475D01*
X97526524Y-112197856D01*
X97478905Y-112102618D01*
X97431286Y-112054999D01*
X97336048Y-112007379D01*
X97145572Y-112007379D01*
X97050334Y-112054999D01*
X97002715Y-112102618D01*
X96955096Y-112197856D01*
X96955096Y-112245475D01*
X97002715Y-112340713D01*
X97050334Y-112388332D01*
X97145572Y-112435951D01*
X97336048Y-112435951D01*
X97431286Y-112483570D01*
X97478905Y-112531189D01*
X97526524Y-112626427D01*
X97526524Y-112816903D01*
X97478905Y-112912141D01*
X97431286Y-112959760D01*
X97336048Y-113007379D01*
X97145572Y-113007379D01*
X97050334Y-112959760D01*
X97002715Y-112912141D01*
X96955096Y-112816903D01*
X96955096Y-112626427D01*
X97002715Y-112531189D01*
X97050334Y-112483570D01*
X97145572Y-112435951D01*
X103799858Y-116762141D02*
X103847477Y-116809760D01*
X103990334Y-116857379D01*
X104085572Y-116857379D01*
X104228429Y-116809760D01*
X104323667Y-116714522D01*
X104371286Y-116619284D01*
X104418905Y-116428808D01*
X104418905Y-116285951D01*
X104371286Y-116095475D01*
X104323667Y-116000237D01*
X104228429Y-115904999D01*
X104085572Y-115857379D01*
X103990334Y-115857379D01*
X103847477Y-115904999D01*
X103799858Y-115952618D01*
X103466524Y-115857379D02*
X102847477Y-115857379D01*
X103180810Y-116238332D01*
X103037953Y-116238332D01*
X102942715Y-116285951D01*
X102895096Y-116333570D01*
X102847477Y-116428808D01*
X102847477Y-116666903D01*
X102895096Y-116762141D01*
X102942715Y-116809760D01*
X103037953Y-116857379D01*
X103323667Y-116857379D01*
X103418905Y-116809760D01*
X103466524Y-116762141D01*
X102371286Y-116857379D02*
X102180810Y-116857379D01*
X102085572Y-116809760D01*
X102037953Y-116762141D01*
X101942715Y-116619284D01*
X101895096Y-116428808D01*
X101895096Y-116047856D01*
X101942715Y-115952618D01*
X101990334Y-115904999D01*
X102085572Y-115857379D01*
X102276048Y-115857379D01*
X102371286Y-115904999D01*
X102418905Y-115952618D01*
X102466524Y-116047856D01*
X102466524Y-116285951D01*
X102418905Y-116381189D01*
X102371286Y-116428808D01*
X102276048Y-116476427D01*
X102085572Y-116476427D01*
X101990334Y-116428808D01*
X101942715Y-116381189D01*
X101895096Y-116285951D01*
X54719357Y-154695142D02*
X54766976Y-154742761D01*
X54909833Y-154790380D01*
X55005071Y-154790380D01*
X55147928Y-154742761D01*
X55243166Y-154647523D01*
X55290785Y-154552285D01*
X55338404Y-154361809D01*
X55338404Y-154218952D01*
X55290785Y-154028476D01*
X55243166Y-153933238D01*
X55147928Y-153838000D01*
X55005071Y-153790380D01*
X54909833Y-153790380D01*
X54766976Y-153838000D01*
X54719357Y-153885619D01*
X53862214Y-154123714D02*
X53862214Y-154790380D01*
X54100309Y-153742761D02*
X54338404Y-154457047D01*
X53719357Y-154457047D01*
X53147928Y-153790380D02*
X53052690Y-153790380D01*
X52957452Y-153838000D01*
X52909833Y-153885619D01*
X52862214Y-153980857D01*
X52814595Y-154171333D01*
X52814595Y-154409428D01*
X52862214Y-154599904D01*
X52909833Y-154695142D01*
X52957452Y-154742761D01*
X53052690Y-154790380D01*
X53147928Y-154790380D01*
X53243166Y-154742761D01*
X53290785Y-154695142D01*
X53338404Y-154599904D01*
X53386023Y-154409428D01*
X53386023Y-154171333D01*
X53338404Y-153980857D01*
X53290785Y-153885619D01*
X53243166Y-153838000D01*
X53147928Y-153790380D01*
X98859858Y-110402141D02*
X98907477Y-110449760D01*
X99050334Y-110497379D01*
X99145572Y-110497379D01*
X99288429Y-110449760D01*
X99383667Y-110354522D01*
X99431286Y-110259284D01*
X99478905Y-110068808D01*
X99478905Y-109925951D01*
X99431286Y-109735475D01*
X99383667Y-109640237D01*
X99288429Y-109544999D01*
X99145572Y-109497379D01*
X99050334Y-109497379D01*
X98907477Y-109544999D01*
X98859858Y-109592618D01*
X98002715Y-109830713D02*
X98002715Y-110497379D01*
X98240810Y-109449760D02*
X98478905Y-110164046D01*
X97859858Y-110164046D01*
X96955096Y-110497379D02*
X97526524Y-110497379D01*
X97240810Y-110497379D02*
X97240810Y-109497379D01*
X97336048Y-109640237D01*
X97431286Y-109735475D01*
X97526524Y-109783094D01*
X97019858Y-107892141D02*
X97067477Y-107939760D01*
X97210334Y-107987379D01*
X97305572Y-107987379D01*
X97448429Y-107939760D01*
X97543667Y-107844522D01*
X97591286Y-107749284D01*
X97638905Y-107558808D01*
X97638905Y-107415951D01*
X97591286Y-107225475D01*
X97543667Y-107130237D01*
X97448429Y-107034999D01*
X97305572Y-106987379D01*
X97210334Y-106987379D01*
X97067477Y-107034999D01*
X97019858Y-107082618D01*
X96162715Y-107320713D02*
X96162715Y-107987379D01*
X96400810Y-106939760D02*
X96638905Y-107654046D01*
X96019858Y-107654046D01*
X95686524Y-107082618D02*
X95638905Y-107034999D01*
X95543667Y-106987379D01*
X95305572Y-106987379D01*
X95210334Y-107034999D01*
X95162715Y-107082618D01*
X95115096Y-107177856D01*
X95115096Y-107273094D01*
X95162715Y-107415951D01*
X95734143Y-107987379D01*
X95115096Y-107987379D01*
X63185858Y-151474141D02*
X63233477Y-151521760D01*
X63376334Y-151569379D01*
X63471572Y-151569379D01*
X63614429Y-151521760D01*
X63709667Y-151426522D01*
X63757286Y-151331284D01*
X63804905Y-151140808D01*
X63804905Y-150997951D01*
X63757286Y-150807475D01*
X63709667Y-150712237D01*
X63614429Y-150616999D01*
X63471572Y-150569379D01*
X63376334Y-150569379D01*
X63233477Y-150616999D01*
X63185858Y-150664618D01*
X62328715Y-150902713D02*
X62328715Y-151569379D01*
X62566810Y-150521760D02*
X62804905Y-151236046D01*
X62185858Y-151236046D01*
X61900143Y-150569379D02*
X61281096Y-150569379D01*
X61614429Y-150950332D01*
X61471572Y-150950332D01*
X61376334Y-150997951D01*
X61328715Y-151045570D01*
X61281096Y-151140808D01*
X61281096Y-151378903D01*
X61328715Y-151474141D01*
X61376334Y-151521760D01*
X61471572Y-151569379D01*
X61757286Y-151569379D01*
X61852524Y-151521760D01*
X61900143Y-151474141D01*
X58635858Y-148964141D02*
X58683477Y-149011760D01*
X58826334Y-149059379D01*
X58921572Y-149059379D01*
X59064429Y-149011760D01*
X59159667Y-148916522D01*
X59207286Y-148821284D01*
X59254905Y-148630808D01*
X59254905Y-148487951D01*
X59207286Y-148297475D01*
X59159667Y-148202237D01*
X59064429Y-148106999D01*
X58921572Y-148059379D01*
X58826334Y-148059379D01*
X58683477Y-148106999D01*
X58635858Y-148154618D01*
X57778715Y-148392713D02*
X57778715Y-149059379D01*
X58016810Y-148011760D02*
X58254905Y-148726046D01*
X57635858Y-148726046D01*
X56826334Y-148392713D02*
X56826334Y-149059379D01*
X57064429Y-148011760D02*
X57302524Y-148726046D01*
X56683477Y-148726046D01*
X54625858Y-146924141D02*
X54673477Y-146971760D01*
X54816334Y-147019379D01*
X54911572Y-147019379D01*
X55054429Y-146971760D01*
X55149667Y-146876522D01*
X55197286Y-146781284D01*
X55244905Y-146590808D01*
X55244905Y-146447951D01*
X55197286Y-146257475D01*
X55149667Y-146162237D01*
X55054429Y-146066999D01*
X54911572Y-146019379D01*
X54816334Y-146019379D01*
X54673477Y-146066999D01*
X54625858Y-146114618D01*
X53768715Y-146352713D02*
X53768715Y-147019379D01*
X54006810Y-145971760D02*
X54244905Y-146686046D01*
X53625858Y-146686046D01*
X52768715Y-146019379D02*
X53244905Y-146019379D01*
X53292524Y-146495570D01*
X53244905Y-146447951D01*
X53149667Y-146400332D01*
X52911572Y-146400332D01*
X52816334Y-146447951D01*
X52768715Y-146495570D01*
X52721096Y-146590808D01*
X52721096Y-146828903D01*
X52768715Y-146924141D01*
X52816334Y-146971760D01*
X52911572Y-147019379D01*
X53149667Y-147019379D01*
X53244905Y-146971760D01*
X53292524Y-146924141D01*
X66655858Y-148964141D02*
X66703477Y-149011760D01*
X66846334Y-149059379D01*
X66941572Y-149059379D01*
X67084429Y-149011760D01*
X67179667Y-148916522D01*
X67227286Y-148821284D01*
X67274905Y-148630808D01*
X67274905Y-148487951D01*
X67227286Y-148297475D01*
X67179667Y-148202237D01*
X67084429Y-148106999D01*
X66941572Y-148059379D01*
X66846334Y-148059379D01*
X66703477Y-148106999D01*
X66655858Y-148154618D01*
X65798715Y-148392713D02*
X65798715Y-149059379D01*
X66036810Y-148011760D02*
X66274905Y-148726046D01*
X65655858Y-148726046D01*
X64846334Y-148059379D02*
X65036810Y-148059379D01*
X65132048Y-148106999D01*
X65179667Y-148154618D01*
X65274905Y-148297475D01*
X65322524Y-148487951D01*
X65322524Y-148868903D01*
X65274905Y-148964141D01*
X65227286Y-149011760D01*
X65132048Y-149059379D01*
X64941572Y-149059379D01*
X64846334Y-149011760D01*
X64798715Y-148964141D01*
X64751096Y-148868903D01*
X64751096Y-148630808D01*
X64798715Y-148535570D01*
X64846334Y-148487951D01*
X64941572Y-148440332D01*
X65132048Y-148440332D01*
X65227286Y-148487951D01*
X65274905Y-148535570D01*
X65322524Y-148630808D01*
X62645858Y-146454141D02*
X62693477Y-146501760D01*
X62836334Y-146549379D01*
X62931572Y-146549379D01*
X63074429Y-146501760D01*
X63169667Y-146406522D01*
X63217286Y-146311284D01*
X63264905Y-146120808D01*
X63264905Y-145977951D01*
X63217286Y-145787475D01*
X63169667Y-145692237D01*
X63074429Y-145596999D01*
X62931572Y-145549379D01*
X62836334Y-145549379D01*
X62693477Y-145596999D01*
X62645858Y-145644618D01*
X61788715Y-145882713D02*
X61788715Y-146549379D01*
X62026810Y-145501760D02*
X62264905Y-146216046D01*
X61645858Y-146216046D01*
X61360143Y-145549379D02*
X60693477Y-145549379D01*
X61122048Y-146549379D01*
X71205858Y-155554141D02*
X71253477Y-155601760D01*
X71396334Y-155649379D01*
X71491572Y-155649379D01*
X71634429Y-155601760D01*
X71729667Y-155506522D01*
X71777286Y-155411284D01*
X71824905Y-155220808D01*
X71824905Y-155077951D01*
X71777286Y-154887475D01*
X71729667Y-154792237D01*
X71634429Y-154696999D01*
X71491572Y-154649379D01*
X71396334Y-154649379D01*
X71253477Y-154696999D01*
X71205858Y-154744618D01*
X70348715Y-154982713D02*
X70348715Y-155649379D01*
X70586810Y-154601760D02*
X70824905Y-155316046D01*
X70205858Y-155316046D01*
X69682048Y-155077951D02*
X69777286Y-155030332D01*
X69824905Y-154982713D01*
X69872524Y-154887475D01*
X69872524Y-154839856D01*
X69824905Y-154744618D01*
X69777286Y-154696999D01*
X69682048Y-154649379D01*
X69491572Y-154649379D01*
X69396334Y-154696999D01*
X69348715Y-154744618D01*
X69301096Y-154839856D01*
X69301096Y-154887475D01*
X69348715Y-154982713D01*
X69396334Y-155030332D01*
X69491572Y-155077951D01*
X69682048Y-155077951D01*
X69777286Y-155125570D01*
X69824905Y-155173189D01*
X69872524Y-155268427D01*
X69872524Y-155458903D01*
X69824905Y-155554141D01*
X69777286Y-155601760D01*
X69682048Y-155649379D01*
X69491572Y-155649379D01*
X69396334Y-155601760D01*
X69348715Y-155554141D01*
X69301096Y-155458903D01*
X69301096Y-155268427D01*
X69348715Y-155173189D01*
X69396334Y-155125570D01*
X69491572Y-155077951D01*
X71745858Y-158064141D02*
X71793477Y-158111760D01*
X71936334Y-158159379D01*
X72031572Y-158159379D01*
X72174429Y-158111760D01*
X72269667Y-158016522D01*
X72317286Y-157921284D01*
X72364905Y-157730808D01*
X72364905Y-157587951D01*
X72317286Y-157397475D01*
X72269667Y-157302237D01*
X72174429Y-157206999D01*
X72031572Y-157159379D01*
X71936334Y-157159379D01*
X71793477Y-157206999D01*
X71745858Y-157254618D01*
X70888715Y-157492713D02*
X70888715Y-158159379D01*
X71126810Y-157111760D02*
X71364905Y-157826046D01*
X70745858Y-157826046D01*
X70317286Y-158159379D02*
X70126810Y-158159379D01*
X70031572Y-158111760D01*
X69983953Y-158064141D01*
X69888715Y-157921284D01*
X69841096Y-157730808D01*
X69841096Y-157349856D01*
X69888715Y-157254618D01*
X69936334Y-157206999D01*
X70031572Y-157159379D01*
X70222048Y-157159379D01*
X70317286Y-157206999D01*
X70364905Y-157254618D01*
X70412524Y-157349856D01*
X70412524Y-157587951D01*
X70364905Y-157683189D01*
X70317286Y-157730808D01*
X70222048Y-157778427D01*
X70031572Y-157778427D01*
X69936334Y-157730808D01*
X69888715Y-157683189D01*
X69841096Y-157587951D01*
X67195858Y-153044141D02*
X67243477Y-153091760D01*
X67386334Y-153139379D01*
X67481572Y-153139379D01*
X67624429Y-153091760D01*
X67719667Y-152996522D01*
X67767286Y-152901284D01*
X67814905Y-152710808D01*
X67814905Y-152567951D01*
X67767286Y-152377475D01*
X67719667Y-152282237D01*
X67624429Y-152186999D01*
X67481572Y-152139379D01*
X67386334Y-152139379D01*
X67243477Y-152186999D01*
X67195858Y-152234618D01*
X66291096Y-152139379D02*
X66767286Y-152139379D01*
X66814905Y-152615570D01*
X66767286Y-152567951D01*
X66672048Y-152520332D01*
X66433953Y-152520332D01*
X66338715Y-152567951D01*
X66291096Y-152615570D01*
X66243477Y-152710808D01*
X66243477Y-152948903D01*
X66291096Y-153044141D01*
X66338715Y-153091760D01*
X66433953Y-153139379D01*
X66672048Y-153139379D01*
X66767286Y-153091760D01*
X66814905Y-153044141D01*
X65624429Y-152139379D02*
X65529191Y-152139379D01*
X65433953Y-152186999D01*
X65386334Y-152234618D01*
X65338715Y-152329856D01*
X65291096Y-152520332D01*
X65291096Y-152758427D01*
X65338715Y-152948903D01*
X65386334Y-153044141D01*
X65433953Y-153091760D01*
X65529191Y-153139379D01*
X65624429Y-153139379D01*
X65719667Y-153091760D01*
X65767286Y-153044141D01*
X65814905Y-152948903D01*
X65862524Y-152758427D01*
X65862524Y-152520332D01*
X65814905Y-152329856D01*
X65767286Y-152234618D01*
X65719667Y-152186999D01*
X65624429Y-152139379D01*
X62645858Y-148964141D02*
X62693477Y-149011760D01*
X62836334Y-149059379D01*
X62931572Y-149059379D01*
X63074429Y-149011760D01*
X63169667Y-148916522D01*
X63217286Y-148821284D01*
X63264905Y-148630808D01*
X63264905Y-148487951D01*
X63217286Y-148297475D01*
X63169667Y-148202237D01*
X63074429Y-148106999D01*
X62931572Y-148059379D01*
X62836334Y-148059379D01*
X62693477Y-148106999D01*
X62645858Y-148154618D01*
X61741096Y-148059379D02*
X62217286Y-148059379D01*
X62264905Y-148535570D01*
X62217286Y-148487951D01*
X62122048Y-148440332D01*
X61883953Y-148440332D01*
X61788715Y-148487951D01*
X61741096Y-148535570D01*
X61693477Y-148630808D01*
X61693477Y-148868903D01*
X61741096Y-148964141D01*
X61788715Y-149011760D01*
X61883953Y-149059379D01*
X62122048Y-149059379D01*
X62217286Y-149011760D01*
X62264905Y-148964141D01*
X60741096Y-149059379D02*
X61312524Y-149059379D01*
X61026810Y-149059379D02*
X61026810Y-148059379D01*
X61122048Y-148202237D01*
X61217286Y-148297475D01*
X61312524Y-148345094D01*
X72285858Y-160574141D02*
X72333477Y-160621760D01*
X72476334Y-160669379D01*
X72571572Y-160669379D01*
X72714429Y-160621760D01*
X72809667Y-160526522D01*
X72857286Y-160431284D01*
X72904905Y-160240808D01*
X72904905Y-160097951D01*
X72857286Y-159907475D01*
X72809667Y-159812237D01*
X72714429Y-159716999D01*
X72571572Y-159669379D01*
X72476334Y-159669379D01*
X72333477Y-159716999D01*
X72285858Y-159764618D01*
X71381096Y-159669379D02*
X71857286Y-159669379D01*
X71904905Y-160145570D01*
X71857286Y-160097951D01*
X71762048Y-160050332D01*
X71523953Y-160050332D01*
X71428715Y-160097951D01*
X71381096Y-160145570D01*
X71333477Y-160240808D01*
X71333477Y-160478903D01*
X71381096Y-160574141D01*
X71428715Y-160621760D01*
X71523953Y-160669379D01*
X71762048Y-160669379D01*
X71857286Y-160621760D01*
X71904905Y-160574141D01*
X70952524Y-159764618D02*
X70904905Y-159716999D01*
X70809667Y-159669379D01*
X70571572Y-159669379D01*
X70476334Y-159716999D01*
X70428715Y-159764618D01*
X70381096Y-159859856D01*
X70381096Y-159955094D01*
X70428715Y-160097951D01*
X71000143Y-160669379D01*
X70381096Y-160669379D01*
X67195858Y-155554141D02*
X67243477Y-155601760D01*
X67386334Y-155649379D01*
X67481572Y-155649379D01*
X67624429Y-155601760D01*
X67719667Y-155506522D01*
X67767286Y-155411284D01*
X67814905Y-155220808D01*
X67814905Y-155077951D01*
X67767286Y-154887475D01*
X67719667Y-154792237D01*
X67624429Y-154696999D01*
X67481572Y-154649379D01*
X67386334Y-154649379D01*
X67243477Y-154696999D01*
X67195858Y-154744618D01*
X66291096Y-154649379D02*
X66767286Y-154649379D01*
X66814905Y-155125570D01*
X66767286Y-155077951D01*
X66672048Y-155030332D01*
X66433953Y-155030332D01*
X66338715Y-155077951D01*
X66291096Y-155125570D01*
X66243477Y-155220808D01*
X66243477Y-155458903D01*
X66291096Y-155554141D01*
X66338715Y-155601760D01*
X66433953Y-155649379D01*
X66672048Y-155649379D01*
X66767286Y-155601760D01*
X66814905Y-155554141D01*
X65910143Y-154649379D02*
X65291096Y-154649379D01*
X65624429Y-155030332D01*
X65481572Y-155030332D01*
X65386334Y-155077951D01*
X65338715Y-155125570D01*
X65291096Y-155220808D01*
X65291096Y-155458903D01*
X65338715Y-155554141D01*
X65386334Y-155601760D01*
X65481572Y-155649379D01*
X65767286Y-155649379D01*
X65862524Y-155601760D01*
X65910143Y-155554141D01*
X58635858Y-146454141D02*
X58683477Y-146501760D01*
X58826334Y-146549379D01*
X58921572Y-146549379D01*
X59064429Y-146501760D01*
X59159667Y-146406522D01*
X59207286Y-146311284D01*
X59254905Y-146120808D01*
X59254905Y-145977951D01*
X59207286Y-145787475D01*
X59159667Y-145692237D01*
X59064429Y-145596999D01*
X58921572Y-145549379D01*
X58826334Y-145549379D01*
X58683477Y-145596999D01*
X58635858Y-145644618D01*
X57731096Y-145549379D02*
X58207286Y-145549379D01*
X58254905Y-146025570D01*
X58207286Y-145977951D01*
X58112048Y-145930332D01*
X57873953Y-145930332D01*
X57778715Y-145977951D01*
X57731096Y-146025570D01*
X57683477Y-146120808D01*
X57683477Y-146358903D01*
X57731096Y-146454141D01*
X57778715Y-146501760D01*
X57873953Y-146549379D01*
X58112048Y-146549379D01*
X58207286Y-146501760D01*
X58254905Y-146454141D01*
X56826334Y-145882713D02*
X56826334Y-146549379D01*
X57064429Y-145501760D02*
X57302524Y-146216046D01*
X56683477Y-146216046D01*
X94622857Y-120659142D02*
X94670476Y-120706761D01*
X94813333Y-120754380D01*
X94908571Y-120754380D01*
X95051428Y-120706761D01*
X95146666Y-120611523D01*
X95194285Y-120516285D01*
X95241904Y-120325809D01*
X95241904Y-120182952D01*
X95194285Y-119992476D01*
X95146666Y-119897238D01*
X95051428Y-119802000D01*
X94908571Y-119754380D01*
X94813333Y-119754380D01*
X94670476Y-119802000D01*
X94622857Y-119849619D01*
X93718095Y-119754380D02*
X94194285Y-119754380D01*
X94241904Y-120230571D01*
X94194285Y-120182952D01*
X94099047Y-120135333D01*
X93860952Y-120135333D01*
X93765714Y-120182952D01*
X93718095Y-120230571D01*
X93670476Y-120325809D01*
X93670476Y-120563904D01*
X93718095Y-120659142D01*
X93765714Y-120706761D01*
X93860952Y-120754380D01*
X94099047Y-120754380D01*
X94194285Y-120706761D01*
X94241904Y-120659142D01*
X92765714Y-119754380D02*
X93241904Y-119754380D01*
X93289523Y-120230571D01*
X93241904Y-120182952D01*
X93146666Y-120135333D01*
X92908571Y-120135333D01*
X92813333Y-120182952D01*
X92765714Y-120230571D01*
X92718095Y-120325809D01*
X92718095Y-120563904D01*
X92765714Y-120659142D01*
X92813333Y-120706761D01*
X92908571Y-120754380D01*
X93146666Y-120754380D01*
X93241904Y-120706761D01*
X93289523Y-120659142D01*
X91343858Y-135868141D02*
X91391477Y-135915760D01*
X91534334Y-135963379D01*
X91629572Y-135963379D01*
X91772429Y-135915760D01*
X91867667Y-135820522D01*
X91915286Y-135725284D01*
X91962905Y-135534808D01*
X91962905Y-135391951D01*
X91915286Y-135201475D01*
X91867667Y-135106237D01*
X91772429Y-135010999D01*
X91629572Y-134963379D01*
X91534334Y-134963379D01*
X91391477Y-135010999D01*
X91343858Y-135058618D01*
X90439096Y-134963379D02*
X90915286Y-134963379D01*
X90962905Y-135439570D01*
X90915286Y-135391951D01*
X90820048Y-135344332D01*
X90581953Y-135344332D01*
X90486715Y-135391951D01*
X90439096Y-135439570D01*
X90391477Y-135534808D01*
X90391477Y-135772903D01*
X90439096Y-135868141D01*
X90486715Y-135915760D01*
X90581953Y-135963379D01*
X90820048Y-135963379D01*
X90915286Y-135915760D01*
X90962905Y-135868141D01*
X89534334Y-134963379D02*
X89724810Y-134963379D01*
X89820048Y-135010999D01*
X89867667Y-135058618D01*
X89962905Y-135201475D01*
X90010524Y-135391951D01*
X90010524Y-135772903D01*
X89962905Y-135868141D01*
X89915286Y-135915760D01*
X89820048Y-135963379D01*
X89629572Y-135963379D01*
X89534334Y-135915760D01*
X89486715Y-135868141D01*
X89439096Y-135772903D01*
X89439096Y-135534808D01*
X89486715Y-135439570D01*
X89534334Y-135391951D01*
X89629572Y-135344332D01*
X89820048Y-135344332D01*
X89915286Y-135391951D01*
X89962905Y-135439570D01*
X90010524Y-135534808D01*
X95893858Y-140418141D02*
X95941477Y-140465760D01*
X96084334Y-140513379D01*
X96179572Y-140513379D01*
X96322429Y-140465760D01*
X96417667Y-140370522D01*
X96465286Y-140275284D01*
X96512905Y-140084808D01*
X96512905Y-139941951D01*
X96465286Y-139751475D01*
X96417667Y-139656237D01*
X96322429Y-139560999D01*
X96179572Y-139513379D01*
X96084334Y-139513379D01*
X95941477Y-139560999D01*
X95893858Y-139608618D01*
X94989096Y-139513379D02*
X95465286Y-139513379D01*
X95512905Y-139989570D01*
X95465286Y-139941951D01*
X95370048Y-139894332D01*
X95131953Y-139894332D01*
X95036715Y-139941951D01*
X94989096Y-139989570D01*
X94941477Y-140084808D01*
X94941477Y-140322903D01*
X94989096Y-140418141D01*
X95036715Y-140465760D01*
X95131953Y-140513379D01*
X95370048Y-140513379D01*
X95465286Y-140465760D01*
X95512905Y-140418141D01*
X94608143Y-139513379D02*
X93941477Y-139513379D01*
X94370048Y-140513379D01*
X86793858Y-131318141D02*
X86841477Y-131365760D01*
X86984334Y-131413379D01*
X87079572Y-131413379D01*
X87222429Y-131365760D01*
X87317667Y-131270522D01*
X87365286Y-131175284D01*
X87412905Y-130984808D01*
X87412905Y-130841951D01*
X87365286Y-130651475D01*
X87317667Y-130556237D01*
X87222429Y-130460999D01*
X87079572Y-130413379D01*
X86984334Y-130413379D01*
X86841477Y-130460999D01*
X86793858Y-130508618D01*
X85889096Y-130413379D02*
X86365286Y-130413379D01*
X86412905Y-130889570D01*
X86365286Y-130841951D01*
X86270048Y-130794332D01*
X86031953Y-130794332D01*
X85936715Y-130841951D01*
X85889096Y-130889570D01*
X85841477Y-130984808D01*
X85841477Y-131222903D01*
X85889096Y-131318141D01*
X85936715Y-131365760D01*
X86031953Y-131413379D01*
X86270048Y-131413379D01*
X86365286Y-131365760D01*
X86412905Y-131318141D01*
X85270048Y-130841951D02*
X85365286Y-130794332D01*
X85412905Y-130746713D01*
X85460524Y-130651475D01*
X85460524Y-130603856D01*
X85412905Y-130508618D01*
X85365286Y-130460999D01*
X85270048Y-130413379D01*
X85079572Y-130413379D01*
X84984334Y-130460999D01*
X84936715Y-130508618D01*
X84889096Y-130603856D01*
X84889096Y-130651475D01*
X84936715Y-130746713D01*
X84984334Y-130794332D01*
X85079572Y-130841951D01*
X85270048Y-130841951D01*
X85365286Y-130889570D01*
X85412905Y-130937189D01*
X85460524Y-131032427D01*
X85460524Y-131222903D01*
X85412905Y-131318141D01*
X85365286Y-131365760D01*
X85270048Y-131413379D01*
X85079572Y-131413379D01*
X84984334Y-131365760D01*
X84936715Y-131318141D01*
X84889096Y-131222903D01*
X84889096Y-131032427D01*
X84936715Y-130937189D01*
X84984334Y-130889570D01*
X85079572Y-130841951D01*
X99903858Y-140418141D02*
X99951477Y-140465760D01*
X100094334Y-140513379D01*
X100189572Y-140513379D01*
X100332429Y-140465760D01*
X100427667Y-140370522D01*
X100475286Y-140275284D01*
X100522905Y-140084808D01*
X100522905Y-139941951D01*
X100475286Y-139751475D01*
X100427667Y-139656237D01*
X100332429Y-139560999D01*
X100189572Y-139513379D01*
X100094334Y-139513379D01*
X99951477Y-139560999D01*
X99903858Y-139608618D01*
X98999096Y-139513379D02*
X99475286Y-139513379D01*
X99522905Y-139989570D01*
X99475286Y-139941951D01*
X99380048Y-139894332D01*
X99141953Y-139894332D01*
X99046715Y-139941951D01*
X98999096Y-139989570D01*
X98951477Y-140084808D01*
X98951477Y-140322903D01*
X98999096Y-140418141D01*
X99046715Y-140465760D01*
X99141953Y-140513379D01*
X99380048Y-140513379D01*
X99475286Y-140465760D01*
X99522905Y-140418141D01*
X98475286Y-140513379D02*
X98284810Y-140513379D01*
X98189572Y-140465760D01*
X98141953Y-140418141D01*
X98046715Y-140275284D01*
X97999096Y-140084808D01*
X97999096Y-139703856D01*
X98046715Y-139608618D01*
X98094334Y-139560999D01*
X98189572Y-139513379D01*
X98380048Y-139513379D01*
X98475286Y-139560999D01*
X98522905Y-139608618D01*
X98570524Y-139703856D01*
X98570524Y-139941951D01*
X98522905Y-140037189D01*
X98475286Y-140084808D01*
X98380048Y-140132427D01*
X98189572Y-140132427D01*
X98094334Y-140084808D01*
X98046715Y-140037189D01*
X97999096Y-139941951D01*
X95893858Y-137908141D02*
X95941477Y-137955760D01*
X96084334Y-138003379D01*
X96179572Y-138003379D01*
X96322429Y-137955760D01*
X96417667Y-137860522D01*
X96465286Y-137765284D01*
X96512905Y-137574808D01*
X96512905Y-137431951D01*
X96465286Y-137241475D01*
X96417667Y-137146237D01*
X96322429Y-137050999D01*
X96179572Y-137003379D01*
X96084334Y-137003379D01*
X95941477Y-137050999D01*
X95893858Y-137098618D01*
X95036715Y-137003379D02*
X95227191Y-137003379D01*
X95322429Y-137050999D01*
X95370048Y-137098618D01*
X95465286Y-137241475D01*
X95512905Y-137431951D01*
X95512905Y-137812903D01*
X95465286Y-137908141D01*
X95417667Y-137955760D01*
X95322429Y-138003379D01*
X95131953Y-138003379D01*
X95036715Y-137955760D01*
X94989096Y-137908141D01*
X94941477Y-137812903D01*
X94941477Y-137574808D01*
X94989096Y-137479570D01*
X95036715Y-137431951D01*
X95131953Y-137384332D01*
X95322429Y-137384332D01*
X95417667Y-137431951D01*
X95465286Y-137479570D01*
X95512905Y-137574808D01*
X94322429Y-137003379D02*
X94227191Y-137003379D01*
X94131953Y-137050999D01*
X94084334Y-137098618D01*
X94036715Y-137193856D01*
X93989096Y-137384332D01*
X93989096Y-137622427D01*
X94036715Y-137812903D01*
X94084334Y-137908141D01*
X94131953Y-137955760D01*
X94227191Y-138003379D01*
X94322429Y-138003379D01*
X94417667Y-137955760D01*
X94465286Y-137908141D01*
X94512905Y-137812903D01*
X94560524Y-137622427D01*
X94560524Y-137384332D01*
X94512905Y-137193856D01*
X94465286Y-137098618D01*
X94417667Y-137050999D01*
X94322429Y-137003379D01*
X94648357Y-125993142D02*
X94695976Y-126040761D01*
X94838833Y-126088380D01*
X94934071Y-126088380D01*
X95076928Y-126040761D01*
X95172166Y-125945523D01*
X95219785Y-125850285D01*
X95267404Y-125659809D01*
X95267404Y-125516952D01*
X95219785Y-125326476D01*
X95172166Y-125231238D01*
X95076928Y-125136000D01*
X94934071Y-125088380D01*
X94838833Y-125088380D01*
X94695976Y-125136000D01*
X94648357Y-125183619D01*
X93791214Y-125088380D02*
X93981690Y-125088380D01*
X94076928Y-125136000D01*
X94124547Y-125183619D01*
X94219785Y-125326476D01*
X94267404Y-125516952D01*
X94267404Y-125897904D01*
X94219785Y-125993142D01*
X94172166Y-126040761D01*
X94076928Y-126088380D01*
X93886452Y-126088380D01*
X93791214Y-126040761D01*
X93743595Y-125993142D01*
X93695976Y-125897904D01*
X93695976Y-125659809D01*
X93743595Y-125564571D01*
X93791214Y-125516952D01*
X93886452Y-125469333D01*
X94076928Y-125469333D01*
X94172166Y-125516952D01*
X94219785Y-125564571D01*
X94267404Y-125659809D01*
X92743595Y-126088380D02*
X93315023Y-126088380D01*
X93029309Y-126088380D02*
X93029309Y-125088380D01*
X93124547Y-125231238D01*
X93219785Y-125326476D01*
X93315023Y-125374095D01*
X95353858Y-135398141D02*
X95401477Y-135445760D01*
X95544334Y-135493379D01*
X95639572Y-135493379D01*
X95782429Y-135445760D01*
X95877667Y-135350522D01*
X95925286Y-135255284D01*
X95972905Y-135064808D01*
X95972905Y-134921951D01*
X95925286Y-134731475D01*
X95877667Y-134636237D01*
X95782429Y-134540999D01*
X95639572Y-134493379D01*
X95544334Y-134493379D01*
X95401477Y-134540999D01*
X95353858Y-134588618D01*
X94496715Y-134493379D02*
X94687191Y-134493379D01*
X94782429Y-134540999D01*
X94830048Y-134588618D01*
X94925286Y-134731475D01*
X94972905Y-134921951D01*
X94972905Y-135302903D01*
X94925286Y-135398141D01*
X94877667Y-135445760D01*
X94782429Y-135493379D01*
X94591953Y-135493379D01*
X94496715Y-135445760D01*
X94449096Y-135398141D01*
X94401477Y-135302903D01*
X94401477Y-135064808D01*
X94449096Y-134969570D01*
X94496715Y-134921951D01*
X94591953Y-134874332D01*
X94782429Y-134874332D01*
X94877667Y-134921951D01*
X94925286Y-134969570D01*
X94972905Y-135064808D01*
X94020524Y-134588618D02*
X93972905Y-134540999D01*
X93877667Y-134493379D01*
X93639572Y-134493379D01*
X93544334Y-134540999D01*
X93496715Y-134588618D01*
X93449096Y-134683856D01*
X93449096Y-134779094D01*
X93496715Y-134921951D01*
X94068143Y-135493379D01*
X93449096Y-135493379D01*
X103913858Y-140418141D02*
X103961477Y-140465760D01*
X104104334Y-140513379D01*
X104199572Y-140513379D01*
X104342429Y-140465760D01*
X104437667Y-140370522D01*
X104485286Y-140275284D01*
X104532905Y-140084808D01*
X104532905Y-139941951D01*
X104485286Y-139751475D01*
X104437667Y-139656237D01*
X104342429Y-139560999D01*
X104199572Y-139513379D01*
X104104334Y-139513379D01*
X103961477Y-139560999D01*
X103913858Y-139608618D01*
X103056715Y-139513379D02*
X103247191Y-139513379D01*
X103342429Y-139560999D01*
X103390048Y-139608618D01*
X103485286Y-139751475D01*
X103532905Y-139941951D01*
X103532905Y-140322903D01*
X103485286Y-140418141D01*
X103437667Y-140465760D01*
X103342429Y-140513379D01*
X103151953Y-140513379D01*
X103056715Y-140465760D01*
X103009096Y-140418141D01*
X102961477Y-140322903D01*
X102961477Y-140084808D01*
X103009096Y-139989570D01*
X103056715Y-139941951D01*
X103151953Y-139894332D01*
X103342429Y-139894332D01*
X103437667Y-139941951D01*
X103485286Y-139989570D01*
X103532905Y-140084808D01*
X102628143Y-139513379D02*
X102009096Y-139513379D01*
X102342429Y-139894332D01*
X102199572Y-139894332D01*
X102104334Y-139941951D01*
X102056715Y-139989570D01*
X102009096Y-140084808D01*
X102009096Y-140322903D01*
X102056715Y-140418141D01*
X102104334Y-140465760D01*
X102199572Y-140513379D01*
X102485286Y-140513379D01*
X102580524Y-140465760D01*
X102628143Y-140418141D01*
X99903858Y-137908141D02*
X99951477Y-137955760D01*
X100094334Y-138003379D01*
X100189572Y-138003379D01*
X100332429Y-137955760D01*
X100427667Y-137860522D01*
X100475286Y-137765284D01*
X100522905Y-137574808D01*
X100522905Y-137431951D01*
X100475286Y-137241475D01*
X100427667Y-137146237D01*
X100332429Y-137050999D01*
X100189572Y-137003379D01*
X100094334Y-137003379D01*
X99951477Y-137050999D01*
X99903858Y-137098618D01*
X99046715Y-137003379D02*
X99237191Y-137003379D01*
X99332429Y-137050999D01*
X99380048Y-137098618D01*
X99475286Y-137241475D01*
X99522905Y-137431951D01*
X99522905Y-137812903D01*
X99475286Y-137908141D01*
X99427667Y-137955760D01*
X99332429Y-138003379D01*
X99141953Y-138003379D01*
X99046715Y-137955760D01*
X98999096Y-137908141D01*
X98951477Y-137812903D01*
X98951477Y-137574808D01*
X98999096Y-137479570D01*
X99046715Y-137431951D01*
X99141953Y-137384332D01*
X99332429Y-137384332D01*
X99427667Y-137431951D01*
X99475286Y-137479570D01*
X99522905Y-137574808D01*
X98094334Y-137336713D02*
X98094334Y-138003379D01*
X98332429Y-136955760D02*
X98570524Y-137670046D01*
X97951477Y-137670046D01*
X64391858Y-128382141D02*
X64439477Y-128429760D01*
X64582334Y-128477379D01*
X64677572Y-128477379D01*
X64820429Y-128429760D01*
X64915667Y-128334522D01*
X64963286Y-128239284D01*
X65010905Y-128048808D01*
X65010905Y-127905951D01*
X64963286Y-127715475D01*
X64915667Y-127620237D01*
X64820429Y-127524999D01*
X64677572Y-127477379D01*
X64582334Y-127477379D01*
X64439477Y-127524999D01*
X64391858Y-127572618D01*
X63534715Y-127477379D02*
X63725191Y-127477379D01*
X63820429Y-127524999D01*
X63868048Y-127572618D01*
X63963286Y-127715475D01*
X64010905Y-127905951D01*
X64010905Y-128286903D01*
X63963286Y-128382141D01*
X63915667Y-128429760D01*
X63820429Y-128477379D01*
X63629953Y-128477379D01*
X63534715Y-128429760D01*
X63487096Y-128382141D01*
X63439477Y-128286903D01*
X63439477Y-128048808D01*
X63487096Y-127953570D01*
X63534715Y-127905951D01*
X63629953Y-127858332D01*
X63820429Y-127858332D01*
X63915667Y-127905951D01*
X63963286Y-127953570D01*
X64010905Y-128048808D01*
X62534715Y-127477379D02*
X63010905Y-127477379D01*
X63058524Y-127953570D01*
X63010905Y-127905951D01*
X62915667Y-127858332D01*
X62677572Y-127858332D01*
X62582334Y-127905951D01*
X62534715Y-127953570D01*
X62487096Y-128048808D01*
X62487096Y-128286903D01*
X62534715Y-128382141D01*
X62582334Y-128429760D01*
X62677572Y-128477379D01*
X62915667Y-128477379D01*
X63010905Y-128429760D01*
X63058524Y-128382141D01*
X56241858Y-123832141D02*
X56289477Y-123879760D01*
X56432334Y-123927379D01*
X56527572Y-123927379D01*
X56670429Y-123879760D01*
X56765667Y-123784522D01*
X56813286Y-123689284D01*
X56860905Y-123498808D01*
X56860905Y-123355951D01*
X56813286Y-123165475D01*
X56765667Y-123070237D01*
X56670429Y-122974999D01*
X56527572Y-122927379D01*
X56432334Y-122927379D01*
X56289477Y-122974999D01*
X56241858Y-123022618D01*
X55384715Y-122927379D02*
X55575191Y-122927379D01*
X55670429Y-122974999D01*
X55718048Y-123022618D01*
X55813286Y-123165475D01*
X55860905Y-123355951D01*
X55860905Y-123736903D01*
X55813286Y-123832141D01*
X55765667Y-123879760D01*
X55670429Y-123927379D01*
X55479953Y-123927379D01*
X55384715Y-123879760D01*
X55337096Y-123832141D01*
X55289477Y-123736903D01*
X55289477Y-123498808D01*
X55337096Y-123403570D01*
X55384715Y-123355951D01*
X55479953Y-123308332D01*
X55670429Y-123308332D01*
X55765667Y-123355951D01*
X55813286Y-123403570D01*
X55860905Y-123498808D01*
X54432334Y-122927379D02*
X54622810Y-122927379D01*
X54718048Y-122974999D01*
X54765667Y-123022618D01*
X54860905Y-123165475D01*
X54908524Y-123355951D01*
X54908524Y-123736903D01*
X54860905Y-123832141D01*
X54813286Y-123879760D01*
X54718048Y-123927379D01*
X54527572Y-123927379D01*
X54432334Y-123879760D01*
X54384715Y-123832141D01*
X54337096Y-123736903D01*
X54337096Y-123498808D01*
X54384715Y-123403570D01*
X54432334Y-123355951D01*
X54527572Y-123308332D01*
X54718048Y-123308332D01*
X54813286Y-123355951D01*
X54860905Y-123403570D01*
X54908524Y-123498808D01*
X56241858Y-126342141D02*
X56289477Y-126389760D01*
X56432334Y-126437379D01*
X56527572Y-126437379D01*
X56670429Y-126389760D01*
X56765667Y-126294522D01*
X56813286Y-126199284D01*
X56860905Y-126008808D01*
X56860905Y-125865951D01*
X56813286Y-125675475D01*
X56765667Y-125580237D01*
X56670429Y-125484999D01*
X56527572Y-125437379D01*
X56432334Y-125437379D01*
X56289477Y-125484999D01*
X56241858Y-125532618D01*
X55384715Y-125437379D02*
X55575191Y-125437379D01*
X55670429Y-125484999D01*
X55718048Y-125532618D01*
X55813286Y-125675475D01*
X55860905Y-125865951D01*
X55860905Y-126246903D01*
X55813286Y-126342141D01*
X55765667Y-126389760D01*
X55670429Y-126437379D01*
X55479953Y-126437379D01*
X55384715Y-126389760D01*
X55337096Y-126342141D01*
X55289477Y-126246903D01*
X55289477Y-126008808D01*
X55337096Y-125913570D01*
X55384715Y-125865951D01*
X55479953Y-125818332D01*
X55670429Y-125818332D01*
X55765667Y-125865951D01*
X55813286Y-125913570D01*
X55860905Y-126008808D01*
X54956143Y-125437379D02*
X54289477Y-125437379D01*
X54718048Y-126437379D01*
X59531858Y-157846141D02*
X59579477Y-157893760D01*
X59722334Y-157941379D01*
X59817572Y-157941379D01*
X59960429Y-157893760D01*
X60055667Y-157798522D01*
X60103286Y-157703284D01*
X60150905Y-157512808D01*
X60150905Y-157369951D01*
X60103286Y-157179475D01*
X60055667Y-157084237D01*
X59960429Y-156988999D01*
X59817572Y-156941379D01*
X59722334Y-156941379D01*
X59579477Y-156988999D01*
X59531858Y-157036618D01*
X58674715Y-156941379D02*
X58865191Y-156941379D01*
X58960429Y-156988999D01*
X59008048Y-157036618D01*
X59103286Y-157179475D01*
X59150905Y-157369951D01*
X59150905Y-157750903D01*
X59103286Y-157846141D01*
X59055667Y-157893760D01*
X58960429Y-157941379D01*
X58769953Y-157941379D01*
X58674715Y-157893760D01*
X58627096Y-157846141D01*
X58579477Y-157750903D01*
X58579477Y-157512808D01*
X58627096Y-157417570D01*
X58674715Y-157369951D01*
X58769953Y-157322332D01*
X58960429Y-157322332D01*
X59055667Y-157369951D01*
X59103286Y-157417570D01*
X59150905Y-157512808D01*
X58008048Y-157369951D02*
X58103286Y-157322332D01*
X58150905Y-157274713D01*
X58198524Y-157179475D01*
X58198524Y-157131856D01*
X58150905Y-157036618D01*
X58103286Y-156988999D01*
X58008048Y-156941379D01*
X57817572Y-156941379D01*
X57722334Y-156988999D01*
X57674715Y-157036618D01*
X57627096Y-157131856D01*
X57627096Y-157179475D01*
X57674715Y-157274713D01*
X57722334Y-157322332D01*
X57817572Y-157369951D01*
X58008048Y-157369951D01*
X58103286Y-157417570D01*
X58150905Y-157465189D01*
X58198524Y-157560427D01*
X58198524Y-157750903D01*
X58150905Y-157846141D01*
X58103286Y-157893760D01*
X58008048Y-157941379D01*
X57817572Y-157941379D01*
X57722334Y-157893760D01*
X57674715Y-157846141D01*
X57627096Y-157750903D01*
X57627096Y-157560427D01*
X57674715Y-157465189D01*
X57722334Y-157417570D01*
X57817572Y-157369951D01*
X55521858Y-157846141D02*
X55569477Y-157893760D01*
X55712334Y-157941379D01*
X55807572Y-157941379D01*
X55950429Y-157893760D01*
X56045667Y-157798522D01*
X56093286Y-157703284D01*
X56140905Y-157512808D01*
X56140905Y-157369951D01*
X56093286Y-157179475D01*
X56045667Y-157084237D01*
X55950429Y-156988999D01*
X55807572Y-156941379D01*
X55712334Y-156941379D01*
X55569477Y-156988999D01*
X55521858Y-157036618D01*
X54664715Y-156941379D02*
X54855191Y-156941379D01*
X54950429Y-156988999D01*
X54998048Y-157036618D01*
X55093286Y-157179475D01*
X55140905Y-157369951D01*
X55140905Y-157750903D01*
X55093286Y-157846141D01*
X55045667Y-157893760D01*
X54950429Y-157941379D01*
X54759953Y-157941379D01*
X54664715Y-157893760D01*
X54617096Y-157846141D01*
X54569477Y-157750903D01*
X54569477Y-157512808D01*
X54617096Y-157417570D01*
X54664715Y-157369951D01*
X54759953Y-157322332D01*
X54950429Y-157322332D01*
X55045667Y-157369951D01*
X55093286Y-157417570D01*
X55140905Y-157512808D01*
X54093286Y-157941379D02*
X53902810Y-157941379D01*
X53807572Y-157893760D01*
X53759953Y-157846141D01*
X53664715Y-157703284D01*
X53617096Y-157512808D01*
X53617096Y-157131856D01*
X53664715Y-157036618D01*
X53712334Y-156988999D01*
X53807572Y-156941379D01*
X53998048Y-156941379D01*
X54093286Y-156988999D01*
X54140905Y-157036618D01*
X54188524Y-157131856D01*
X54188524Y-157369951D01*
X54140905Y-157465189D01*
X54093286Y-157512808D01*
X53998048Y-157560427D01*
X53807572Y-157560427D01*
X53712334Y-157512808D01*
X53664715Y-157465189D01*
X53617096Y-157369951D01*
X59545357Y-160283142D02*
X59592976Y-160330761D01*
X59735833Y-160378380D01*
X59831071Y-160378380D01*
X59973928Y-160330761D01*
X60069166Y-160235523D01*
X60116785Y-160140285D01*
X60164404Y-159949809D01*
X60164404Y-159806952D01*
X60116785Y-159616476D01*
X60069166Y-159521238D01*
X59973928Y-159426000D01*
X59831071Y-159378380D01*
X59735833Y-159378380D01*
X59592976Y-159426000D01*
X59545357Y-159473619D01*
X59212023Y-159378380D02*
X58545357Y-159378380D01*
X58973928Y-160378380D01*
X57973928Y-159378380D02*
X57878690Y-159378380D01*
X57783452Y-159426000D01*
X57735833Y-159473619D01*
X57688214Y-159568857D01*
X57640595Y-159759333D01*
X57640595Y-159997428D01*
X57688214Y-160187904D01*
X57735833Y-160283142D01*
X57783452Y-160330761D01*
X57878690Y-160378380D01*
X57973928Y-160378380D01*
X58069166Y-160330761D01*
X58116785Y-160283142D01*
X58164404Y-160187904D01*
X58212023Y-159997428D01*
X58212023Y-159759333D01*
X58164404Y-159568857D01*
X58116785Y-159473619D01*
X58069166Y-159426000D01*
X57973928Y-159378380D01*
X80879858Y-150182141D02*
X80927477Y-150229760D01*
X81070334Y-150277379D01*
X81165572Y-150277379D01*
X81308429Y-150229760D01*
X81403667Y-150134522D01*
X81451286Y-150039284D01*
X81498905Y-149848808D01*
X81498905Y-149705951D01*
X81451286Y-149515475D01*
X81403667Y-149420237D01*
X81308429Y-149324999D01*
X81165572Y-149277379D01*
X81070334Y-149277379D01*
X80927477Y-149324999D01*
X80879858Y-149372618D01*
X80546524Y-149277379D02*
X79879858Y-149277379D01*
X80308429Y-150277379D01*
X78975096Y-150277379D02*
X79546524Y-150277379D01*
X79260810Y-150277379D02*
X79260810Y-149277379D01*
X79356048Y-149420237D01*
X79451286Y-149515475D01*
X79546524Y-149563094D01*
X72859858Y-148142141D02*
X72907477Y-148189760D01*
X73050334Y-148237379D01*
X73145572Y-148237379D01*
X73288429Y-148189760D01*
X73383667Y-148094522D01*
X73431286Y-147999284D01*
X73478905Y-147808808D01*
X73478905Y-147665951D01*
X73431286Y-147475475D01*
X73383667Y-147380237D01*
X73288429Y-147284999D01*
X73145572Y-147237379D01*
X73050334Y-147237379D01*
X72907477Y-147284999D01*
X72859858Y-147332618D01*
X72526524Y-147237379D02*
X71859858Y-147237379D01*
X72288429Y-148237379D01*
X71526524Y-147332618D02*
X71478905Y-147284999D01*
X71383667Y-147237379D01*
X71145572Y-147237379D01*
X71050334Y-147284999D01*
X71002715Y-147332618D01*
X70955096Y-147427856D01*
X70955096Y-147523094D01*
X71002715Y-147665951D01*
X71574143Y-148237379D01*
X70955096Y-148237379D01*
X57927858Y-116794141D02*
X57975477Y-116841760D01*
X58118334Y-116889379D01*
X58213572Y-116889379D01*
X58356429Y-116841760D01*
X58451667Y-116746522D01*
X58499286Y-116651284D01*
X58546905Y-116460808D01*
X58546905Y-116317951D01*
X58499286Y-116127475D01*
X58451667Y-116032237D01*
X58356429Y-115936999D01*
X58213572Y-115889379D01*
X58118334Y-115889379D01*
X57975477Y-115936999D01*
X57927858Y-115984618D01*
X57594524Y-115889379D02*
X56927858Y-115889379D01*
X57356429Y-116889379D01*
X56642143Y-115889379D02*
X56023096Y-115889379D01*
X56356429Y-116270332D01*
X56213572Y-116270332D01*
X56118334Y-116317951D01*
X56070715Y-116365570D01*
X56023096Y-116460808D01*
X56023096Y-116698903D01*
X56070715Y-116794141D01*
X56118334Y-116841760D01*
X56213572Y-116889379D01*
X56499286Y-116889379D01*
X56594524Y-116841760D01*
X56642143Y-116794141D01*
X88509858Y-164122141D02*
X88557477Y-164169760D01*
X88700334Y-164217379D01*
X88795572Y-164217379D01*
X88938429Y-164169760D01*
X89033667Y-164074522D01*
X89081286Y-163979284D01*
X89128905Y-163788808D01*
X89128905Y-163645951D01*
X89081286Y-163455475D01*
X89033667Y-163360237D01*
X88938429Y-163264999D01*
X88795572Y-163217379D01*
X88700334Y-163217379D01*
X88557477Y-163264999D01*
X88509858Y-163312618D01*
X88176524Y-163217379D02*
X87509858Y-163217379D01*
X87938429Y-164217379D01*
X86700334Y-163550713D02*
X86700334Y-164217379D01*
X86938429Y-163169760D02*
X87176524Y-163884046D01*
X86557477Y-163884046D01*
X84009858Y-160832141D02*
X84057477Y-160879760D01*
X84200334Y-160927379D01*
X84295572Y-160927379D01*
X84438429Y-160879760D01*
X84533667Y-160784522D01*
X84581286Y-160689284D01*
X84628905Y-160498808D01*
X84628905Y-160355951D01*
X84581286Y-160165475D01*
X84533667Y-160070237D01*
X84438429Y-159974999D01*
X84295572Y-159927379D01*
X84200334Y-159927379D01*
X84057477Y-159974999D01*
X84009858Y-160022618D01*
X83676524Y-159927379D02*
X83009858Y-159927379D01*
X83438429Y-160927379D01*
X82152715Y-159927379D02*
X82628905Y-159927379D01*
X82676524Y-160403570D01*
X82628905Y-160355951D01*
X82533667Y-160308332D01*
X82295572Y-160308332D01*
X82200334Y-160355951D01*
X82152715Y-160403570D01*
X82105096Y-160498808D01*
X82105096Y-160736903D01*
X82152715Y-160832141D01*
X82200334Y-160879760D01*
X82295572Y-160927379D01*
X82533667Y-160927379D01*
X82628905Y-160879760D01*
X82676524Y-160832141D01*
X79999858Y-157712141D02*
X80047477Y-157759760D01*
X80190334Y-157807379D01*
X80285572Y-157807379D01*
X80428429Y-157759760D01*
X80523667Y-157664522D01*
X80571286Y-157569284D01*
X80618905Y-157378808D01*
X80618905Y-157235951D01*
X80571286Y-157045475D01*
X80523667Y-156950237D01*
X80428429Y-156854999D01*
X80285572Y-156807379D01*
X80190334Y-156807379D01*
X80047477Y-156854999D01*
X79999858Y-156902618D01*
X79666524Y-156807379D02*
X78999858Y-156807379D01*
X79428429Y-157807379D01*
X78190334Y-156807379D02*
X78380810Y-156807379D01*
X78476048Y-156854999D01*
X78523667Y-156902618D01*
X78618905Y-157045475D01*
X78666524Y-157235951D01*
X78666524Y-157616903D01*
X78618905Y-157712141D01*
X78571286Y-157759760D01*
X78476048Y-157807379D01*
X78285572Y-157807379D01*
X78190334Y-157759760D01*
X78142715Y-157712141D01*
X78095096Y-157616903D01*
X78095096Y-157378808D01*
X78142715Y-157283570D01*
X78190334Y-157235951D01*
X78285572Y-157188332D01*
X78476048Y-157188332D01*
X78571286Y-157235951D01*
X78618905Y-157283570D01*
X78666524Y-157378808D01*
X60127858Y-122144141D02*
X60175477Y-122191760D01*
X60318334Y-122239379D01*
X60413572Y-122239379D01*
X60556429Y-122191760D01*
X60651667Y-122096522D01*
X60699286Y-122001284D01*
X60746905Y-121810808D01*
X60746905Y-121667951D01*
X60699286Y-121477475D01*
X60651667Y-121382237D01*
X60556429Y-121286999D01*
X60413572Y-121239379D01*
X60318334Y-121239379D01*
X60175477Y-121286999D01*
X60127858Y-121334618D01*
X59794524Y-121239379D02*
X59127858Y-121239379D01*
X59556429Y-122239379D01*
X58842143Y-121239379D02*
X58175477Y-121239379D01*
X58604048Y-122239379D01*
X60127858Y-119634141D02*
X60175477Y-119681760D01*
X60318334Y-119729379D01*
X60413572Y-119729379D01*
X60556429Y-119681760D01*
X60651667Y-119586522D01*
X60699286Y-119491284D01*
X60746905Y-119300808D01*
X60746905Y-119157951D01*
X60699286Y-118967475D01*
X60651667Y-118872237D01*
X60556429Y-118776999D01*
X60413572Y-118729379D01*
X60318334Y-118729379D01*
X60175477Y-118776999D01*
X60127858Y-118824618D01*
X59794524Y-118729379D02*
X59127858Y-118729379D01*
X59556429Y-119729379D01*
X58604048Y-119157951D02*
X58699286Y-119110332D01*
X58746905Y-119062713D01*
X58794524Y-118967475D01*
X58794524Y-118919856D01*
X58746905Y-118824618D01*
X58699286Y-118776999D01*
X58604048Y-118729379D01*
X58413572Y-118729379D01*
X58318334Y-118776999D01*
X58270715Y-118824618D01*
X58223096Y-118919856D01*
X58223096Y-118967475D01*
X58270715Y-119062713D01*
X58318334Y-119110332D01*
X58413572Y-119157951D01*
X58604048Y-119157951D01*
X58699286Y-119205570D01*
X58746905Y-119253189D01*
X58794524Y-119348427D01*
X58794524Y-119538903D01*
X58746905Y-119634141D01*
X58699286Y-119681760D01*
X58604048Y-119729379D01*
X58413572Y-119729379D01*
X58318334Y-119681760D01*
X58270715Y-119634141D01*
X58223096Y-119538903D01*
X58223096Y-119348427D01*
X58270715Y-119253189D01*
X58318334Y-119205570D01*
X58413572Y-119157951D01*
X79999858Y-160222141D02*
X80047477Y-160269760D01*
X80190334Y-160317379D01*
X80285572Y-160317379D01*
X80428429Y-160269760D01*
X80523667Y-160174522D01*
X80571286Y-160079284D01*
X80618905Y-159888808D01*
X80618905Y-159745951D01*
X80571286Y-159555475D01*
X80523667Y-159460237D01*
X80428429Y-159364999D01*
X80285572Y-159317379D01*
X80190334Y-159317379D01*
X80047477Y-159364999D01*
X79999858Y-159412618D01*
X79666524Y-159317379D02*
X78999858Y-159317379D01*
X79428429Y-160317379D01*
X78571286Y-160317379D02*
X78380810Y-160317379D01*
X78285572Y-160269760D01*
X78237953Y-160222141D01*
X78142715Y-160079284D01*
X78095096Y-159888808D01*
X78095096Y-159507856D01*
X78142715Y-159412618D01*
X78190334Y-159364999D01*
X78285572Y-159317379D01*
X78476048Y-159317379D01*
X78571286Y-159364999D01*
X78618905Y-159412618D01*
X78666524Y-159507856D01*
X78666524Y-159745951D01*
X78618905Y-159841189D01*
X78571286Y-159888808D01*
X78476048Y-159936427D01*
X78285572Y-159936427D01*
X78190334Y-159888808D01*
X78142715Y-159841189D01*
X78095096Y-159745951D01*
X75059858Y-155672141D02*
X75107477Y-155719760D01*
X75250334Y-155767379D01*
X75345572Y-155767379D01*
X75488429Y-155719760D01*
X75583667Y-155624522D01*
X75631286Y-155529284D01*
X75678905Y-155338808D01*
X75678905Y-155195951D01*
X75631286Y-155005475D01*
X75583667Y-154910237D01*
X75488429Y-154814999D01*
X75345572Y-154767379D01*
X75250334Y-154767379D01*
X75107477Y-154814999D01*
X75059858Y-154862618D01*
X74488429Y-155195951D02*
X74583667Y-155148332D01*
X74631286Y-155100713D01*
X74678905Y-155005475D01*
X74678905Y-154957856D01*
X74631286Y-154862618D01*
X74583667Y-154814999D01*
X74488429Y-154767379D01*
X74297953Y-154767379D01*
X74202715Y-154814999D01*
X74155096Y-154862618D01*
X74107477Y-154957856D01*
X74107477Y-155005475D01*
X74155096Y-155100713D01*
X74202715Y-155148332D01*
X74297953Y-155195951D01*
X74488429Y-155195951D01*
X74583667Y-155243570D01*
X74631286Y-155291189D01*
X74678905Y-155386427D01*
X74678905Y-155576903D01*
X74631286Y-155672141D01*
X74583667Y-155719760D01*
X74488429Y-155767379D01*
X74297953Y-155767379D01*
X74202715Y-155719760D01*
X74155096Y-155672141D01*
X74107477Y-155576903D01*
X74107477Y-155386427D01*
X74155096Y-155291189D01*
X74202715Y-155243570D01*
X74297953Y-155195951D01*
X73488429Y-154767379D02*
X73393191Y-154767379D01*
X73297953Y-154814999D01*
X73250334Y-154862618D01*
X73202715Y-154957856D01*
X73155096Y-155148332D01*
X73155096Y-155386427D01*
X73202715Y-155576903D01*
X73250334Y-155672141D01*
X73297953Y-155719760D01*
X73393191Y-155767379D01*
X73488429Y-155767379D01*
X73583667Y-155719760D01*
X73631286Y-155672141D01*
X73678905Y-155576903D01*
X73726524Y-155386427D01*
X73726524Y-155148332D01*
X73678905Y-154957856D01*
X73631286Y-154862618D01*
X73583667Y-154814999D01*
X73488429Y-154767379D01*
X76106357Y-175777142D02*
X76153976Y-175824761D01*
X76296833Y-175872380D01*
X76392071Y-175872380D01*
X76534928Y-175824761D01*
X76630166Y-175729523D01*
X76677785Y-175634285D01*
X76725404Y-175443809D01*
X76725404Y-175300952D01*
X76677785Y-175110476D01*
X76630166Y-175015238D01*
X76534928Y-174920000D01*
X76392071Y-174872380D01*
X76296833Y-174872380D01*
X76153976Y-174920000D01*
X76106357Y-174967619D01*
X75534928Y-175300952D02*
X75630166Y-175253333D01*
X75677785Y-175205714D01*
X75725404Y-175110476D01*
X75725404Y-175062857D01*
X75677785Y-174967619D01*
X75630166Y-174920000D01*
X75534928Y-174872380D01*
X75344452Y-174872380D01*
X75249214Y-174920000D01*
X75201595Y-174967619D01*
X75153976Y-175062857D01*
X75153976Y-175110476D01*
X75201595Y-175205714D01*
X75249214Y-175253333D01*
X75344452Y-175300952D01*
X75534928Y-175300952D01*
X75630166Y-175348571D01*
X75677785Y-175396190D01*
X75725404Y-175491428D01*
X75725404Y-175681904D01*
X75677785Y-175777142D01*
X75630166Y-175824761D01*
X75534928Y-175872380D01*
X75344452Y-175872380D01*
X75249214Y-175824761D01*
X75201595Y-175777142D01*
X75153976Y-175681904D01*
X75153976Y-175491428D01*
X75201595Y-175396190D01*
X75249214Y-175348571D01*
X75344452Y-175300952D01*
X74201595Y-175872380D02*
X74773023Y-175872380D01*
X74487309Y-175872380D02*
X74487309Y-174872380D01*
X74582547Y-175015238D01*
X74677785Y-175110476D01*
X74773023Y-175158095D01*
X57927858Y-114284141D02*
X57975477Y-114331760D01*
X58118334Y-114379379D01*
X58213572Y-114379379D01*
X58356429Y-114331760D01*
X58451667Y-114236522D01*
X58499286Y-114141284D01*
X58546905Y-113950808D01*
X58546905Y-113807951D01*
X58499286Y-113617475D01*
X58451667Y-113522237D01*
X58356429Y-113426999D01*
X58213572Y-113379379D01*
X58118334Y-113379379D01*
X57975477Y-113426999D01*
X57927858Y-113474618D01*
X57356429Y-113807951D02*
X57451667Y-113760332D01*
X57499286Y-113712713D01*
X57546905Y-113617475D01*
X57546905Y-113569856D01*
X57499286Y-113474618D01*
X57451667Y-113426999D01*
X57356429Y-113379379D01*
X57165953Y-113379379D01*
X57070715Y-113426999D01*
X57023096Y-113474618D01*
X56975477Y-113569856D01*
X56975477Y-113617475D01*
X57023096Y-113712713D01*
X57070715Y-113760332D01*
X57165953Y-113807951D01*
X57356429Y-113807951D01*
X57451667Y-113855570D01*
X57499286Y-113903189D01*
X57546905Y-113998427D01*
X57546905Y-114188903D01*
X57499286Y-114284141D01*
X57451667Y-114331760D01*
X57356429Y-114379379D01*
X57165953Y-114379379D01*
X57070715Y-114331760D01*
X57023096Y-114284141D01*
X56975477Y-114188903D01*
X56975477Y-113998427D01*
X57023096Y-113903189D01*
X57070715Y-113855570D01*
X57165953Y-113807951D01*
X56594524Y-113474618D02*
X56546905Y-113426999D01*
X56451667Y-113379379D01*
X56213572Y-113379379D01*
X56118334Y-113426999D01*
X56070715Y-113474618D01*
X56023096Y-113569856D01*
X56023096Y-113665094D01*
X56070715Y-113807951D01*
X56642143Y-114379379D01*
X56023096Y-114379379D01*
X72859858Y-150652141D02*
X72907477Y-150699760D01*
X73050334Y-150747379D01*
X73145572Y-150747379D01*
X73288429Y-150699760D01*
X73383667Y-150604522D01*
X73431286Y-150509284D01*
X73478905Y-150318808D01*
X73478905Y-150175951D01*
X73431286Y-149985475D01*
X73383667Y-149890237D01*
X73288429Y-149794999D01*
X73145572Y-149747379D01*
X73050334Y-149747379D01*
X72907477Y-149794999D01*
X72859858Y-149842618D01*
X72288429Y-150175951D02*
X72383667Y-150128332D01*
X72431286Y-150080713D01*
X72478905Y-149985475D01*
X72478905Y-149937856D01*
X72431286Y-149842618D01*
X72383667Y-149794999D01*
X72288429Y-149747379D01*
X72097953Y-149747379D01*
X72002715Y-149794999D01*
X71955096Y-149842618D01*
X71907477Y-149937856D01*
X71907477Y-149985475D01*
X71955096Y-150080713D01*
X72002715Y-150128332D01*
X72097953Y-150175951D01*
X72288429Y-150175951D01*
X72383667Y-150223570D01*
X72431286Y-150271189D01*
X72478905Y-150366427D01*
X72478905Y-150556903D01*
X72431286Y-150652141D01*
X72383667Y-150699760D01*
X72288429Y-150747379D01*
X72097953Y-150747379D01*
X72002715Y-150699760D01*
X71955096Y-150652141D01*
X71907477Y-150556903D01*
X71907477Y-150366427D01*
X71955096Y-150271189D01*
X72002715Y-150223570D01*
X72097953Y-150175951D01*
X71574143Y-149747379D02*
X70955096Y-149747379D01*
X71288429Y-150128332D01*
X71145572Y-150128332D01*
X71050334Y-150175951D01*
X71002715Y-150223570D01*
X70955096Y-150318808D01*
X70955096Y-150556903D01*
X71002715Y-150652141D01*
X71050334Y-150699760D01*
X71145572Y-150747379D01*
X71431286Y-150747379D01*
X71526524Y-150699760D01*
X71574143Y-150652141D01*
X75059858Y-153162141D02*
X75107477Y-153209760D01*
X75250334Y-153257379D01*
X75345572Y-153257379D01*
X75488429Y-153209760D01*
X75583667Y-153114522D01*
X75631286Y-153019284D01*
X75678905Y-152828808D01*
X75678905Y-152685951D01*
X75631286Y-152495475D01*
X75583667Y-152400237D01*
X75488429Y-152304999D01*
X75345572Y-152257379D01*
X75250334Y-152257379D01*
X75107477Y-152304999D01*
X75059858Y-152352618D01*
X74488429Y-152685951D02*
X74583667Y-152638332D01*
X74631286Y-152590713D01*
X74678905Y-152495475D01*
X74678905Y-152447856D01*
X74631286Y-152352618D01*
X74583667Y-152304999D01*
X74488429Y-152257379D01*
X74297953Y-152257379D01*
X74202715Y-152304999D01*
X74155096Y-152352618D01*
X74107477Y-152447856D01*
X74107477Y-152495475D01*
X74155096Y-152590713D01*
X74202715Y-152638332D01*
X74297953Y-152685951D01*
X74488429Y-152685951D01*
X74583667Y-152733570D01*
X74631286Y-152781189D01*
X74678905Y-152876427D01*
X74678905Y-153066903D01*
X74631286Y-153162141D01*
X74583667Y-153209760D01*
X74488429Y-153257379D01*
X74297953Y-153257379D01*
X74202715Y-153209760D01*
X74155096Y-153162141D01*
X74107477Y-153066903D01*
X74107477Y-152876427D01*
X74155096Y-152781189D01*
X74202715Y-152733570D01*
X74297953Y-152685951D01*
X73250334Y-152590713D02*
X73250334Y-153257379D01*
X73488429Y-152209760D02*
X73726524Y-152924046D01*
X73107477Y-152924046D01*
X59103096Y-138010379D02*
X59103096Y-137010379D01*
X58865001Y-137010379D01*
X58722143Y-137057999D01*
X58626905Y-137153237D01*
X58579286Y-137248475D01*
X58531667Y-137438951D01*
X58531667Y-137581808D01*
X58579286Y-137772284D01*
X58626905Y-137867522D01*
X58722143Y-137962760D01*
X58865001Y-138010379D01*
X59103096Y-138010379D01*
X57579286Y-138010379D02*
X58150715Y-138010379D01*
X57865001Y-138010379D02*
X57865001Y-137010379D01*
X57960239Y-137153237D01*
X58055477Y-137248475D01*
X58150715Y-137296094D01*
X85510666Y-128710380D02*
X85986857Y-128710380D01*
X85986857Y-127710380D01*
X84653523Y-128710380D02*
X85224952Y-128710380D01*
X84939238Y-128710380D02*
X84939238Y-127710380D01*
X85034476Y-127853238D01*
X85129714Y-127948476D01*
X85224952Y-127996095D01*
X53150239Y-117034618D02*
X53245477Y-116986999D01*
X53340715Y-116891760D01*
X53483572Y-116748903D01*
X53578810Y-116701284D01*
X53674048Y-116701284D01*
X53626429Y-116939379D02*
X53721667Y-116891760D01*
X53816905Y-116796522D01*
X53864524Y-116606046D01*
X53864524Y-116272713D01*
X53816905Y-116082237D01*
X53721667Y-115986999D01*
X53626429Y-115939379D01*
X53435953Y-115939379D01*
X53340715Y-115986999D01*
X53245477Y-116082237D01*
X53197858Y-116272713D01*
X53197858Y-116606046D01*
X53245477Y-116796522D01*
X53340715Y-116891760D01*
X53435953Y-116939379D01*
X53626429Y-116939379D01*
X52245477Y-116939379D02*
X52816905Y-116939379D01*
X52531191Y-116939379D02*
X52531191Y-115939379D01*
X52626429Y-116082237D01*
X52721667Y-116177475D01*
X52816905Y-116225094D01*
X75771238Y-174177619D02*
X75866476Y-174130000D01*
X75961714Y-174034761D01*
X76104571Y-173891904D01*
X76199809Y-173844285D01*
X76295047Y-173844285D01*
X76247428Y-174082380D02*
X76342666Y-174034761D01*
X76437904Y-173939523D01*
X76485523Y-173749047D01*
X76485523Y-173415714D01*
X76437904Y-173225238D01*
X76342666Y-173130000D01*
X76247428Y-173082380D01*
X76056952Y-173082380D01*
X75961714Y-173130000D01*
X75866476Y-173225238D01*
X75818857Y-173415714D01*
X75818857Y-173749047D01*
X75866476Y-173939523D01*
X75961714Y-174034761D01*
X76056952Y-174082380D01*
X76247428Y-174082380D01*
X75437904Y-173177619D02*
X75390285Y-173130000D01*
X75295047Y-173082380D01*
X75056952Y-173082380D01*
X74961714Y-173130000D01*
X74914095Y-173177619D01*
X74866476Y-173272857D01*
X74866476Y-173368095D01*
X74914095Y-173510952D01*
X75485523Y-174082380D01*
X74866476Y-174082380D01*
X79581238Y-172531619D02*
X79676476Y-172484000D01*
X79771714Y-172388761D01*
X79914571Y-172245904D01*
X80009809Y-172198285D01*
X80105047Y-172198285D01*
X80057428Y-172436380D02*
X80152666Y-172388761D01*
X80247904Y-172293523D01*
X80295523Y-172103047D01*
X80295523Y-171769714D01*
X80247904Y-171579238D01*
X80152666Y-171484000D01*
X80057428Y-171436380D01*
X79866952Y-171436380D01*
X79771714Y-171484000D01*
X79676476Y-171579238D01*
X79628857Y-171769714D01*
X79628857Y-172103047D01*
X79676476Y-172293523D01*
X79771714Y-172388761D01*
X79866952Y-172436380D01*
X80057428Y-172436380D01*
X79295523Y-171436380D02*
X78676476Y-171436380D01*
X79009809Y-171817333D01*
X78866952Y-171817333D01*
X78771714Y-171864952D01*
X78724095Y-171912571D01*
X78676476Y-172007809D01*
X78676476Y-172245904D01*
X78724095Y-172341142D01*
X78771714Y-172388761D01*
X78866952Y-172436380D01*
X79152666Y-172436380D01*
X79247904Y-172388761D01*
X79295523Y-172341142D01*
X68238666Y-112626380D02*
X68572000Y-112150190D01*
X68810095Y-112626380D02*
X68810095Y-111626380D01*
X68429142Y-111626380D01*
X68333904Y-111674000D01*
X68286285Y-111721619D01*
X68238666Y-111816857D01*
X68238666Y-111959714D01*
X68286285Y-112054952D01*
X68333904Y-112102571D01*
X68429142Y-112150190D01*
X68810095Y-112150190D01*
X67286285Y-112626380D02*
X67857714Y-112626380D01*
X67572000Y-112626380D02*
X67572000Y-111626380D01*
X67667238Y-111769238D01*
X67762476Y-111864476D01*
X67857714Y-111912095D01*
X71857667Y-110171379D02*
X72191001Y-109695189D01*
X72429096Y-110171379D02*
X72429096Y-109171379D01*
X72048143Y-109171379D01*
X71952905Y-109218999D01*
X71905286Y-109266618D01*
X71857667Y-109361856D01*
X71857667Y-109504713D01*
X71905286Y-109599951D01*
X71952905Y-109647570D01*
X72048143Y-109695189D01*
X72429096Y-109695189D01*
X71476715Y-109266618D02*
X71429096Y-109218999D01*
X71333858Y-109171379D01*
X71095762Y-109171379D01*
X71000524Y-109218999D01*
X70952905Y-109266618D01*
X70905286Y-109361856D01*
X70905286Y-109457094D01*
X70952905Y-109599951D01*
X71524334Y-110171379D01*
X70905286Y-110171379D01*
X61413667Y-134605379D02*
X61747001Y-134129189D01*
X61985096Y-134605379D02*
X61985096Y-133605379D01*
X61604143Y-133605379D01*
X61508905Y-133652999D01*
X61461286Y-133700618D01*
X61413667Y-133795856D01*
X61413667Y-133938713D01*
X61461286Y-134033951D01*
X61508905Y-134081570D01*
X61604143Y-134129189D01*
X61985096Y-134129189D01*
X61080334Y-133605379D02*
X60461286Y-133605379D01*
X60794620Y-133986332D01*
X60651762Y-133986332D01*
X60556524Y-134033951D01*
X60508905Y-134081570D01*
X60461286Y-134176808D01*
X60461286Y-134414903D01*
X60508905Y-134510141D01*
X60556524Y-134557760D01*
X60651762Y-134605379D01*
X60937477Y-134605379D01*
X61032715Y-134557760D01*
X61080334Y-134510141D01*
X57403667Y-131685379D02*
X57737001Y-131209189D01*
X57975096Y-131685379D02*
X57975096Y-130685379D01*
X57594143Y-130685379D01*
X57498905Y-130732999D01*
X57451286Y-130780618D01*
X57403667Y-130875856D01*
X57403667Y-131018713D01*
X57451286Y-131113951D01*
X57498905Y-131161570D01*
X57594143Y-131209189D01*
X57975096Y-131209189D01*
X56546524Y-131018713D02*
X56546524Y-131685379D01*
X56784620Y-130637760D02*
X57022715Y-131352046D01*
X56403667Y-131352046D01*
X63383667Y-137955379D02*
X63717001Y-137479189D01*
X63955096Y-137955379D02*
X63955096Y-136955379D01*
X63574143Y-136955379D01*
X63478905Y-137002999D01*
X63431286Y-137050618D01*
X63383667Y-137145856D01*
X63383667Y-137288713D01*
X63431286Y-137383951D01*
X63478905Y-137431570D01*
X63574143Y-137479189D01*
X63955096Y-137479189D01*
X63050334Y-136955379D02*
X62383667Y-136955379D01*
X62812239Y-137955379D01*
X63853667Y-141245379D02*
X64187001Y-140769189D01*
X64425096Y-141245379D02*
X64425096Y-140245379D01*
X64044143Y-140245379D01*
X63948905Y-140292999D01*
X63901286Y-140340618D01*
X63853667Y-140435856D01*
X63853667Y-140578713D01*
X63901286Y-140673951D01*
X63948905Y-140721570D01*
X64044143Y-140769189D01*
X64425096Y-140769189D01*
X63282239Y-140673951D02*
X63377477Y-140626332D01*
X63425096Y-140578713D01*
X63472715Y-140483475D01*
X63472715Y-140435856D01*
X63425096Y-140340618D01*
X63377477Y-140292999D01*
X63282239Y-140245379D01*
X63091762Y-140245379D01*
X62996524Y-140292999D01*
X62948905Y-140340618D01*
X62901286Y-140435856D01*
X62901286Y-140483475D01*
X62948905Y-140578713D01*
X62996524Y-140626332D01*
X63091762Y-140673951D01*
X63282239Y-140673951D01*
X63377477Y-140721570D01*
X63425096Y-140769189D01*
X63472715Y-140864427D01*
X63472715Y-141054903D01*
X63425096Y-141150141D01*
X63377477Y-141197760D01*
X63282239Y-141245379D01*
X63091762Y-141245379D01*
X62996524Y-141197760D01*
X62948905Y-141150141D01*
X62901286Y-141054903D01*
X62901286Y-140864427D01*
X62948905Y-140769189D01*
X62996524Y-140721570D01*
X63091762Y-140673951D01*
X57403667Y-134195379D02*
X57737001Y-133719189D01*
X57975096Y-134195379D02*
X57975096Y-133195379D01*
X57594143Y-133195379D01*
X57498905Y-133242999D01*
X57451286Y-133290618D01*
X57403667Y-133385856D01*
X57403667Y-133528713D01*
X57451286Y-133623951D01*
X57498905Y-133671570D01*
X57594143Y-133719189D01*
X57975096Y-133719189D01*
X56927477Y-134195379D02*
X56737001Y-134195379D01*
X56641762Y-134147760D01*
X56594143Y-134100141D01*
X56498905Y-133957284D01*
X56451286Y-133766808D01*
X56451286Y-133385856D01*
X56498905Y-133290618D01*
X56546524Y-133242999D01*
X56641762Y-133195379D01*
X56832239Y-133195379D01*
X56927477Y-133242999D01*
X56975096Y-133290618D01*
X57022715Y-133385856D01*
X57022715Y-133623951D01*
X56975096Y-133719189D01*
X56927477Y-133766808D01*
X56832239Y-133814427D01*
X56641762Y-133814427D01*
X56546524Y-133766808D01*
X56498905Y-133719189D01*
X56451286Y-133623951D01*
X61628357Y-105768380D02*
X61961690Y-105292190D01*
X62199785Y-105768380D02*
X62199785Y-104768380D01*
X61818833Y-104768380D01*
X61723595Y-104816000D01*
X61675976Y-104863619D01*
X61628357Y-104958857D01*
X61628357Y-105101714D01*
X61675976Y-105196952D01*
X61723595Y-105244571D01*
X61818833Y-105292190D01*
X62199785Y-105292190D01*
X60675976Y-105768380D02*
X61247404Y-105768380D01*
X60961690Y-105768380D02*
X60961690Y-104768380D01*
X61056928Y-104911238D01*
X61152166Y-105006476D01*
X61247404Y-105054095D01*
X60056928Y-104768380D02*
X59961690Y-104768380D01*
X59866452Y-104816000D01*
X59818833Y-104863619D01*
X59771214Y-104958857D01*
X59723595Y-105149333D01*
X59723595Y-105387428D01*
X59771214Y-105577904D01*
X59818833Y-105673142D01*
X59866452Y-105720761D01*
X59961690Y-105768380D01*
X60056928Y-105768380D01*
X60152166Y-105720761D01*
X60199785Y-105673142D01*
X60247404Y-105577904D01*
X60295023Y-105387428D01*
X60295023Y-105149333D01*
X60247404Y-104958857D01*
X60199785Y-104863619D01*
X60152166Y-104816000D01*
X60056928Y-104768380D01*
X65158857Y-105768380D02*
X65492190Y-105292190D01*
X65730285Y-105768380D02*
X65730285Y-104768380D01*
X65349333Y-104768380D01*
X65254095Y-104816000D01*
X65206476Y-104863619D01*
X65158857Y-104958857D01*
X65158857Y-105101714D01*
X65206476Y-105196952D01*
X65254095Y-105244571D01*
X65349333Y-105292190D01*
X65730285Y-105292190D01*
X64206476Y-105768380D02*
X64777904Y-105768380D01*
X64492190Y-105768380D02*
X64492190Y-104768380D01*
X64587428Y-104911238D01*
X64682666Y-105006476D01*
X64777904Y-105054095D01*
X63254095Y-105768380D02*
X63825523Y-105768380D01*
X63539809Y-105768380D02*
X63539809Y-104768380D01*
X63635047Y-104911238D01*
X63730285Y-105006476D01*
X63825523Y-105054095D01*
X93577858Y-162969379D02*
X93911191Y-162493189D01*
X94149286Y-162969379D02*
X94149286Y-161969379D01*
X93768334Y-161969379D01*
X93673096Y-162016999D01*
X93625477Y-162064618D01*
X93577858Y-162159856D01*
X93577858Y-162302713D01*
X93625477Y-162397951D01*
X93673096Y-162445570D01*
X93768334Y-162493189D01*
X94149286Y-162493189D01*
X92625477Y-162969379D02*
X93196905Y-162969379D01*
X92911191Y-162969379D02*
X92911191Y-161969379D01*
X93006429Y-162112237D01*
X93101667Y-162207475D01*
X93196905Y-162255094D01*
X92244524Y-162064618D02*
X92196905Y-162016999D01*
X92101667Y-161969379D01*
X91863572Y-161969379D01*
X91768334Y-162016999D01*
X91720715Y-162064618D01*
X91673096Y-162159856D01*
X91673096Y-162255094D01*
X91720715Y-162397951D01*
X92292143Y-162969379D01*
X91673096Y-162969379D01*
X80187858Y-138919379D02*
X80521191Y-138443189D01*
X80759286Y-138919379D02*
X80759286Y-137919379D01*
X80378334Y-137919379D01*
X80283096Y-137966999D01*
X80235477Y-138014618D01*
X80187858Y-138109856D01*
X80187858Y-138252713D01*
X80235477Y-138347951D01*
X80283096Y-138395570D01*
X80378334Y-138443189D01*
X80759286Y-138443189D01*
X79235477Y-138919379D02*
X79806905Y-138919379D01*
X79521191Y-138919379D02*
X79521191Y-137919379D01*
X79616429Y-138062237D01*
X79711667Y-138157475D01*
X79806905Y-138205094D01*
X78902143Y-137919379D02*
X78283096Y-137919379D01*
X78616429Y-138300332D01*
X78473572Y-138300332D01*
X78378334Y-138347951D01*
X78330715Y-138395570D01*
X78283096Y-138490808D01*
X78283096Y-138728903D01*
X78330715Y-138824141D01*
X78378334Y-138871760D01*
X78473572Y-138919379D01*
X78759286Y-138919379D01*
X78854524Y-138871760D01*
X78902143Y-138824141D01*
X105607858Y-162969379D02*
X105941191Y-162493189D01*
X106179286Y-162969379D02*
X106179286Y-161969379D01*
X105798334Y-161969379D01*
X105703096Y-162016999D01*
X105655477Y-162064618D01*
X105607858Y-162159856D01*
X105607858Y-162302713D01*
X105655477Y-162397951D01*
X105703096Y-162445570D01*
X105798334Y-162493189D01*
X106179286Y-162493189D01*
X104655477Y-162969379D02*
X105226905Y-162969379D01*
X104941191Y-162969379D02*
X104941191Y-161969379D01*
X105036429Y-162112237D01*
X105131667Y-162207475D01*
X105226905Y-162255094D01*
X103798334Y-162302713D02*
X103798334Y-162969379D01*
X104036429Y-161921760D02*
X104274524Y-162636046D01*
X103655477Y-162636046D01*
X92217858Y-143999379D02*
X92551191Y-143523189D01*
X92789286Y-143999379D02*
X92789286Y-142999379D01*
X92408334Y-142999379D01*
X92313096Y-143046999D01*
X92265477Y-143094618D01*
X92217858Y-143189856D01*
X92217858Y-143332713D01*
X92265477Y-143427951D01*
X92313096Y-143475570D01*
X92408334Y-143523189D01*
X92789286Y-143523189D01*
X91265477Y-143999379D02*
X91836905Y-143999379D01*
X91551191Y-143999379D02*
X91551191Y-142999379D01*
X91646429Y-143142237D01*
X91741667Y-143237475D01*
X91836905Y-143285094D01*
X90360715Y-142999379D02*
X90836905Y-142999379D01*
X90884524Y-143475570D01*
X90836905Y-143427951D01*
X90741667Y-143380332D01*
X90503572Y-143380332D01*
X90408334Y-143427951D01*
X90360715Y-143475570D01*
X90313096Y-143570808D01*
X90313096Y-143808903D01*
X90360715Y-143904141D01*
X90408334Y-143951760D01*
X90503572Y-143999379D01*
X90741667Y-143999379D01*
X90836905Y-143951760D01*
X90884524Y-143904141D01*
X106517858Y-157949379D02*
X106851191Y-157473189D01*
X107089286Y-157949379D02*
X107089286Y-156949379D01*
X106708334Y-156949379D01*
X106613096Y-156996999D01*
X106565477Y-157044618D01*
X106517858Y-157139856D01*
X106517858Y-157282713D01*
X106565477Y-157377951D01*
X106613096Y-157425570D01*
X106708334Y-157473189D01*
X107089286Y-157473189D01*
X105565477Y-157949379D02*
X106136905Y-157949379D01*
X105851191Y-157949379D02*
X105851191Y-156949379D01*
X105946429Y-157092237D01*
X106041667Y-157187475D01*
X106136905Y-157235094D01*
X104708334Y-156949379D02*
X104898810Y-156949379D01*
X104994048Y-156996999D01*
X105041667Y-157044618D01*
X105136905Y-157187475D01*
X105184524Y-157377951D01*
X105184524Y-157758903D01*
X105136905Y-157854141D01*
X105089286Y-157901760D01*
X104994048Y-157949379D01*
X104803572Y-157949379D01*
X104708334Y-157901760D01*
X104660715Y-157854141D01*
X104613096Y-157758903D01*
X104613096Y-157520808D01*
X104660715Y-157425570D01*
X104708334Y-157377951D01*
X104803572Y-157330332D01*
X104994048Y-157330332D01*
X105089286Y-157377951D01*
X105136905Y-157425570D01*
X105184524Y-157520808D01*
X84197858Y-141489379D02*
X84531191Y-141013189D01*
X84769286Y-141489379D02*
X84769286Y-140489379D01*
X84388334Y-140489379D01*
X84293096Y-140536999D01*
X84245477Y-140584618D01*
X84197858Y-140679856D01*
X84197858Y-140822713D01*
X84245477Y-140917951D01*
X84293096Y-140965570D01*
X84388334Y-141013189D01*
X84769286Y-141013189D01*
X83245477Y-141489379D02*
X83816905Y-141489379D01*
X83531191Y-141489379D02*
X83531191Y-140489379D01*
X83626429Y-140632237D01*
X83721667Y-140727475D01*
X83816905Y-140775094D01*
X82912143Y-140489379D02*
X82245477Y-140489379D01*
X82674048Y-141489379D01*
X102507858Y-152929379D02*
X102841191Y-152453189D01*
X103079286Y-152929379D02*
X103079286Y-151929379D01*
X102698334Y-151929379D01*
X102603096Y-151976999D01*
X102555477Y-152024618D01*
X102507858Y-152119856D01*
X102507858Y-152262713D01*
X102555477Y-152357951D01*
X102603096Y-152405570D01*
X102698334Y-152453189D01*
X103079286Y-152453189D01*
X102126905Y-152024618D02*
X102079286Y-151976999D01*
X101984048Y-151929379D01*
X101745953Y-151929379D01*
X101650715Y-151976999D01*
X101603096Y-152024618D01*
X101555477Y-152119856D01*
X101555477Y-152215094D01*
X101603096Y-152357951D01*
X102174524Y-152929379D01*
X101555477Y-152929379D01*
X100603096Y-152929379D02*
X101174524Y-152929379D01*
X100888810Y-152929379D02*
X100888810Y-151929379D01*
X100984048Y-152072237D01*
X101079286Y-152167475D01*
X101174524Y-152215094D01*
X98497858Y-152929379D02*
X98831191Y-152453189D01*
X99069286Y-152929379D02*
X99069286Y-151929379D01*
X98688334Y-151929379D01*
X98593096Y-151976999D01*
X98545477Y-152024618D01*
X98497858Y-152119856D01*
X98497858Y-152262713D01*
X98545477Y-152357951D01*
X98593096Y-152405570D01*
X98688334Y-152453189D01*
X99069286Y-152453189D01*
X98116905Y-152024618D02*
X98069286Y-151976999D01*
X97974048Y-151929379D01*
X97735953Y-151929379D01*
X97640715Y-151976999D01*
X97593096Y-152024618D01*
X97545477Y-152119856D01*
X97545477Y-152215094D01*
X97593096Y-152357951D01*
X98164524Y-152929379D01*
X97545477Y-152929379D01*
X97164524Y-152024618D02*
X97116905Y-151976999D01*
X97021667Y-151929379D01*
X96783572Y-151929379D01*
X96688334Y-151976999D01*
X96640715Y-152024618D01*
X96593096Y-152119856D01*
X96593096Y-152215094D01*
X96640715Y-152357951D01*
X97212143Y-152929379D01*
X96593096Y-152929379D01*
X92877858Y-147909379D02*
X93211191Y-147433189D01*
X93449286Y-147909379D02*
X93449286Y-146909379D01*
X93068334Y-146909379D01*
X92973096Y-146956999D01*
X92925477Y-147004618D01*
X92877858Y-147099856D01*
X92877858Y-147242713D01*
X92925477Y-147337951D01*
X92973096Y-147385570D01*
X93068334Y-147433189D01*
X93449286Y-147433189D01*
X92496905Y-147004618D02*
X92449286Y-146956999D01*
X92354048Y-146909379D01*
X92115953Y-146909379D01*
X92020715Y-146956999D01*
X91973096Y-147004618D01*
X91925477Y-147099856D01*
X91925477Y-147195094D01*
X91973096Y-147337951D01*
X92544524Y-147909379D01*
X91925477Y-147909379D01*
X91592143Y-146909379D02*
X90973096Y-146909379D01*
X91306429Y-147290332D01*
X91163572Y-147290332D01*
X91068334Y-147337951D01*
X91020715Y-147385570D01*
X90973096Y-147480808D01*
X90973096Y-147718903D01*
X91020715Y-147814141D01*
X91068334Y-147861760D01*
X91163572Y-147909379D01*
X91449286Y-147909379D01*
X91544524Y-147861760D01*
X91592143Y-147814141D01*
X88207858Y-141489379D02*
X88541191Y-141013189D01*
X88779286Y-141489379D02*
X88779286Y-140489379D01*
X88398334Y-140489379D01*
X88303096Y-140536999D01*
X88255477Y-140584618D01*
X88207858Y-140679856D01*
X88207858Y-140822713D01*
X88255477Y-140917951D01*
X88303096Y-140965570D01*
X88398334Y-141013189D01*
X88779286Y-141013189D01*
X87826905Y-140584618D02*
X87779286Y-140536999D01*
X87684048Y-140489379D01*
X87445953Y-140489379D01*
X87350715Y-140536999D01*
X87303096Y-140584618D01*
X87255477Y-140679856D01*
X87255477Y-140775094D01*
X87303096Y-140917951D01*
X87874524Y-141489379D01*
X87255477Y-141489379D01*
X86398334Y-140822713D02*
X86398334Y-141489379D01*
X86636429Y-140441760D02*
X86874524Y-141156046D01*
X86255477Y-141156046D01*
X102507858Y-155439379D02*
X102841191Y-154963189D01*
X103079286Y-155439379D02*
X103079286Y-154439379D01*
X102698334Y-154439379D01*
X102603096Y-154486999D01*
X102555477Y-154534618D01*
X102507858Y-154629856D01*
X102507858Y-154772713D01*
X102555477Y-154867951D01*
X102603096Y-154915570D01*
X102698334Y-154963189D01*
X103079286Y-154963189D01*
X102126905Y-154534618D02*
X102079286Y-154486999D01*
X101984048Y-154439379D01*
X101745953Y-154439379D01*
X101650715Y-154486999D01*
X101603096Y-154534618D01*
X101555477Y-154629856D01*
X101555477Y-154725094D01*
X101603096Y-154867951D01*
X102174524Y-155439379D01*
X101555477Y-155439379D01*
X100650715Y-154439379D02*
X101126905Y-154439379D01*
X101174524Y-154915570D01*
X101126905Y-154867951D01*
X101031667Y-154820332D01*
X100793572Y-154820332D01*
X100698334Y-154867951D01*
X100650715Y-154915570D01*
X100603096Y-155010808D01*
X100603096Y-155248903D01*
X100650715Y-155344141D01*
X100698334Y-155391760D01*
X100793572Y-155439379D01*
X101031667Y-155439379D01*
X101126905Y-155391760D01*
X101174524Y-155344141D01*
X96657858Y-150419379D02*
X96991191Y-149943189D01*
X97229286Y-150419379D02*
X97229286Y-149419379D01*
X96848334Y-149419379D01*
X96753096Y-149466999D01*
X96705477Y-149514618D01*
X96657858Y-149609856D01*
X96657858Y-149752713D01*
X96705477Y-149847951D01*
X96753096Y-149895570D01*
X96848334Y-149943189D01*
X97229286Y-149943189D01*
X96276905Y-149514618D02*
X96229286Y-149466999D01*
X96134048Y-149419379D01*
X95895953Y-149419379D01*
X95800715Y-149466999D01*
X95753096Y-149514618D01*
X95705477Y-149609856D01*
X95705477Y-149705094D01*
X95753096Y-149847951D01*
X96324524Y-150419379D01*
X95705477Y-150419379D01*
X94848334Y-149419379D02*
X95038810Y-149419379D01*
X95134048Y-149466999D01*
X95181667Y-149514618D01*
X95276905Y-149657475D01*
X95324524Y-149847951D01*
X95324524Y-150228903D01*
X95276905Y-150324141D01*
X95229286Y-150371760D01*
X95134048Y-150419379D01*
X94943572Y-150419379D01*
X94848334Y-150371760D01*
X94800715Y-150324141D01*
X94753096Y-150228903D01*
X94753096Y-149990808D01*
X94800715Y-149895570D01*
X94848334Y-149847951D01*
X94943572Y-149800332D01*
X95134048Y-149800332D01*
X95229286Y-149847951D01*
X95276905Y-149895570D01*
X95324524Y-149990808D01*
X88867858Y-146509379D02*
X89201191Y-146033189D01*
X89439286Y-146509379D02*
X89439286Y-145509379D01*
X89058334Y-145509379D01*
X88963096Y-145556999D01*
X88915477Y-145604618D01*
X88867858Y-145699856D01*
X88867858Y-145842713D01*
X88915477Y-145937951D01*
X88963096Y-145985570D01*
X89058334Y-146033189D01*
X89439286Y-146033189D01*
X88486905Y-145604618D02*
X88439286Y-145556999D01*
X88344048Y-145509379D01*
X88105953Y-145509379D01*
X88010715Y-145556999D01*
X87963096Y-145604618D01*
X87915477Y-145699856D01*
X87915477Y-145795094D01*
X87963096Y-145937951D01*
X88534524Y-146509379D01*
X87915477Y-146509379D01*
X87582143Y-145509379D02*
X86915477Y-145509379D01*
X87344048Y-146509379D01*
X88207858Y-143999379D02*
X88541191Y-143523189D01*
X88779286Y-143999379D02*
X88779286Y-142999379D01*
X88398334Y-142999379D01*
X88303096Y-143046999D01*
X88255477Y-143094618D01*
X88207858Y-143189856D01*
X88207858Y-143332713D01*
X88255477Y-143427951D01*
X88303096Y-143475570D01*
X88398334Y-143523189D01*
X88779286Y-143523189D01*
X87826905Y-143094618D02*
X87779286Y-143046999D01*
X87684048Y-142999379D01*
X87445953Y-142999379D01*
X87350715Y-143046999D01*
X87303096Y-143094618D01*
X87255477Y-143189856D01*
X87255477Y-143285094D01*
X87303096Y-143427951D01*
X87874524Y-143999379D01*
X87255477Y-143999379D01*
X86684048Y-143427951D02*
X86779286Y-143380332D01*
X86826905Y-143332713D01*
X86874524Y-143237475D01*
X86874524Y-143189856D01*
X86826905Y-143094618D01*
X86779286Y-143046999D01*
X86684048Y-142999379D01*
X86493572Y-142999379D01*
X86398334Y-143046999D01*
X86350715Y-143094618D01*
X86303096Y-143189856D01*
X86303096Y-143237475D01*
X86350715Y-143332713D01*
X86398334Y-143380332D01*
X86493572Y-143427951D01*
X86684048Y-143427951D01*
X86779286Y-143475570D01*
X86826905Y-143523189D01*
X86874524Y-143618427D01*
X86874524Y-143808903D01*
X86826905Y-143904141D01*
X86779286Y-143951760D01*
X86684048Y-143999379D01*
X86493572Y-143999379D01*
X86398334Y-143951760D01*
X86350715Y-143904141D01*
X86303096Y-143808903D01*
X86303096Y-143618427D01*
X86350715Y-143523189D01*
X86398334Y-143475570D01*
X86493572Y-143427951D01*
X102507858Y-157949379D02*
X102841191Y-157473189D01*
X103079286Y-157949379D02*
X103079286Y-156949379D01*
X102698334Y-156949379D01*
X102603096Y-156996999D01*
X102555477Y-157044618D01*
X102507858Y-157139856D01*
X102507858Y-157282713D01*
X102555477Y-157377951D01*
X102603096Y-157425570D01*
X102698334Y-157473189D01*
X103079286Y-157473189D01*
X102126905Y-157044618D02*
X102079286Y-156996999D01*
X101984048Y-156949379D01*
X101745953Y-156949379D01*
X101650715Y-156996999D01*
X101603096Y-157044618D01*
X101555477Y-157139856D01*
X101555477Y-157235094D01*
X101603096Y-157377951D01*
X102174524Y-157949379D01*
X101555477Y-157949379D01*
X101079286Y-157949379D02*
X100888810Y-157949379D01*
X100793572Y-157901760D01*
X100745953Y-157854141D01*
X100650715Y-157711284D01*
X100603096Y-157520808D01*
X100603096Y-157139856D01*
X100650715Y-157044618D01*
X100698334Y-156996999D01*
X100793572Y-156949379D01*
X100984048Y-156949379D01*
X101079286Y-156996999D01*
X101126905Y-157044618D01*
X101174524Y-157139856D01*
X101174524Y-157377951D01*
X101126905Y-157473189D01*
X101079286Y-157520808D01*
X100984048Y-157568427D01*
X100793572Y-157568427D01*
X100698334Y-157520808D01*
X100650715Y-157473189D01*
X100603096Y-157377951D01*
X106517858Y-160459379D02*
X106851191Y-159983189D01*
X107089286Y-160459379D02*
X107089286Y-159459379D01*
X106708334Y-159459379D01*
X106613096Y-159506999D01*
X106565477Y-159554618D01*
X106517858Y-159649856D01*
X106517858Y-159792713D01*
X106565477Y-159887951D01*
X106613096Y-159935570D01*
X106708334Y-159983189D01*
X107089286Y-159983189D01*
X106184524Y-159459379D02*
X105565477Y-159459379D01*
X105898810Y-159840332D01*
X105755953Y-159840332D01*
X105660715Y-159887951D01*
X105613096Y-159935570D01*
X105565477Y-160030808D01*
X105565477Y-160268903D01*
X105613096Y-160364141D01*
X105660715Y-160411760D01*
X105755953Y-160459379D01*
X106041667Y-160459379D01*
X106136905Y-160411760D01*
X106184524Y-160364141D01*
X104946429Y-159459379D02*
X104851191Y-159459379D01*
X104755953Y-159506999D01*
X104708334Y-159554618D01*
X104660715Y-159649856D01*
X104613096Y-159840332D01*
X104613096Y-160078427D01*
X104660715Y-160268903D01*
X104708334Y-160364141D01*
X104755953Y-160411760D01*
X104851191Y-160459379D01*
X104946429Y-160459379D01*
X105041667Y-160411760D01*
X105089286Y-160364141D01*
X105136905Y-160268903D01*
X105184524Y-160078427D01*
X105184524Y-159840332D01*
X105136905Y-159649856D01*
X105089286Y-159554618D01*
X105041667Y-159506999D01*
X104946429Y-159459379D01*
X84197858Y-138979379D02*
X84531191Y-138503189D01*
X84769286Y-138979379D02*
X84769286Y-137979379D01*
X84388334Y-137979379D01*
X84293096Y-138026999D01*
X84245477Y-138074618D01*
X84197858Y-138169856D01*
X84197858Y-138312713D01*
X84245477Y-138407951D01*
X84293096Y-138455570D01*
X84388334Y-138503189D01*
X84769286Y-138503189D01*
X83864524Y-137979379D02*
X83245477Y-137979379D01*
X83578810Y-138360332D01*
X83435953Y-138360332D01*
X83340715Y-138407951D01*
X83293096Y-138455570D01*
X83245477Y-138550808D01*
X83245477Y-138788903D01*
X83293096Y-138884141D01*
X83340715Y-138931760D01*
X83435953Y-138979379D01*
X83721667Y-138979379D01*
X83816905Y-138931760D01*
X83864524Y-138884141D01*
X82293096Y-138979379D02*
X82864524Y-138979379D01*
X82578810Y-138979379D02*
X82578810Y-137979379D01*
X82674048Y-138122237D01*
X82769286Y-138217475D01*
X82864524Y-138265094D01*
X106517858Y-152929379D02*
X106851191Y-152453189D01*
X107089286Y-152929379D02*
X107089286Y-151929379D01*
X106708334Y-151929379D01*
X106613096Y-151976999D01*
X106565477Y-152024618D01*
X106517858Y-152119856D01*
X106517858Y-152262713D01*
X106565477Y-152357951D01*
X106613096Y-152405570D01*
X106708334Y-152453189D01*
X107089286Y-152453189D01*
X106184524Y-151929379D02*
X105565477Y-151929379D01*
X105898810Y-152310332D01*
X105755953Y-152310332D01*
X105660715Y-152357951D01*
X105613096Y-152405570D01*
X105565477Y-152500808D01*
X105565477Y-152738903D01*
X105613096Y-152834141D01*
X105660715Y-152881760D01*
X105755953Y-152929379D01*
X106041667Y-152929379D01*
X106136905Y-152881760D01*
X106184524Y-152834141D01*
X105184524Y-152024618D02*
X105136905Y-151976999D01*
X105041667Y-151929379D01*
X104803572Y-151929379D01*
X104708334Y-151976999D01*
X104660715Y-152024618D01*
X104613096Y-152119856D01*
X104613096Y-152215094D01*
X104660715Y-152357951D01*
X105232143Y-152929379D01*
X104613096Y-152929379D01*
X96227858Y-145399379D02*
X96561191Y-144923189D01*
X96799286Y-145399379D02*
X96799286Y-144399379D01*
X96418334Y-144399379D01*
X96323096Y-144446999D01*
X96275477Y-144494618D01*
X96227858Y-144589856D01*
X96227858Y-144732713D01*
X96275477Y-144827951D01*
X96323096Y-144875570D01*
X96418334Y-144923189D01*
X96799286Y-144923189D01*
X95894524Y-144399379D02*
X95275477Y-144399379D01*
X95608810Y-144780332D01*
X95465953Y-144780332D01*
X95370715Y-144827951D01*
X95323096Y-144875570D01*
X95275477Y-144970808D01*
X95275477Y-145208903D01*
X95323096Y-145304141D01*
X95370715Y-145351760D01*
X95465953Y-145399379D01*
X95751667Y-145399379D01*
X95846905Y-145351760D01*
X95894524Y-145304141D01*
X94942143Y-144399379D02*
X94323096Y-144399379D01*
X94656429Y-144780332D01*
X94513572Y-144780332D01*
X94418334Y-144827951D01*
X94370715Y-144875570D01*
X94323096Y-144970808D01*
X94323096Y-145208903D01*
X94370715Y-145304141D01*
X94418334Y-145351760D01*
X94513572Y-145399379D01*
X94799286Y-145399379D01*
X94894524Y-145351760D01*
X94942143Y-145304141D01*
X96887858Y-147909379D02*
X97221191Y-147433189D01*
X97459286Y-147909379D02*
X97459286Y-146909379D01*
X97078334Y-146909379D01*
X96983096Y-146956999D01*
X96935477Y-147004618D01*
X96887858Y-147099856D01*
X96887858Y-147242713D01*
X96935477Y-147337951D01*
X96983096Y-147385570D01*
X97078334Y-147433189D01*
X97459286Y-147433189D01*
X96554524Y-146909379D02*
X95935477Y-146909379D01*
X96268810Y-147290332D01*
X96125953Y-147290332D01*
X96030715Y-147337951D01*
X95983096Y-147385570D01*
X95935477Y-147480808D01*
X95935477Y-147718903D01*
X95983096Y-147814141D01*
X96030715Y-147861760D01*
X96125953Y-147909379D01*
X96411667Y-147909379D01*
X96506905Y-147861760D01*
X96554524Y-147814141D01*
X95078334Y-147242713D02*
X95078334Y-147909379D01*
X95316429Y-146861760D02*
X95554524Y-147576046D01*
X94935477Y-147576046D01*
X104907858Y-147909379D02*
X105241191Y-147433189D01*
X105479286Y-147909379D02*
X105479286Y-146909379D01*
X105098334Y-146909379D01*
X105003096Y-146956999D01*
X104955477Y-147004618D01*
X104907858Y-147099856D01*
X104907858Y-147242713D01*
X104955477Y-147337951D01*
X105003096Y-147385570D01*
X105098334Y-147433189D01*
X105479286Y-147433189D01*
X104574524Y-146909379D02*
X103955477Y-146909379D01*
X104288810Y-147290332D01*
X104145953Y-147290332D01*
X104050715Y-147337951D01*
X104003096Y-147385570D01*
X103955477Y-147480808D01*
X103955477Y-147718903D01*
X104003096Y-147814141D01*
X104050715Y-147861760D01*
X104145953Y-147909379D01*
X104431667Y-147909379D01*
X104526905Y-147861760D01*
X104574524Y-147814141D01*
X103050715Y-146909379D02*
X103526905Y-146909379D01*
X103574524Y-147385570D01*
X103526905Y-147337951D01*
X103431667Y-147290332D01*
X103193572Y-147290332D01*
X103098334Y-147337951D01*
X103050715Y-147385570D01*
X103003096Y-147480808D01*
X103003096Y-147718903D01*
X103050715Y-147814141D01*
X103098334Y-147861760D01*
X103193572Y-147909379D01*
X103431667Y-147909379D01*
X103526905Y-147861760D01*
X103574524Y-147814141D01*
X100237858Y-145399379D02*
X100571191Y-144923189D01*
X100809286Y-145399379D02*
X100809286Y-144399379D01*
X100428334Y-144399379D01*
X100333096Y-144446999D01*
X100285477Y-144494618D01*
X100237858Y-144589856D01*
X100237858Y-144732713D01*
X100285477Y-144827951D01*
X100333096Y-144875570D01*
X100428334Y-144923189D01*
X100809286Y-144923189D01*
X99904524Y-144399379D02*
X99285477Y-144399379D01*
X99618810Y-144780332D01*
X99475953Y-144780332D01*
X99380715Y-144827951D01*
X99333096Y-144875570D01*
X99285477Y-144970808D01*
X99285477Y-145208903D01*
X99333096Y-145304141D01*
X99380715Y-145351760D01*
X99475953Y-145399379D01*
X99761667Y-145399379D01*
X99856905Y-145351760D01*
X99904524Y-145304141D01*
X98809286Y-145399379D02*
X98618810Y-145399379D01*
X98523572Y-145351760D01*
X98475953Y-145304141D01*
X98380715Y-145161284D01*
X98333096Y-144970808D01*
X98333096Y-144589856D01*
X98380715Y-144494618D01*
X98428334Y-144446999D01*
X98523572Y-144399379D01*
X98714048Y-144399379D01*
X98809286Y-144446999D01*
X98856905Y-144494618D01*
X98904524Y-144589856D01*
X98904524Y-144827951D01*
X98856905Y-144923189D01*
X98809286Y-144970808D01*
X98714048Y-145018427D01*
X98523572Y-145018427D01*
X98428334Y-144970808D01*
X98380715Y-144923189D01*
X98333096Y-144827951D01*
X104677858Y-150419379D02*
X105011191Y-149943189D01*
X105249286Y-150419379D02*
X105249286Y-149419379D01*
X104868334Y-149419379D01*
X104773096Y-149466999D01*
X104725477Y-149514618D01*
X104677858Y-149609856D01*
X104677858Y-149752713D01*
X104725477Y-149847951D01*
X104773096Y-149895570D01*
X104868334Y-149943189D01*
X105249286Y-149943189D01*
X103820715Y-149752713D02*
X103820715Y-150419379D01*
X104058810Y-149371760D02*
X104296905Y-150086046D01*
X103677858Y-150086046D01*
X103106429Y-149419379D02*
X103011191Y-149419379D01*
X102915953Y-149466999D01*
X102868334Y-149514618D01*
X102820715Y-149609856D01*
X102773096Y-149800332D01*
X102773096Y-150038427D01*
X102820715Y-150228903D01*
X102868334Y-150324141D01*
X102915953Y-150371760D01*
X103011191Y-150419379D01*
X103106429Y-150419379D01*
X103201667Y-150371760D01*
X103249286Y-150324141D01*
X103296905Y-150228903D01*
X103344524Y-150038427D01*
X103344524Y-149800332D01*
X103296905Y-149609856D01*
X103249286Y-149514618D01*
X103201667Y-149466999D01*
X103106429Y-149419379D01*
X96227858Y-142889379D02*
X96561191Y-142413189D01*
X96799286Y-142889379D02*
X96799286Y-141889379D01*
X96418334Y-141889379D01*
X96323096Y-141936999D01*
X96275477Y-141984618D01*
X96227858Y-142079856D01*
X96227858Y-142222713D01*
X96275477Y-142317951D01*
X96323096Y-142365570D01*
X96418334Y-142413189D01*
X96799286Y-142413189D01*
X95370715Y-142222713D02*
X95370715Y-142889379D01*
X95608810Y-141841760D02*
X95846905Y-142556046D01*
X95227858Y-142556046D01*
X94323096Y-142889379D02*
X94894524Y-142889379D01*
X94608810Y-142889379D02*
X94608810Y-141889379D01*
X94704048Y-142032237D01*
X94799286Y-142127475D01*
X94894524Y-142175094D01*
X80187858Y-143939379D02*
X80521191Y-143463189D01*
X80759286Y-143939379D02*
X80759286Y-142939379D01*
X80378334Y-142939379D01*
X80283096Y-142986999D01*
X80235477Y-143034618D01*
X80187858Y-143129856D01*
X80187858Y-143272713D01*
X80235477Y-143367951D01*
X80283096Y-143415570D01*
X80378334Y-143463189D01*
X80759286Y-143463189D01*
X79330715Y-143272713D02*
X79330715Y-143939379D01*
X79568810Y-142891760D02*
X79806905Y-143606046D01*
X79187858Y-143606046D01*
X78854524Y-143034618D02*
X78806905Y-142986999D01*
X78711667Y-142939379D01*
X78473572Y-142939379D01*
X78378334Y-142986999D01*
X78330715Y-143034618D01*
X78283096Y-143129856D01*
X78283096Y-143225094D01*
X78330715Y-143367951D01*
X78902143Y-143939379D01*
X78283096Y-143939379D01*
X92217858Y-138979379D02*
X92551191Y-138503189D01*
X92789286Y-138979379D02*
X92789286Y-137979379D01*
X92408334Y-137979379D01*
X92313096Y-138026999D01*
X92265477Y-138074618D01*
X92217858Y-138169856D01*
X92217858Y-138312713D01*
X92265477Y-138407951D01*
X92313096Y-138455570D01*
X92408334Y-138503189D01*
X92789286Y-138503189D01*
X91360715Y-138312713D02*
X91360715Y-138979379D01*
X91598810Y-137931760D02*
X91836905Y-138646046D01*
X91217858Y-138646046D01*
X90932143Y-137979379D02*
X90313096Y-137979379D01*
X90646429Y-138360332D01*
X90503572Y-138360332D01*
X90408334Y-138407951D01*
X90360715Y-138455570D01*
X90313096Y-138550808D01*
X90313096Y-138788903D01*
X90360715Y-138884141D01*
X90408334Y-138931760D01*
X90503572Y-138979379D01*
X90789286Y-138979379D01*
X90884524Y-138931760D01*
X90932143Y-138884141D01*
X100897858Y-147909379D02*
X101231191Y-147433189D01*
X101469286Y-147909379D02*
X101469286Y-146909379D01*
X101088334Y-146909379D01*
X100993096Y-146956999D01*
X100945477Y-147004618D01*
X100897858Y-147099856D01*
X100897858Y-147242713D01*
X100945477Y-147337951D01*
X100993096Y-147385570D01*
X101088334Y-147433189D01*
X101469286Y-147433189D01*
X100040715Y-147242713D02*
X100040715Y-147909379D01*
X100278810Y-146861760D02*
X100516905Y-147576046D01*
X99897858Y-147576046D01*
X99088334Y-147242713D02*
X99088334Y-147909379D01*
X99326429Y-146861760D02*
X99564524Y-147576046D01*
X98945477Y-147576046D01*
X100667858Y-150419379D02*
X101001191Y-149943189D01*
X101239286Y-150419379D02*
X101239286Y-149419379D01*
X100858334Y-149419379D01*
X100763096Y-149466999D01*
X100715477Y-149514618D01*
X100667858Y-149609856D01*
X100667858Y-149752713D01*
X100715477Y-149847951D01*
X100763096Y-149895570D01*
X100858334Y-149943189D01*
X101239286Y-149943189D01*
X99810715Y-149752713D02*
X99810715Y-150419379D01*
X100048810Y-149371760D02*
X100286905Y-150086046D01*
X99667858Y-150086046D01*
X98810715Y-149419379D02*
X99286905Y-149419379D01*
X99334524Y-149895570D01*
X99286905Y-149847951D01*
X99191667Y-149800332D01*
X98953572Y-149800332D01*
X98858334Y-149847951D01*
X98810715Y-149895570D01*
X98763096Y-149990808D01*
X98763096Y-150228903D01*
X98810715Y-150324141D01*
X98858334Y-150371760D01*
X98953572Y-150419379D01*
X99191667Y-150419379D01*
X99286905Y-150371760D01*
X99334524Y-150324141D01*
X92217858Y-141489379D02*
X92551191Y-141013189D01*
X92789286Y-141489379D02*
X92789286Y-140489379D01*
X92408334Y-140489379D01*
X92313096Y-140536999D01*
X92265477Y-140584618D01*
X92217858Y-140679856D01*
X92217858Y-140822713D01*
X92265477Y-140917951D01*
X92313096Y-140965570D01*
X92408334Y-141013189D01*
X92789286Y-141013189D01*
X91360715Y-140822713D02*
X91360715Y-141489379D01*
X91598810Y-140441760D02*
X91836905Y-141156046D01*
X91217858Y-141156046D01*
X90408334Y-140489379D02*
X90598810Y-140489379D01*
X90694048Y-140536999D01*
X90741667Y-140584618D01*
X90836905Y-140727475D01*
X90884524Y-140917951D01*
X90884524Y-141298903D01*
X90836905Y-141394141D01*
X90789286Y-141441760D01*
X90694048Y-141489379D01*
X90503572Y-141489379D01*
X90408334Y-141441760D01*
X90360715Y-141394141D01*
X90313096Y-141298903D01*
X90313096Y-141060808D01*
X90360715Y-140965570D01*
X90408334Y-140917951D01*
X90503572Y-140870332D01*
X90694048Y-140870332D01*
X90789286Y-140917951D01*
X90836905Y-140965570D01*
X90884524Y-141060808D01*
X106517858Y-155439379D02*
X106851191Y-154963189D01*
X107089286Y-155439379D02*
X107089286Y-154439379D01*
X106708334Y-154439379D01*
X106613096Y-154486999D01*
X106565477Y-154534618D01*
X106517858Y-154629856D01*
X106517858Y-154772713D01*
X106565477Y-154867951D01*
X106613096Y-154915570D01*
X106708334Y-154963189D01*
X107089286Y-154963189D01*
X105660715Y-154772713D02*
X105660715Y-155439379D01*
X105898810Y-154391760D02*
X106136905Y-155106046D01*
X105517858Y-155106046D01*
X105232143Y-154439379D02*
X104565477Y-154439379D01*
X104994048Y-155439379D01*
X67735858Y-158159379D02*
X68069191Y-157683189D01*
X68307286Y-158159379D02*
X68307286Y-157159379D01*
X67926334Y-157159379D01*
X67831096Y-157206999D01*
X67783477Y-157254618D01*
X67735858Y-157349856D01*
X67735858Y-157492713D01*
X67783477Y-157587951D01*
X67831096Y-157635570D01*
X67926334Y-157683189D01*
X68307286Y-157683189D01*
X66878715Y-157492713D02*
X66878715Y-158159379D01*
X67116810Y-157111760D02*
X67354905Y-157826046D01*
X66735858Y-157826046D01*
X66212048Y-157587951D02*
X66307286Y-157540332D01*
X66354905Y-157492713D01*
X66402524Y-157397475D01*
X66402524Y-157349856D01*
X66354905Y-157254618D01*
X66307286Y-157206999D01*
X66212048Y-157159379D01*
X66021572Y-157159379D01*
X65926334Y-157206999D01*
X65878715Y-157254618D01*
X65831096Y-157349856D01*
X65831096Y-157397475D01*
X65878715Y-157492713D01*
X65926334Y-157540332D01*
X66021572Y-157587951D01*
X66212048Y-157587951D01*
X66307286Y-157635570D01*
X66354905Y-157683189D01*
X66402524Y-157778427D01*
X66402524Y-157968903D01*
X66354905Y-158064141D01*
X66307286Y-158111760D01*
X66212048Y-158159379D01*
X66021572Y-158159379D01*
X65926334Y-158111760D01*
X65878715Y-158064141D01*
X65831096Y-157968903D01*
X65831096Y-157778427D01*
X65878715Y-157683189D01*
X65926334Y-157635570D01*
X66021572Y-157587951D01*
X59175858Y-154079379D02*
X59509191Y-153603189D01*
X59747286Y-154079379D02*
X59747286Y-153079379D01*
X59366334Y-153079379D01*
X59271096Y-153126999D01*
X59223477Y-153174618D01*
X59175858Y-153269856D01*
X59175858Y-153412713D01*
X59223477Y-153507951D01*
X59271096Y-153555570D01*
X59366334Y-153603189D01*
X59747286Y-153603189D01*
X58318715Y-153412713D02*
X58318715Y-154079379D01*
X58556810Y-153031760D02*
X58794905Y-153746046D01*
X58175858Y-153746046D01*
X57747286Y-154079379D02*
X57556810Y-154079379D01*
X57461572Y-154031760D01*
X57413953Y-153984141D01*
X57318715Y-153841284D01*
X57271096Y-153650808D01*
X57271096Y-153269856D01*
X57318715Y-153174618D01*
X57366334Y-153126999D01*
X57461572Y-153079379D01*
X57652048Y-153079379D01*
X57747286Y-153126999D01*
X57794905Y-153174618D01*
X57842524Y-153269856D01*
X57842524Y-153507951D01*
X57794905Y-153603189D01*
X57747286Y-153650808D01*
X57652048Y-153698427D01*
X57461572Y-153698427D01*
X57366334Y-153650808D01*
X57318715Y-153603189D01*
X57271096Y-153507951D01*
X54625858Y-149529379D02*
X54959191Y-149053189D01*
X55197286Y-149529379D02*
X55197286Y-148529379D01*
X54816334Y-148529379D01*
X54721096Y-148576999D01*
X54673477Y-148624618D01*
X54625858Y-148719856D01*
X54625858Y-148862713D01*
X54673477Y-148957951D01*
X54721096Y-149005570D01*
X54816334Y-149053189D01*
X55197286Y-149053189D01*
X53721096Y-148529379D02*
X54197286Y-148529379D01*
X54244905Y-149005570D01*
X54197286Y-148957951D01*
X54102048Y-148910332D01*
X53863953Y-148910332D01*
X53768715Y-148957951D01*
X53721096Y-149005570D01*
X53673477Y-149100808D01*
X53673477Y-149338903D01*
X53721096Y-149434141D01*
X53768715Y-149481760D01*
X53863953Y-149529379D01*
X54102048Y-149529379D01*
X54197286Y-149481760D01*
X54244905Y-149434141D01*
X53054429Y-148529379D02*
X52959191Y-148529379D01*
X52863953Y-148576999D01*
X52816334Y-148624618D01*
X52768715Y-148719856D01*
X52721096Y-148910332D01*
X52721096Y-149148427D01*
X52768715Y-149338903D01*
X52816334Y-149434141D01*
X52863953Y-149481760D01*
X52959191Y-149529379D01*
X53054429Y-149529379D01*
X53149667Y-149481760D01*
X53197286Y-149434141D01*
X53244905Y-149338903D01*
X53292524Y-149148427D01*
X53292524Y-148910332D01*
X53244905Y-148719856D01*
X53197286Y-148624618D01*
X53149667Y-148576999D01*
X53054429Y-148529379D01*
X59175858Y-151569379D02*
X59509191Y-151093189D01*
X59747286Y-151569379D02*
X59747286Y-150569379D01*
X59366334Y-150569379D01*
X59271096Y-150616999D01*
X59223477Y-150664618D01*
X59175858Y-150759856D01*
X59175858Y-150902713D01*
X59223477Y-150997951D01*
X59271096Y-151045570D01*
X59366334Y-151093189D01*
X59747286Y-151093189D01*
X58271096Y-150569379D02*
X58747286Y-150569379D01*
X58794905Y-151045570D01*
X58747286Y-150997951D01*
X58652048Y-150950332D01*
X58413953Y-150950332D01*
X58318715Y-150997951D01*
X58271096Y-151045570D01*
X58223477Y-151140808D01*
X58223477Y-151378903D01*
X58271096Y-151474141D01*
X58318715Y-151521760D01*
X58413953Y-151569379D01*
X58652048Y-151569379D01*
X58747286Y-151521760D01*
X58794905Y-151474141D01*
X57271096Y-151569379D02*
X57842524Y-151569379D01*
X57556810Y-151569379D02*
X57556810Y-150569379D01*
X57652048Y-150712237D01*
X57747286Y-150807475D01*
X57842524Y-150855094D01*
X63185858Y-154079379D02*
X63519191Y-153603189D01*
X63757286Y-154079379D02*
X63757286Y-153079379D01*
X63376334Y-153079379D01*
X63281096Y-153126999D01*
X63233477Y-153174618D01*
X63185858Y-153269856D01*
X63185858Y-153412713D01*
X63233477Y-153507951D01*
X63281096Y-153555570D01*
X63376334Y-153603189D01*
X63757286Y-153603189D01*
X62281096Y-153079379D02*
X62757286Y-153079379D01*
X62804905Y-153555570D01*
X62757286Y-153507951D01*
X62662048Y-153460332D01*
X62423953Y-153460332D01*
X62328715Y-153507951D01*
X62281096Y-153555570D01*
X62233477Y-153650808D01*
X62233477Y-153888903D01*
X62281096Y-153984141D01*
X62328715Y-154031760D01*
X62423953Y-154079379D01*
X62662048Y-154079379D01*
X62757286Y-154031760D01*
X62804905Y-153984141D01*
X61852524Y-153174618D02*
X61804905Y-153126999D01*
X61709667Y-153079379D01*
X61471572Y-153079379D01*
X61376334Y-153126999D01*
X61328715Y-153174618D01*
X61281096Y-153269856D01*
X61281096Y-153365094D01*
X61328715Y-153507951D01*
X61900143Y-154079379D01*
X61281096Y-154079379D01*
X68275858Y-160669379D02*
X68609191Y-160193189D01*
X68847286Y-160669379D02*
X68847286Y-159669379D01*
X68466334Y-159669379D01*
X68371096Y-159716999D01*
X68323477Y-159764618D01*
X68275858Y-159859856D01*
X68275858Y-160002713D01*
X68323477Y-160097951D01*
X68371096Y-160145570D01*
X68466334Y-160193189D01*
X68847286Y-160193189D01*
X67371096Y-159669379D02*
X67847286Y-159669379D01*
X67894905Y-160145570D01*
X67847286Y-160097951D01*
X67752048Y-160050332D01*
X67513953Y-160050332D01*
X67418715Y-160097951D01*
X67371096Y-160145570D01*
X67323477Y-160240808D01*
X67323477Y-160478903D01*
X67371096Y-160574141D01*
X67418715Y-160621760D01*
X67513953Y-160669379D01*
X67752048Y-160669379D01*
X67847286Y-160621760D01*
X67894905Y-160574141D01*
X66990143Y-159669379D02*
X66371096Y-159669379D01*
X66704429Y-160050332D01*
X66561572Y-160050332D01*
X66466334Y-160097951D01*
X66418715Y-160145570D01*
X66371096Y-160240808D01*
X66371096Y-160478903D01*
X66418715Y-160574141D01*
X66466334Y-160621760D01*
X66561572Y-160669379D01*
X66847286Y-160669379D01*
X66942524Y-160621760D01*
X66990143Y-160574141D01*
X72285858Y-163179379D02*
X72619191Y-162703189D01*
X72857286Y-163179379D02*
X72857286Y-162179379D01*
X72476334Y-162179379D01*
X72381096Y-162226999D01*
X72333477Y-162274618D01*
X72285858Y-162369856D01*
X72285858Y-162512713D01*
X72333477Y-162607951D01*
X72381096Y-162655570D01*
X72476334Y-162703189D01*
X72857286Y-162703189D01*
X71381096Y-162179379D02*
X71857286Y-162179379D01*
X71904905Y-162655570D01*
X71857286Y-162607951D01*
X71762048Y-162560332D01*
X71523953Y-162560332D01*
X71428715Y-162607951D01*
X71381096Y-162655570D01*
X71333477Y-162750808D01*
X71333477Y-162988903D01*
X71381096Y-163084141D01*
X71428715Y-163131760D01*
X71523953Y-163179379D01*
X71762048Y-163179379D01*
X71857286Y-163131760D01*
X71904905Y-163084141D01*
X70476334Y-162512713D02*
X70476334Y-163179379D01*
X70714429Y-162131760D02*
X70952524Y-162846046D01*
X70333477Y-162846046D01*
X68275858Y-163179379D02*
X68609191Y-162703189D01*
X68847286Y-163179379D02*
X68847286Y-162179379D01*
X68466334Y-162179379D01*
X68371096Y-162226999D01*
X68323477Y-162274618D01*
X68275858Y-162369856D01*
X68275858Y-162512713D01*
X68323477Y-162607951D01*
X68371096Y-162655570D01*
X68466334Y-162703189D01*
X68847286Y-162703189D01*
X67371096Y-162179379D02*
X67847286Y-162179379D01*
X67894905Y-162655570D01*
X67847286Y-162607951D01*
X67752048Y-162560332D01*
X67513953Y-162560332D01*
X67418715Y-162607951D01*
X67371096Y-162655570D01*
X67323477Y-162750808D01*
X67323477Y-162988903D01*
X67371096Y-163084141D01*
X67418715Y-163131760D01*
X67513953Y-163179379D01*
X67752048Y-163179379D01*
X67847286Y-163131760D01*
X67894905Y-163084141D01*
X66418715Y-162179379D02*
X66894905Y-162179379D01*
X66942524Y-162655570D01*
X66894905Y-162607951D01*
X66799667Y-162560332D01*
X66561572Y-162560332D01*
X66466334Y-162607951D01*
X66418715Y-162655570D01*
X66371096Y-162750808D01*
X66371096Y-162988903D01*
X66418715Y-163084141D01*
X66466334Y-163131760D01*
X66561572Y-163179379D01*
X66799667Y-163179379D01*
X66894905Y-163131760D01*
X66942524Y-163084141D01*
X63725858Y-158629379D02*
X64059191Y-158153189D01*
X64297286Y-158629379D02*
X64297286Y-157629379D01*
X63916334Y-157629379D01*
X63821096Y-157676999D01*
X63773477Y-157724618D01*
X63725858Y-157819856D01*
X63725858Y-157962713D01*
X63773477Y-158057951D01*
X63821096Y-158105570D01*
X63916334Y-158153189D01*
X64297286Y-158153189D01*
X62821096Y-157629379D02*
X63297286Y-157629379D01*
X63344905Y-158105570D01*
X63297286Y-158057951D01*
X63202048Y-158010332D01*
X62963953Y-158010332D01*
X62868715Y-158057951D01*
X62821096Y-158105570D01*
X62773477Y-158200808D01*
X62773477Y-158438903D01*
X62821096Y-158534141D01*
X62868715Y-158581760D01*
X62963953Y-158629379D01*
X63202048Y-158629379D01*
X63297286Y-158581760D01*
X63344905Y-158534141D01*
X61916334Y-157629379D02*
X62106810Y-157629379D01*
X62202048Y-157676999D01*
X62249667Y-157724618D01*
X62344905Y-157867475D01*
X62392524Y-158057951D01*
X62392524Y-158438903D01*
X62344905Y-158534141D01*
X62297286Y-158581760D01*
X62202048Y-158629379D01*
X62011572Y-158629379D01*
X61916334Y-158581760D01*
X61868715Y-158534141D01*
X61821096Y-158438903D01*
X61821096Y-158200808D01*
X61868715Y-158105570D01*
X61916334Y-158057951D01*
X62011572Y-158010332D01*
X62202048Y-158010332D01*
X62297286Y-158057951D01*
X62344905Y-158105570D01*
X62392524Y-158200808D01*
X71205858Y-153139379D02*
X71539191Y-152663189D01*
X71777286Y-153139379D02*
X71777286Y-152139379D01*
X71396334Y-152139379D01*
X71301096Y-152186999D01*
X71253477Y-152234618D01*
X71205858Y-152329856D01*
X71205858Y-152472713D01*
X71253477Y-152567951D01*
X71301096Y-152615570D01*
X71396334Y-152663189D01*
X71777286Y-152663189D01*
X70301096Y-152139379D02*
X70777286Y-152139379D01*
X70824905Y-152615570D01*
X70777286Y-152567951D01*
X70682048Y-152520332D01*
X70443953Y-152520332D01*
X70348715Y-152567951D01*
X70301096Y-152615570D01*
X70253477Y-152710808D01*
X70253477Y-152948903D01*
X70301096Y-153044141D01*
X70348715Y-153091760D01*
X70443953Y-153139379D01*
X70682048Y-153139379D01*
X70777286Y-153091760D01*
X70824905Y-153044141D01*
X69920143Y-152139379D02*
X69253477Y-152139379D01*
X69682048Y-153139379D01*
X94648357Y-128374380D02*
X94981690Y-127898190D01*
X95219785Y-128374380D02*
X95219785Y-127374380D01*
X94838833Y-127374380D01*
X94743595Y-127422000D01*
X94695976Y-127469619D01*
X94648357Y-127564857D01*
X94648357Y-127707714D01*
X94695976Y-127802952D01*
X94743595Y-127850571D01*
X94838833Y-127898190D01*
X95219785Y-127898190D01*
X93743595Y-127374380D02*
X94219785Y-127374380D01*
X94267404Y-127850571D01*
X94219785Y-127802952D01*
X94124547Y-127755333D01*
X93886452Y-127755333D01*
X93791214Y-127802952D01*
X93743595Y-127850571D01*
X93695976Y-127945809D01*
X93695976Y-128183904D01*
X93743595Y-128279142D01*
X93791214Y-128326761D01*
X93886452Y-128374380D01*
X94124547Y-128374380D01*
X94219785Y-128326761D01*
X94267404Y-128279142D01*
X93124547Y-127802952D02*
X93219785Y-127755333D01*
X93267404Y-127707714D01*
X93315023Y-127612476D01*
X93315023Y-127564857D01*
X93267404Y-127469619D01*
X93219785Y-127422000D01*
X93124547Y-127374380D01*
X92934071Y-127374380D01*
X92838833Y-127422000D01*
X92791214Y-127469619D01*
X92743595Y-127564857D01*
X92743595Y-127612476D01*
X92791214Y-127707714D01*
X92838833Y-127755333D01*
X92934071Y-127802952D01*
X93124547Y-127802952D01*
X93219785Y-127850571D01*
X93267404Y-127898190D01*
X93315023Y-127993428D01*
X93315023Y-128183904D01*
X93267404Y-128279142D01*
X93219785Y-128326761D01*
X93124547Y-128374380D01*
X92934071Y-128374380D01*
X92838833Y-128326761D01*
X92791214Y-128279142D01*
X92743595Y-128183904D01*
X92743595Y-127993428D01*
X92791214Y-127898190D01*
X92838833Y-127850571D01*
X92934071Y-127802952D01*
X99363858Y-135493379D02*
X99697191Y-135017189D01*
X99935286Y-135493379D02*
X99935286Y-134493379D01*
X99554334Y-134493379D01*
X99459096Y-134540999D01*
X99411477Y-134588618D01*
X99363858Y-134683856D01*
X99363858Y-134826713D01*
X99411477Y-134921951D01*
X99459096Y-134969570D01*
X99554334Y-135017189D01*
X99935286Y-135017189D01*
X98459096Y-134493379D02*
X98935286Y-134493379D01*
X98982905Y-134969570D01*
X98935286Y-134921951D01*
X98840048Y-134874332D01*
X98601953Y-134874332D01*
X98506715Y-134921951D01*
X98459096Y-134969570D01*
X98411477Y-135064808D01*
X98411477Y-135302903D01*
X98459096Y-135398141D01*
X98506715Y-135445760D01*
X98601953Y-135493379D01*
X98840048Y-135493379D01*
X98935286Y-135445760D01*
X98982905Y-135398141D01*
X97935286Y-135493379D02*
X97744810Y-135493379D01*
X97649572Y-135445760D01*
X97601953Y-135398141D01*
X97506715Y-135255284D01*
X97459096Y-135064808D01*
X97459096Y-134683856D01*
X97506715Y-134588618D01*
X97554334Y-134540999D01*
X97649572Y-134493379D01*
X97840048Y-134493379D01*
X97935286Y-134540999D01*
X97982905Y-134588618D01*
X98030524Y-134683856D01*
X98030524Y-134921951D01*
X97982905Y-135017189D01*
X97935286Y-135064808D01*
X97840048Y-135112427D01*
X97649572Y-135112427D01*
X97554334Y-135064808D01*
X97506715Y-135017189D01*
X97459096Y-134921951D01*
X94622857Y-124310380D02*
X94956190Y-123834190D01*
X95194285Y-124310380D02*
X95194285Y-123310380D01*
X94813333Y-123310380D01*
X94718095Y-123358000D01*
X94670476Y-123405619D01*
X94622857Y-123500857D01*
X94622857Y-123643714D01*
X94670476Y-123738952D01*
X94718095Y-123786571D01*
X94813333Y-123834190D01*
X95194285Y-123834190D01*
X93765714Y-123310380D02*
X93956190Y-123310380D01*
X94051428Y-123358000D01*
X94099047Y-123405619D01*
X94194285Y-123548476D01*
X94241904Y-123738952D01*
X94241904Y-124119904D01*
X94194285Y-124215142D01*
X94146666Y-124262761D01*
X94051428Y-124310380D01*
X93860952Y-124310380D01*
X93765714Y-124262761D01*
X93718095Y-124215142D01*
X93670476Y-124119904D01*
X93670476Y-123881809D01*
X93718095Y-123786571D01*
X93765714Y-123738952D01*
X93860952Y-123691333D01*
X94051428Y-123691333D01*
X94146666Y-123738952D01*
X94194285Y-123786571D01*
X94241904Y-123881809D01*
X93051428Y-123310380D02*
X92956190Y-123310380D01*
X92860952Y-123358000D01*
X92813333Y-123405619D01*
X92765714Y-123500857D01*
X92718095Y-123691333D01*
X92718095Y-123929428D01*
X92765714Y-124119904D01*
X92813333Y-124215142D01*
X92860952Y-124262761D01*
X92956190Y-124310380D01*
X93051428Y-124310380D01*
X93146666Y-124262761D01*
X93194285Y-124215142D01*
X93241904Y-124119904D01*
X93289523Y-123929428D01*
X93289523Y-123691333D01*
X93241904Y-123500857D01*
X93194285Y-123405619D01*
X93146666Y-123358000D01*
X93051428Y-123310380D01*
X103913858Y-138003379D02*
X104247191Y-137527189D01*
X104485286Y-138003379D02*
X104485286Y-137003379D01*
X104104334Y-137003379D01*
X104009096Y-137050999D01*
X103961477Y-137098618D01*
X103913858Y-137193856D01*
X103913858Y-137336713D01*
X103961477Y-137431951D01*
X104009096Y-137479570D01*
X104104334Y-137527189D01*
X104485286Y-137527189D01*
X103056715Y-137003379D02*
X103247191Y-137003379D01*
X103342429Y-137050999D01*
X103390048Y-137098618D01*
X103485286Y-137241475D01*
X103532905Y-137431951D01*
X103532905Y-137812903D01*
X103485286Y-137908141D01*
X103437667Y-137955760D01*
X103342429Y-138003379D01*
X103151953Y-138003379D01*
X103056715Y-137955760D01*
X103009096Y-137908141D01*
X102961477Y-137812903D01*
X102961477Y-137574808D01*
X103009096Y-137479570D01*
X103056715Y-137431951D01*
X103151953Y-137384332D01*
X103342429Y-137384332D01*
X103437667Y-137431951D01*
X103485286Y-137479570D01*
X103532905Y-137574808D01*
X102009096Y-138003379D02*
X102580524Y-138003379D01*
X102294810Y-138003379D02*
X102294810Y-137003379D01*
X102390048Y-137146237D01*
X102485286Y-137241475D01*
X102580524Y-137289094D01*
X94622857Y-122532380D02*
X94956190Y-122056190D01*
X95194285Y-122532380D02*
X95194285Y-121532380D01*
X94813333Y-121532380D01*
X94718095Y-121580000D01*
X94670476Y-121627619D01*
X94622857Y-121722857D01*
X94622857Y-121865714D01*
X94670476Y-121960952D01*
X94718095Y-122008571D01*
X94813333Y-122056190D01*
X95194285Y-122056190D01*
X93765714Y-121532380D02*
X93956190Y-121532380D01*
X94051428Y-121580000D01*
X94099047Y-121627619D01*
X94194285Y-121770476D01*
X94241904Y-121960952D01*
X94241904Y-122341904D01*
X94194285Y-122437142D01*
X94146666Y-122484761D01*
X94051428Y-122532380D01*
X93860952Y-122532380D01*
X93765714Y-122484761D01*
X93718095Y-122437142D01*
X93670476Y-122341904D01*
X93670476Y-122103809D01*
X93718095Y-122008571D01*
X93765714Y-121960952D01*
X93860952Y-121913333D01*
X94051428Y-121913333D01*
X94146666Y-121960952D01*
X94194285Y-122008571D01*
X94241904Y-122103809D01*
X93289523Y-121627619D02*
X93241904Y-121580000D01*
X93146666Y-121532380D01*
X92908571Y-121532380D01*
X92813333Y-121580000D01*
X92765714Y-121627619D01*
X92718095Y-121722857D01*
X92718095Y-121818095D01*
X92765714Y-121960952D01*
X93337142Y-122532380D01*
X92718095Y-122532380D01*
X103373858Y-135493379D02*
X103707191Y-135017189D01*
X103945286Y-135493379D02*
X103945286Y-134493379D01*
X103564334Y-134493379D01*
X103469096Y-134540999D01*
X103421477Y-134588618D01*
X103373858Y-134683856D01*
X103373858Y-134826713D01*
X103421477Y-134921951D01*
X103469096Y-134969570D01*
X103564334Y-135017189D01*
X103945286Y-135017189D01*
X102516715Y-134493379D02*
X102707191Y-134493379D01*
X102802429Y-134540999D01*
X102850048Y-134588618D01*
X102945286Y-134731475D01*
X102992905Y-134921951D01*
X102992905Y-135302903D01*
X102945286Y-135398141D01*
X102897667Y-135445760D01*
X102802429Y-135493379D01*
X102611953Y-135493379D01*
X102516715Y-135445760D01*
X102469096Y-135398141D01*
X102421477Y-135302903D01*
X102421477Y-135064808D01*
X102469096Y-134969570D01*
X102516715Y-134921951D01*
X102611953Y-134874332D01*
X102802429Y-134874332D01*
X102897667Y-134921951D01*
X102945286Y-134969570D01*
X102992905Y-135064808D01*
X102088143Y-134493379D02*
X101469096Y-134493379D01*
X101802429Y-134874332D01*
X101659572Y-134874332D01*
X101564334Y-134921951D01*
X101516715Y-134969570D01*
X101469096Y-135064808D01*
X101469096Y-135302903D01*
X101516715Y-135398141D01*
X101564334Y-135445760D01*
X101659572Y-135493379D01*
X101945286Y-135493379D01*
X102040524Y-135445760D01*
X102088143Y-135398141D01*
X64391858Y-130987379D02*
X64725191Y-130511189D01*
X64963286Y-130987379D02*
X64963286Y-129987379D01*
X64582334Y-129987379D01*
X64487096Y-130034999D01*
X64439477Y-130082618D01*
X64391858Y-130177856D01*
X64391858Y-130320713D01*
X64439477Y-130415951D01*
X64487096Y-130463570D01*
X64582334Y-130511189D01*
X64963286Y-130511189D01*
X63534715Y-129987379D02*
X63725191Y-129987379D01*
X63820429Y-130034999D01*
X63868048Y-130082618D01*
X63963286Y-130225475D01*
X64010905Y-130415951D01*
X64010905Y-130796903D01*
X63963286Y-130892141D01*
X63915667Y-130939760D01*
X63820429Y-130987379D01*
X63629953Y-130987379D01*
X63534715Y-130939760D01*
X63487096Y-130892141D01*
X63439477Y-130796903D01*
X63439477Y-130558808D01*
X63487096Y-130463570D01*
X63534715Y-130415951D01*
X63629953Y-130368332D01*
X63820429Y-130368332D01*
X63915667Y-130415951D01*
X63963286Y-130463570D01*
X64010905Y-130558808D01*
X62582334Y-130320713D02*
X62582334Y-130987379D01*
X62820429Y-129939760D02*
X63058524Y-130654046D01*
X62439477Y-130654046D01*
X56241858Y-121417379D02*
X56575191Y-120941189D01*
X56813286Y-121417379D02*
X56813286Y-120417379D01*
X56432334Y-120417379D01*
X56337096Y-120464999D01*
X56289477Y-120512618D01*
X56241858Y-120607856D01*
X56241858Y-120750713D01*
X56289477Y-120845951D01*
X56337096Y-120893570D01*
X56432334Y-120941189D01*
X56813286Y-120941189D01*
X55384715Y-120417379D02*
X55575191Y-120417379D01*
X55670429Y-120464999D01*
X55718048Y-120512618D01*
X55813286Y-120655475D01*
X55860905Y-120845951D01*
X55860905Y-121226903D01*
X55813286Y-121322141D01*
X55765667Y-121369760D01*
X55670429Y-121417379D01*
X55479953Y-121417379D01*
X55384715Y-121369760D01*
X55337096Y-121322141D01*
X55289477Y-121226903D01*
X55289477Y-120988808D01*
X55337096Y-120893570D01*
X55384715Y-120845951D01*
X55479953Y-120798332D01*
X55670429Y-120798332D01*
X55765667Y-120845951D01*
X55813286Y-120893570D01*
X55860905Y-120988808D01*
X54384715Y-120417379D02*
X54860905Y-120417379D01*
X54908524Y-120893570D01*
X54860905Y-120845951D01*
X54765667Y-120798332D01*
X54527572Y-120798332D01*
X54432334Y-120845951D01*
X54384715Y-120893570D01*
X54337096Y-120988808D01*
X54337096Y-121226903D01*
X54384715Y-121322141D01*
X54432334Y-121369760D01*
X54527572Y-121417379D01*
X54765667Y-121417379D01*
X54860905Y-121369760D01*
X54908524Y-121322141D01*
X60251858Y-126437379D02*
X60585191Y-125961189D01*
X60823286Y-126437379D02*
X60823286Y-125437379D01*
X60442334Y-125437379D01*
X60347096Y-125484999D01*
X60299477Y-125532618D01*
X60251858Y-125627856D01*
X60251858Y-125770713D01*
X60299477Y-125865951D01*
X60347096Y-125913570D01*
X60442334Y-125961189D01*
X60823286Y-125961189D01*
X59394715Y-125437379D02*
X59585191Y-125437379D01*
X59680429Y-125484999D01*
X59728048Y-125532618D01*
X59823286Y-125675475D01*
X59870905Y-125865951D01*
X59870905Y-126246903D01*
X59823286Y-126342141D01*
X59775667Y-126389760D01*
X59680429Y-126437379D01*
X59489953Y-126437379D01*
X59394715Y-126389760D01*
X59347096Y-126342141D01*
X59299477Y-126246903D01*
X59299477Y-126008808D01*
X59347096Y-125913570D01*
X59394715Y-125865951D01*
X59489953Y-125818332D01*
X59680429Y-125818332D01*
X59775667Y-125865951D01*
X59823286Y-125913570D01*
X59870905Y-126008808D01*
X58442334Y-125437379D02*
X58632810Y-125437379D01*
X58728048Y-125484999D01*
X58775667Y-125532618D01*
X58870905Y-125675475D01*
X58918524Y-125865951D01*
X58918524Y-126246903D01*
X58870905Y-126342141D01*
X58823286Y-126389760D01*
X58728048Y-126437379D01*
X58537572Y-126437379D01*
X58442334Y-126389760D01*
X58394715Y-126342141D01*
X58347096Y-126246903D01*
X58347096Y-126008808D01*
X58394715Y-125913570D01*
X58442334Y-125865951D01*
X58537572Y-125818332D01*
X58728048Y-125818332D01*
X58823286Y-125865951D01*
X58870905Y-125913570D01*
X58918524Y-126008808D01*
X76603858Y-109995379D02*
X76937191Y-109519189D01*
X77175286Y-109995379D02*
X77175286Y-108995379D01*
X76794334Y-108995379D01*
X76699096Y-109042999D01*
X76651477Y-109090618D01*
X76603858Y-109185856D01*
X76603858Y-109328713D01*
X76651477Y-109423951D01*
X76699096Y-109471570D01*
X76794334Y-109519189D01*
X77175286Y-109519189D01*
X75746715Y-108995379D02*
X75937191Y-108995379D01*
X76032429Y-109042999D01*
X76080048Y-109090618D01*
X76175286Y-109233475D01*
X76222905Y-109423951D01*
X76222905Y-109804903D01*
X76175286Y-109900141D01*
X76127667Y-109947760D01*
X76032429Y-109995379D01*
X75841953Y-109995379D01*
X75746715Y-109947760D01*
X75699096Y-109900141D01*
X75651477Y-109804903D01*
X75651477Y-109566808D01*
X75699096Y-109471570D01*
X75746715Y-109423951D01*
X75841953Y-109376332D01*
X76032429Y-109376332D01*
X76127667Y-109423951D01*
X76175286Y-109471570D01*
X76222905Y-109566808D01*
X75318143Y-108995379D02*
X74651477Y-108995379D01*
X75080048Y-109995379D01*
X76603858Y-112505379D02*
X76937191Y-112029189D01*
X77175286Y-112505379D02*
X77175286Y-111505379D01*
X76794334Y-111505379D01*
X76699096Y-111552999D01*
X76651477Y-111600618D01*
X76603858Y-111695856D01*
X76603858Y-111838713D01*
X76651477Y-111933951D01*
X76699096Y-111981570D01*
X76794334Y-112029189D01*
X77175286Y-112029189D01*
X75746715Y-111505379D02*
X75937191Y-111505379D01*
X76032429Y-111552999D01*
X76080048Y-111600618D01*
X76175286Y-111743475D01*
X76222905Y-111933951D01*
X76222905Y-112314903D01*
X76175286Y-112410141D01*
X76127667Y-112457760D01*
X76032429Y-112505379D01*
X75841953Y-112505379D01*
X75746715Y-112457760D01*
X75699096Y-112410141D01*
X75651477Y-112314903D01*
X75651477Y-112076808D01*
X75699096Y-111981570D01*
X75746715Y-111933951D01*
X75841953Y-111886332D01*
X76032429Y-111886332D01*
X76127667Y-111933951D01*
X76175286Y-111981570D01*
X76222905Y-112076808D01*
X75080048Y-111933951D02*
X75175286Y-111886332D01*
X75222905Y-111838713D01*
X75270524Y-111743475D01*
X75270524Y-111695856D01*
X75222905Y-111600618D01*
X75175286Y-111552999D01*
X75080048Y-111505379D01*
X74889572Y-111505379D01*
X74794334Y-111552999D01*
X74746715Y-111600618D01*
X74699096Y-111695856D01*
X74699096Y-111743475D01*
X74746715Y-111838713D01*
X74794334Y-111886332D01*
X74889572Y-111933951D01*
X75080048Y-111933951D01*
X75175286Y-111981570D01*
X75222905Y-112029189D01*
X75270524Y-112124427D01*
X75270524Y-112314903D01*
X75222905Y-112410141D01*
X75175286Y-112457760D01*
X75080048Y-112505379D01*
X74889572Y-112505379D01*
X74794334Y-112457760D01*
X74746715Y-112410141D01*
X74699096Y-112314903D01*
X74699096Y-112124427D01*
X74746715Y-112029189D01*
X74794334Y-111981570D01*
X74889572Y-111933951D01*
X55655858Y-160363379D02*
X55989191Y-159887189D01*
X56227286Y-160363379D02*
X56227286Y-159363379D01*
X55846334Y-159363379D01*
X55751096Y-159410999D01*
X55703477Y-159458618D01*
X55655858Y-159553856D01*
X55655858Y-159696713D01*
X55703477Y-159791951D01*
X55751096Y-159839570D01*
X55846334Y-159887189D01*
X56227286Y-159887189D01*
X54798715Y-159363379D02*
X54989191Y-159363379D01*
X55084429Y-159410999D01*
X55132048Y-159458618D01*
X55227286Y-159601475D01*
X55274905Y-159791951D01*
X55274905Y-160172903D01*
X55227286Y-160268141D01*
X55179667Y-160315760D01*
X55084429Y-160363379D01*
X54893953Y-160363379D01*
X54798715Y-160315760D01*
X54751096Y-160268141D01*
X54703477Y-160172903D01*
X54703477Y-159934808D01*
X54751096Y-159839570D01*
X54798715Y-159791951D01*
X54893953Y-159744332D01*
X55084429Y-159744332D01*
X55179667Y-159791951D01*
X55227286Y-159839570D01*
X55274905Y-159934808D01*
X54227286Y-160363379D02*
X54036810Y-160363379D01*
X53941572Y-160315760D01*
X53893953Y-160268141D01*
X53798715Y-160125284D01*
X53751096Y-159934808D01*
X53751096Y-159553856D01*
X53798715Y-159458618D01*
X53846334Y-159410999D01*
X53941572Y-159363379D01*
X54132048Y-159363379D01*
X54227286Y-159410999D01*
X54274905Y-159458618D01*
X54322524Y-159553856D01*
X54322524Y-159791951D01*
X54274905Y-159887189D01*
X54227286Y-159934808D01*
X54132048Y-159982427D01*
X53941572Y-159982427D01*
X53846334Y-159934808D01*
X53798715Y-159887189D01*
X53751096Y-159791951D01*
X88019858Y-159197379D02*
X88353191Y-158721189D01*
X88591286Y-159197379D02*
X88591286Y-158197379D01*
X88210334Y-158197379D01*
X88115096Y-158244999D01*
X88067477Y-158292618D01*
X88019858Y-158387856D01*
X88019858Y-158530713D01*
X88067477Y-158625951D01*
X88115096Y-158673570D01*
X88210334Y-158721189D01*
X88591286Y-158721189D01*
X87686524Y-158197379D02*
X87019858Y-158197379D01*
X87448429Y-159197379D01*
X86448429Y-158197379D02*
X86353191Y-158197379D01*
X86257953Y-158244999D01*
X86210334Y-158292618D01*
X86162715Y-158387856D01*
X86115096Y-158578332D01*
X86115096Y-158816427D01*
X86162715Y-159006903D01*
X86210334Y-159102141D01*
X86257953Y-159149760D01*
X86353191Y-159197379D01*
X86448429Y-159197379D01*
X86543667Y-159149760D01*
X86591286Y-159102141D01*
X86638905Y-159006903D01*
X86686524Y-158816427D01*
X86686524Y-158578332D01*
X86638905Y-158387856D01*
X86591286Y-158292618D01*
X86543667Y-158244999D01*
X86448429Y-158197379D01*
X80879858Y-152787379D02*
X81213191Y-152311189D01*
X81451286Y-152787379D02*
X81451286Y-151787379D01*
X81070334Y-151787379D01*
X80975096Y-151834999D01*
X80927477Y-151882618D01*
X80879858Y-151977856D01*
X80879858Y-152120713D01*
X80927477Y-152215951D01*
X80975096Y-152263570D01*
X81070334Y-152311189D01*
X81451286Y-152311189D01*
X80546524Y-151787379D02*
X79879858Y-151787379D01*
X80308429Y-152787379D01*
X78975096Y-152787379D02*
X79546524Y-152787379D01*
X79260810Y-152787379D02*
X79260810Y-151787379D01*
X79356048Y-151930237D01*
X79451286Y-152025475D01*
X79546524Y-152073094D01*
X76869858Y-148237379D02*
X77203191Y-147761189D01*
X77441286Y-148237379D02*
X77441286Y-147237379D01*
X77060334Y-147237379D01*
X76965096Y-147284999D01*
X76917477Y-147332618D01*
X76869858Y-147427856D01*
X76869858Y-147570713D01*
X76917477Y-147665951D01*
X76965096Y-147713570D01*
X77060334Y-147761189D01*
X77441286Y-147761189D01*
X76536524Y-147237379D02*
X75869858Y-147237379D01*
X76298429Y-148237379D01*
X75584143Y-147237379D02*
X74965096Y-147237379D01*
X75298429Y-147618332D01*
X75155572Y-147618332D01*
X75060334Y-147665951D01*
X75012715Y-147713570D01*
X74965096Y-147808808D01*
X74965096Y-148046903D01*
X75012715Y-148142141D01*
X75060334Y-148189760D01*
X75155572Y-148237379D01*
X75441286Y-148237379D01*
X75536524Y-148189760D01*
X75584143Y-148142141D01*
X84009858Y-155907379D02*
X84343191Y-155431189D01*
X84581286Y-155907379D02*
X84581286Y-154907379D01*
X84200334Y-154907379D01*
X84105096Y-154954999D01*
X84057477Y-155002618D01*
X84009858Y-155097856D01*
X84009858Y-155240713D01*
X84057477Y-155335951D01*
X84105096Y-155383570D01*
X84200334Y-155431189D01*
X84581286Y-155431189D01*
X83676524Y-154907379D02*
X83009858Y-154907379D01*
X83438429Y-155907379D01*
X82200334Y-155240713D02*
X82200334Y-155907379D01*
X82438429Y-154859760D02*
X82676524Y-155574046D01*
X82057477Y-155574046D01*
X88019858Y-161707379D02*
X88353191Y-161231189D01*
X88591286Y-161707379D02*
X88591286Y-160707379D01*
X88210334Y-160707379D01*
X88115096Y-160754999D01*
X88067477Y-160802618D01*
X88019858Y-160897856D01*
X88019858Y-161040713D01*
X88067477Y-161135951D01*
X88115096Y-161183570D01*
X88210334Y-161231189D01*
X88591286Y-161231189D01*
X87686524Y-160707379D02*
X87019858Y-160707379D01*
X87448429Y-161707379D01*
X86162715Y-160707379D02*
X86638905Y-160707379D01*
X86686524Y-161183570D01*
X86638905Y-161135951D01*
X86543667Y-161088332D01*
X86305572Y-161088332D01*
X86210334Y-161135951D01*
X86162715Y-161183570D01*
X86115096Y-161278808D01*
X86115096Y-161516903D01*
X86162715Y-161612141D01*
X86210334Y-161659760D01*
X86305572Y-161707379D01*
X86543667Y-161707379D01*
X86638905Y-161659760D01*
X86686524Y-161612141D01*
X84009858Y-158417379D02*
X84343191Y-157941189D01*
X84581286Y-158417379D02*
X84581286Y-157417379D01*
X84200334Y-157417379D01*
X84105096Y-157464999D01*
X84057477Y-157512618D01*
X84009858Y-157607856D01*
X84009858Y-157750713D01*
X84057477Y-157845951D01*
X84105096Y-157893570D01*
X84200334Y-157941189D01*
X84581286Y-157941189D01*
X83676524Y-157417379D02*
X83009858Y-157417379D01*
X83438429Y-158417379D01*
X82200334Y-157417379D02*
X82390810Y-157417379D01*
X82486048Y-157464999D01*
X82533667Y-157512618D01*
X82628905Y-157655475D01*
X82676524Y-157845951D01*
X82676524Y-158226903D01*
X82628905Y-158322141D01*
X82581286Y-158369760D01*
X82486048Y-158417379D01*
X82295572Y-158417379D01*
X82200334Y-158369760D01*
X82152715Y-158322141D01*
X82105096Y-158226903D01*
X82105096Y-157988808D01*
X82152715Y-157893570D01*
X82200334Y-157845951D01*
X82295572Y-157798332D01*
X82486048Y-157798332D01*
X82581286Y-157845951D01*
X82628905Y-157893570D01*
X82676524Y-157988808D01*
X76869858Y-150747379D02*
X77203191Y-150271189D01*
X77441286Y-150747379D02*
X77441286Y-149747379D01*
X77060334Y-149747379D01*
X76965096Y-149794999D01*
X76917477Y-149842618D01*
X76869858Y-149937856D01*
X76869858Y-150080713D01*
X76917477Y-150175951D01*
X76965096Y-150223570D01*
X77060334Y-150271189D01*
X77441286Y-150271189D01*
X76536524Y-149747379D02*
X75869858Y-149747379D01*
X76298429Y-150747379D01*
X75584143Y-149747379D02*
X74917477Y-149747379D01*
X75346048Y-150747379D01*
X79069858Y-155297379D02*
X79403191Y-154821189D01*
X79641286Y-155297379D02*
X79641286Y-154297379D01*
X79260334Y-154297379D01*
X79165096Y-154344999D01*
X79117477Y-154392618D01*
X79069858Y-154487856D01*
X79069858Y-154630713D01*
X79117477Y-154725951D01*
X79165096Y-154773570D01*
X79260334Y-154821189D01*
X79641286Y-154821189D01*
X78736524Y-154297379D02*
X78069858Y-154297379D01*
X78498429Y-155297379D01*
X77546048Y-154725951D02*
X77641286Y-154678332D01*
X77688905Y-154630713D01*
X77736524Y-154535475D01*
X77736524Y-154487856D01*
X77688905Y-154392618D01*
X77641286Y-154344999D01*
X77546048Y-154297379D01*
X77355572Y-154297379D01*
X77260334Y-154344999D01*
X77212715Y-154392618D01*
X77165096Y-154487856D01*
X77165096Y-154535475D01*
X77212715Y-154630713D01*
X77260334Y-154678332D01*
X77355572Y-154725951D01*
X77546048Y-154725951D01*
X77641286Y-154773570D01*
X77688905Y-154821189D01*
X77736524Y-154916427D01*
X77736524Y-155106903D01*
X77688905Y-155202141D01*
X77641286Y-155249760D01*
X77546048Y-155297379D01*
X77355572Y-155297379D01*
X77260334Y-155249760D01*
X77212715Y-155202141D01*
X77165096Y-155106903D01*
X77165096Y-154916427D01*
X77212715Y-154821189D01*
X77260334Y-154773570D01*
X77355572Y-154725951D01*
X57976904Y-143187380D02*
X57976904Y-143996904D01*
X57929285Y-144092142D01*
X57881666Y-144139761D01*
X57786428Y-144187380D01*
X57595952Y-144187380D01*
X57500714Y-144139761D01*
X57453095Y-144092142D01*
X57405476Y-143996904D01*
X57405476Y-143187380D01*
X56976904Y-143282619D02*
X56929285Y-143235000D01*
X56834047Y-143187380D01*
X56595952Y-143187380D01*
X56500714Y-143235000D01*
X56453095Y-143282619D01*
X56405476Y-143377857D01*
X56405476Y-143473095D01*
X56453095Y-143615952D01*
X57024523Y-144187380D01*
X56405476Y-144187380D01*
X70272905Y-133979379D02*
X70272905Y-134788903D01*
X70225286Y-134884141D01*
X70177667Y-134931760D01*
X70082429Y-134979379D01*
X69891953Y-134979379D01*
X69796715Y-134931760D01*
X69749096Y-134884141D01*
X69701477Y-134788903D01*
X69701477Y-133979379D01*
X68796715Y-133979379D02*
X68987191Y-133979379D01*
X69082429Y-134026999D01*
X69130048Y-134074618D01*
X69225286Y-134217475D01*
X69272905Y-134407951D01*
X69272905Y-134788903D01*
X69225286Y-134884141D01*
X69177667Y-134931760D01*
X69082429Y-134979379D01*
X68891953Y-134979379D01*
X68796715Y-134931760D01*
X68749096Y-134884141D01*
X68701477Y-134788903D01*
X68701477Y-134550808D01*
X68749096Y-134455570D01*
X68796715Y-134407951D01*
X68891953Y-134360332D01*
X69082429Y-134360332D01*
X69177667Y-134407951D01*
X69225286Y-134455570D01*
X69272905Y-134550808D01*
X74922905Y-124169379D02*
X74922905Y-124978903D01*
X74875286Y-125074141D01*
X74827667Y-125121760D01*
X74732429Y-125169379D01*
X74541953Y-125169379D01*
X74446715Y-125121760D01*
X74399096Y-125074141D01*
X74351477Y-124978903D01*
X74351477Y-124169379D01*
X73827667Y-125169379D02*
X73637191Y-125169379D01*
X73541953Y-125121760D01*
X73494334Y-125074141D01*
X73399096Y-124931284D01*
X73351477Y-124740808D01*
X73351477Y-124359856D01*
X73399096Y-124264618D01*
X73446715Y-124216999D01*
X73541953Y-124169379D01*
X73732429Y-124169379D01*
X73827667Y-124216999D01*
X73875286Y-124264618D01*
X73922905Y-124359856D01*
X73922905Y-124597951D01*
X73875286Y-124693189D01*
X73827667Y-124740808D01*
X73732429Y-124788427D01*
X73541953Y-124788427D01*
X73446715Y-124740808D01*
X73399096Y-124693189D01*
X73351477Y-124597951D01*
X70749096Y-144189379D02*
X70749096Y-144998903D01*
X70701477Y-145094141D01*
X70653858Y-145141760D01*
X70558620Y-145189379D01*
X70368143Y-145189379D01*
X70272905Y-145141760D01*
X70225286Y-145094141D01*
X70177667Y-144998903D01*
X70177667Y-144189379D01*
X69177667Y-145189379D02*
X69749096Y-145189379D01*
X69463381Y-145189379D02*
X69463381Y-144189379D01*
X69558620Y-144332237D01*
X69653858Y-144427475D01*
X69749096Y-144475094D01*
X68225286Y-145189379D02*
X68796715Y-145189379D01*
X68511001Y-145189379D02*
X68511001Y-144189379D01*
X68606239Y-144332237D01*
X68701477Y-144427475D01*
X68796715Y-144475094D01*
X99465096Y-118267379D02*
X99465096Y-119076903D01*
X99417477Y-119172141D01*
X99369858Y-119219760D01*
X99274620Y-119267379D01*
X99084143Y-119267379D01*
X98988905Y-119219760D01*
X98941286Y-119172141D01*
X98893667Y-119076903D01*
X98893667Y-118267379D01*
X97893667Y-119267379D02*
X98465096Y-119267379D01*
X98179381Y-119267379D02*
X98179381Y-118267379D01*
X98274620Y-118410237D01*
X98369858Y-118505475D01*
X98465096Y-118553094D01*
X97512715Y-118362618D02*
X97465096Y-118314999D01*
X97369858Y-118267379D01*
X97131762Y-118267379D01*
X97036524Y-118314999D01*
X96988905Y-118362618D01*
X96941286Y-118457856D01*
X96941286Y-118553094D01*
X96988905Y-118695951D01*
X97560334Y-119267379D01*
X96941286Y-119267379D01*
X90392095Y-112450380D02*
X90392095Y-113259904D01*
X90344476Y-113355142D01*
X90296857Y-113402761D01*
X90201619Y-113450380D01*
X90011142Y-113450380D01*
X89915904Y-113402761D01*
X89868285Y-113355142D01*
X89820666Y-113259904D01*
X89820666Y-112450380D01*
X88820666Y-113450380D02*
X89392095Y-113450380D01*
X89106380Y-113450380D02*
X89106380Y-112450380D01*
X89201619Y-112593238D01*
X89296857Y-112688476D01*
X89392095Y-112736095D01*
X88487333Y-112450380D02*
X87868285Y-112450380D01*
X88201619Y-112831333D01*
X88058761Y-112831333D01*
X87963523Y-112878952D01*
X87915904Y-112926571D01*
X87868285Y-113021809D01*
X87868285Y-113259904D01*
X87915904Y-113355142D01*
X87963523Y-113402761D01*
X88058761Y-113450380D01*
X88344476Y-113450380D01*
X88439714Y-113402761D01*
X88487333Y-113355142D01*
X74898095Y-119334380D02*
X74898095Y-120143904D01*
X74850476Y-120239142D01*
X74802857Y-120286761D01*
X74707619Y-120334380D01*
X74517142Y-120334380D01*
X74421904Y-120286761D01*
X74374285Y-120239142D01*
X74326666Y-120143904D01*
X74326666Y-119334380D01*
X73326666Y-120334380D02*
X73898095Y-120334380D01*
X73612380Y-120334380D02*
X73612380Y-119334380D01*
X73707619Y-119477238D01*
X73802857Y-119572476D01*
X73898095Y-119620095D01*
X72469523Y-119667714D02*
X72469523Y-120334380D01*
X72707619Y-119286761D02*
X72945714Y-120001047D01*
X72326666Y-120001047D01*
X66516095Y-123398380D02*
X66516095Y-124207904D01*
X66468476Y-124303142D01*
X66420857Y-124350761D01*
X66325619Y-124398380D01*
X66135142Y-124398380D01*
X66039904Y-124350761D01*
X65992285Y-124303142D01*
X65944666Y-124207904D01*
X65944666Y-123398380D01*
X64944666Y-124398380D02*
X65516095Y-124398380D01*
X65230380Y-124398380D02*
X65230380Y-123398380D01*
X65325619Y-123541238D01*
X65420857Y-123636476D01*
X65516095Y-123684095D01*
X64039904Y-123398380D02*
X64516095Y-123398380D01*
X64563714Y-123874571D01*
X64516095Y-123826952D01*
X64420857Y-123779333D01*
X64182761Y-123779333D01*
X64087523Y-123826952D01*
X64039904Y-123874571D01*
X63992285Y-123969809D01*
X63992285Y-124207904D01*
X64039904Y-124303142D01*
X64087523Y-124350761D01*
X64182761Y-124398380D01*
X64420857Y-124398380D01*
X64516095Y-124350761D01*
X64563714Y-124303142D01*
X104870095Y-132530380D02*
X104870095Y-133339904D01*
X104822476Y-133435142D01*
X104774857Y-133482761D01*
X104679619Y-133530380D01*
X104489142Y-133530380D01*
X104393904Y-133482761D01*
X104346285Y-133435142D01*
X104298666Y-133339904D01*
X104298666Y-132530380D01*
X103298666Y-133530380D02*
X103870095Y-133530380D01*
X103584380Y-133530380D02*
X103584380Y-132530380D01*
X103679619Y-132673238D01*
X103774857Y-132768476D01*
X103870095Y-132816095D01*
X102441523Y-132530380D02*
X102632000Y-132530380D01*
X102727238Y-132578000D01*
X102774857Y-132625619D01*
X102870095Y-132768476D01*
X102917714Y-132958952D01*
X102917714Y-133339904D01*
X102870095Y-133435142D01*
X102822476Y-133482761D01*
X102727238Y-133530380D01*
X102536761Y-133530380D01*
X102441523Y-133482761D01*
X102393904Y-133435142D01*
X102346285Y-133339904D01*
X102346285Y-133101809D01*
X102393904Y-133006571D01*
X102441523Y-132958952D01*
X102536761Y-132911333D01*
X102727238Y-132911333D01*
X102822476Y-132958952D01*
X102870095Y-133006571D01*
X102917714Y-133101809D01*
X86582095Y-130352380D02*
X86582095Y-131161904D01*
X86534476Y-131257142D01*
X86486857Y-131304761D01*
X86391619Y-131352380D01*
X86201142Y-131352380D01*
X86105904Y-131304761D01*
X86058285Y-131257142D01*
X86010666Y-131161904D01*
X86010666Y-130352380D01*
X85010666Y-131352380D02*
X85582095Y-131352380D01*
X85296380Y-131352380D02*
X85296380Y-130352380D01*
X85391619Y-130495238D01*
X85486857Y-130590476D01*
X85582095Y-130638095D01*
X84677333Y-130352380D02*
X84010666Y-130352380D01*
X84439238Y-131352380D01*
X79389595Y-135069380D02*
X79389595Y-135878904D01*
X79341976Y-135974142D01*
X79294357Y-136021761D01*
X79199119Y-136069380D01*
X79008642Y-136069380D01*
X78913404Y-136021761D01*
X78865785Y-135974142D01*
X78818166Y-135878904D01*
X78818166Y-135069380D01*
X77818166Y-136069380D02*
X78389595Y-136069380D01*
X78103880Y-136069380D02*
X78103880Y-135069380D01*
X78199119Y-135212238D01*
X78294357Y-135307476D01*
X78389595Y-135355095D01*
X77246738Y-135497952D02*
X77341976Y-135450333D01*
X77389595Y-135402714D01*
X77437214Y-135307476D01*
X77437214Y-135259857D01*
X77389595Y-135164619D01*
X77341976Y-135117000D01*
X77246738Y-135069380D01*
X77056261Y-135069380D01*
X76961023Y-135117000D01*
X76913404Y-135164619D01*
X76865785Y-135259857D01*
X76865785Y-135307476D01*
X76913404Y-135402714D01*
X76961023Y-135450333D01*
X77056261Y-135497952D01*
X77246738Y-135497952D01*
X77341976Y-135545571D01*
X77389595Y-135593190D01*
X77437214Y-135688428D01*
X77437214Y-135878904D01*
X77389595Y-135974142D01*
X77341976Y-136021761D01*
X77246738Y-136069380D01*
X77056261Y-136069380D01*
X76961023Y-136021761D01*
X76913404Y-135974142D01*
X76865785Y-135878904D01*
X76865785Y-135688428D01*
X76913404Y-135593190D01*
X76961023Y-135545571D01*
X77056261Y-135497952D01*
X87917095Y-171635380D02*
X87917095Y-172444904D01*
X87869476Y-172540142D01*
X87821857Y-172587761D01*
X87726619Y-172635380D01*
X87536142Y-172635380D01*
X87440904Y-172587761D01*
X87393285Y-172540142D01*
X87345666Y-172444904D01*
X87345666Y-171635380D01*
X86917095Y-171730619D02*
X86869476Y-171683000D01*
X86774238Y-171635380D01*
X86536142Y-171635380D01*
X86440904Y-171683000D01*
X86393285Y-171730619D01*
X86345666Y-171825857D01*
X86345666Y-171921095D01*
X86393285Y-172063952D01*
X86964714Y-172635380D01*
X86345666Y-172635380D01*
X85393285Y-172635380D02*
X85964714Y-172635380D01*
X85679000Y-172635380D02*
X85679000Y-171635380D01*
X85774238Y-171778238D01*
X85869476Y-171873476D01*
X85964714Y-171921095D01*
X65246095Y-171000380D02*
X65246095Y-171809904D01*
X65198476Y-171905142D01*
X65150857Y-171952761D01*
X65055619Y-172000380D01*
X64865142Y-172000380D01*
X64769904Y-171952761D01*
X64722285Y-171905142D01*
X64674666Y-171809904D01*
X64674666Y-171000380D01*
X64246095Y-171095619D02*
X64198476Y-171048000D01*
X64103238Y-171000380D01*
X63865142Y-171000380D01*
X63769904Y-171048000D01*
X63722285Y-171095619D01*
X63674666Y-171190857D01*
X63674666Y-171286095D01*
X63722285Y-171428952D01*
X64293714Y-172000380D01*
X63674666Y-172000380D01*
X63293714Y-171095619D02*
X63246095Y-171048000D01*
X63150857Y-171000380D01*
X62912761Y-171000380D01*
X62817523Y-171048000D01*
X62769904Y-171095619D01*
X62722285Y-171190857D01*
X62722285Y-171286095D01*
X62769904Y-171428952D01*
X63341333Y-172000380D01*
X62722285Y-172000380D01*
X82338190Y-114614690D02*
X82338190Y-115090880D01*
X82671523Y-114090880D02*
X82338190Y-114614690D01*
X82004857Y-114090880D01*
X81147714Y-115090880D02*
X81719142Y-115090880D01*
X81433428Y-115090880D02*
X81433428Y-114090880D01*
X81528666Y-114233738D01*
X81623904Y-114328976D01*
X81719142Y-114376595D01*
M02*
