M48
; DRILL file {KiCad 5.1.5-52549c5~84~ubuntu18.04.1} date Mon 13 Jan 2020 01:08:34 PM PST
; FORMAT={-:-/ absolute / metric / decimal}
; #@! TF.CreationDate,2020-01-13T13:08:34-08:00
; #@! TF.GenerationSoftware,Kicad,Pcbnew,5.1.5-52549c5~84~ubuntu18.04.1
; #@! TF.FileFunction,Plated,1,2,PTH
FMAT,2
METRIC
T1C0.650
T2C0.800
T3C1.100
%
G90
G05
T1
X69.088Y-104.394
X69.088Y-105.664
X70.358Y-104.394
X70.358Y-105.664
X71.628Y-104.394
X71.628Y-105.664
X72.898Y-104.394
X72.898Y-105.664
X74.168Y-104.394
X74.168Y-105.664
T2
X78.804Y-163.83
X80.804Y-163.83
X82.804Y-163.83
X101.6Y-163.83
X103.6Y-163.83
X55.88Y-172.974
X57.88Y-172.974
X59.88Y-172.974
X90.17Y-163.83
X92.17Y-163.83
X94.17Y-163.83
X67.564Y-163.947
X69.564Y-163.947
X71.564Y-163.947
X90.17Y-173.228
X92.17Y-173.228
X94.17Y-173.228
X101.6Y-173.228
X103.6Y-173.228
X89.916Y-129.286
X91.916Y-129.286
X93.916Y-129.286
X95.916Y-129.286
X97.916Y-129.286
X67.374Y-172.466
X69.374Y-172.466
X71.374Y-172.466
X56.198Y-163.947
X58.198Y-163.947
X60.198Y-163.947
X78.772Y-173.228
X80.772Y-173.228
X82.772Y-173.228
T3
X79.352Y-103.124
X79.352Y-107.624
X85.852Y-103.124
X85.852Y-107.624
T0
M30
