G04 #@! TF.GenerationSoftware,KiCad,Pcbnew,5.1.5-52549c5~84~ubuntu18.04.1*
G04 #@! TF.CreationDate,2020-01-13T13:08:31-08:00*
G04 #@! TF.ProjectId,Extention Boards,45787465-6e74-4696-9f6e-20426f617264,rev?*
G04 #@! TF.SameCoordinates,Original*
G04 #@! TF.FileFunction,Legend,Top*
G04 #@! TF.FilePolarity,Positive*
%FSLAX46Y46*%
G04 Gerber Fmt 4.6, Leading zero omitted, Abs format (unit mm)*
G04 Created by KiCad (PCBNEW 5.1.5-52549c5~84~ubuntu18.04.1) date 2020-01-13 13:08:31*
%MOMM*%
%LPD*%
G04 APERTURE LIST*
%ADD10C,0.120000*%
%ADD11C,0.150000*%
G04 APERTURE END LIST*
D10*
X106604000Y-137608000D02*
G75*
G03X106604000Y-137608000I-950000J0D01*
G01*
X103054000Y-137608000D02*
G75*
G03X103054000Y-137608000I-950000J0D01*
G01*
X106106000Y-158242000D02*
G75*
G03X106106000Y-158242000I-950000J0D01*
G01*
X106106000Y-155702000D02*
G75*
G03X106106000Y-155702000I-950000J0D01*
G01*
X106614000Y-149098000D02*
G75*
G03X106614000Y-149098000I-950000J0D01*
G01*
X106614000Y-152166000D02*
G75*
G03X106614000Y-152166000I-950000J0D01*
G01*
X95180000Y-158998000D02*
G75*
G03X95180000Y-158998000I-950000J0D01*
G01*
X95180000Y-155448000D02*
G75*
G03X95180000Y-155448000I-950000J0D01*
G01*
X91630000Y-158998000D02*
G75*
G03X91630000Y-158998000I-950000J0D01*
G01*
X91630000Y-155448000D02*
G75*
G03X91630000Y-155448000I-950000J0D01*
G01*
X102284000Y-158998000D02*
G75*
G03X102284000Y-158998000I-950000J0D01*
G01*
X102284000Y-155448000D02*
G75*
G03X102284000Y-155448000I-950000J0D01*
G01*
X98734000Y-158998000D02*
G75*
G03X98734000Y-158998000I-950000J0D01*
G01*
X98734000Y-155448000D02*
G75*
G03X98734000Y-155448000I-950000J0D01*
G01*
X106614000Y-145536000D02*
G75*
G03X106614000Y-145536000I-950000J0D01*
G01*
X106614000Y-141986000D02*
G75*
G03X106614000Y-141986000I-950000J0D01*
G01*
X80253500Y-149894500D02*
X80253500Y-150519500D01*
X79941000Y-150207000D02*
X80566000Y-150207000D01*
X80806000Y-153587563D02*
X81870437Y-154652000D01*
X80806000Y-150196437D02*
X81870437Y-149132000D01*
X80806000Y-150196437D02*
X80806000Y-150832000D01*
X80806000Y-153587563D02*
X80806000Y-152952000D01*
X81870437Y-154652000D02*
X86326000Y-154652000D01*
X81870437Y-149132000D02*
X86326000Y-149132000D01*
X86326000Y-149132000D02*
X86326000Y-150832000D01*
X86326000Y-154652000D02*
X86326000Y-152952000D01*
X73856436Y-153522000D02*
X75060564Y-153522000D01*
X73856436Y-155342000D02*
X75060564Y-155342000D01*
X80906000Y-149572000D02*
X80906000Y-147872000D01*
X80906000Y-144052000D02*
X80906000Y-145752000D01*
X76450437Y-144052000D02*
X80906000Y-144052000D01*
X76450437Y-149572000D02*
X80906000Y-149572000D01*
X75386000Y-148507563D02*
X75386000Y-147872000D01*
X75386000Y-145116437D02*
X75386000Y-145752000D01*
X75386000Y-145116437D02*
X76450437Y-144052000D01*
X75386000Y-148507563D02*
X76450437Y-149572000D01*
X74521000Y-145127000D02*
X75146000Y-145127000D01*
X74833500Y-144814500D02*
X74833500Y-145439500D01*
X75266000Y-118172000D02*
X75266000Y-117372000D01*
X75266000Y-117372000D02*
X79166000Y-117372000D01*
X75266000Y-120372000D02*
X79166000Y-120372000D01*
X51484000Y-113030000D02*
X51484000Y-106095000D01*
X51484000Y-106095000D02*
X53484000Y-105095000D01*
X53484000Y-105095000D02*
X54999000Y-105095000D01*
X51484000Y-113030000D02*
X51484000Y-119965000D01*
X51484000Y-119965000D02*
X53484000Y-120965000D01*
X53484000Y-120965000D02*
X54999000Y-120965000D01*
X57389000Y-105095000D02*
X61614000Y-105095000D01*
X61614000Y-105095000D02*
X61614000Y-107525000D01*
X57389000Y-120965000D02*
X61614000Y-120965000D01*
X61614000Y-120965000D02*
X61614000Y-118535000D01*
X61614000Y-118535000D02*
X63074000Y-118535000D01*
X97361000Y-107525000D02*
X95901000Y-107525000D01*
X97361000Y-105095000D02*
X97361000Y-107525000D01*
X101586000Y-105095000D02*
X97361000Y-105095000D01*
X97361000Y-120965000D02*
X97361000Y-118535000D01*
X101586000Y-120965000D02*
X97361000Y-120965000D01*
X105491000Y-105095000D02*
X103976000Y-105095000D01*
X107491000Y-106095000D02*
X105491000Y-105095000D01*
X107491000Y-113030000D02*
X107491000Y-106095000D01*
X105491000Y-120965000D02*
X103976000Y-120965000D01*
X107491000Y-119965000D02*
X105491000Y-120965000D01*
X107491000Y-113030000D02*
X107491000Y-119965000D01*
X92170000Y-169418000D02*
X88670000Y-169418000D01*
X88670000Y-169418000D02*
X88670000Y-170318000D01*
X88670000Y-170318000D02*
X87060000Y-170318000D01*
X87060000Y-170318000D02*
X87060000Y-176338000D01*
X87060000Y-176338000D02*
X92170000Y-176338000D01*
X92170000Y-169418000D02*
X95670000Y-169418000D01*
X95670000Y-169418000D02*
X95670000Y-170318000D01*
X95670000Y-170318000D02*
X97280000Y-170318000D01*
X97280000Y-170318000D02*
X97280000Y-176338000D01*
X97280000Y-176338000D02*
X92170000Y-176338000D01*
X86760000Y-174228000D02*
X86760000Y-176638000D01*
X86760000Y-176638000D02*
X89170000Y-176638000D01*
X74784000Y-169056000D02*
X72374000Y-169056000D01*
X74784000Y-171466000D02*
X74784000Y-169056000D01*
X64264000Y-169356000D02*
X69374000Y-169356000D01*
X64264000Y-175376000D02*
X64264000Y-169356000D01*
X65874000Y-175376000D02*
X64264000Y-175376000D01*
X65874000Y-176276000D02*
X65874000Y-175376000D01*
X69374000Y-176276000D02*
X65874000Y-176276000D01*
X74484000Y-169356000D02*
X69374000Y-169356000D01*
X74484000Y-175376000D02*
X74484000Y-169356000D01*
X72874000Y-175376000D02*
X74484000Y-175376000D01*
X72874000Y-176276000D02*
X72874000Y-175376000D01*
X69374000Y-176276000D02*
X72874000Y-176276000D01*
X102600000Y-160020000D02*
X99990000Y-160020000D01*
X99990000Y-160020000D02*
X99990000Y-160420000D01*
X99990000Y-160420000D02*
X98490000Y-160420000D01*
X98490000Y-160420000D02*
X98490000Y-166940000D01*
X98490000Y-166940000D02*
X102600000Y-166940000D01*
X102600000Y-160020000D02*
X105210000Y-160020000D01*
X105210000Y-160020000D02*
X105210000Y-160420000D01*
X105210000Y-160420000D02*
X106710000Y-160420000D01*
X106710000Y-160420000D02*
X106710000Y-166940000D01*
X106710000Y-166940000D02*
X102600000Y-166940000D01*
X98190000Y-164830000D02*
X98190000Y-167240000D01*
X98190000Y-167240000D02*
X100600000Y-167240000D01*
X98190000Y-176638000D02*
X100600000Y-176638000D01*
X98190000Y-174228000D02*
X98190000Y-176638000D01*
X106710000Y-176338000D02*
X102600000Y-176338000D01*
X106710000Y-169818000D02*
X106710000Y-176338000D01*
X105210000Y-169818000D02*
X106710000Y-169818000D01*
X105210000Y-169418000D02*
X105210000Y-169818000D01*
X102600000Y-169418000D02*
X105210000Y-169418000D01*
X98490000Y-176338000D02*
X102600000Y-176338000D01*
X98490000Y-169818000D02*
X98490000Y-176338000D01*
X99990000Y-169818000D02*
X98490000Y-169818000D01*
X99990000Y-169418000D02*
X99990000Y-169818000D01*
X102600000Y-169418000D02*
X99990000Y-169418000D01*
X52788000Y-167357001D02*
X55198000Y-167357001D01*
X52788000Y-164947001D02*
X52788000Y-167357001D01*
X63308000Y-167057001D02*
X58198000Y-167057001D01*
X63308000Y-161037001D02*
X63308000Y-167057001D01*
X61698000Y-161037001D02*
X63308000Y-161037001D01*
X61698000Y-160137001D02*
X61698000Y-161037001D01*
X58198000Y-160137001D02*
X61698000Y-160137001D01*
X53088000Y-167057001D02*
X58198000Y-167057001D01*
X53088000Y-161037001D02*
X53088000Y-167057001D01*
X54698000Y-161037001D02*
X53088000Y-161037001D01*
X54698000Y-160137001D02*
X54698000Y-161037001D01*
X58198000Y-160137001D02*
X54698000Y-160137001D01*
X57880000Y-169164000D02*
X54380000Y-169164000D01*
X54380000Y-169164000D02*
X54380000Y-170064000D01*
X54380000Y-170064000D02*
X52770000Y-170064000D01*
X52770000Y-170064000D02*
X52770000Y-176084000D01*
X52770000Y-176084000D02*
X57880000Y-176084000D01*
X57880000Y-169164000D02*
X61380000Y-169164000D01*
X61380000Y-169164000D02*
X61380000Y-170064000D01*
X61380000Y-170064000D02*
X62990000Y-170064000D01*
X62990000Y-170064000D02*
X62990000Y-176084000D01*
X62990000Y-176084000D02*
X57880000Y-176084000D01*
X52470000Y-173974000D02*
X52470000Y-176384000D01*
X52470000Y-176384000D02*
X54880000Y-176384000D01*
X64154000Y-167357001D02*
X66564000Y-167357001D01*
X64154000Y-164947001D02*
X64154000Y-167357001D01*
X74674000Y-167057001D02*
X69564000Y-167057001D01*
X74674000Y-161037001D02*
X74674000Y-167057001D01*
X73064000Y-161037001D02*
X74674000Y-161037001D01*
X73064000Y-160137001D02*
X73064000Y-161037001D01*
X69564000Y-160137001D02*
X73064000Y-160137001D01*
X64454000Y-167057001D02*
X69564000Y-167057001D01*
X64454000Y-161037001D02*
X64454000Y-167057001D01*
X66064000Y-161037001D02*
X64454000Y-161037001D01*
X66064000Y-160137001D02*
X66064000Y-161037001D01*
X69564000Y-160137001D02*
X66064000Y-160137001D01*
X75362000Y-176638000D02*
X77772000Y-176638000D01*
X75362000Y-174228000D02*
X75362000Y-176638000D01*
X85882000Y-176338000D02*
X80772000Y-176338000D01*
X85882000Y-170318000D02*
X85882000Y-176338000D01*
X84272000Y-170318000D02*
X85882000Y-170318000D01*
X84272000Y-169418000D02*
X84272000Y-170318000D01*
X80772000Y-169418000D02*
X84272000Y-169418000D01*
X75662000Y-176338000D02*
X80772000Y-176338000D01*
X75662000Y-170318000D02*
X75662000Y-176338000D01*
X77272000Y-170318000D02*
X75662000Y-170318000D01*
X77272000Y-169418000D02*
X77272000Y-170318000D01*
X80772000Y-169418000D02*
X77272000Y-169418000D01*
X80804000Y-160020000D02*
X77304000Y-160020000D01*
X77304000Y-160020000D02*
X77304000Y-160920000D01*
X77304000Y-160920000D02*
X75694000Y-160920000D01*
X75694000Y-160920000D02*
X75694000Y-166940000D01*
X75694000Y-166940000D02*
X80804000Y-166940000D01*
X80804000Y-160020000D02*
X84304000Y-160020000D01*
X84304000Y-160020000D02*
X84304000Y-160920000D01*
X84304000Y-160920000D02*
X85914000Y-160920000D01*
X85914000Y-160920000D02*
X85914000Y-166940000D01*
X85914000Y-166940000D02*
X80804000Y-166940000D01*
X75394000Y-164830000D02*
X75394000Y-167240000D01*
X75394000Y-167240000D02*
X77804000Y-167240000D01*
X92170000Y-160020000D02*
X88670000Y-160020000D01*
X88670000Y-160020000D02*
X88670000Y-160920000D01*
X88670000Y-160920000D02*
X87060000Y-160920000D01*
X87060000Y-160920000D02*
X87060000Y-166940000D01*
X87060000Y-166940000D02*
X92170000Y-166940000D01*
X92170000Y-160020000D02*
X95670000Y-160020000D01*
X95670000Y-160020000D02*
X95670000Y-160920000D01*
X95670000Y-160920000D02*
X97280000Y-160920000D01*
X97280000Y-160920000D02*
X97280000Y-166940000D01*
X97280000Y-166940000D02*
X92170000Y-166940000D01*
X86760000Y-164830000D02*
X86760000Y-167240000D01*
X86760000Y-167240000D02*
X89170000Y-167240000D01*
X74863000Y-106794000D02*
X74863000Y-105971530D01*
X74863000Y-104086470D02*
X74863000Y-103264000D01*
X74863000Y-105356470D02*
X74863000Y-104701530D01*
X69848000Y-106794000D02*
X74863000Y-106794000D01*
X68393000Y-103264000D02*
X74863000Y-103264000D01*
X69848000Y-106794000D02*
X69848000Y-106227471D01*
X69848000Y-105100529D02*
X69848000Y-104957471D01*
X69794529Y-104904000D02*
X69651471Y-104904000D01*
X68524529Y-104904000D02*
X68393000Y-104904000D01*
X68393000Y-104904000D02*
X68393000Y-104701530D01*
X68393000Y-104086470D02*
X68393000Y-103264000D01*
X69088000Y-106794000D02*
X68328000Y-106794000D01*
X68328000Y-106794000D02*
X68328000Y-105664000D01*
X93916000Y-125476000D02*
X90416000Y-125476000D01*
X90416000Y-125476000D02*
X90416000Y-126376000D01*
X90416000Y-126376000D02*
X86806000Y-126376000D01*
X86806000Y-126376000D02*
X86806000Y-132396000D01*
X86806000Y-132396000D02*
X93916000Y-132396000D01*
X93916000Y-125476000D02*
X97416000Y-125476000D01*
X97416000Y-125476000D02*
X97416000Y-126376000D01*
X97416000Y-126376000D02*
X101026000Y-126376000D01*
X101026000Y-126376000D02*
X101026000Y-132396000D01*
X101026000Y-132396000D02*
X93916000Y-132396000D01*
X86506000Y-130286000D02*
X86506000Y-132696000D01*
X86506000Y-132696000D02*
X88916000Y-132696000D01*
X81476436Y-123042000D02*
X82680564Y-123042000D01*
X81476436Y-124862000D02*
X82680564Y-124862000D01*
X86556436Y-120036000D02*
X87760564Y-120036000D01*
X86556436Y-118216000D02*
X87760564Y-118216000D01*
X82963936Y-129392000D02*
X84168064Y-129392000D01*
X82963936Y-131212000D02*
X84168064Y-131212000D01*
X77632937Y-133363001D02*
X78837065Y-133363001D01*
X77632937Y-131543001D02*
X78837065Y-131543001D01*
X79153936Y-135742000D02*
X80358064Y-135742000D01*
X79153936Y-137562000D02*
X80358064Y-137562000D01*
X72803936Y-124312000D02*
X74008064Y-124312000D01*
X72803936Y-126132000D02*
X74008064Y-126132000D01*
X81222436Y-120036000D02*
X82426564Y-120036000D01*
X81222436Y-118216000D02*
X82426564Y-118216000D01*
X77632937Y-130073001D02*
X78837065Y-130073001D01*
X77632937Y-128253001D02*
X78837065Y-128253001D01*
X66417436Y-119994000D02*
X67621564Y-119994000D01*
X66417436Y-121814000D02*
X67621564Y-121814000D01*
X57334000Y-147566000D02*
X56334000Y-147566000D01*
X57334000Y-145626000D02*
X56334000Y-145626000D01*
X66540000Y-141270000D02*
X65540000Y-141270000D01*
X66540000Y-143210000D02*
X65540000Y-143210000D01*
X70350000Y-148890000D02*
X69350000Y-148890000D01*
X70350000Y-150830000D02*
X69350000Y-150830000D01*
X80352000Y-108624000D02*
X84852000Y-108624000D01*
X79102000Y-104624000D02*
X79102000Y-106124000D01*
X84852000Y-102124000D02*
X80352000Y-102124000D01*
X86102000Y-106124000D02*
X86102000Y-104624000D01*
D11*
X59651000Y-151553000D02*
X59651000Y-151678000D01*
X64301000Y-151553000D02*
X64301000Y-151778000D01*
X64301000Y-156803000D02*
X64301000Y-156578000D01*
X59651000Y-156803000D02*
X59651000Y-156578000D01*
X59651000Y-151553000D02*
X64301000Y-151553000D01*
X59651000Y-156803000D02*
X64301000Y-156803000D01*
X59651000Y-151678000D02*
X58301000Y-151678000D01*
D10*
X89096000Y-144612000D02*
X90896000Y-144612000D01*
X90896000Y-141392000D02*
X87946000Y-141392000D01*
X95896000Y-147742000D02*
X92946000Y-147742000D01*
X94096000Y-150962000D02*
X95896000Y-150962000D01*
X99176000Y-144612000D02*
X100976000Y-144612000D01*
X100976000Y-141392000D02*
X98026000Y-141392000D01*
X105468000Y-127930000D02*
X102518000Y-127930000D01*
X103668000Y-131150000D02*
X105468000Y-131150000D01*
X69966000Y-138262000D02*
X71766000Y-138262000D01*
X71766000Y-135042000D02*
X68816000Y-135042000D01*
D11*
X92769000Y-134884000D02*
X91419000Y-134884000D01*
X92769000Y-140009000D02*
X97419000Y-140009000D01*
X92769000Y-134759000D02*
X97419000Y-134759000D01*
X92769000Y-140009000D02*
X92769000Y-139784000D01*
X97419000Y-140009000D02*
X97419000Y-139784000D01*
X97419000Y-134759000D02*
X97419000Y-134984000D01*
X92769000Y-134759000D02*
X92769000Y-134884000D01*
D10*
X78349000Y-112014000D02*
X78349000Y-110064000D01*
X78349000Y-112014000D02*
X78349000Y-113964000D01*
X69479000Y-112014000D02*
X69479000Y-110064000D01*
X69479000Y-112014000D02*
X69479000Y-115464000D01*
X64104000Y-137698000D02*
X65054000Y-137698000D01*
X65054000Y-137698000D02*
X65054000Y-136748000D01*
X55784000Y-137698000D02*
X54834000Y-137698000D01*
X54834000Y-137698000D02*
X54834000Y-136748000D01*
X64104000Y-127478000D02*
X65054000Y-127478000D01*
X65054000Y-127478000D02*
X65054000Y-128428000D01*
X55784000Y-127478000D02*
X54834000Y-127478000D01*
X54834000Y-127478000D02*
X54834000Y-128428000D01*
X54834000Y-128428000D02*
X53544000Y-128428000D01*
D11*
X103915904Y-135412380D02*
X104487333Y-135412380D01*
X104201619Y-136412380D02*
X104201619Y-135412380D01*
X104820666Y-136412380D02*
X104820666Y-135412380D01*
X105201619Y-135412380D01*
X105296857Y-135460000D01*
X105344476Y-135507619D01*
X105392095Y-135602857D01*
X105392095Y-135745714D01*
X105344476Y-135840952D01*
X105296857Y-135888571D01*
X105201619Y-135936190D01*
X104820666Y-135936190D01*
X106344476Y-136412380D02*
X105773047Y-136412380D01*
X106058761Y-136412380D02*
X106058761Y-135412380D01*
X105963523Y-135555238D01*
X105868285Y-135650476D01*
X105773047Y-135698095D01*
X107201619Y-135412380D02*
X107011142Y-135412380D01*
X106915904Y-135460000D01*
X106868285Y-135507619D01*
X106773047Y-135650476D01*
X106725428Y-135840952D01*
X106725428Y-136221904D01*
X106773047Y-136317142D01*
X106820666Y-136364761D01*
X106915904Y-136412380D01*
X107106380Y-136412380D01*
X107201619Y-136364761D01*
X107249238Y-136317142D01*
X107296857Y-136221904D01*
X107296857Y-135983809D01*
X107249238Y-135888571D01*
X107201619Y-135840952D01*
X107106380Y-135793333D01*
X106915904Y-135793333D01*
X106820666Y-135840952D01*
X106773047Y-135888571D01*
X106725428Y-135983809D01*
X100365904Y-135412380D02*
X100937333Y-135412380D01*
X100651619Y-136412380D02*
X100651619Y-135412380D01*
X101270666Y-136412380D02*
X101270666Y-135412380D01*
X101651619Y-135412380D01*
X101746857Y-135460000D01*
X101794476Y-135507619D01*
X101842095Y-135602857D01*
X101842095Y-135745714D01*
X101794476Y-135840952D01*
X101746857Y-135888571D01*
X101651619Y-135936190D01*
X101270666Y-135936190D01*
X102794476Y-136412380D02*
X102223047Y-136412380D01*
X102508761Y-136412380D02*
X102508761Y-135412380D01*
X102413523Y-135555238D01*
X102318285Y-135650476D01*
X102223047Y-135698095D01*
X103699238Y-135412380D02*
X103223047Y-135412380D01*
X103175428Y-135888571D01*
X103223047Y-135840952D01*
X103318285Y-135793333D01*
X103556380Y-135793333D01*
X103651619Y-135840952D01*
X103699238Y-135888571D01*
X103746857Y-135983809D01*
X103746857Y-136221904D01*
X103699238Y-136317142D01*
X103651619Y-136364761D01*
X103556380Y-136412380D01*
X103318285Y-136412380D01*
X103223047Y-136364761D01*
X103175428Y-136317142D01*
X103417904Y-156046380D02*
X103989333Y-156046380D01*
X103703619Y-157046380D02*
X103703619Y-156046380D01*
X104322666Y-157046380D02*
X104322666Y-156046380D01*
X104703619Y-156046380D01*
X104798857Y-156094000D01*
X104846476Y-156141619D01*
X104894095Y-156236857D01*
X104894095Y-156379714D01*
X104846476Y-156474952D01*
X104798857Y-156522571D01*
X104703619Y-156570190D01*
X104322666Y-156570190D01*
X105846476Y-157046380D02*
X105275047Y-157046380D01*
X105560761Y-157046380D02*
X105560761Y-156046380D01*
X105465523Y-156189238D01*
X105370285Y-156284476D01*
X105275047Y-156332095D01*
X106703619Y-156379714D02*
X106703619Y-157046380D01*
X106465523Y-155998761D02*
X106227428Y-156713047D01*
X106846476Y-156713047D01*
X103417904Y-153506380D02*
X103989333Y-153506380D01*
X103703619Y-154506380D02*
X103703619Y-153506380D01*
X104322666Y-154506380D02*
X104322666Y-153506380D01*
X104703619Y-153506380D01*
X104798857Y-153554000D01*
X104846476Y-153601619D01*
X104894095Y-153696857D01*
X104894095Y-153839714D01*
X104846476Y-153934952D01*
X104798857Y-153982571D01*
X104703619Y-154030190D01*
X104322666Y-154030190D01*
X105846476Y-154506380D02*
X105275047Y-154506380D01*
X105560761Y-154506380D02*
X105560761Y-153506380D01*
X105465523Y-153649238D01*
X105370285Y-153744476D01*
X105275047Y-153792095D01*
X106179809Y-153506380D02*
X106798857Y-153506380D01*
X106465523Y-153887333D01*
X106608380Y-153887333D01*
X106703619Y-153934952D01*
X106751238Y-153982571D01*
X106798857Y-154077809D01*
X106798857Y-154315904D01*
X106751238Y-154411142D01*
X106703619Y-154458761D01*
X106608380Y-154506380D01*
X106322666Y-154506380D01*
X106227428Y-154458761D01*
X106179809Y-154411142D01*
X103925904Y-146902380D02*
X104497333Y-146902380D01*
X104211619Y-147902380D02*
X104211619Y-146902380D01*
X104830666Y-147902380D02*
X104830666Y-146902380D01*
X105211619Y-146902380D01*
X105306857Y-146950000D01*
X105354476Y-146997619D01*
X105402095Y-147092857D01*
X105402095Y-147235714D01*
X105354476Y-147330952D01*
X105306857Y-147378571D01*
X105211619Y-147426190D01*
X104830666Y-147426190D01*
X106354476Y-147902380D02*
X105783047Y-147902380D01*
X106068761Y-147902380D02*
X106068761Y-146902380D01*
X105973523Y-147045238D01*
X105878285Y-147140476D01*
X105783047Y-147188095D01*
X106735428Y-146997619D02*
X106783047Y-146950000D01*
X106878285Y-146902380D01*
X107116380Y-146902380D01*
X107211619Y-146950000D01*
X107259238Y-146997619D01*
X107306857Y-147092857D01*
X107306857Y-147188095D01*
X107259238Y-147330952D01*
X106687809Y-147902380D01*
X107306857Y-147902380D01*
X103925904Y-149970380D02*
X104497333Y-149970380D01*
X104211619Y-150970380D02*
X104211619Y-149970380D01*
X104830666Y-150970380D02*
X104830666Y-149970380D01*
X105211619Y-149970380D01*
X105306857Y-150018000D01*
X105354476Y-150065619D01*
X105402095Y-150160857D01*
X105402095Y-150303714D01*
X105354476Y-150398952D01*
X105306857Y-150446571D01*
X105211619Y-150494190D01*
X104830666Y-150494190D01*
X106354476Y-150970380D02*
X105783047Y-150970380D01*
X106068761Y-150970380D02*
X106068761Y-149970380D01*
X105973523Y-150113238D01*
X105878285Y-150208476D01*
X105783047Y-150256095D01*
X107306857Y-150970380D02*
X106735428Y-150970380D01*
X107021142Y-150970380D02*
X107021142Y-149970380D01*
X106925904Y-150113238D01*
X106830666Y-150208476D01*
X106735428Y-150256095D01*
X92491904Y-156802380D02*
X93063333Y-156802380D01*
X92777619Y-157802380D02*
X92777619Y-156802380D01*
X93396666Y-157802380D02*
X93396666Y-156802380D01*
X93777619Y-156802380D01*
X93872857Y-156850000D01*
X93920476Y-156897619D01*
X93968095Y-156992857D01*
X93968095Y-157135714D01*
X93920476Y-157230952D01*
X93872857Y-157278571D01*
X93777619Y-157326190D01*
X93396666Y-157326190D01*
X94920476Y-157802380D02*
X94349047Y-157802380D01*
X94634761Y-157802380D02*
X94634761Y-156802380D01*
X94539523Y-156945238D01*
X94444285Y-157040476D01*
X94349047Y-157088095D01*
X95539523Y-156802380D02*
X95634761Y-156802380D01*
X95730000Y-156850000D01*
X95777619Y-156897619D01*
X95825238Y-156992857D01*
X95872857Y-157183333D01*
X95872857Y-157421428D01*
X95825238Y-157611904D01*
X95777619Y-157707142D01*
X95730000Y-157754761D01*
X95634761Y-157802380D01*
X95539523Y-157802380D01*
X95444285Y-157754761D01*
X95396666Y-157707142D01*
X95349047Y-157611904D01*
X95301428Y-157421428D01*
X95301428Y-157183333D01*
X95349047Y-156992857D01*
X95396666Y-156897619D01*
X95444285Y-156850000D01*
X95539523Y-156802380D01*
X92968095Y-153252380D02*
X93539523Y-153252380D01*
X93253809Y-154252380D02*
X93253809Y-153252380D01*
X93872857Y-154252380D02*
X93872857Y-153252380D01*
X94253809Y-153252380D01*
X94349047Y-153300000D01*
X94396666Y-153347619D01*
X94444285Y-153442857D01*
X94444285Y-153585714D01*
X94396666Y-153680952D01*
X94349047Y-153728571D01*
X94253809Y-153776190D01*
X93872857Y-153776190D01*
X94920476Y-154252380D02*
X95110952Y-154252380D01*
X95206190Y-154204761D01*
X95253809Y-154157142D01*
X95349047Y-154014285D01*
X95396666Y-153823809D01*
X95396666Y-153442857D01*
X95349047Y-153347619D01*
X95301428Y-153300000D01*
X95206190Y-153252380D01*
X95015714Y-153252380D01*
X94920476Y-153300000D01*
X94872857Y-153347619D01*
X94825238Y-153442857D01*
X94825238Y-153680952D01*
X94872857Y-153776190D01*
X94920476Y-153823809D01*
X95015714Y-153871428D01*
X95206190Y-153871428D01*
X95301428Y-153823809D01*
X95349047Y-153776190D01*
X95396666Y-153680952D01*
X89418095Y-156802380D02*
X89989523Y-156802380D01*
X89703809Y-157802380D02*
X89703809Y-156802380D01*
X90322857Y-157802380D02*
X90322857Y-156802380D01*
X90703809Y-156802380D01*
X90799047Y-156850000D01*
X90846666Y-156897619D01*
X90894285Y-156992857D01*
X90894285Y-157135714D01*
X90846666Y-157230952D01*
X90799047Y-157278571D01*
X90703809Y-157326190D01*
X90322857Y-157326190D01*
X91465714Y-157230952D02*
X91370476Y-157183333D01*
X91322857Y-157135714D01*
X91275238Y-157040476D01*
X91275238Y-156992857D01*
X91322857Y-156897619D01*
X91370476Y-156850000D01*
X91465714Y-156802380D01*
X91656190Y-156802380D01*
X91751428Y-156850000D01*
X91799047Y-156897619D01*
X91846666Y-156992857D01*
X91846666Y-157040476D01*
X91799047Y-157135714D01*
X91751428Y-157183333D01*
X91656190Y-157230952D01*
X91465714Y-157230952D01*
X91370476Y-157278571D01*
X91322857Y-157326190D01*
X91275238Y-157421428D01*
X91275238Y-157611904D01*
X91322857Y-157707142D01*
X91370476Y-157754761D01*
X91465714Y-157802380D01*
X91656190Y-157802380D01*
X91751428Y-157754761D01*
X91799047Y-157707142D01*
X91846666Y-157611904D01*
X91846666Y-157421428D01*
X91799047Y-157326190D01*
X91751428Y-157278571D01*
X91656190Y-157230952D01*
X89418095Y-153252380D02*
X89989523Y-153252380D01*
X89703809Y-154252380D02*
X89703809Y-153252380D01*
X90322857Y-154252380D02*
X90322857Y-153252380D01*
X90703809Y-153252380D01*
X90799047Y-153300000D01*
X90846666Y-153347619D01*
X90894285Y-153442857D01*
X90894285Y-153585714D01*
X90846666Y-153680952D01*
X90799047Y-153728571D01*
X90703809Y-153776190D01*
X90322857Y-153776190D01*
X91227619Y-153252380D02*
X91894285Y-153252380D01*
X91465714Y-154252380D01*
X100072095Y-156802380D02*
X100643523Y-156802380D01*
X100357809Y-157802380D02*
X100357809Y-156802380D01*
X100976857Y-157802380D02*
X100976857Y-156802380D01*
X101357809Y-156802380D01*
X101453047Y-156850000D01*
X101500666Y-156897619D01*
X101548285Y-156992857D01*
X101548285Y-157135714D01*
X101500666Y-157230952D01*
X101453047Y-157278571D01*
X101357809Y-157326190D01*
X100976857Y-157326190D01*
X102405428Y-156802380D02*
X102214952Y-156802380D01*
X102119714Y-156850000D01*
X102072095Y-156897619D01*
X101976857Y-157040476D01*
X101929238Y-157230952D01*
X101929238Y-157611904D01*
X101976857Y-157707142D01*
X102024476Y-157754761D01*
X102119714Y-157802380D01*
X102310190Y-157802380D01*
X102405428Y-157754761D01*
X102453047Y-157707142D01*
X102500666Y-157611904D01*
X102500666Y-157373809D01*
X102453047Y-157278571D01*
X102405428Y-157230952D01*
X102310190Y-157183333D01*
X102119714Y-157183333D01*
X102024476Y-157230952D01*
X101976857Y-157278571D01*
X101929238Y-157373809D01*
X100072095Y-153252380D02*
X100643523Y-153252380D01*
X100357809Y-154252380D02*
X100357809Y-153252380D01*
X100976857Y-154252380D02*
X100976857Y-153252380D01*
X101357809Y-153252380D01*
X101453047Y-153300000D01*
X101500666Y-153347619D01*
X101548285Y-153442857D01*
X101548285Y-153585714D01*
X101500666Y-153680952D01*
X101453047Y-153728571D01*
X101357809Y-153776190D01*
X100976857Y-153776190D01*
X102453047Y-153252380D02*
X101976857Y-153252380D01*
X101929238Y-153728571D01*
X101976857Y-153680952D01*
X102072095Y-153633333D01*
X102310190Y-153633333D01*
X102405428Y-153680952D01*
X102453047Y-153728571D01*
X102500666Y-153823809D01*
X102500666Y-154061904D01*
X102453047Y-154157142D01*
X102405428Y-154204761D01*
X102310190Y-154252380D01*
X102072095Y-154252380D01*
X101976857Y-154204761D01*
X101929238Y-154157142D01*
X96522095Y-156802380D02*
X97093523Y-156802380D01*
X96807809Y-157802380D02*
X96807809Y-156802380D01*
X97426857Y-157802380D02*
X97426857Y-156802380D01*
X97807809Y-156802380D01*
X97903047Y-156850000D01*
X97950666Y-156897619D01*
X97998285Y-156992857D01*
X97998285Y-157135714D01*
X97950666Y-157230952D01*
X97903047Y-157278571D01*
X97807809Y-157326190D01*
X97426857Y-157326190D01*
X98855428Y-157135714D02*
X98855428Y-157802380D01*
X98617333Y-156754761D02*
X98379238Y-157469047D01*
X98998285Y-157469047D01*
X96522095Y-153252380D02*
X97093523Y-153252380D01*
X96807809Y-154252380D02*
X96807809Y-153252380D01*
X97426857Y-154252380D02*
X97426857Y-153252380D01*
X97807809Y-153252380D01*
X97903047Y-153300000D01*
X97950666Y-153347619D01*
X97998285Y-153442857D01*
X97998285Y-153585714D01*
X97950666Y-153680952D01*
X97903047Y-153728571D01*
X97807809Y-153776190D01*
X97426857Y-153776190D01*
X98331619Y-153252380D02*
X98950666Y-153252380D01*
X98617333Y-153633333D01*
X98760190Y-153633333D01*
X98855428Y-153680952D01*
X98903047Y-153728571D01*
X98950666Y-153823809D01*
X98950666Y-154061904D01*
X98903047Y-154157142D01*
X98855428Y-154204761D01*
X98760190Y-154252380D01*
X98474476Y-154252380D01*
X98379238Y-154204761D01*
X98331619Y-154157142D01*
X104402095Y-143340380D02*
X104973523Y-143340380D01*
X104687809Y-144340380D02*
X104687809Y-143340380D01*
X105306857Y-144340380D02*
X105306857Y-143340380D01*
X105687809Y-143340380D01*
X105783047Y-143388000D01*
X105830666Y-143435619D01*
X105878285Y-143530857D01*
X105878285Y-143673714D01*
X105830666Y-143768952D01*
X105783047Y-143816571D01*
X105687809Y-143864190D01*
X105306857Y-143864190D01*
X106259238Y-143435619D02*
X106306857Y-143388000D01*
X106402095Y-143340380D01*
X106640190Y-143340380D01*
X106735428Y-143388000D01*
X106783047Y-143435619D01*
X106830666Y-143530857D01*
X106830666Y-143626095D01*
X106783047Y-143768952D01*
X106211619Y-144340380D01*
X106830666Y-144340380D01*
X104402095Y-139790380D02*
X104973523Y-139790380D01*
X104687809Y-140790380D02*
X104687809Y-139790380D01*
X105306857Y-140790380D02*
X105306857Y-139790380D01*
X105687809Y-139790380D01*
X105783047Y-139838000D01*
X105830666Y-139885619D01*
X105878285Y-139980857D01*
X105878285Y-140123714D01*
X105830666Y-140218952D01*
X105783047Y-140266571D01*
X105687809Y-140314190D01*
X105306857Y-140314190D01*
X106830666Y-140790380D02*
X106259238Y-140790380D01*
X106544952Y-140790380D02*
X106544952Y-139790380D01*
X106449714Y-139933238D01*
X106354476Y-140028476D01*
X106259238Y-140076095D01*
X83399333Y-148549142D02*
X83351714Y-148596761D01*
X83208857Y-148644380D01*
X83113619Y-148644380D01*
X82970761Y-148596761D01*
X82875523Y-148501523D01*
X82827904Y-148406285D01*
X82780285Y-148215809D01*
X82780285Y-148072952D01*
X82827904Y-147882476D01*
X82875523Y-147787238D01*
X82970761Y-147692000D01*
X83113619Y-147644380D01*
X83208857Y-147644380D01*
X83351714Y-147692000D01*
X83399333Y-147739619D01*
X83780285Y-147739619D02*
X83827904Y-147692000D01*
X83923142Y-147644380D01*
X84161238Y-147644380D01*
X84256476Y-147692000D01*
X84304095Y-147739619D01*
X84351714Y-147834857D01*
X84351714Y-147930095D01*
X84304095Y-148072952D01*
X83732666Y-148644380D01*
X84351714Y-148644380D01*
X74291833Y-152969142D02*
X74244214Y-153016761D01*
X74101357Y-153064380D01*
X74006119Y-153064380D01*
X73863261Y-153016761D01*
X73768023Y-152921523D01*
X73720404Y-152826285D01*
X73672785Y-152635809D01*
X73672785Y-152492952D01*
X73720404Y-152302476D01*
X73768023Y-152207238D01*
X73863261Y-152112000D01*
X74006119Y-152064380D01*
X74101357Y-152064380D01*
X74244214Y-152112000D01*
X74291833Y-152159619D01*
X75148976Y-152397714D02*
X75148976Y-153064380D01*
X74910880Y-152016761D02*
X74672785Y-152731047D01*
X75291833Y-152731047D01*
X77979333Y-143469142D02*
X77931714Y-143516761D01*
X77788857Y-143564380D01*
X77693619Y-143564380D01*
X77550761Y-143516761D01*
X77455523Y-143421523D01*
X77407904Y-143326285D01*
X77360285Y-143135809D01*
X77360285Y-142992952D01*
X77407904Y-142802476D01*
X77455523Y-142707238D01*
X77550761Y-142612000D01*
X77693619Y-142564380D01*
X77788857Y-142564380D01*
X77931714Y-142612000D01*
X77979333Y-142659619D01*
X78884095Y-142564380D02*
X78407904Y-142564380D01*
X78360285Y-143040571D01*
X78407904Y-142992952D01*
X78503142Y-142945333D01*
X78741238Y-142945333D01*
X78836476Y-142992952D01*
X78884095Y-143040571D01*
X78931714Y-143135809D01*
X78931714Y-143373904D01*
X78884095Y-143469142D01*
X78836476Y-143516761D01*
X78741238Y-143564380D01*
X78503142Y-143564380D01*
X78407904Y-143516761D01*
X78360285Y-143469142D01*
X76477904Y-116674380D02*
X76477904Y-115674380D01*
X76716000Y-115674380D01*
X76858857Y-115722000D01*
X76954095Y-115817238D01*
X77001714Y-115912476D01*
X77049333Y-116102952D01*
X77049333Y-116245809D01*
X77001714Y-116436285D01*
X76954095Y-116531523D01*
X76858857Y-116626761D01*
X76716000Y-116674380D01*
X76477904Y-116674380D01*
X77430285Y-115769619D02*
X77477904Y-115722000D01*
X77573142Y-115674380D01*
X77811238Y-115674380D01*
X77906476Y-115722000D01*
X77954095Y-115769619D01*
X78001714Y-115864857D01*
X78001714Y-115960095D01*
X77954095Y-116102952D01*
X77382666Y-116674380D01*
X78001714Y-116674380D01*
X49851380Y-113363333D02*
X50565666Y-113363333D01*
X50708523Y-113410952D01*
X50803761Y-113506190D01*
X50851380Y-113649047D01*
X50851380Y-113744285D01*
X50851380Y-112363333D02*
X50851380Y-112934761D01*
X50851380Y-112649047D02*
X49851380Y-112649047D01*
X49994238Y-112744285D01*
X50089476Y-112839523D01*
X50137095Y-112934761D01*
X108028380Y-113363333D02*
X108742666Y-113363333D01*
X108885523Y-113410952D01*
X108980761Y-113506190D01*
X109028380Y-113649047D01*
X109028380Y-113744285D01*
X108123619Y-112934761D02*
X108076000Y-112887142D01*
X108028380Y-112791904D01*
X108028380Y-112553809D01*
X108076000Y-112458571D01*
X108123619Y-112410952D01*
X108218857Y-112363333D01*
X108314095Y-112363333D01*
X108456952Y-112410952D01*
X109028380Y-112982380D01*
X109028380Y-112363333D01*
X91836666Y-167780380D02*
X91836666Y-168494666D01*
X91789047Y-168637523D01*
X91693809Y-168732761D01*
X91550952Y-168780380D01*
X91455714Y-168780380D01*
X92217619Y-167780380D02*
X92836666Y-167780380D01*
X92503333Y-168161333D01*
X92646190Y-168161333D01*
X92741428Y-168208952D01*
X92789047Y-168256571D01*
X92836666Y-168351809D01*
X92836666Y-168589904D01*
X92789047Y-168685142D01*
X92741428Y-168732761D01*
X92646190Y-168780380D01*
X92360476Y-168780380D01*
X92265238Y-168732761D01*
X92217619Y-168685142D01*
X69040666Y-176818380D02*
X69040666Y-177532666D01*
X68993047Y-177675523D01*
X68897809Y-177770761D01*
X68754952Y-177818380D01*
X68659714Y-177818380D01*
X69945428Y-177151714D02*
X69945428Y-177818380D01*
X69707333Y-176770761D02*
X69469238Y-177485047D01*
X70088285Y-177485047D01*
X102266666Y-158382380D02*
X102266666Y-159096666D01*
X102219047Y-159239523D01*
X102123809Y-159334761D01*
X101980952Y-159382380D01*
X101885714Y-159382380D01*
X103219047Y-158382380D02*
X102742857Y-158382380D01*
X102695238Y-158858571D01*
X102742857Y-158810952D01*
X102838095Y-158763333D01*
X103076190Y-158763333D01*
X103171428Y-158810952D01*
X103219047Y-158858571D01*
X103266666Y-158953809D01*
X103266666Y-159191904D01*
X103219047Y-159287142D01*
X103171428Y-159334761D01*
X103076190Y-159382380D01*
X102838095Y-159382380D01*
X102742857Y-159334761D01*
X102695238Y-159287142D01*
X102266666Y-167780380D02*
X102266666Y-168494666D01*
X102219047Y-168637523D01*
X102123809Y-168732761D01*
X101980952Y-168780380D01*
X101885714Y-168780380D01*
X103171428Y-167780380D02*
X102980952Y-167780380D01*
X102885714Y-167828000D01*
X102838095Y-167875619D01*
X102742857Y-168018476D01*
X102695238Y-168208952D01*
X102695238Y-168589904D01*
X102742857Y-168685142D01*
X102790476Y-168732761D01*
X102885714Y-168780380D01*
X103076190Y-168780380D01*
X103171428Y-168732761D01*
X103219047Y-168685142D01*
X103266666Y-168589904D01*
X103266666Y-168351809D01*
X103219047Y-168256571D01*
X103171428Y-168208952D01*
X103076190Y-168161333D01*
X102885714Y-168161333D01*
X102790476Y-168208952D01*
X102742857Y-168256571D01*
X102695238Y-168351809D01*
X57864666Y-158499381D02*
X57864666Y-159213667D01*
X57817047Y-159356524D01*
X57721809Y-159451762D01*
X57578952Y-159499381D01*
X57483714Y-159499381D01*
X58245619Y-158499381D02*
X58912285Y-158499381D01*
X58483714Y-159499381D01*
X57546666Y-167526380D02*
X57546666Y-168240666D01*
X57499047Y-168383523D01*
X57403809Y-168478761D01*
X57260952Y-168526380D01*
X57165714Y-168526380D01*
X58165714Y-167954952D02*
X58070476Y-167907333D01*
X58022857Y-167859714D01*
X57975238Y-167764476D01*
X57975238Y-167716857D01*
X58022857Y-167621619D01*
X58070476Y-167574000D01*
X58165714Y-167526380D01*
X58356190Y-167526380D01*
X58451428Y-167574000D01*
X58499047Y-167621619D01*
X58546666Y-167716857D01*
X58546666Y-167764476D01*
X58499047Y-167859714D01*
X58451428Y-167907333D01*
X58356190Y-167954952D01*
X58165714Y-167954952D01*
X58070476Y-168002571D01*
X58022857Y-168050190D01*
X57975238Y-168145428D01*
X57975238Y-168335904D01*
X58022857Y-168431142D01*
X58070476Y-168478761D01*
X58165714Y-168526380D01*
X58356190Y-168526380D01*
X58451428Y-168478761D01*
X58499047Y-168431142D01*
X58546666Y-168335904D01*
X58546666Y-168145428D01*
X58499047Y-168050190D01*
X58451428Y-168002571D01*
X58356190Y-167954952D01*
X69230666Y-158499381D02*
X69230666Y-159213667D01*
X69183047Y-159356524D01*
X69087809Y-159451762D01*
X68944952Y-159499381D01*
X68849714Y-159499381D01*
X69754476Y-159499381D02*
X69944952Y-159499381D01*
X70040190Y-159451762D01*
X70087809Y-159404143D01*
X70183047Y-159261286D01*
X70230666Y-159070810D01*
X70230666Y-158689858D01*
X70183047Y-158594620D01*
X70135428Y-158547001D01*
X70040190Y-158499381D01*
X69849714Y-158499381D01*
X69754476Y-158547001D01*
X69706857Y-158594620D01*
X69659238Y-158689858D01*
X69659238Y-158927953D01*
X69706857Y-159023191D01*
X69754476Y-159070810D01*
X69849714Y-159118429D01*
X70040190Y-159118429D01*
X70135428Y-159070810D01*
X70183047Y-159023191D01*
X70230666Y-158927953D01*
X79962476Y-167780380D02*
X79962476Y-168494666D01*
X79914857Y-168637523D01*
X79819619Y-168732761D01*
X79676761Y-168780380D01*
X79581523Y-168780380D01*
X80962476Y-168780380D02*
X80391047Y-168780380D01*
X80676761Y-168780380D02*
X80676761Y-167780380D01*
X80581523Y-167923238D01*
X80486285Y-168018476D01*
X80391047Y-168066095D01*
X81581523Y-167780380D02*
X81676761Y-167780380D01*
X81772000Y-167828000D01*
X81819619Y-167875619D01*
X81867238Y-167970857D01*
X81914857Y-168161333D01*
X81914857Y-168399428D01*
X81867238Y-168589904D01*
X81819619Y-168685142D01*
X81772000Y-168732761D01*
X81676761Y-168780380D01*
X81581523Y-168780380D01*
X81486285Y-168732761D01*
X81438666Y-168685142D01*
X81391047Y-168589904D01*
X81343428Y-168399428D01*
X81343428Y-168161333D01*
X81391047Y-167970857D01*
X81438666Y-167875619D01*
X81486285Y-167828000D01*
X81581523Y-167780380D01*
X79994476Y-158382380D02*
X79994476Y-159096666D01*
X79946857Y-159239523D01*
X79851619Y-159334761D01*
X79708761Y-159382380D01*
X79613523Y-159382380D01*
X80994476Y-159382380D02*
X80423047Y-159382380D01*
X80708761Y-159382380D02*
X80708761Y-158382380D01*
X80613523Y-158525238D01*
X80518285Y-158620476D01*
X80423047Y-158668095D01*
X81946857Y-159382380D02*
X81375428Y-159382380D01*
X81661142Y-159382380D02*
X81661142Y-158382380D01*
X81565904Y-158525238D01*
X81470666Y-158620476D01*
X81375428Y-158668095D01*
X91360476Y-158382380D02*
X91360476Y-159096666D01*
X91312857Y-159239523D01*
X91217619Y-159334761D01*
X91074761Y-159382380D01*
X90979523Y-159382380D01*
X92360476Y-159382380D02*
X91789047Y-159382380D01*
X92074761Y-159382380D02*
X92074761Y-158382380D01*
X91979523Y-158525238D01*
X91884285Y-158620476D01*
X91789047Y-158668095D01*
X92741428Y-158477619D02*
X92789047Y-158430000D01*
X92884285Y-158382380D01*
X93122380Y-158382380D01*
X93217619Y-158430000D01*
X93265238Y-158477619D01*
X93312857Y-158572857D01*
X93312857Y-158668095D01*
X93265238Y-158810952D01*
X92693809Y-159382380D01*
X93312857Y-159382380D01*
X66845380Y-105838523D02*
X67559666Y-105838523D01*
X67702523Y-105886142D01*
X67797761Y-105981380D01*
X67845380Y-106124238D01*
X67845380Y-106219476D01*
X67845380Y-104838523D02*
X67845380Y-105409952D01*
X67845380Y-105124238D02*
X66845380Y-105124238D01*
X66988238Y-105219476D01*
X67083476Y-105314714D01*
X67131095Y-105409952D01*
X66845380Y-104505190D02*
X66845380Y-103886142D01*
X67226333Y-104219476D01*
X67226333Y-104076619D01*
X67273952Y-103981380D01*
X67321571Y-103933761D01*
X67416809Y-103886142D01*
X67654904Y-103886142D01*
X67750142Y-103933761D01*
X67797761Y-103981380D01*
X67845380Y-104076619D01*
X67845380Y-104362333D01*
X67797761Y-104457571D01*
X67750142Y-104505190D01*
X93106476Y-123838380D02*
X93106476Y-124552666D01*
X93058857Y-124695523D01*
X92963619Y-124790761D01*
X92820761Y-124838380D01*
X92725523Y-124838380D01*
X94106476Y-124838380D02*
X93535047Y-124838380D01*
X93820761Y-124838380D02*
X93820761Y-123838380D01*
X93725523Y-123981238D01*
X93630285Y-124076476D01*
X93535047Y-124124095D01*
X94963619Y-124171714D02*
X94963619Y-124838380D01*
X94725523Y-123790761D02*
X94487428Y-124505047D01*
X95106476Y-124505047D01*
X81911833Y-122584380D02*
X81578500Y-122108190D01*
X81340404Y-122584380D02*
X81340404Y-121584380D01*
X81721357Y-121584380D01*
X81816595Y-121632000D01*
X81864214Y-121679619D01*
X81911833Y-121774857D01*
X81911833Y-121917714D01*
X81864214Y-122012952D01*
X81816595Y-122060571D01*
X81721357Y-122108190D01*
X81340404Y-122108190D01*
X82816595Y-121584380D02*
X82340404Y-121584380D01*
X82292785Y-122060571D01*
X82340404Y-122012952D01*
X82435642Y-121965333D01*
X82673738Y-121965333D01*
X82768976Y-122012952D01*
X82816595Y-122060571D01*
X82864214Y-122155809D01*
X82864214Y-122393904D01*
X82816595Y-122489142D01*
X82768976Y-122536761D01*
X82673738Y-122584380D01*
X82435642Y-122584380D01*
X82340404Y-122536761D01*
X82292785Y-122489142D01*
X86991833Y-117758380D02*
X86658500Y-117282190D01*
X86420404Y-117758380D02*
X86420404Y-116758380D01*
X86801357Y-116758380D01*
X86896595Y-116806000D01*
X86944214Y-116853619D01*
X86991833Y-116948857D01*
X86991833Y-117091714D01*
X86944214Y-117186952D01*
X86896595Y-117234571D01*
X86801357Y-117282190D01*
X86420404Y-117282190D01*
X87848976Y-116758380D02*
X87658500Y-116758380D01*
X87563261Y-116806000D01*
X87515642Y-116853619D01*
X87420404Y-116996476D01*
X87372785Y-117186952D01*
X87372785Y-117567904D01*
X87420404Y-117663142D01*
X87468023Y-117710761D01*
X87563261Y-117758380D01*
X87753738Y-117758380D01*
X87848976Y-117710761D01*
X87896595Y-117663142D01*
X87944214Y-117567904D01*
X87944214Y-117329809D01*
X87896595Y-117234571D01*
X87848976Y-117186952D01*
X87753738Y-117139333D01*
X87563261Y-117139333D01*
X87468023Y-117186952D01*
X87420404Y-117234571D01*
X87372785Y-117329809D01*
X82923142Y-128934380D02*
X82589809Y-128458190D01*
X82351714Y-128934380D02*
X82351714Y-127934380D01*
X82732666Y-127934380D01*
X82827904Y-127982000D01*
X82875523Y-128029619D01*
X82923142Y-128124857D01*
X82923142Y-128267714D01*
X82875523Y-128362952D01*
X82827904Y-128410571D01*
X82732666Y-128458190D01*
X82351714Y-128458190D01*
X83875523Y-128934380D02*
X83304095Y-128934380D01*
X83589809Y-128934380D02*
X83589809Y-127934380D01*
X83494571Y-128077238D01*
X83399333Y-128172476D01*
X83304095Y-128220095D01*
X84446952Y-128362952D02*
X84351714Y-128315333D01*
X84304095Y-128267714D01*
X84256476Y-128172476D01*
X84256476Y-128124857D01*
X84304095Y-128029619D01*
X84351714Y-127982000D01*
X84446952Y-127934380D01*
X84637428Y-127934380D01*
X84732666Y-127982000D01*
X84780285Y-128029619D01*
X84827904Y-128124857D01*
X84827904Y-128172476D01*
X84780285Y-128267714D01*
X84732666Y-128315333D01*
X84637428Y-128362952D01*
X84446952Y-128362952D01*
X84351714Y-128410571D01*
X84304095Y-128458190D01*
X84256476Y-128553428D01*
X84256476Y-128743904D01*
X84304095Y-128839142D01*
X84351714Y-128886761D01*
X84446952Y-128934380D01*
X84637428Y-128934380D01*
X84732666Y-128886761D01*
X84780285Y-128839142D01*
X84827904Y-128743904D01*
X84827904Y-128553428D01*
X84780285Y-128458190D01*
X84732666Y-128410571D01*
X84637428Y-128362952D01*
X77592143Y-131085381D02*
X77258810Y-130609191D01*
X77020715Y-131085381D02*
X77020715Y-130085381D01*
X77401667Y-130085381D01*
X77496905Y-130133001D01*
X77544524Y-130180620D01*
X77592143Y-130275858D01*
X77592143Y-130418715D01*
X77544524Y-130513953D01*
X77496905Y-130561572D01*
X77401667Y-130609191D01*
X77020715Y-130609191D01*
X78544524Y-131085381D02*
X77973096Y-131085381D01*
X78258810Y-131085381D02*
X78258810Y-130085381D01*
X78163572Y-130228239D01*
X78068334Y-130323477D01*
X77973096Y-130371096D01*
X79020715Y-131085381D02*
X79211191Y-131085381D01*
X79306429Y-131037762D01*
X79354048Y-130990143D01*
X79449286Y-130847286D01*
X79496905Y-130656810D01*
X79496905Y-130275858D01*
X79449286Y-130180620D01*
X79401667Y-130133001D01*
X79306429Y-130085381D01*
X79115953Y-130085381D01*
X79020715Y-130133001D01*
X78973096Y-130180620D01*
X78925477Y-130275858D01*
X78925477Y-130513953D01*
X78973096Y-130609191D01*
X79020715Y-130656810D01*
X79115953Y-130704429D01*
X79306429Y-130704429D01*
X79401667Y-130656810D01*
X79449286Y-130609191D01*
X79496905Y-130513953D01*
X79113142Y-135284380D02*
X78779809Y-134808190D01*
X78541714Y-135284380D02*
X78541714Y-134284380D01*
X78922666Y-134284380D01*
X79017904Y-134332000D01*
X79065523Y-134379619D01*
X79113142Y-134474857D01*
X79113142Y-134617714D01*
X79065523Y-134712952D01*
X79017904Y-134760571D01*
X78922666Y-134808190D01*
X78541714Y-134808190D01*
X79494095Y-134379619D02*
X79541714Y-134332000D01*
X79636952Y-134284380D01*
X79875047Y-134284380D01*
X79970285Y-134332000D01*
X80017904Y-134379619D01*
X80065523Y-134474857D01*
X80065523Y-134570095D01*
X80017904Y-134712952D01*
X79446476Y-135284380D01*
X80065523Y-135284380D01*
X80684571Y-134284380D02*
X80779809Y-134284380D01*
X80875047Y-134332000D01*
X80922666Y-134379619D01*
X80970285Y-134474857D01*
X81017904Y-134665333D01*
X81017904Y-134903428D01*
X80970285Y-135093904D01*
X80922666Y-135189142D01*
X80875047Y-135236761D01*
X80779809Y-135284380D01*
X80684571Y-135284380D01*
X80589333Y-135236761D01*
X80541714Y-135189142D01*
X80494095Y-135093904D01*
X80446476Y-134903428D01*
X80446476Y-134665333D01*
X80494095Y-134474857D01*
X80541714Y-134379619D01*
X80589333Y-134332000D01*
X80684571Y-134284380D01*
X72763142Y-123854380D02*
X72429809Y-123378190D01*
X72191714Y-123854380D02*
X72191714Y-122854380D01*
X72572666Y-122854380D01*
X72667904Y-122902000D01*
X72715523Y-122949619D01*
X72763142Y-123044857D01*
X72763142Y-123187714D01*
X72715523Y-123282952D01*
X72667904Y-123330571D01*
X72572666Y-123378190D01*
X72191714Y-123378190D01*
X73096476Y-122854380D02*
X73715523Y-122854380D01*
X73382190Y-123235333D01*
X73525047Y-123235333D01*
X73620285Y-123282952D01*
X73667904Y-123330571D01*
X73715523Y-123425809D01*
X73715523Y-123663904D01*
X73667904Y-123759142D01*
X73620285Y-123806761D01*
X73525047Y-123854380D01*
X73239333Y-123854380D01*
X73144095Y-123806761D01*
X73096476Y-123759142D01*
X74572666Y-122854380D02*
X74382190Y-122854380D01*
X74286952Y-122902000D01*
X74239333Y-122949619D01*
X74144095Y-123092476D01*
X74096476Y-123282952D01*
X74096476Y-123663904D01*
X74144095Y-123759142D01*
X74191714Y-123806761D01*
X74286952Y-123854380D01*
X74477428Y-123854380D01*
X74572666Y-123806761D01*
X74620285Y-123759142D01*
X74667904Y-123663904D01*
X74667904Y-123425809D01*
X74620285Y-123330571D01*
X74572666Y-123282952D01*
X74477428Y-123235333D01*
X74286952Y-123235333D01*
X74191714Y-123282952D01*
X74144095Y-123330571D01*
X74096476Y-123425809D01*
X81181642Y-117758380D02*
X80848309Y-117282190D01*
X80610214Y-117758380D02*
X80610214Y-116758380D01*
X80991166Y-116758380D01*
X81086404Y-116806000D01*
X81134023Y-116853619D01*
X81181642Y-116948857D01*
X81181642Y-117091714D01*
X81134023Y-117186952D01*
X81086404Y-117234571D01*
X80991166Y-117282190D01*
X80610214Y-117282190D01*
X81514976Y-116758380D02*
X82134023Y-116758380D01*
X81800690Y-117139333D01*
X81943547Y-117139333D01*
X82038785Y-117186952D01*
X82086404Y-117234571D01*
X82134023Y-117329809D01*
X82134023Y-117567904D01*
X82086404Y-117663142D01*
X82038785Y-117710761D01*
X81943547Y-117758380D01*
X81657833Y-117758380D01*
X81562595Y-117710761D01*
X81514976Y-117663142D01*
X82467357Y-116758380D02*
X83134023Y-116758380D01*
X82705452Y-117758380D01*
X77592143Y-127795381D02*
X77258810Y-127319191D01*
X77020715Y-127795381D02*
X77020715Y-126795381D01*
X77401667Y-126795381D01*
X77496905Y-126843001D01*
X77544524Y-126890620D01*
X77592143Y-126985858D01*
X77592143Y-127128715D01*
X77544524Y-127223953D01*
X77496905Y-127271572D01*
X77401667Y-127319191D01*
X77020715Y-127319191D01*
X77925477Y-126795381D02*
X78544524Y-126795381D01*
X78211191Y-127176334D01*
X78354048Y-127176334D01*
X78449286Y-127223953D01*
X78496905Y-127271572D01*
X78544524Y-127366810D01*
X78544524Y-127604905D01*
X78496905Y-127700143D01*
X78449286Y-127747762D01*
X78354048Y-127795381D01*
X78068334Y-127795381D01*
X77973096Y-127747762D01*
X77925477Y-127700143D01*
X79115953Y-127223953D02*
X79020715Y-127176334D01*
X78973096Y-127128715D01*
X78925477Y-127033477D01*
X78925477Y-126985858D01*
X78973096Y-126890620D01*
X79020715Y-126843001D01*
X79115953Y-126795381D01*
X79306429Y-126795381D01*
X79401667Y-126843001D01*
X79449286Y-126890620D01*
X79496905Y-126985858D01*
X79496905Y-127033477D01*
X79449286Y-127128715D01*
X79401667Y-127176334D01*
X79306429Y-127223953D01*
X79115953Y-127223953D01*
X79020715Y-127271572D01*
X78973096Y-127319191D01*
X78925477Y-127414429D01*
X78925477Y-127604905D01*
X78973096Y-127700143D01*
X79020715Y-127747762D01*
X79115953Y-127795381D01*
X79306429Y-127795381D01*
X79401667Y-127747762D01*
X79449286Y-127700143D01*
X79496905Y-127604905D01*
X79496905Y-127414429D01*
X79449286Y-127319191D01*
X79401667Y-127271572D01*
X79306429Y-127223953D01*
X66376642Y-119536380D02*
X66043309Y-119060190D01*
X65805214Y-119536380D02*
X65805214Y-118536380D01*
X66186166Y-118536380D01*
X66281404Y-118584000D01*
X66329023Y-118631619D01*
X66376642Y-118726857D01*
X66376642Y-118869714D01*
X66329023Y-118964952D01*
X66281404Y-119012571D01*
X66186166Y-119060190D01*
X65805214Y-119060190D01*
X66709976Y-118536380D02*
X67376642Y-118536380D01*
X66948071Y-119536380D01*
X67709976Y-118631619D02*
X67757595Y-118584000D01*
X67852833Y-118536380D01*
X68090928Y-118536380D01*
X68186166Y-118584000D01*
X68233785Y-118631619D01*
X68281404Y-118726857D01*
X68281404Y-118822095D01*
X68233785Y-118964952D01*
X67662357Y-119536380D01*
X68281404Y-119536380D01*
X56143523Y-145298380D02*
X55810190Y-144822190D01*
X55572095Y-145298380D02*
X55572095Y-144298380D01*
X55953047Y-144298380D01*
X56048285Y-144346000D01*
X56095904Y-144393619D01*
X56143523Y-144488857D01*
X56143523Y-144631714D01*
X56095904Y-144726952D01*
X56048285Y-144774571D01*
X55953047Y-144822190D01*
X55572095Y-144822190D01*
X56572095Y-145298380D02*
X56572095Y-144298380D01*
X57143523Y-145298380D01*
X57143523Y-144298380D01*
X58143523Y-145298380D02*
X57572095Y-145298380D01*
X57857809Y-145298380D02*
X57857809Y-144298380D01*
X57762571Y-144441238D01*
X57667333Y-144536476D01*
X57572095Y-144584095D01*
X65349523Y-140942380D02*
X65016190Y-140466190D01*
X64778095Y-140942380D02*
X64778095Y-139942380D01*
X65159047Y-139942380D01*
X65254285Y-139990000D01*
X65301904Y-140037619D01*
X65349523Y-140132857D01*
X65349523Y-140275714D01*
X65301904Y-140370952D01*
X65254285Y-140418571D01*
X65159047Y-140466190D01*
X64778095Y-140466190D01*
X65778095Y-140942380D02*
X65778095Y-139942380D01*
X66349523Y-140942380D01*
X66349523Y-139942380D01*
X66778095Y-140037619D02*
X66825714Y-139990000D01*
X66920952Y-139942380D01*
X67159047Y-139942380D01*
X67254285Y-139990000D01*
X67301904Y-140037619D01*
X67349523Y-140132857D01*
X67349523Y-140228095D01*
X67301904Y-140370952D01*
X66730476Y-140942380D01*
X67349523Y-140942380D01*
X69159523Y-148562380D02*
X68826190Y-148086190D01*
X68588095Y-148562380D02*
X68588095Y-147562380D01*
X68969047Y-147562380D01*
X69064285Y-147610000D01*
X69111904Y-147657619D01*
X69159523Y-147752857D01*
X69159523Y-147895714D01*
X69111904Y-147990952D01*
X69064285Y-148038571D01*
X68969047Y-148086190D01*
X68588095Y-148086190D01*
X69588095Y-148562380D02*
X69588095Y-147562380D01*
X70159523Y-148562380D01*
X70159523Y-147562380D01*
X70540476Y-147562380D02*
X71159523Y-147562380D01*
X70826190Y-147943333D01*
X70969047Y-147943333D01*
X71064285Y-147990952D01*
X71111904Y-148038571D01*
X71159523Y-148133809D01*
X71159523Y-148371904D01*
X71111904Y-148467142D01*
X71064285Y-148514761D01*
X70969047Y-148562380D01*
X70683333Y-148562380D01*
X70588095Y-148514761D01*
X70540476Y-148467142D01*
X81268666Y-101528761D02*
X81411523Y-101576380D01*
X81649619Y-101576380D01*
X81744857Y-101528761D01*
X81792476Y-101481142D01*
X81840095Y-101385904D01*
X81840095Y-101290666D01*
X81792476Y-101195428D01*
X81744857Y-101147809D01*
X81649619Y-101100190D01*
X81459142Y-101052571D01*
X81363904Y-101004952D01*
X81316285Y-100957333D01*
X81268666Y-100862095D01*
X81268666Y-100766857D01*
X81316285Y-100671619D01*
X81363904Y-100624000D01*
X81459142Y-100576380D01*
X81697238Y-100576380D01*
X81840095Y-100624000D01*
X82173428Y-100576380D02*
X82411523Y-101576380D01*
X82602000Y-100862095D01*
X82792476Y-101576380D01*
X83030571Y-100576380D01*
X83935333Y-101576380D02*
X83363904Y-101576380D01*
X83649619Y-101576380D02*
X83649619Y-100576380D01*
X83554380Y-100719238D01*
X83459142Y-100814476D01*
X83363904Y-100862095D01*
X61214095Y-150080380D02*
X61214095Y-150889904D01*
X61261714Y-150985142D01*
X61309333Y-151032761D01*
X61404571Y-151080380D01*
X61595047Y-151080380D01*
X61690285Y-151032761D01*
X61737904Y-150985142D01*
X61785523Y-150889904D01*
X61785523Y-150080380D01*
X62785523Y-151080380D02*
X62214095Y-151080380D01*
X62499809Y-151080380D02*
X62499809Y-150080380D01*
X62404571Y-150223238D01*
X62309333Y-150318476D01*
X62214095Y-150366095D01*
X89234095Y-139554380D02*
X89234095Y-140363904D01*
X89281714Y-140459142D01*
X89329333Y-140506761D01*
X89424571Y-140554380D01*
X89615047Y-140554380D01*
X89710285Y-140506761D01*
X89757904Y-140459142D01*
X89805523Y-140363904D01*
X89805523Y-139554380D01*
X90186476Y-139554380D02*
X90805523Y-139554380D01*
X90472190Y-139935333D01*
X90615047Y-139935333D01*
X90710285Y-139982952D01*
X90757904Y-140030571D01*
X90805523Y-140125809D01*
X90805523Y-140363904D01*
X90757904Y-140459142D01*
X90710285Y-140506761D01*
X90615047Y-140554380D01*
X90329333Y-140554380D01*
X90234095Y-140506761D01*
X90186476Y-140459142D01*
X94234095Y-145904380D02*
X94234095Y-146713904D01*
X94281714Y-146809142D01*
X94329333Y-146856761D01*
X94424571Y-146904380D01*
X94615047Y-146904380D01*
X94710285Y-146856761D01*
X94757904Y-146809142D01*
X94805523Y-146713904D01*
X94805523Y-145904380D01*
X95710285Y-146237714D02*
X95710285Y-146904380D01*
X95472190Y-145856761D02*
X95234095Y-146571047D01*
X95853142Y-146571047D01*
X99314095Y-139554380D02*
X99314095Y-140363904D01*
X99361714Y-140459142D01*
X99409333Y-140506761D01*
X99504571Y-140554380D01*
X99695047Y-140554380D01*
X99790285Y-140506761D01*
X99837904Y-140459142D01*
X99885523Y-140363904D01*
X99885523Y-139554380D01*
X100837904Y-139554380D02*
X100361714Y-139554380D01*
X100314095Y-140030571D01*
X100361714Y-139982952D01*
X100456952Y-139935333D01*
X100695047Y-139935333D01*
X100790285Y-139982952D01*
X100837904Y-140030571D01*
X100885523Y-140125809D01*
X100885523Y-140363904D01*
X100837904Y-140459142D01*
X100790285Y-140506761D01*
X100695047Y-140554380D01*
X100456952Y-140554380D01*
X100361714Y-140506761D01*
X100314095Y-140459142D01*
X103806095Y-126092380D02*
X103806095Y-126901904D01*
X103853714Y-126997142D01*
X103901333Y-127044761D01*
X103996571Y-127092380D01*
X104187047Y-127092380D01*
X104282285Y-127044761D01*
X104329904Y-126997142D01*
X104377523Y-126901904D01*
X104377523Y-126092380D01*
X104758476Y-126092380D02*
X105425142Y-126092380D01*
X104996571Y-127092380D01*
X70104095Y-133204380D02*
X70104095Y-134013904D01*
X70151714Y-134109142D01*
X70199333Y-134156761D01*
X70294571Y-134204380D01*
X70485047Y-134204380D01*
X70580285Y-134156761D01*
X70627904Y-134109142D01*
X70675523Y-134013904D01*
X70675523Y-133204380D01*
X71294571Y-133632952D02*
X71199333Y-133585333D01*
X71151714Y-133537714D01*
X71104095Y-133442476D01*
X71104095Y-133394857D01*
X71151714Y-133299619D01*
X71199333Y-133252000D01*
X71294571Y-133204380D01*
X71485047Y-133204380D01*
X71580285Y-133252000D01*
X71627904Y-133299619D01*
X71675523Y-133394857D01*
X71675523Y-133442476D01*
X71627904Y-133537714D01*
X71580285Y-133585333D01*
X71485047Y-133632952D01*
X71294571Y-133632952D01*
X71199333Y-133680571D01*
X71151714Y-133728190D01*
X71104095Y-133823428D01*
X71104095Y-134013904D01*
X71151714Y-134109142D01*
X71199333Y-134156761D01*
X71294571Y-134204380D01*
X71485047Y-134204380D01*
X71580285Y-134156761D01*
X71627904Y-134109142D01*
X71675523Y-134013904D01*
X71675523Y-133823428D01*
X71627904Y-133728190D01*
X71580285Y-133680571D01*
X71485047Y-133632952D01*
X93855904Y-133286380D02*
X93855904Y-134095904D01*
X93903523Y-134191142D01*
X93951142Y-134238761D01*
X94046380Y-134286380D01*
X94236857Y-134286380D01*
X94332095Y-134238761D01*
X94379714Y-134191142D01*
X94427333Y-134095904D01*
X94427333Y-133286380D01*
X95427333Y-134286380D02*
X94855904Y-134286380D01*
X95141619Y-134286380D02*
X95141619Y-133286380D01*
X95046380Y-133429238D01*
X94951142Y-133524476D01*
X94855904Y-133572095D01*
X96046380Y-133286380D02*
X96141619Y-133286380D01*
X96236857Y-133334000D01*
X96284476Y-133381619D01*
X96332095Y-133476857D01*
X96379714Y-133667333D01*
X96379714Y-133905428D01*
X96332095Y-134095904D01*
X96284476Y-134191142D01*
X96236857Y-134238761D01*
X96141619Y-134286380D01*
X96046380Y-134286380D01*
X95951142Y-134238761D01*
X95903523Y-134191142D01*
X95855904Y-134095904D01*
X95808285Y-133905428D01*
X95808285Y-133667333D01*
X95855904Y-133476857D01*
X95903523Y-133381619D01*
X95951142Y-133334000D01*
X96046380Y-133286380D01*
X68086380Y-113252095D02*
X68895904Y-113252095D01*
X68991142Y-113204476D01*
X69038761Y-113156857D01*
X69086380Y-113061619D01*
X69086380Y-112871142D01*
X69038761Y-112775904D01*
X68991142Y-112728285D01*
X68895904Y-112680666D01*
X68086380Y-112680666D01*
X69086380Y-111680666D02*
X69086380Y-112252095D01*
X69086380Y-111966380D02*
X68086380Y-111966380D01*
X68229238Y-112061619D01*
X68324476Y-112156857D01*
X68372095Y-112252095D01*
X69086380Y-111204476D02*
X69086380Y-111014000D01*
X69038761Y-110918761D01*
X68991142Y-110871142D01*
X68848285Y-110775904D01*
X68657809Y-110728285D01*
X68276857Y-110728285D01*
X68181619Y-110775904D01*
X68134000Y-110823523D01*
X68086380Y-110918761D01*
X68086380Y-111109238D01*
X68134000Y-111204476D01*
X68181619Y-111252095D01*
X68276857Y-111299714D01*
X68514952Y-111299714D01*
X68610190Y-111252095D01*
X68657809Y-111204476D01*
X68705428Y-111109238D01*
X68705428Y-110918761D01*
X68657809Y-110823523D01*
X68610190Y-110775904D01*
X68514952Y-110728285D01*
X58705904Y-124690380D02*
X58705904Y-125499904D01*
X58753523Y-125595142D01*
X58801142Y-125642761D01*
X58896380Y-125690380D01*
X59086857Y-125690380D01*
X59182095Y-125642761D01*
X59229714Y-125595142D01*
X59277333Y-125499904D01*
X59277333Y-124690380D01*
X59705904Y-124785619D02*
X59753523Y-124738000D01*
X59848761Y-124690380D01*
X60086857Y-124690380D01*
X60182095Y-124738000D01*
X60229714Y-124785619D01*
X60277333Y-124880857D01*
X60277333Y-124976095D01*
X60229714Y-125118952D01*
X59658285Y-125690380D01*
X60277333Y-125690380D01*
X60896380Y-124690380D02*
X60991619Y-124690380D01*
X61086857Y-124738000D01*
X61134476Y-124785619D01*
X61182095Y-124880857D01*
X61229714Y-125071333D01*
X61229714Y-125309428D01*
X61182095Y-125499904D01*
X61134476Y-125595142D01*
X61086857Y-125642761D01*
X60991619Y-125690380D01*
X60896380Y-125690380D01*
X60801142Y-125642761D01*
X60753523Y-125595142D01*
X60705904Y-125499904D01*
X60658285Y-125309428D01*
X60658285Y-125071333D01*
X60705904Y-124880857D01*
X60753523Y-124785619D01*
X60801142Y-124738000D01*
X60896380Y-124690380D01*
M02*
