G04 #@! TF.GenerationSoftware,KiCad,Pcbnew,5.1.6-c6e7f7d~86~ubuntu18.04.1*
G04 #@! TF.CreationDate,2020-05-26T10:09:14-07:00*
G04 #@! TF.ProjectId,Extention Boards,45787465-6e74-4696-9f6e-20426f617264,rev?*
G04 #@! TF.SameCoordinates,Original*
G04 #@! TF.FileFunction,Paste,Bot*
G04 #@! TF.FilePolarity,Positive*
%FSLAX46Y46*%
G04 Gerber Fmt 4.6, Leading zero omitted, Abs format (unit mm)*
G04 Created by KiCad (PCBNEW 5.1.6-c6e7f7d~86~ubuntu18.04.1) date 2020-05-26 10:09:14*
%MOMM*%
%LPD*%
G01*
G04 APERTURE LIST*
G04 APERTURE END LIST*
G36*
G01*
X179728500Y-109941200D02*
X179728500Y-111191200D01*
G75*
G02*
X179478500Y-111441200I-250000J0D01*
G01*
X178553500Y-111441200D01*
G75*
G02*
X178303500Y-111191200I0J250000D01*
G01*
X178303500Y-109941200D01*
G75*
G02*
X178553500Y-109691200I250000J0D01*
G01*
X179478500Y-109691200D01*
G75*
G02*
X179728500Y-109941200I0J-250000D01*
G01*
G37*
G36*
G01*
X182703500Y-109941200D02*
X182703500Y-111191200D01*
G75*
G02*
X182453500Y-111441200I-250000J0D01*
G01*
X181528500Y-111441200D01*
G75*
G02*
X181278500Y-111191200I0J250000D01*
G01*
X181278500Y-109941200D01*
G75*
G02*
X181528500Y-109691200I250000J0D01*
G01*
X182453500Y-109691200D01*
G75*
G02*
X182703500Y-109941200I0J-250000D01*
G01*
G37*
G36*
G01*
X186409300Y-107254200D02*
X186409300Y-106004200D01*
G75*
G02*
X186659300Y-105754200I250000J0D01*
G01*
X187584300Y-105754200D01*
G75*
G02*
X187834300Y-106004200I0J-250000D01*
G01*
X187834300Y-107254200D01*
G75*
G02*
X187584300Y-107504200I-250000J0D01*
G01*
X186659300Y-107504200D01*
G75*
G02*
X186409300Y-107254200I0J250000D01*
G01*
G37*
G36*
G01*
X183434300Y-107254200D02*
X183434300Y-106004200D01*
G75*
G02*
X183684300Y-105754200I250000J0D01*
G01*
X184609300Y-105754200D01*
G75*
G02*
X184859300Y-106004200I0J-250000D01*
G01*
X184859300Y-107254200D01*
G75*
G02*
X184609300Y-107504200I-250000J0D01*
G01*
X183684300Y-107504200D01*
G75*
G02*
X183434300Y-107254200I0J250000D01*
G01*
G37*
G36*
G01*
X179728500Y-102355066D02*
X179728500Y-103605066D01*
G75*
G02*
X179478500Y-103855066I-250000J0D01*
G01*
X178553500Y-103855066D01*
G75*
G02*
X178303500Y-103605066I0J250000D01*
G01*
X178303500Y-102355066D01*
G75*
G02*
X178553500Y-102105066I250000J0D01*
G01*
X179478500Y-102105066D01*
G75*
G02*
X179728500Y-102355066I0J-250000D01*
G01*
G37*
G36*
G01*
X182703500Y-102245000D02*
X182703500Y-103495000D01*
G75*
G02*
X182453500Y-103745000I-250000J0D01*
G01*
X181528500Y-103745000D01*
G75*
G02*
X181278500Y-103495000I0J250000D01*
G01*
X181278500Y-102245000D01*
G75*
G02*
X181528500Y-101995000I250000J0D01*
G01*
X182453500Y-101995000D01*
G75*
G02*
X182703500Y-102245000I0J-250000D01*
G01*
G37*
G36*
G01*
X186412500Y-111115000D02*
X186412500Y-109865000D01*
G75*
G02*
X186662500Y-109615000I250000J0D01*
G01*
X187587500Y-109615000D01*
G75*
G02*
X187837500Y-109865000I0J-250000D01*
G01*
X187837500Y-111115000D01*
G75*
G02*
X187587500Y-111365000I-250000J0D01*
G01*
X186662500Y-111365000D01*
G75*
G02*
X186412500Y-111115000I0J250000D01*
G01*
G37*
G36*
G01*
X183437500Y-111115000D02*
X183437500Y-109865000D01*
G75*
G02*
X183687500Y-109615000I250000J0D01*
G01*
X184612500Y-109615000D01*
G75*
G02*
X184862500Y-109865000I0J-250000D01*
G01*
X184862500Y-111115000D01*
G75*
G02*
X184612500Y-111365000I-250000J0D01*
G01*
X183687500Y-111365000D01*
G75*
G02*
X183437500Y-111115000I0J250000D01*
G01*
G37*
G36*
G01*
X179728500Y-106148132D02*
X179728500Y-107398132D01*
G75*
G02*
X179478500Y-107648132I-250000J0D01*
G01*
X178553500Y-107648132D01*
G75*
G02*
X178303500Y-107398132I0J250000D01*
G01*
X178303500Y-106148132D01*
G75*
G02*
X178553500Y-105898132I250000J0D01*
G01*
X179478500Y-105898132D01*
G75*
G02*
X179728500Y-106148132I0J-250000D01*
G01*
G37*
G36*
G01*
X182703500Y-106055000D02*
X182703500Y-107305000D01*
G75*
G02*
X182453500Y-107555000I-250000J0D01*
G01*
X181528500Y-107555000D01*
G75*
G02*
X181278500Y-107305000I0J250000D01*
G01*
X181278500Y-106055000D01*
G75*
G02*
X181528500Y-105805000I250000J0D01*
G01*
X182453500Y-105805000D01*
G75*
G02*
X182703500Y-106055000I0J-250000D01*
G01*
G37*
G36*
G01*
X179728500Y-98562000D02*
X179728500Y-99812000D01*
G75*
G02*
X179478500Y-100062000I-250000J0D01*
G01*
X178553500Y-100062000D01*
G75*
G02*
X178303500Y-99812000I0J250000D01*
G01*
X178303500Y-98562000D01*
G75*
G02*
X178553500Y-98312000I250000J0D01*
G01*
X179478500Y-98312000D01*
G75*
G02*
X179728500Y-98562000I0J-250000D01*
G01*
G37*
G36*
G01*
X182703500Y-98562000D02*
X182703500Y-99812000D01*
G75*
G02*
X182453500Y-100062000I-250000J0D01*
G01*
X181528500Y-100062000D01*
G75*
G02*
X181278500Y-99812000I0J250000D01*
G01*
X181278500Y-98562000D01*
G75*
G02*
X181528500Y-98312000I250000J0D01*
G01*
X182453500Y-98312000D01*
G75*
G02*
X182703500Y-98562000I0J-250000D01*
G01*
G37*
G36*
G01*
X186412500Y-99685000D02*
X186412500Y-98435000D01*
G75*
G02*
X186662500Y-98185000I250000J0D01*
G01*
X187587500Y-98185000D01*
G75*
G02*
X187837500Y-98435000I0J-250000D01*
G01*
X187837500Y-99685000D01*
G75*
G02*
X187587500Y-99935000I-250000J0D01*
G01*
X186662500Y-99935000D01*
G75*
G02*
X186412500Y-99685000I0J250000D01*
G01*
G37*
G36*
G01*
X183437500Y-99685000D02*
X183437500Y-98435000D01*
G75*
G02*
X183687500Y-98185000I250000J0D01*
G01*
X184612500Y-98185000D01*
G75*
G02*
X184862500Y-98435000I0J-250000D01*
G01*
X184862500Y-99685000D01*
G75*
G02*
X184612500Y-99935000I-250000J0D01*
G01*
X183687500Y-99935000D01*
G75*
G02*
X183437500Y-99685000I0J250000D01*
G01*
G37*
M02*
