G04 #@! TF.GenerationSoftware,KiCad,Pcbnew,5.1.6-c6e7f7d~86~ubuntu18.04.1*
G04 #@! TF.CreationDate,2020-05-26T10:09:14-07:00*
G04 #@! TF.ProjectId,Extention Boards,45787465-6e74-4696-9f6e-20426f617264,rev?*
G04 #@! TF.SameCoordinates,Original*
G04 #@! TF.FileFunction,Legend,Bot*
G04 #@! TF.FilePolarity,Positive*
%FSLAX46Y46*%
G04 Gerber Fmt 4.6, Leading zero omitted, Abs format (unit mm)*
G04 Created by KiCad (PCBNEW 5.1.6-c6e7f7d~86~ubuntu18.04.1) date 2020-05-26 10:09:14*
%MOMM*%
%LPD*%
G01*
G04 APERTURE LIST*
%ADD10C,0.150000*%
%ADD11C,0.120000*%
G04 APERTURE END LIST*
D10*
X159583047Y-129865428D02*
X158821142Y-129865428D01*
X159202095Y-130246380D02*
X159202095Y-129484476D01*
X158440190Y-129246380D02*
X157821142Y-129246380D01*
X158154476Y-129627333D01*
X158011619Y-129627333D01*
X157916380Y-129674952D01*
X157868761Y-129722571D01*
X157821142Y-129817809D01*
X157821142Y-130055904D01*
X157868761Y-130151142D01*
X157916380Y-130198761D01*
X158011619Y-130246380D01*
X158297333Y-130246380D01*
X158392571Y-130198761D01*
X158440190Y-130151142D01*
X157535428Y-129246380D02*
X157202095Y-130246380D01*
X156868761Y-129246380D01*
X156630666Y-129246380D02*
X156011619Y-129246380D01*
X156344952Y-129627333D01*
X156202095Y-129627333D01*
X156106857Y-129674952D01*
X156059238Y-129722571D01*
X156011619Y-129817809D01*
X156011619Y-130055904D01*
X156059238Y-130151142D01*
X156106857Y-130198761D01*
X156202095Y-130246380D01*
X156487809Y-130246380D01*
X156583047Y-130198761D01*
X156630666Y-130151142D01*
X154821142Y-129722571D02*
X154487809Y-129722571D01*
X154344952Y-130246380D02*
X154821142Y-130246380D01*
X154821142Y-129246380D01*
X154344952Y-129246380D01*
X153916380Y-130246380D02*
X153916380Y-129246380D01*
X153344952Y-130246380D01*
X153344952Y-129246380D01*
D11*
X198942000Y-102676000D02*
X198942000Y-101346000D01*
X197612000Y-102676000D02*
X198942000Y-102676000D01*
X196342000Y-102676000D02*
X196342000Y-100016000D01*
X196342000Y-100016000D02*
X193742000Y-100016000D01*
X196342000Y-102676000D02*
X193742000Y-102676000D01*
X193742000Y-102676000D02*
X193742000Y-100016000D01*
X181105564Y-111476200D02*
X179901436Y-111476200D01*
X181105564Y-109656200D02*
X179901436Y-109656200D01*
X185032236Y-105719200D02*
X186236364Y-105719200D01*
X185032236Y-107539200D02*
X186236364Y-107539200D01*
X181105564Y-103780000D02*
X179901436Y-103780000D01*
X181105564Y-101960000D02*
X179901436Y-101960000D01*
X185035436Y-109580000D02*
X186239564Y-109580000D01*
X185035436Y-111400000D02*
X186239564Y-111400000D01*
X181105564Y-107590000D02*
X179901436Y-107590000D01*
X181105564Y-105770000D02*
X179901436Y-105770000D01*
X181105564Y-100097000D02*
X179901436Y-100097000D01*
X181105564Y-98277000D02*
X179901436Y-98277000D01*
X185035436Y-98150000D02*
X186239564Y-98150000D01*
X185035436Y-99970000D02*
X186239564Y-99970000D01*
D10*
X200699619Y-101679333D02*
X199985333Y-101679333D01*
X199842476Y-101726952D01*
X199747238Y-101822190D01*
X199699619Y-101965047D01*
X199699619Y-102060285D01*
X200699619Y-100774571D02*
X200699619Y-100965047D01*
X200652000Y-101060285D01*
X200604380Y-101107904D01*
X200461523Y-101203142D01*
X200271047Y-101250761D01*
X199890095Y-101250761D01*
X199794857Y-101203142D01*
X199747238Y-101155523D01*
X199699619Y-101060285D01*
X199699619Y-100869809D01*
X199747238Y-100774571D01*
X199794857Y-100726952D01*
X199890095Y-100679333D01*
X200128190Y-100679333D01*
X200223428Y-100726952D01*
X200271047Y-100774571D01*
X200318666Y-100869809D01*
X200318666Y-101060285D01*
X200271047Y-101155523D01*
X200223428Y-101203142D01*
X200128190Y-101250761D01*
X177274457Y-110897942D02*
X177322076Y-110945561D01*
X177464933Y-110993180D01*
X177560171Y-110993180D01*
X177703028Y-110945561D01*
X177798266Y-110850323D01*
X177845885Y-110755085D01*
X177893504Y-110564609D01*
X177893504Y-110421752D01*
X177845885Y-110231276D01*
X177798266Y-110136038D01*
X177703028Y-110040800D01*
X177560171Y-109993180D01*
X177464933Y-109993180D01*
X177322076Y-110040800D01*
X177274457Y-110088419D01*
X176322076Y-110993180D02*
X176893504Y-110993180D01*
X176607790Y-110993180D02*
X176607790Y-109993180D01*
X176703028Y-110136038D01*
X176798266Y-110231276D01*
X176893504Y-110278895D01*
X175988742Y-109993180D02*
X175369695Y-109993180D01*
X175703028Y-110374133D01*
X175560171Y-110374133D01*
X175464933Y-110421752D01*
X175417314Y-110469371D01*
X175369695Y-110564609D01*
X175369695Y-110802704D01*
X175417314Y-110897942D01*
X175464933Y-110945561D01*
X175560171Y-110993180D01*
X175845885Y-110993180D01*
X175941123Y-110945561D01*
X175988742Y-110897942D01*
X189523666Y-107037142D02*
X189571285Y-107084761D01*
X189714142Y-107132380D01*
X189809380Y-107132380D01*
X189952238Y-107084761D01*
X190047476Y-106989523D01*
X190095095Y-106894285D01*
X190142714Y-106703809D01*
X190142714Y-106560952D01*
X190095095Y-106370476D01*
X190047476Y-106275238D01*
X189952238Y-106180000D01*
X189809380Y-106132380D01*
X189714142Y-106132380D01*
X189571285Y-106180000D01*
X189523666Y-106227619D01*
X188666523Y-106132380D02*
X188857000Y-106132380D01*
X188952238Y-106180000D01*
X188999857Y-106227619D01*
X189095095Y-106370476D01*
X189142714Y-106560952D01*
X189142714Y-106941904D01*
X189095095Y-107037142D01*
X189047476Y-107084761D01*
X188952238Y-107132380D01*
X188761761Y-107132380D01*
X188666523Y-107084761D01*
X188618904Y-107037142D01*
X188571285Y-106941904D01*
X188571285Y-106703809D01*
X188618904Y-106608571D01*
X188666523Y-106560952D01*
X188761761Y-106513333D01*
X188952238Y-106513333D01*
X189047476Y-106560952D01*
X189095095Y-106608571D01*
X189142714Y-106703809D01*
X177274457Y-103277942D02*
X177322076Y-103325561D01*
X177464933Y-103373180D01*
X177560171Y-103373180D01*
X177703028Y-103325561D01*
X177798266Y-103230323D01*
X177845885Y-103135085D01*
X177893504Y-102944609D01*
X177893504Y-102801752D01*
X177845885Y-102611276D01*
X177798266Y-102516038D01*
X177703028Y-102420800D01*
X177560171Y-102373180D01*
X177464933Y-102373180D01*
X177322076Y-102420800D01*
X177274457Y-102468419D01*
X176322076Y-103373180D02*
X176893504Y-103373180D01*
X176607790Y-103373180D02*
X176607790Y-102373180D01*
X176703028Y-102516038D01*
X176798266Y-102611276D01*
X176893504Y-102658895D01*
X175464933Y-102706514D02*
X175464933Y-103373180D01*
X175703028Y-102325561D02*
X175941123Y-103039847D01*
X175322076Y-103039847D01*
X189999857Y-110842062D02*
X190047476Y-110889681D01*
X190190333Y-110937300D01*
X190285571Y-110937300D01*
X190428428Y-110889681D01*
X190523666Y-110794443D01*
X190571285Y-110699205D01*
X190618904Y-110508729D01*
X190618904Y-110365872D01*
X190571285Y-110175396D01*
X190523666Y-110080158D01*
X190428428Y-109984920D01*
X190285571Y-109937300D01*
X190190333Y-109937300D01*
X190047476Y-109984920D01*
X189999857Y-110032539D01*
X189047476Y-110937300D02*
X189618904Y-110937300D01*
X189333190Y-110937300D02*
X189333190Y-109937300D01*
X189428428Y-110080158D01*
X189523666Y-110175396D01*
X189618904Y-110223015D01*
X188666523Y-110032539D02*
X188618904Y-109984920D01*
X188523666Y-109937300D01*
X188285571Y-109937300D01*
X188190333Y-109984920D01*
X188142714Y-110032539D01*
X188095095Y-110127777D01*
X188095095Y-110223015D01*
X188142714Y-110365872D01*
X188714142Y-110937300D01*
X188095095Y-110937300D01*
X177274457Y-107087942D02*
X177322076Y-107135561D01*
X177464933Y-107183180D01*
X177560171Y-107183180D01*
X177703028Y-107135561D01*
X177798266Y-107040323D01*
X177845885Y-106945085D01*
X177893504Y-106754609D01*
X177893504Y-106611752D01*
X177845885Y-106421276D01*
X177798266Y-106326038D01*
X177703028Y-106230800D01*
X177560171Y-106183180D01*
X177464933Y-106183180D01*
X177322076Y-106230800D01*
X177274457Y-106278419D01*
X176322076Y-107183180D02*
X176893504Y-107183180D01*
X176607790Y-107183180D02*
X176607790Y-106183180D01*
X176703028Y-106326038D01*
X176798266Y-106421276D01*
X176893504Y-106468895D01*
X175369695Y-107183180D02*
X175941123Y-107183180D01*
X175655409Y-107183180D02*
X175655409Y-106183180D01*
X175750647Y-106326038D01*
X175845885Y-106421276D01*
X175941123Y-106468895D01*
X177274457Y-99467942D02*
X177322076Y-99515561D01*
X177464933Y-99563180D01*
X177560171Y-99563180D01*
X177703028Y-99515561D01*
X177798266Y-99420323D01*
X177845885Y-99325085D01*
X177893504Y-99134609D01*
X177893504Y-98991752D01*
X177845885Y-98801276D01*
X177798266Y-98706038D01*
X177703028Y-98610800D01*
X177560171Y-98563180D01*
X177464933Y-98563180D01*
X177322076Y-98610800D01*
X177274457Y-98658419D01*
X176322076Y-99563180D02*
X176893504Y-99563180D01*
X176607790Y-99563180D02*
X176607790Y-98563180D01*
X176703028Y-98706038D01*
X176798266Y-98801276D01*
X176893504Y-98848895D01*
X175703028Y-98563180D02*
X175607790Y-98563180D01*
X175512552Y-98610800D01*
X175464933Y-98658419D01*
X175417314Y-98753657D01*
X175369695Y-98944133D01*
X175369695Y-99182228D01*
X175417314Y-99372704D01*
X175464933Y-99467942D01*
X175512552Y-99515561D01*
X175607790Y-99563180D01*
X175703028Y-99563180D01*
X175798266Y-99515561D01*
X175845885Y-99467942D01*
X175893504Y-99372704D01*
X175941123Y-99182228D01*
X175941123Y-98944133D01*
X175893504Y-98753657D01*
X175845885Y-98658419D01*
X175798266Y-98610800D01*
X175703028Y-98563180D01*
X189523666Y-99417142D02*
X189571285Y-99464761D01*
X189714142Y-99512380D01*
X189809380Y-99512380D01*
X189952238Y-99464761D01*
X190047476Y-99369523D01*
X190095095Y-99274285D01*
X190142714Y-99083809D01*
X190142714Y-98940952D01*
X190095095Y-98750476D01*
X190047476Y-98655238D01*
X189952238Y-98560000D01*
X189809380Y-98512380D01*
X189714142Y-98512380D01*
X189571285Y-98560000D01*
X189523666Y-98607619D01*
X189190333Y-98512380D02*
X188523666Y-98512380D01*
X188952238Y-99512380D01*
M02*
