M48
; DRILL file {KiCad 5.1.5-52549c5~86~ubuntu18.04.1} date Fri 08 May 2020 12:09:13 PM PDT
; FORMAT={-:-/ absolute / metric / decimal}
; #@! TF.CreationDate,2020-05-08T12:09:13-07:00
; #@! TF.GenerationSoftware,Kicad,Pcbnew,5.1.5-52549c5~86~ubuntu18.04.1
FMAT,2
METRIC
T1C0.400
T2C0.650
T3C1.000
T4C1.100
T5C1.600
T6C2.200
%
G90
G05
T1
X152.908Y-140.97
X155.448Y-140.97
X157.988Y-125.984
X158.75Y-118.872
X158.75Y-124.206
X158.75Y-125.222
X161.544Y-140.462
X161.798Y-118.872
X162.052Y-124.206
X164.084Y-124.714
X164.084Y-125.984
X164.846Y-130.556
X166.37Y-80.772
X167.64Y-121.666
X168.577Y-103.64
X169.164Y-124.968
X169.637Y-103.64
X170.696Y-103.64
X170.942Y-120.904
X171.756Y-103.64
X172.212Y-122.174
X172.72Y-124.714
X172.815Y-103.64
X172.822Y-74.981
X173.373Y-93.515
X173.875Y-103.64
X176.784Y-102.615
X177.749Y-76.479
X178.206Y-95.428
X179.185Y-94.428
X179.322Y-95.588
X180.188Y-94.906
X180.264Y-100.686
X180.34Y-108.458
X181.248Y-93.37
X182.016Y-115.875
X182.284Y-90.563
X182.444Y-114.422
X182.601Y-138.709
X182.626Y-136.119
X182.804Y-108.28
X183.413Y-90.907
X184.15Y-78.486
X184.548Y-90.889
X185.369Y-108.306
X185.674Y-101.092
X185.708Y-90.889
X186.72Y-104.872
X186.868Y-90.889
X187.706Y-101.346
X188.109Y-102.43
X190.246Y-127.057
X190.5Y-125.73
X190.617Y-87.391
X190.983Y-96.811
X190.983Y-98.261
X191.008Y-112.776
X192.264Y-101.65
X192.38Y-103.649
X192.382Y-102.649
X192.532Y-115.316
X193.37Y-116.307
X193.383Y-103.627
X193.827Y-96.037
X194.045Y-106.714
X194.615Y-125.984
X194.64Y-95.174
X195.402Y-94.259
X195.615Y-125.984
X195.769Y-114.796
X195.834Y-72.39
X195.834Y-76.2
X196.037Y-93.37
X196.647Y-92.532
X196.659Y-125.986
X196.78Y-105.982
X197.339Y-91.807
X200.66Y-137.16
X200.835Y-116.521
X200.863Y-115.521
X201.066Y-71.196
X201.27Y-75.082
X201.27Y-78.816
X201.625Y-89.179
X204.47Y-107.95
X206.248Y-140.462
X210.388Y-90.576
X211.717Y-90.772
X212.09Y-74.168
X143.257Y-83.82
X143.74Y-82.653
X143.74Y-84.987
X144.907Y-82.17
X144.907Y-85.47
X146.074Y-82.653
X146.074Y-84.987
X146.557Y-83.82
X219.457Y-83.82
X219.94Y-82.653
X219.94Y-84.987
X221.107Y-82.17
X221.107Y-85.47
X222.274Y-82.653
X222.274Y-84.987
X222.757Y-83.82
X219.457Y-134.62
X219.94Y-133.453
X219.94Y-135.787
X221.107Y-132.97
X221.107Y-136.27
X222.274Y-133.453
X222.274Y-135.787
X222.757Y-134.62
X143.257Y-134.62
X143.74Y-133.453
X143.74Y-135.787
X144.907Y-132.97
X144.907Y-136.27
X146.074Y-133.453
X146.074Y-135.787
X146.557Y-134.62
T2
X201.938Y-142.806
X201.938Y-144.076
X201.938Y-145.346
X201.938Y-146.616
X201.938Y-147.886
X203.208Y-142.806
X203.208Y-144.076
X203.208Y-145.346
X203.208Y-146.616
X203.208Y-147.886
T3
X145.542Y-124.206
X145.542Y-126.746
X178.41Y-70.612
X178.41Y-73.152
X180.95Y-70.612
X180.95Y-73.152
X183.49Y-70.612
X183.49Y-73.152
X186.03Y-70.612
X186.03Y-73.152
X194.432Y-86.69
X196.972Y-86.69
X199.512Y-86.69
X195.072Y-101.346
X197.612Y-101.346
X151.384Y-70.612
X153.924Y-70.612
X156.464Y-70.612
X169.941Y-86.69
X172.481Y-86.69
X175.021Y-86.69
X169.926Y-146.304
X172.466Y-146.304
X155.194Y-132.08
X157.734Y-132.08
X215.951Y-76.708
X215.951Y-79.248
X215.951Y-81.788
X215.951Y-84.328
X215.951Y-86.868
X215.951Y-89.408
X215.951Y-91.948
X215.951Y-94.488
X215.951Y-97.028
X215.951Y-99.568
X215.951Y-102.108
X215.951Y-104.648
X215.951Y-107.188
X215.951Y-109.728
X215.951Y-112.268
X215.951Y-114.808
X215.951Y-117.348
X215.951Y-119.888
X215.951Y-122.428
X215.951Y-124.968
X215.951Y-127.508
X190.5Y-135.89
X190.5Y-138.43
X190.5Y-140.97
X190.5Y-143.51
X190.5Y-146.05
X152.4Y-76.69
X152.4Y-79.23
X152.4Y-81.77
X152.4Y-84.31
X152.4Y-86.85
X152.4Y-89.39
X152.4Y-91.93
X152.4Y-94.47
X152.4Y-97.01
X152.4Y-99.55
X152.4Y-102.09
X152.4Y-104.63
X152.4Y-107.17
X152.4Y-109.71
X152.4Y-112.25
X152.4Y-114.79
X152.4Y-117.33
X152.4Y-119.87
X152.4Y-122.41
X152.4Y-124.95
X152.4Y-127.49
X224.79Y-100.838
X224.79Y-103.378
X224.79Y-105.918
X224.79Y-108.458
X224.79Y-110.998
X224.79Y-113.538
X163.932Y-70.612
X163.932Y-73.152
X166.472Y-70.612
X166.472Y-73.152
X169.012Y-70.612
X169.012Y-73.152
X171.552Y-70.612
X171.552Y-73.152
T4
X214.48Y-144.78
X214.48Y-149.28
X220.98Y-144.78
X220.98Y-149.28
T5
X224.79Y-96.012
X189.992Y-67.056
X220.98Y-76.962
X145.542Y-119.38
X217.678Y-69.342
X145.034Y-146.812
X194.564Y-67.056
X145.034Y-140.97
X162.052Y-128.27
X221.996Y-69.342
X220.98Y-140.97
X213.36Y-69.342
X207.518Y-82.296
X145.542Y-113.538
T6
X144.907Y-83.82
X221.107Y-83.82
X221.107Y-134.62
X144.907Y-134.62
T0
M30
