G04 #@! TF.GenerationSoftware,KiCad,Pcbnew,5.1.6-c6e7f7d~86~ubuntu18.04.1*
G04 #@! TF.CreationDate,2020-05-26T10:09:14-07:00*
G04 #@! TF.ProjectId,Extention Boards,45787465-6e74-4696-9f6e-20426f617264,rev?*
G04 #@! TF.SameCoordinates,Original*
G04 #@! TF.FileFunction,Soldermask,Bot*
G04 #@! TF.FilePolarity,Negative*
%FSLAX46Y46*%
G04 Gerber Fmt 4.6, Leading zero omitted, Abs format (unit mm)*
G04 Created by KiCad (PCBNEW 5.1.6-c6e7f7d~86~ubuntu18.04.1) date 2020-05-26 10:09:14*
%MOMM*%
%LPD*%
G01*
G04 APERTURE LIST*
%ADD10C,0.100000*%
G04 APERTURE END LIST*
D10*
G36*
X221286564Y-148269389D02*
G01*
X221477833Y-148348615D01*
X221477835Y-148348616D01*
X221649973Y-148463635D01*
X221796365Y-148610027D01*
X221911385Y-148782167D01*
X221990611Y-148973436D01*
X222031000Y-149176484D01*
X222031000Y-149383516D01*
X221990611Y-149586564D01*
X221911385Y-149777833D01*
X221911384Y-149777835D01*
X221796365Y-149949973D01*
X221649973Y-150096365D01*
X221477835Y-150211384D01*
X221477834Y-150211385D01*
X221477833Y-150211385D01*
X221286564Y-150290611D01*
X221083516Y-150331000D01*
X220876484Y-150331000D01*
X220673436Y-150290611D01*
X220482167Y-150211385D01*
X220482166Y-150211385D01*
X220482165Y-150211384D01*
X220310027Y-150096365D01*
X220163635Y-149949973D01*
X220048616Y-149777835D01*
X220048615Y-149777833D01*
X219969389Y-149586564D01*
X219929000Y-149383516D01*
X219929000Y-149176484D01*
X219969389Y-148973436D01*
X220048615Y-148782167D01*
X220163635Y-148610027D01*
X220310027Y-148463635D01*
X220482165Y-148348616D01*
X220482167Y-148348615D01*
X220673436Y-148269389D01*
X220876484Y-148229000D01*
X221083516Y-148229000D01*
X221286564Y-148269389D01*
G37*
G36*
X214786564Y-148269389D02*
G01*
X214977833Y-148348615D01*
X214977835Y-148348616D01*
X215149973Y-148463635D01*
X215296365Y-148610027D01*
X215411385Y-148782167D01*
X215490611Y-148973436D01*
X215531000Y-149176484D01*
X215531000Y-149383516D01*
X215490611Y-149586564D01*
X215411385Y-149777833D01*
X215411384Y-149777835D01*
X215296365Y-149949973D01*
X215149973Y-150096365D01*
X214977835Y-150211384D01*
X214977834Y-150211385D01*
X214977833Y-150211385D01*
X214786564Y-150290611D01*
X214583516Y-150331000D01*
X214376484Y-150331000D01*
X214173436Y-150290611D01*
X213982167Y-150211385D01*
X213982166Y-150211385D01*
X213982165Y-150211384D01*
X213810027Y-150096365D01*
X213663635Y-149949973D01*
X213548616Y-149777835D01*
X213548615Y-149777833D01*
X213469389Y-149586564D01*
X213429000Y-149383516D01*
X213429000Y-149176484D01*
X213469389Y-148973436D01*
X213548615Y-148782167D01*
X213663635Y-148610027D01*
X213810027Y-148463635D01*
X213982165Y-148348616D01*
X213982167Y-148348615D01*
X214173436Y-148269389D01*
X214376484Y-148229000D01*
X214583516Y-148229000D01*
X214786564Y-148269389D01*
G37*
G36*
X202098341Y-142276594D02*
G01*
X202198615Y-142318129D01*
X202198616Y-142318130D01*
X202288862Y-142378430D01*
X202365610Y-142455178D01*
X202365611Y-142455180D01*
X202425911Y-142545425D01*
X202457136Y-142620809D01*
X202468687Y-142642420D01*
X202484232Y-142661361D01*
X202503174Y-142676907D01*
X202524785Y-142688458D01*
X202548234Y-142695571D01*
X202572620Y-142697973D01*
X202597006Y-142695571D01*
X202620455Y-142688458D01*
X202642066Y-142676907D01*
X202661007Y-142661362D01*
X202676553Y-142642420D01*
X202688104Y-142620809D01*
X202719329Y-142545425D01*
X202779629Y-142455180D01*
X202779630Y-142455178D01*
X202856378Y-142378430D01*
X202946624Y-142318130D01*
X202946625Y-142318129D01*
X203046899Y-142276594D01*
X203153350Y-142255420D01*
X203261890Y-142255420D01*
X203368341Y-142276594D01*
X203468615Y-142318129D01*
X203468616Y-142318130D01*
X203558862Y-142378430D01*
X203635610Y-142455178D01*
X203635611Y-142455180D01*
X203695911Y-142545425D01*
X203737446Y-142645699D01*
X203758620Y-142752150D01*
X203758620Y-142860690D01*
X203737446Y-142967141D01*
X203695911Y-143067415D01*
X203695910Y-143067416D01*
X203635610Y-143157662D01*
X203558862Y-143234410D01*
X203513432Y-143264765D01*
X203468615Y-143294711D01*
X203393231Y-143325936D01*
X203371620Y-143337487D01*
X203352679Y-143353032D01*
X203337133Y-143371974D01*
X203325582Y-143393585D01*
X203318469Y-143417034D01*
X203316067Y-143441420D01*
X203318469Y-143465806D01*
X203325582Y-143489255D01*
X203337133Y-143510866D01*
X203352678Y-143529807D01*
X203371620Y-143545353D01*
X203393231Y-143556904D01*
X203468615Y-143588129D01*
X203468616Y-143588130D01*
X203558862Y-143648430D01*
X203635610Y-143725178D01*
X203665151Y-143769389D01*
X203695911Y-143815425D01*
X203737446Y-143915699D01*
X203758620Y-144022150D01*
X203758620Y-144130690D01*
X203737446Y-144237141D01*
X203695911Y-144337415D01*
X203695910Y-144337416D01*
X203635610Y-144427662D01*
X203558862Y-144504410D01*
X203513432Y-144534765D01*
X203468615Y-144564711D01*
X203393231Y-144595936D01*
X203371620Y-144607487D01*
X203352679Y-144623032D01*
X203337133Y-144641974D01*
X203325582Y-144663585D01*
X203318469Y-144687034D01*
X203316067Y-144711420D01*
X203318469Y-144735806D01*
X203325582Y-144759255D01*
X203337133Y-144780866D01*
X203352678Y-144799807D01*
X203371620Y-144815353D01*
X203393231Y-144826904D01*
X203468615Y-144858129D01*
X203468616Y-144858130D01*
X203558862Y-144918430D01*
X203635610Y-144995178D01*
X203635611Y-144995180D01*
X203695911Y-145085425D01*
X203737446Y-145185699D01*
X203758620Y-145292150D01*
X203758620Y-145400690D01*
X203737446Y-145507141D01*
X203695911Y-145607415D01*
X203695910Y-145607416D01*
X203635610Y-145697662D01*
X203558862Y-145774410D01*
X203534617Y-145790610D01*
X203468615Y-145834711D01*
X203393231Y-145865936D01*
X203371620Y-145877487D01*
X203352679Y-145893032D01*
X203337133Y-145911974D01*
X203325582Y-145933585D01*
X203318469Y-145957034D01*
X203316067Y-145981420D01*
X203318469Y-146005806D01*
X203325582Y-146029255D01*
X203337133Y-146050866D01*
X203352678Y-146069807D01*
X203371620Y-146085353D01*
X203393231Y-146096904D01*
X203468615Y-146128129D01*
X203468616Y-146128130D01*
X203558862Y-146188430D01*
X203635610Y-146265178D01*
X203635611Y-146265180D01*
X203695911Y-146355425D01*
X203737446Y-146455699D01*
X203758620Y-146562150D01*
X203758620Y-146670690D01*
X203737446Y-146777141D01*
X203695911Y-146877415D01*
X203669879Y-146916375D01*
X203635610Y-146967662D01*
X203558862Y-147044410D01*
X203527436Y-147065408D01*
X203465956Y-147106488D01*
X203447014Y-147122034D01*
X203431469Y-147140976D01*
X203419918Y-147162587D01*
X203412805Y-147186035D01*
X203410403Y-147210422D01*
X203412805Y-147234808D01*
X203419918Y-147258257D01*
X203431469Y-147279867D01*
X203447015Y-147298809D01*
X203465957Y-147314354D01*
X203487568Y-147325905D01*
X203511016Y-147333018D01*
X203535402Y-147335420D01*
X203758620Y-147335420D01*
X203758620Y-148437420D01*
X202656620Y-148437420D01*
X202656620Y-148214202D01*
X202654218Y-148189816D01*
X202647105Y-148166367D01*
X202635554Y-148144756D01*
X202620009Y-148125814D01*
X202601067Y-148110269D01*
X202579456Y-148098718D01*
X202556007Y-148091605D01*
X202531621Y-148089203D01*
X202507235Y-148091605D01*
X202483786Y-148098718D01*
X202462175Y-148110269D01*
X202443233Y-148125814D01*
X202427688Y-148144756D01*
X202386608Y-148206236D01*
X202365610Y-148237662D01*
X202288862Y-148314410D01*
X202243432Y-148344765D01*
X202198615Y-148374711D01*
X202098341Y-148416246D01*
X201991890Y-148437420D01*
X201883350Y-148437420D01*
X201776899Y-148416246D01*
X201676625Y-148374711D01*
X201631808Y-148344765D01*
X201586378Y-148314410D01*
X201509630Y-148237662D01*
X201477661Y-148189816D01*
X201449329Y-148147415D01*
X201407794Y-148047141D01*
X201386620Y-147940690D01*
X201386620Y-147832150D01*
X201407794Y-147725699D01*
X201449329Y-147625425D01*
X201509629Y-147535180D01*
X201509630Y-147535178D01*
X201586378Y-147458430D01*
X201676624Y-147398130D01*
X201676625Y-147398129D01*
X201752009Y-147366904D01*
X201773620Y-147355353D01*
X201792561Y-147339808D01*
X201808107Y-147320866D01*
X201819658Y-147299255D01*
X201826771Y-147275806D01*
X201829173Y-147251420D01*
X202046067Y-147251420D01*
X202048469Y-147275806D01*
X202055582Y-147299255D01*
X202067133Y-147320866D01*
X202082678Y-147339807D01*
X202101620Y-147355353D01*
X202123231Y-147366904D01*
X202198615Y-147398129D01*
X202198616Y-147398130D01*
X202288862Y-147458430D01*
X202365610Y-147535178D01*
X202365611Y-147535180D01*
X202427688Y-147628084D01*
X202443234Y-147647026D01*
X202462176Y-147662571D01*
X202483787Y-147674122D01*
X202507235Y-147681235D01*
X202531622Y-147683637D01*
X202556008Y-147681235D01*
X202579457Y-147674122D01*
X202601067Y-147662571D01*
X202620009Y-147647025D01*
X202635554Y-147628083D01*
X202647105Y-147606472D01*
X202654218Y-147583024D01*
X202656620Y-147558638D01*
X202656620Y-147335420D01*
X202879838Y-147335420D01*
X202904224Y-147333018D01*
X202927673Y-147325905D01*
X202949284Y-147314354D01*
X202968226Y-147298809D01*
X202983771Y-147279867D01*
X202995322Y-147258256D01*
X203002435Y-147234807D01*
X203004837Y-147210421D01*
X203002435Y-147186035D01*
X202995322Y-147162586D01*
X202983771Y-147140975D01*
X202968226Y-147122033D01*
X202949284Y-147106488D01*
X202887804Y-147065408D01*
X202856378Y-147044410D01*
X202779630Y-146967662D01*
X202745361Y-146916375D01*
X202719329Y-146877415D01*
X202688104Y-146802031D01*
X202676553Y-146780420D01*
X202661008Y-146761479D01*
X202642066Y-146745933D01*
X202620455Y-146734382D01*
X202597006Y-146727269D01*
X202572620Y-146724867D01*
X202548234Y-146727269D01*
X202524785Y-146734382D01*
X202503174Y-146745933D01*
X202484233Y-146761478D01*
X202468687Y-146780420D01*
X202457136Y-146802031D01*
X202425911Y-146877415D01*
X202399879Y-146916375D01*
X202365610Y-146967662D01*
X202288862Y-147044410D01*
X202243432Y-147074765D01*
X202198615Y-147104711D01*
X202123231Y-147135936D01*
X202101620Y-147147487D01*
X202082679Y-147163032D01*
X202067133Y-147181974D01*
X202055582Y-147203585D01*
X202048469Y-147227034D01*
X202046067Y-147251420D01*
X201829173Y-147251420D01*
X201826771Y-147227034D01*
X201819658Y-147203585D01*
X201808107Y-147181974D01*
X201792562Y-147163033D01*
X201773620Y-147147487D01*
X201752009Y-147135936D01*
X201676625Y-147104711D01*
X201631808Y-147074765D01*
X201586378Y-147044410D01*
X201509630Y-146967662D01*
X201475361Y-146916375D01*
X201449329Y-146877415D01*
X201407794Y-146777141D01*
X201386620Y-146670690D01*
X201386620Y-146562150D01*
X201407794Y-146455699D01*
X201449329Y-146355425D01*
X201509629Y-146265180D01*
X201509630Y-146265178D01*
X201586378Y-146188430D01*
X201676624Y-146128130D01*
X201676625Y-146128129D01*
X201752009Y-146096904D01*
X201773620Y-146085353D01*
X201792561Y-146069808D01*
X201808107Y-146050866D01*
X201819658Y-146029255D01*
X201826771Y-146005806D01*
X201829173Y-145981420D01*
X202046067Y-145981420D01*
X202048469Y-146005806D01*
X202055582Y-146029255D01*
X202067133Y-146050866D01*
X202082678Y-146069807D01*
X202101620Y-146085353D01*
X202123231Y-146096904D01*
X202198615Y-146128129D01*
X202198616Y-146128130D01*
X202288862Y-146188430D01*
X202365610Y-146265178D01*
X202365611Y-146265180D01*
X202425911Y-146355425D01*
X202457136Y-146430809D01*
X202468687Y-146452420D01*
X202484232Y-146471361D01*
X202503174Y-146486907D01*
X202524785Y-146498458D01*
X202548234Y-146505571D01*
X202572620Y-146507973D01*
X202597006Y-146505571D01*
X202620455Y-146498458D01*
X202642066Y-146486907D01*
X202661007Y-146471362D01*
X202676553Y-146452420D01*
X202688104Y-146430809D01*
X202719329Y-146355425D01*
X202779629Y-146265180D01*
X202779630Y-146265178D01*
X202856378Y-146188430D01*
X202946624Y-146128130D01*
X202946625Y-146128129D01*
X203022009Y-146096904D01*
X203043620Y-146085353D01*
X203062561Y-146069808D01*
X203078107Y-146050866D01*
X203089658Y-146029255D01*
X203096771Y-146005806D01*
X203099173Y-145981420D01*
X203096771Y-145957034D01*
X203089658Y-145933585D01*
X203078107Y-145911974D01*
X203062562Y-145893033D01*
X203043620Y-145877487D01*
X203022009Y-145865936D01*
X202946625Y-145834711D01*
X202880623Y-145790610D01*
X202856378Y-145774410D01*
X202779630Y-145697662D01*
X202719330Y-145607416D01*
X202719329Y-145607415D01*
X202688104Y-145532031D01*
X202676553Y-145510420D01*
X202661008Y-145491479D01*
X202642066Y-145475933D01*
X202620455Y-145464382D01*
X202597006Y-145457269D01*
X202572620Y-145454867D01*
X202548234Y-145457269D01*
X202524785Y-145464382D01*
X202503174Y-145475933D01*
X202484233Y-145491478D01*
X202468687Y-145510420D01*
X202457136Y-145532031D01*
X202425911Y-145607415D01*
X202425910Y-145607416D01*
X202365610Y-145697662D01*
X202288862Y-145774410D01*
X202264617Y-145790610D01*
X202198615Y-145834711D01*
X202123231Y-145865936D01*
X202101620Y-145877487D01*
X202082679Y-145893032D01*
X202067133Y-145911974D01*
X202055582Y-145933585D01*
X202048469Y-145957034D01*
X202046067Y-145981420D01*
X201829173Y-145981420D01*
X201826771Y-145957034D01*
X201819658Y-145933585D01*
X201808107Y-145911974D01*
X201792562Y-145893033D01*
X201773620Y-145877487D01*
X201752009Y-145865936D01*
X201676625Y-145834711D01*
X201610623Y-145790610D01*
X201586378Y-145774410D01*
X201509630Y-145697662D01*
X201449330Y-145607416D01*
X201449329Y-145607415D01*
X201407794Y-145507141D01*
X201386620Y-145400690D01*
X201386620Y-145292150D01*
X201407794Y-145185699D01*
X201449329Y-145085425D01*
X201509629Y-144995180D01*
X201509630Y-144995178D01*
X201586378Y-144918430D01*
X201676624Y-144858130D01*
X201676625Y-144858129D01*
X201752009Y-144826904D01*
X201773620Y-144815353D01*
X201792561Y-144799808D01*
X201808107Y-144780866D01*
X201819658Y-144759255D01*
X201826771Y-144735806D01*
X201829173Y-144711420D01*
X202046067Y-144711420D01*
X202048469Y-144735806D01*
X202055582Y-144759255D01*
X202067133Y-144780866D01*
X202082678Y-144799807D01*
X202101620Y-144815353D01*
X202123231Y-144826904D01*
X202198615Y-144858129D01*
X202198616Y-144858130D01*
X202288862Y-144918430D01*
X202365610Y-144995178D01*
X202365611Y-144995180D01*
X202425911Y-145085425D01*
X202457136Y-145160809D01*
X202468687Y-145182420D01*
X202484232Y-145201361D01*
X202503174Y-145216907D01*
X202524785Y-145228458D01*
X202548234Y-145235571D01*
X202572620Y-145237973D01*
X202597006Y-145235571D01*
X202620455Y-145228458D01*
X202642066Y-145216907D01*
X202661007Y-145201362D01*
X202676553Y-145182420D01*
X202688104Y-145160809D01*
X202719329Y-145085425D01*
X202779629Y-144995180D01*
X202779630Y-144995178D01*
X202856378Y-144918430D01*
X202946624Y-144858130D01*
X202946625Y-144858129D01*
X203022009Y-144826904D01*
X203043620Y-144815353D01*
X203062561Y-144799808D01*
X203078107Y-144780866D01*
X203089658Y-144759255D01*
X203096771Y-144735806D01*
X203099173Y-144711420D01*
X203096771Y-144687034D01*
X203089658Y-144663585D01*
X203078107Y-144641974D01*
X203062562Y-144623033D01*
X203043620Y-144607487D01*
X203022009Y-144595936D01*
X202946625Y-144564711D01*
X202901808Y-144534765D01*
X202856378Y-144504410D01*
X202779630Y-144427662D01*
X202719330Y-144337416D01*
X202719329Y-144337415D01*
X202688104Y-144262031D01*
X202676553Y-144240420D01*
X202661008Y-144221479D01*
X202642066Y-144205933D01*
X202620455Y-144194382D01*
X202597006Y-144187269D01*
X202572620Y-144184867D01*
X202548234Y-144187269D01*
X202524785Y-144194382D01*
X202503174Y-144205933D01*
X202484233Y-144221478D01*
X202468687Y-144240420D01*
X202457136Y-144262031D01*
X202425911Y-144337415D01*
X202425910Y-144337416D01*
X202365610Y-144427662D01*
X202288862Y-144504410D01*
X202243432Y-144534765D01*
X202198615Y-144564711D01*
X202123231Y-144595936D01*
X202101620Y-144607487D01*
X202082679Y-144623032D01*
X202067133Y-144641974D01*
X202055582Y-144663585D01*
X202048469Y-144687034D01*
X202046067Y-144711420D01*
X201829173Y-144711420D01*
X201826771Y-144687034D01*
X201819658Y-144663585D01*
X201808107Y-144641974D01*
X201792562Y-144623033D01*
X201773620Y-144607487D01*
X201752009Y-144595936D01*
X201676625Y-144564711D01*
X201631808Y-144534765D01*
X201586378Y-144504410D01*
X201509630Y-144427662D01*
X201449330Y-144337416D01*
X201449329Y-144337415D01*
X201407794Y-144237141D01*
X201386620Y-144130690D01*
X201386620Y-144022150D01*
X201407794Y-143915699D01*
X201449329Y-143815425D01*
X201480089Y-143769389D01*
X201509630Y-143725178D01*
X201586378Y-143648430D01*
X201676624Y-143588130D01*
X201676625Y-143588129D01*
X201752009Y-143556904D01*
X201773620Y-143545353D01*
X201792561Y-143529808D01*
X201808107Y-143510866D01*
X201819658Y-143489255D01*
X201826771Y-143465806D01*
X201829173Y-143441420D01*
X202046067Y-143441420D01*
X202048469Y-143465806D01*
X202055582Y-143489255D01*
X202067133Y-143510866D01*
X202082678Y-143529807D01*
X202101620Y-143545353D01*
X202123231Y-143556904D01*
X202198615Y-143588129D01*
X202198616Y-143588130D01*
X202288862Y-143648430D01*
X202365610Y-143725178D01*
X202395151Y-143769389D01*
X202425911Y-143815425D01*
X202457136Y-143890809D01*
X202468687Y-143912420D01*
X202484232Y-143931361D01*
X202503174Y-143946907D01*
X202524785Y-143958458D01*
X202548234Y-143965571D01*
X202572620Y-143967973D01*
X202597006Y-143965571D01*
X202620455Y-143958458D01*
X202642066Y-143946907D01*
X202661007Y-143931362D01*
X202676553Y-143912420D01*
X202688104Y-143890809D01*
X202719329Y-143815425D01*
X202750089Y-143769389D01*
X202779630Y-143725178D01*
X202856378Y-143648430D01*
X202946624Y-143588130D01*
X202946625Y-143588129D01*
X203022009Y-143556904D01*
X203043620Y-143545353D01*
X203062561Y-143529808D01*
X203078107Y-143510866D01*
X203089658Y-143489255D01*
X203096771Y-143465806D01*
X203099173Y-143441420D01*
X203096771Y-143417034D01*
X203089658Y-143393585D01*
X203078107Y-143371974D01*
X203062562Y-143353033D01*
X203043620Y-143337487D01*
X203022009Y-143325936D01*
X202946625Y-143294711D01*
X202901808Y-143264765D01*
X202856378Y-143234410D01*
X202779630Y-143157662D01*
X202719330Y-143067416D01*
X202719329Y-143067415D01*
X202688104Y-142992031D01*
X202676553Y-142970420D01*
X202661008Y-142951479D01*
X202642066Y-142935933D01*
X202620455Y-142924382D01*
X202597006Y-142917269D01*
X202572620Y-142914867D01*
X202548234Y-142917269D01*
X202524785Y-142924382D01*
X202503174Y-142935933D01*
X202484233Y-142951478D01*
X202468687Y-142970420D01*
X202457136Y-142992031D01*
X202425911Y-143067415D01*
X202425910Y-143067416D01*
X202365610Y-143157662D01*
X202288862Y-143234410D01*
X202243432Y-143264765D01*
X202198615Y-143294711D01*
X202123231Y-143325936D01*
X202101620Y-143337487D01*
X202082679Y-143353032D01*
X202067133Y-143371974D01*
X202055582Y-143393585D01*
X202048469Y-143417034D01*
X202046067Y-143441420D01*
X201829173Y-143441420D01*
X201826771Y-143417034D01*
X201819658Y-143393585D01*
X201808107Y-143371974D01*
X201792562Y-143353033D01*
X201773620Y-143337487D01*
X201752009Y-143325936D01*
X201676625Y-143294711D01*
X201631808Y-143264765D01*
X201586378Y-143234410D01*
X201509630Y-143157662D01*
X201449330Y-143067416D01*
X201449329Y-143067415D01*
X201407794Y-142967141D01*
X201386620Y-142860690D01*
X201386620Y-142752150D01*
X201407794Y-142645699D01*
X201449329Y-142545425D01*
X201509629Y-142455180D01*
X201509630Y-142455178D01*
X201586378Y-142378430D01*
X201676624Y-142318130D01*
X201676625Y-142318129D01*
X201776899Y-142276594D01*
X201883350Y-142255420D01*
X201991890Y-142255420D01*
X202098341Y-142276594D01*
G37*
G36*
X145457241Y-145416760D02*
G01*
X145721305Y-145526139D01*
X145958958Y-145684934D01*
X146161066Y-145887042D01*
X146319861Y-146124695D01*
X146429240Y-146388759D01*
X146485000Y-146669088D01*
X146485000Y-146954912D01*
X146429240Y-147235241D01*
X146319861Y-147499305D01*
X146161066Y-147736958D01*
X145958958Y-147939066D01*
X145721305Y-148097861D01*
X145457241Y-148207240D01*
X145176912Y-148263000D01*
X144891088Y-148263000D01*
X144610759Y-148207240D01*
X144346695Y-148097861D01*
X144109042Y-147939066D01*
X143906934Y-147736958D01*
X143748139Y-147499305D01*
X143638760Y-147235241D01*
X143583000Y-146954912D01*
X143583000Y-146669088D01*
X143638760Y-146388759D01*
X143748139Y-146124695D01*
X143906934Y-145887042D01*
X144109042Y-145684934D01*
X144346695Y-145526139D01*
X144610759Y-145416760D01*
X144891088Y-145361000D01*
X145176912Y-145361000D01*
X145457241Y-145416760D01*
G37*
G36*
X173367000Y-147205000D02*
G01*
X171565000Y-147205000D01*
X171565000Y-145403000D01*
X173367000Y-145403000D01*
X173367000Y-147205000D01*
G37*
G36*
X170039512Y-145407927D02*
G01*
X170188812Y-145437624D01*
X170352784Y-145505544D01*
X170500354Y-145604147D01*
X170625853Y-145729646D01*
X170724456Y-145877216D01*
X170792376Y-146041188D01*
X170827000Y-146215259D01*
X170827000Y-146392741D01*
X170792376Y-146566812D01*
X170724456Y-146730784D01*
X170625853Y-146878354D01*
X170500354Y-147003853D01*
X170352784Y-147102456D01*
X170188812Y-147170376D01*
X170039512Y-147200073D01*
X170014742Y-147205000D01*
X169837258Y-147205000D01*
X169812488Y-147200073D01*
X169663188Y-147170376D01*
X169499216Y-147102456D01*
X169351646Y-147003853D01*
X169226147Y-146878354D01*
X169127544Y-146730784D01*
X169059624Y-146566812D01*
X169025000Y-146392741D01*
X169025000Y-146215259D01*
X169059624Y-146041188D01*
X169127544Y-145877216D01*
X169226147Y-145729646D01*
X169351646Y-145604147D01*
X169499216Y-145505544D01*
X169663188Y-145437624D01*
X169812488Y-145407927D01*
X169837258Y-145403000D01*
X170014742Y-145403000D01*
X170039512Y-145407927D01*
G37*
G36*
X190613512Y-145153927D02*
G01*
X190762812Y-145183624D01*
X190926784Y-145251544D01*
X191074354Y-145350147D01*
X191199853Y-145475646D01*
X191298456Y-145623216D01*
X191366376Y-145787188D01*
X191401000Y-145961259D01*
X191401000Y-146138741D01*
X191366376Y-146312812D01*
X191298456Y-146476784D01*
X191199853Y-146624354D01*
X191074354Y-146749853D01*
X190926784Y-146848456D01*
X190762812Y-146916376D01*
X190613512Y-146946073D01*
X190588742Y-146951000D01*
X190411258Y-146951000D01*
X190386488Y-146946073D01*
X190237188Y-146916376D01*
X190073216Y-146848456D01*
X189925646Y-146749853D01*
X189800147Y-146624354D01*
X189701544Y-146476784D01*
X189633624Y-146312812D01*
X189599000Y-146138741D01*
X189599000Y-145961259D01*
X189633624Y-145787188D01*
X189701544Y-145623216D01*
X189800147Y-145475646D01*
X189925646Y-145350147D01*
X190073216Y-145251544D01*
X190237188Y-145183624D01*
X190386488Y-145153927D01*
X190411258Y-145149000D01*
X190588742Y-145149000D01*
X190613512Y-145153927D01*
G37*
G36*
X214786564Y-143769389D02*
G01*
X214977833Y-143848615D01*
X214977835Y-143848616D01*
X215149973Y-143963635D01*
X215296365Y-144110027D01*
X215363067Y-144209853D01*
X215411385Y-144282167D01*
X215490611Y-144473436D01*
X215531000Y-144676484D01*
X215531000Y-144883516D01*
X215490611Y-145086564D01*
X215422274Y-145251544D01*
X215411384Y-145277835D01*
X215296365Y-145449973D01*
X215149973Y-145596365D01*
X214977835Y-145711384D01*
X214977834Y-145711385D01*
X214977833Y-145711385D01*
X214786564Y-145790611D01*
X214583516Y-145831000D01*
X214376484Y-145831000D01*
X214173436Y-145790611D01*
X213982167Y-145711385D01*
X213982166Y-145711385D01*
X213982165Y-145711384D01*
X213810027Y-145596365D01*
X213663635Y-145449973D01*
X213548616Y-145277835D01*
X213537726Y-145251544D01*
X213469389Y-145086564D01*
X213429000Y-144883516D01*
X213429000Y-144676484D01*
X213469389Y-144473436D01*
X213548615Y-144282167D01*
X213596934Y-144209853D01*
X213663635Y-144110027D01*
X213810027Y-143963635D01*
X213982165Y-143848616D01*
X213982167Y-143848615D01*
X214173436Y-143769389D01*
X214376484Y-143729000D01*
X214583516Y-143729000D01*
X214786564Y-143769389D01*
G37*
G36*
X221286564Y-143769389D02*
G01*
X221477833Y-143848615D01*
X221477835Y-143848616D01*
X221649973Y-143963635D01*
X221796365Y-144110027D01*
X221863067Y-144209853D01*
X221911385Y-144282167D01*
X221990611Y-144473436D01*
X222031000Y-144676484D01*
X222031000Y-144883516D01*
X221990611Y-145086564D01*
X221922274Y-145251544D01*
X221911384Y-145277835D01*
X221796365Y-145449973D01*
X221649973Y-145596365D01*
X221477835Y-145711384D01*
X221477834Y-145711385D01*
X221477833Y-145711385D01*
X221286564Y-145790611D01*
X221083516Y-145831000D01*
X220876484Y-145831000D01*
X220673436Y-145790611D01*
X220482167Y-145711385D01*
X220482166Y-145711385D01*
X220482165Y-145711384D01*
X220310027Y-145596365D01*
X220163635Y-145449973D01*
X220048616Y-145277835D01*
X220037726Y-145251544D01*
X219969389Y-145086564D01*
X219929000Y-144883516D01*
X219929000Y-144676484D01*
X219969389Y-144473436D01*
X220048615Y-144282167D01*
X220096934Y-144209853D01*
X220163635Y-144110027D01*
X220310027Y-143963635D01*
X220482165Y-143848616D01*
X220482167Y-143848615D01*
X220673436Y-143769389D01*
X220876484Y-143729000D01*
X221083516Y-143729000D01*
X221286564Y-143769389D01*
G37*
G36*
X190613512Y-142613927D02*
G01*
X190762812Y-142643624D01*
X190926784Y-142711544D01*
X191074354Y-142810147D01*
X191199853Y-142935646D01*
X191298456Y-143083216D01*
X191366376Y-143247188D01*
X191401000Y-143421259D01*
X191401000Y-143598741D01*
X191366376Y-143772812D01*
X191298456Y-143936784D01*
X191199853Y-144084354D01*
X191074354Y-144209853D01*
X190926784Y-144308456D01*
X190762812Y-144376376D01*
X190613512Y-144406073D01*
X190588742Y-144411000D01*
X190411258Y-144411000D01*
X190386488Y-144406073D01*
X190237188Y-144376376D01*
X190073216Y-144308456D01*
X189925646Y-144209853D01*
X189800147Y-144084354D01*
X189701544Y-143936784D01*
X189633624Y-143772812D01*
X189599000Y-143598741D01*
X189599000Y-143421259D01*
X189633624Y-143247188D01*
X189701544Y-143083216D01*
X189800147Y-142935646D01*
X189925646Y-142810147D01*
X190073216Y-142711544D01*
X190237188Y-142643624D01*
X190386488Y-142613927D01*
X190411258Y-142609000D01*
X190588742Y-142609000D01*
X190613512Y-142613927D01*
G37*
G36*
X221403241Y-139574760D02*
G01*
X221667305Y-139684139D01*
X221904958Y-139842934D01*
X222107066Y-140045042D01*
X222265861Y-140282695D01*
X222375240Y-140546759D01*
X222431000Y-140827088D01*
X222431000Y-141112912D01*
X222375240Y-141393241D01*
X222265861Y-141657305D01*
X222107066Y-141894958D01*
X221904958Y-142097066D01*
X221667305Y-142255861D01*
X221403241Y-142365240D01*
X221122912Y-142421000D01*
X220837088Y-142421000D01*
X220556759Y-142365240D01*
X220292695Y-142255861D01*
X220055042Y-142097066D01*
X219852934Y-141894958D01*
X219694139Y-141657305D01*
X219584760Y-141393241D01*
X219529000Y-141112912D01*
X219529000Y-140827088D01*
X219584760Y-140546759D01*
X219694139Y-140282695D01*
X219852934Y-140045042D01*
X220055042Y-139842934D01*
X220292695Y-139684139D01*
X220556759Y-139574760D01*
X220837088Y-139519000D01*
X221122912Y-139519000D01*
X221403241Y-139574760D01*
G37*
G36*
X145457241Y-139574760D02*
G01*
X145721305Y-139684139D01*
X145958958Y-139842934D01*
X146161066Y-140045042D01*
X146319861Y-140282695D01*
X146429240Y-140546759D01*
X146485000Y-140827088D01*
X146485000Y-141112912D01*
X146429240Y-141393241D01*
X146319861Y-141657305D01*
X146161066Y-141894958D01*
X145958958Y-142097066D01*
X145721305Y-142255861D01*
X145457241Y-142365240D01*
X145176912Y-142421000D01*
X144891088Y-142421000D01*
X144610759Y-142365240D01*
X144346695Y-142255861D01*
X144109042Y-142097066D01*
X143906934Y-141894958D01*
X143748139Y-141657305D01*
X143638760Y-141393241D01*
X143583000Y-141112912D01*
X143583000Y-140827088D01*
X143638760Y-140546759D01*
X143748139Y-140282695D01*
X143906934Y-140045042D01*
X144109042Y-139842934D01*
X144346695Y-139684139D01*
X144610759Y-139574760D01*
X144891088Y-139519000D01*
X145176912Y-139519000D01*
X145457241Y-139574760D01*
G37*
G36*
X190613512Y-140073927D02*
G01*
X190762812Y-140103624D01*
X190926784Y-140171544D01*
X191074354Y-140270147D01*
X191199853Y-140395646D01*
X191298456Y-140543216D01*
X191366376Y-140707188D01*
X191401000Y-140881259D01*
X191401000Y-141058741D01*
X191366376Y-141232812D01*
X191298456Y-141396784D01*
X191199853Y-141544354D01*
X191074354Y-141669853D01*
X190926784Y-141768456D01*
X190762812Y-141836376D01*
X190613512Y-141866073D01*
X190588742Y-141871000D01*
X190411258Y-141871000D01*
X190386488Y-141866073D01*
X190237188Y-141836376D01*
X190073216Y-141768456D01*
X189925646Y-141669853D01*
X189800147Y-141544354D01*
X189701544Y-141396784D01*
X189633624Y-141232812D01*
X189599000Y-141058741D01*
X189599000Y-140881259D01*
X189633624Y-140707188D01*
X189701544Y-140543216D01*
X189800147Y-140395646D01*
X189925646Y-140270147D01*
X190073216Y-140171544D01*
X190237188Y-140103624D01*
X190386488Y-140073927D01*
X190411258Y-140069000D01*
X190588742Y-140069000D01*
X190613512Y-140073927D01*
G37*
G36*
X190613512Y-137533927D02*
G01*
X190762812Y-137563624D01*
X190926784Y-137631544D01*
X191074354Y-137730147D01*
X191199853Y-137855646D01*
X191298456Y-138003216D01*
X191366376Y-138167188D01*
X191401000Y-138341259D01*
X191401000Y-138518741D01*
X191366376Y-138692812D01*
X191298456Y-138856784D01*
X191199853Y-139004354D01*
X191074354Y-139129853D01*
X190926784Y-139228456D01*
X190762812Y-139296376D01*
X190613512Y-139326073D01*
X190588742Y-139331000D01*
X190411258Y-139331000D01*
X190386488Y-139326073D01*
X190237188Y-139296376D01*
X190073216Y-139228456D01*
X189925646Y-139129853D01*
X189800147Y-139004354D01*
X189701544Y-138856784D01*
X189633624Y-138692812D01*
X189599000Y-138518741D01*
X189599000Y-138341259D01*
X189633624Y-138167188D01*
X189701544Y-138003216D01*
X189800147Y-137855646D01*
X189925646Y-137730147D01*
X190073216Y-137631544D01*
X190237188Y-137563624D01*
X190386488Y-137533927D01*
X190411258Y-137529000D01*
X190588742Y-137529000D01*
X190613512Y-137533927D01*
G37*
G36*
X145182880Y-132379776D02*
G01*
X145563593Y-132455504D01*
X145973249Y-132625189D01*
X146341929Y-132871534D01*
X146655466Y-133185071D01*
X146901811Y-133553751D01*
X147071496Y-133963407D01*
X147158000Y-134398296D01*
X147158000Y-134841704D01*
X147071496Y-135276593D01*
X146901811Y-135686249D01*
X146655466Y-136054929D01*
X146341929Y-136368466D01*
X145973249Y-136614811D01*
X145563593Y-136784496D01*
X145182880Y-136860224D01*
X145128705Y-136871000D01*
X144685295Y-136871000D01*
X144631120Y-136860224D01*
X144250407Y-136784496D01*
X143840751Y-136614811D01*
X143472071Y-136368466D01*
X143158534Y-136054929D01*
X142912189Y-135686249D01*
X142742504Y-135276593D01*
X142656000Y-134841704D01*
X142656000Y-134398296D01*
X142742504Y-133963407D01*
X142912189Y-133553751D01*
X143158534Y-133185071D01*
X143472071Y-132871534D01*
X143840751Y-132625189D01*
X144250407Y-132455504D01*
X144631120Y-132379776D01*
X144685295Y-132369000D01*
X145128705Y-132369000D01*
X145182880Y-132379776D01*
G37*
G36*
X221382880Y-132379776D02*
G01*
X221763593Y-132455504D01*
X222173249Y-132625189D01*
X222541929Y-132871534D01*
X222855466Y-133185071D01*
X223101811Y-133553751D01*
X223271496Y-133963407D01*
X223358000Y-134398296D01*
X223358000Y-134841704D01*
X223271496Y-135276593D01*
X223101811Y-135686249D01*
X222855466Y-136054929D01*
X222541929Y-136368466D01*
X222173249Y-136614811D01*
X221763593Y-136784496D01*
X221382880Y-136860224D01*
X221328705Y-136871000D01*
X220885295Y-136871000D01*
X220831120Y-136860224D01*
X220450407Y-136784496D01*
X220040751Y-136614811D01*
X219672071Y-136368466D01*
X219358534Y-136054929D01*
X219112189Y-135686249D01*
X218942504Y-135276593D01*
X218856000Y-134841704D01*
X218856000Y-134398296D01*
X218942504Y-133963407D01*
X219112189Y-133553751D01*
X219358534Y-133185071D01*
X219672071Y-132871534D01*
X220040751Y-132625189D01*
X220450407Y-132455504D01*
X220831120Y-132379776D01*
X220885295Y-132369000D01*
X221328705Y-132369000D01*
X221382880Y-132379776D01*
G37*
G36*
X191401000Y-136791000D02*
G01*
X189599000Y-136791000D01*
X189599000Y-134989000D01*
X191401000Y-134989000D01*
X191401000Y-136791000D01*
G37*
G36*
X155307512Y-131183927D02*
G01*
X155456812Y-131213624D01*
X155620784Y-131281544D01*
X155768354Y-131380147D01*
X155893853Y-131505646D01*
X155992456Y-131653216D01*
X156060376Y-131817188D01*
X156095000Y-131991259D01*
X156095000Y-132168741D01*
X156060376Y-132342812D01*
X155992456Y-132506784D01*
X155893853Y-132654354D01*
X155768354Y-132779853D01*
X155620784Y-132878456D01*
X155456812Y-132946376D01*
X155307512Y-132976073D01*
X155282742Y-132981000D01*
X155105258Y-132981000D01*
X155080488Y-132976073D01*
X154931188Y-132946376D01*
X154767216Y-132878456D01*
X154619646Y-132779853D01*
X154494147Y-132654354D01*
X154395544Y-132506784D01*
X154327624Y-132342812D01*
X154293000Y-132168741D01*
X154293000Y-131991259D01*
X154327624Y-131817188D01*
X154395544Y-131653216D01*
X154494147Y-131505646D01*
X154619646Y-131380147D01*
X154767216Y-131281544D01*
X154931188Y-131213624D01*
X155080488Y-131183927D01*
X155105258Y-131179000D01*
X155282742Y-131179000D01*
X155307512Y-131183927D01*
G37*
G36*
X158635000Y-132981000D02*
G01*
X156833000Y-132981000D01*
X156833000Y-131179000D01*
X158635000Y-131179000D01*
X158635000Y-132981000D01*
G37*
G36*
X162475241Y-126874760D02*
G01*
X162739305Y-126984139D01*
X162976958Y-127142934D01*
X163179066Y-127345042D01*
X163337861Y-127582695D01*
X163447240Y-127846759D01*
X163503000Y-128127088D01*
X163503000Y-128412912D01*
X163447240Y-128693241D01*
X163337861Y-128957305D01*
X163179066Y-129194958D01*
X162976958Y-129397066D01*
X162739305Y-129555861D01*
X162475241Y-129665240D01*
X162194912Y-129721000D01*
X161909088Y-129721000D01*
X161628759Y-129665240D01*
X161364695Y-129555861D01*
X161127042Y-129397066D01*
X160924934Y-129194958D01*
X160766139Y-128957305D01*
X160656760Y-128693241D01*
X160601000Y-128412912D01*
X160601000Y-128127088D01*
X160656760Y-127846759D01*
X160766139Y-127582695D01*
X160924934Y-127345042D01*
X161127042Y-127142934D01*
X161364695Y-126984139D01*
X161628759Y-126874760D01*
X161909088Y-126819000D01*
X162194912Y-126819000D01*
X162475241Y-126874760D01*
G37*
G36*
X216064312Y-126611927D02*
G01*
X216213612Y-126641624D01*
X216377584Y-126709544D01*
X216525154Y-126808147D01*
X216650653Y-126933646D01*
X216749256Y-127081216D01*
X216817176Y-127245188D01*
X216851800Y-127419259D01*
X216851800Y-127596741D01*
X216817176Y-127770812D01*
X216749256Y-127934784D01*
X216650653Y-128082354D01*
X216525154Y-128207853D01*
X216377584Y-128306456D01*
X216213612Y-128374376D01*
X216064312Y-128404073D01*
X216039542Y-128409000D01*
X215862058Y-128409000D01*
X215837288Y-128404073D01*
X215687988Y-128374376D01*
X215524016Y-128306456D01*
X215376446Y-128207853D01*
X215250947Y-128082354D01*
X215152344Y-127934784D01*
X215084424Y-127770812D01*
X215049800Y-127596741D01*
X215049800Y-127419259D01*
X215084424Y-127245188D01*
X215152344Y-127081216D01*
X215250947Y-126933646D01*
X215376446Y-126808147D01*
X215524016Y-126709544D01*
X215687988Y-126641624D01*
X215837288Y-126611927D01*
X215862058Y-126607000D01*
X216039542Y-126607000D01*
X216064312Y-126611927D01*
G37*
G36*
X152513512Y-126594147D02*
G01*
X152662812Y-126623844D01*
X152826784Y-126691764D01*
X152974354Y-126790367D01*
X153099853Y-126915866D01*
X153198456Y-127063436D01*
X153266376Y-127227408D01*
X153289774Y-127345041D01*
X153301000Y-127401478D01*
X153301000Y-127578962D01*
X153300257Y-127582695D01*
X153266376Y-127753032D01*
X153198456Y-127917004D01*
X153099853Y-128064574D01*
X152974354Y-128190073D01*
X152826784Y-128288676D01*
X152662812Y-128356596D01*
X152513512Y-128386293D01*
X152488742Y-128391220D01*
X152311258Y-128391220D01*
X152286488Y-128386293D01*
X152137188Y-128356596D01*
X151973216Y-128288676D01*
X151825646Y-128190073D01*
X151700147Y-128064574D01*
X151601544Y-127917004D01*
X151533624Y-127753032D01*
X151499743Y-127582695D01*
X151499000Y-127578962D01*
X151499000Y-127401478D01*
X151510226Y-127345041D01*
X151533624Y-127227408D01*
X151601544Y-127063436D01*
X151700147Y-126915866D01*
X151825646Y-126790367D01*
X151973216Y-126691764D01*
X152137188Y-126623844D01*
X152286488Y-126594147D01*
X152311258Y-126589220D01*
X152488742Y-126589220D01*
X152513512Y-126594147D01*
G37*
G36*
X146443000Y-127647000D02*
G01*
X144641000Y-127647000D01*
X144641000Y-125845000D01*
X146443000Y-125845000D01*
X146443000Y-127647000D01*
G37*
G36*
X216064312Y-124071927D02*
G01*
X216213612Y-124101624D01*
X216377584Y-124169544D01*
X216525154Y-124268147D01*
X216650653Y-124393646D01*
X216749256Y-124541216D01*
X216817176Y-124705188D01*
X216851800Y-124879259D01*
X216851800Y-125056741D01*
X216817176Y-125230812D01*
X216749256Y-125394784D01*
X216650653Y-125542354D01*
X216525154Y-125667853D01*
X216377584Y-125766456D01*
X216213612Y-125834376D01*
X216064312Y-125864073D01*
X216039542Y-125869000D01*
X215862058Y-125869000D01*
X215837288Y-125864073D01*
X215687988Y-125834376D01*
X215524016Y-125766456D01*
X215376446Y-125667853D01*
X215250947Y-125542354D01*
X215152344Y-125394784D01*
X215084424Y-125230812D01*
X215049800Y-125056741D01*
X215049800Y-124879259D01*
X215084424Y-124705188D01*
X215152344Y-124541216D01*
X215250947Y-124393646D01*
X215376446Y-124268147D01*
X215524016Y-124169544D01*
X215687988Y-124101624D01*
X215837288Y-124071927D01*
X215862058Y-124067000D01*
X216039542Y-124067000D01*
X216064312Y-124071927D01*
G37*
G36*
X152513512Y-124054147D02*
G01*
X152662812Y-124083844D01*
X152826784Y-124151764D01*
X152974354Y-124250367D01*
X153099853Y-124375866D01*
X153198456Y-124523436D01*
X153266376Y-124687408D01*
X153301000Y-124861479D01*
X153301000Y-125038961D01*
X153266376Y-125213032D01*
X153198456Y-125377004D01*
X153099853Y-125524574D01*
X152974354Y-125650073D01*
X152826784Y-125748676D01*
X152662812Y-125816596D01*
X152520012Y-125845000D01*
X152488742Y-125851220D01*
X152311258Y-125851220D01*
X152279988Y-125845000D01*
X152137188Y-125816596D01*
X151973216Y-125748676D01*
X151825646Y-125650073D01*
X151700147Y-125524574D01*
X151601544Y-125377004D01*
X151533624Y-125213032D01*
X151499000Y-125038961D01*
X151499000Y-124861479D01*
X151533624Y-124687408D01*
X151601544Y-124523436D01*
X151700147Y-124375866D01*
X151825646Y-124250367D01*
X151973216Y-124151764D01*
X152137188Y-124083844D01*
X152286488Y-124054147D01*
X152311258Y-124049220D01*
X152488742Y-124049220D01*
X152513512Y-124054147D01*
G37*
G36*
X145655512Y-123309927D02*
G01*
X145804812Y-123339624D01*
X145968784Y-123407544D01*
X146116354Y-123506147D01*
X146241853Y-123631646D01*
X146340456Y-123779216D01*
X146408376Y-123943188D01*
X146443000Y-124117259D01*
X146443000Y-124294741D01*
X146408376Y-124468812D01*
X146340456Y-124632784D01*
X146241853Y-124780354D01*
X146116354Y-124905853D01*
X145968784Y-125004456D01*
X145804812Y-125072376D01*
X145655512Y-125102073D01*
X145630742Y-125107000D01*
X145453258Y-125107000D01*
X145428488Y-125102073D01*
X145279188Y-125072376D01*
X145115216Y-125004456D01*
X144967646Y-124905853D01*
X144842147Y-124780354D01*
X144743544Y-124632784D01*
X144675624Y-124468812D01*
X144641000Y-124294741D01*
X144641000Y-124117259D01*
X144675624Y-123943188D01*
X144743544Y-123779216D01*
X144842147Y-123631646D01*
X144967646Y-123506147D01*
X145115216Y-123407544D01*
X145279188Y-123339624D01*
X145428488Y-123309927D01*
X145453258Y-123305000D01*
X145630742Y-123305000D01*
X145655512Y-123309927D01*
G37*
G36*
X216064312Y-121531927D02*
G01*
X216213612Y-121561624D01*
X216377584Y-121629544D01*
X216525154Y-121728147D01*
X216650653Y-121853646D01*
X216749256Y-122001216D01*
X216817176Y-122165188D01*
X216851800Y-122339259D01*
X216851800Y-122516741D01*
X216817176Y-122690812D01*
X216749256Y-122854784D01*
X216650653Y-123002354D01*
X216525154Y-123127853D01*
X216377584Y-123226456D01*
X216213612Y-123294376D01*
X216064312Y-123324073D01*
X216039542Y-123329000D01*
X215862058Y-123329000D01*
X215837288Y-123324073D01*
X215687988Y-123294376D01*
X215524016Y-123226456D01*
X215376446Y-123127853D01*
X215250947Y-123002354D01*
X215152344Y-122854784D01*
X215084424Y-122690812D01*
X215049800Y-122516741D01*
X215049800Y-122339259D01*
X215084424Y-122165188D01*
X215152344Y-122001216D01*
X215250947Y-121853646D01*
X215376446Y-121728147D01*
X215524016Y-121629544D01*
X215687988Y-121561624D01*
X215837288Y-121531927D01*
X215862058Y-121527000D01*
X216039542Y-121527000D01*
X216064312Y-121531927D01*
G37*
G36*
X152513512Y-121514147D02*
G01*
X152662812Y-121543844D01*
X152826784Y-121611764D01*
X152974354Y-121710367D01*
X153099853Y-121835866D01*
X153198456Y-121983436D01*
X153266376Y-122147408D01*
X153301000Y-122321479D01*
X153301000Y-122498961D01*
X153266376Y-122673032D01*
X153198456Y-122837004D01*
X153099853Y-122984574D01*
X152974354Y-123110073D01*
X152826784Y-123208676D01*
X152662812Y-123276596D01*
X152520012Y-123305000D01*
X152488742Y-123311220D01*
X152311258Y-123311220D01*
X152279988Y-123305000D01*
X152137188Y-123276596D01*
X151973216Y-123208676D01*
X151825646Y-123110073D01*
X151700147Y-122984574D01*
X151601544Y-122837004D01*
X151533624Y-122673032D01*
X151499000Y-122498961D01*
X151499000Y-122321479D01*
X151533624Y-122147408D01*
X151601544Y-121983436D01*
X151700147Y-121835866D01*
X151825646Y-121710367D01*
X151973216Y-121611764D01*
X152137188Y-121543844D01*
X152286488Y-121514147D01*
X152311258Y-121509220D01*
X152488742Y-121509220D01*
X152513512Y-121514147D01*
G37*
G36*
X145965241Y-117984760D02*
G01*
X146229305Y-118094139D01*
X146466958Y-118252934D01*
X146669066Y-118455042D01*
X146827861Y-118692695D01*
X146937240Y-118956759D01*
X146993000Y-119237088D01*
X146993000Y-119522912D01*
X146937240Y-119803241D01*
X146827861Y-120067305D01*
X146669066Y-120304958D01*
X146466958Y-120507066D01*
X146229305Y-120665861D01*
X145965241Y-120775240D01*
X145684912Y-120831000D01*
X145399088Y-120831000D01*
X145118759Y-120775240D01*
X144854695Y-120665861D01*
X144617042Y-120507066D01*
X144414934Y-120304958D01*
X144256139Y-120067305D01*
X144146760Y-119803241D01*
X144091000Y-119522912D01*
X144091000Y-119237088D01*
X144146760Y-118956759D01*
X144256139Y-118692695D01*
X144414934Y-118455042D01*
X144617042Y-118252934D01*
X144854695Y-118094139D01*
X145118759Y-117984760D01*
X145399088Y-117929000D01*
X145684912Y-117929000D01*
X145965241Y-117984760D01*
G37*
G36*
X216064312Y-118991927D02*
G01*
X216213612Y-119021624D01*
X216377584Y-119089544D01*
X216525154Y-119188147D01*
X216650653Y-119313646D01*
X216749256Y-119461216D01*
X216817176Y-119625188D01*
X216851800Y-119799259D01*
X216851800Y-119976741D01*
X216817176Y-120150812D01*
X216749256Y-120314784D01*
X216650653Y-120462354D01*
X216525154Y-120587853D01*
X216377584Y-120686456D01*
X216213612Y-120754376D01*
X216064312Y-120784073D01*
X216039542Y-120789000D01*
X215862058Y-120789000D01*
X215837288Y-120784073D01*
X215687988Y-120754376D01*
X215524016Y-120686456D01*
X215376446Y-120587853D01*
X215250947Y-120462354D01*
X215152344Y-120314784D01*
X215084424Y-120150812D01*
X215049800Y-119976741D01*
X215049800Y-119799259D01*
X215084424Y-119625188D01*
X215152344Y-119461216D01*
X215250947Y-119313646D01*
X215376446Y-119188147D01*
X215524016Y-119089544D01*
X215687988Y-119021624D01*
X215837288Y-118991927D01*
X215862058Y-118987000D01*
X216039542Y-118987000D01*
X216064312Y-118991927D01*
G37*
G36*
X152513512Y-118974147D02*
G01*
X152662812Y-119003844D01*
X152826784Y-119071764D01*
X152974354Y-119170367D01*
X153099853Y-119295866D01*
X153198456Y-119443436D01*
X153266376Y-119607408D01*
X153301000Y-119781479D01*
X153301000Y-119958961D01*
X153266376Y-120133032D01*
X153198456Y-120297004D01*
X153099853Y-120444574D01*
X152974354Y-120570073D01*
X152826784Y-120668676D01*
X152662812Y-120736596D01*
X152513512Y-120766293D01*
X152488742Y-120771220D01*
X152311258Y-120771220D01*
X152286488Y-120766293D01*
X152137188Y-120736596D01*
X151973216Y-120668676D01*
X151825646Y-120570073D01*
X151700147Y-120444574D01*
X151601544Y-120297004D01*
X151533624Y-120133032D01*
X151499000Y-119958961D01*
X151499000Y-119781479D01*
X151533624Y-119607408D01*
X151601544Y-119443436D01*
X151700147Y-119295866D01*
X151825646Y-119170367D01*
X151973216Y-119071764D01*
X152137188Y-119003844D01*
X152286488Y-118974147D01*
X152311258Y-118969220D01*
X152488742Y-118969220D01*
X152513512Y-118974147D01*
G37*
G36*
X216064312Y-116451927D02*
G01*
X216213612Y-116481624D01*
X216377584Y-116549544D01*
X216525154Y-116648147D01*
X216650653Y-116773646D01*
X216749256Y-116921216D01*
X216817176Y-117085188D01*
X216851800Y-117259259D01*
X216851800Y-117436741D01*
X216817176Y-117610812D01*
X216749256Y-117774784D01*
X216650653Y-117922354D01*
X216525154Y-118047853D01*
X216377584Y-118146456D01*
X216213612Y-118214376D01*
X216064312Y-118244073D01*
X216039542Y-118249000D01*
X215862058Y-118249000D01*
X215837288Y-118244073D01*
X215687988Y-118214376D01*
X215524016Y-118146456D01*
X215376446Y-118047853D01*
X215250947Y-117922354D01*
X215152344Y-117774784D01*
X215084424Y-117610812D01*
X215049800Y-117436741D01*
X215049800Y-117259259D01*
X215084424Y-117085188D01*
X215152344Y-116921216D01*
X215250947Y-116773646D01*
X215376446Y-116648147D01*
X215524016Y-116549544D01*
X215687988Y-116481624D01*
X215837288Y-116451927D01*
X215862058Y-116447000D01*
X216039542Y-116447000D01*
X216064312Y-116451927D01*
G37*
G36*
X152513512Y-116434147D02*
G01*
X152662812Y-116463844D01*
X152826784Y-116531764D01*
X152974354Y-116630367D01*
X153099853Y-116755866D01*
X153198456Y-116903436D01*
X153266376Y-117067408D01*
X153301000Y-117241479D01*
X153301000Y-117418961D01*
X153266376Y-117593032D01*
X153198456Y-117757004D01*
X153099853Y-117904574D01*
X152974354Y-118030073D01*
X152826784Y-118128676D01*
X152662812Y-118196596D01*
X152513512Y-118226293D01*
X152488742Y-118231220D01*
X152311258Y-118231220D01*
X152286488Y-118226293D01*
X152137188Y-118196596D01*
X151973216Y-118128676D01*
X151825646Y-118030073D01*
X151700147Y-117904574D01*
X151601544Y-117757004D01*
X151533624Y-117593032D01*
X151499000Y-117418961D01*
X151499000Y-117241479D01*
X151533624Y-117067408D01*
X151601544Y-116903436D01*
X151700147Y-116755866D01*
X151825646Y-116630367D01*
X151973216Y-116531764D01*
X152137188Y-116463844D01*
X152286488Y-116434147D01*
X152311258Y-116429220D01*
X152488742Y-116429220D01*
X152513512Y-116434147D01*
G37*
G36*
X216064312Y-113911927D02*
G01*
X216213612Y-113941624D01*
X216377584Y-114009544D01*
X216525154Y-114108147D01*
X216650653Y-114233646D01*
X216749256Y-114381216D01*
X216817176Y-114545188D01*
X216851800Y-114719259D01*
X216851800Y-114896741D01*
X216817176Y-115070812D01*
X216749256Y-115234784D01*
X216650653Y-115382354D01*
X216525154Y-115507853D01*
X216377584Y-115606456D01*
X216213612Y-115674376D01*
X216064312Y-115704073D01*
X216039542Y-115709000D01*
X215862058Y-115709000D01*
X215837288Y-115704073D01*
X215687988Y-115674376D01*
X215524016Y-115606456D01*
X215376446Y-115507853D01*
X215250947Y-115382354D01*
X215152344Y-115234784D01*
X215084424Y-115070812D01*
X215049800Y-114896741D01*
X215049800Y-114719259D01*
X215084424Y-114545188D01*
X215152344Y-114381216D01*
X215250947Y-114233646D01*
X215376446Y-114108147D01*
X215524016Y-114009544D01*
X215687988Y-113941624D01*
X215837288Y-113911927D01*
X215862058Y-113907000D01*
X216039542Y-113907000D01*
X216064312Y-113911927D01*
G37*
G36*
X152513512Y-113894147D02*
G01*
X152662812Y-113923844D01*
X152826784Y-113991764D01*
X152974354Y-114090367D01*
X153099853Y-114215866D01*
X153198456Y-114363436D01*
X153266376Y-114527408D01*
X153301000Y-114701479D01*
X153301000Y-114878961D01*
X153266376Y-115053032D01*
X153198456Y-115217004D01*
X153099853Y-115364574D01*
X152974354Y-115490073D01*
X152826784Y-115588676D01*
X152662812Y-115656596D01*
X152513512Y-115686293D01*
X152488742Y-115691220D01*
X152311258Y-115691220D01*
X152286488Y-115686293D01*
X152137188Y-115656596D01*
X151973216Y-115588676D01*
X151825646Y-115490073D01*
X151700147Y-115364574D01*
X151601544Y-115217004D01*
X151533624Y-115053032D01*
X151499000Y-114878961D01*
X151499000Y-114701479D01*
X151533624Y-114527408D01*
X151601544Y-114363436D01*
X151700147Y-114215866D01*
X151825646Y-114090367D01*
X151973216Y-113991764D01*
X152137188Y-113923844D01*
X152286488Y-113894147D01*
X152311258Y-113889220D01*
X152488742Y-113889220D01*
X152513512Y-113894147D01*
G37*
G36*
X145965241Y-112142760D02*
G01*
X146229305Y-112252139D01*
X146466958Y-112410934D01*
X146669066Y-112613042D01*
X146827861Y-112850695D01*
X146937240Y-113114759D01*
X146993000Y-113395088D01*
X146993000Y-113680912D01*
X146937240Y-113961241D01*
X146827861Y-114225305D01*
X146669066Y-114462958D01*
X146466958Y-114665066D01*
X146229305Y-114823861D01*
X145965241Y-114933240D01*
X145684912Y-114989000D01*
X145399088Y-114989000D01*
X145118759Y-114933240D01*
X144854695Y-114823861D01*
X144617042Y-114665066D01*
X144414934Y-114462958D01*
X144256139Y-114225305D01*
X144146760Y-113961241D01*
X144091000Y-113680912D01*
X144091000Y-113395088D01*
X144146760Y-113114759D01*
X144256139Y-112850695D01*
X144414934Y-112613042D01*
X144617042Y-112410934D01*
X144854695Y-112252139D01*
X145118759Y-112142760D01*
X145399088Y-112087000D01*
X145684912Y-112087000D01*
X145965241Y-112142760D01*
G37*
G36*
X224903512Y-112641927D02*
G01*
X225052812Y-112671624D01*
X225216784Y-112739544D01*
X225364354Y-112838147D01*
X225489853Y-112963646D01*
X225588456Y-113111216D01*
X225656376Y-113275188D01*
X225691000Y-113449259D01*
X225691000Y-113626741D01*
X225656376Y-113800812D01*
X225588456Y-113964784D01*
X225489853Y-114112354D01*
X225364354Y-114237853D01*
X225216784Y-114336456D01*
X225052812Y-114404376D01*
X224903512Y-114434073D01*
X224878742Y-114439000D01*
X224701258Y-114439000D01*
X224676488Y-114434073D01*
X224527188Y-114404376D01*
X224363216Y-114336456D01*
X224215646Y-114237853D01*
X224090147Y-114112354D01*
X223991544Y-113964784D01*
X223923624Y-113800812D01*
X223889000Y-113626741D01*
X223889000Y-113449259D01*
X223923624Y-113275188D01*
X223991544Y-113111216D01*
X224090147Y-112963646D01*
X224215646Y-112838147D01*
X224363216Y-112739544D01*
X224527188Y-112671624D01*
X224676488Y-112641927D01*
X224701258Y-112637000D01*
X224878742Y-112637000D01*
X224903512Y-112641927D01*
G37*
G36*
X216058907Y-111370852D02*
G01*
X216213612Y-111401624D01*
X216377584Y-111469544D01*
X216525154Y-111568147D01*
X216650653Y-111693646D01*
X216749256Y-111841216D01*
X216817176Y-112005188D01*
X216851800Y-112179259D01*
X216851800Y-112356741D01*
X216817176Y-112530812D01*
X216749256Y-112694784D01*
X216650653Y-112842354D01*
X216525154Y-112967853D01*
X216377584Y-113066456D01*
X216213612Y-113134376D01*
X216064312Y-113164073D01*
X216039542Y-113169000D01*
X215862058Y-113169000D01*
X215837288Y-113164073D01*
X215687988Y-113134376D01*
X215524016Y-113066456D01*
X215376446Y-112967853D01*
X215250947Y-112842354D01*
X215152344Y-112694784D01*
X215084424Y-112530812D01*
X215049800Y-112356741D01*
X215049800Y-112179259D01*
X215084424Y-112005188D01*
X215152344Y-111841216D01*
X215250947Y-111693646D01*
X215376446Y-111568147D01*
X215524016Y-111469544D01*
X215687988Y-111401624D01*
X215842693Y-111370852D01*
X215862058Y-111367000D01*
X216039542Y-111367000D01*
X216058907Y-111370852D01*
G37*
G36*
X152513512Y-111354147D02*
G01*
X152662812Y-111383844D01*
X152826784Y-111451764D01*
X152974354Y-111550367D01*
X153099853Y-111675866D01*
X153198456Y-111823436D01*
X153266376Y-111987408D01*
X153301000Y-112161479D01*
X153301000Y-112338961D01*
X153266376Y-112513032D01*
X153198456Y-112677004D01*
X153099853Y-112824574D01*
X152974354Y-112950073D01*
X152826784Y-113048676D01*
X152662812Y-113116596D01*
X152513512Y-113146293D01*
X152488742Y-113151220D01*
X152311258Y-113151220D01*
X152286488Y-113146293D01*
X152137188Y-113116596D01*
X151973216Y-113048676D01*
X151825646Y-112950073D01*
X151700147Y-112824574D01*
X151601544Y-112677004D01*
X151533624Y-112513032D01*
X151499000Y-112338961D01*
X151499000Y-112161479D01*
X151533624Y-111987408D01*
X151601544Y-111823436D01*
X151700147Y-111675866D01*
X151825646Y-111550367D01*
X151973216Y-111451764D01*
X152137188Y-111383844D01*
X152286488Y-111354147D01*
X152311258Y-111349220D01*
X152488742Y-111349220D01*
X152513512Y-111354147D01*
G37*
G36*
X224903512Y-110101927D02*
G01*
X225052812Y-110131624D01*
X225216784Y-110199544D01*
X225364354Y-110298147D01*
X225489853Y-110423646D01*
X225588456Y-110571216D01*
X225656376Y-110735188D01*
X225691000Y-110909259D01*
X225691000Y-111086741D01*
X225656376Y-111260812D01*
X225588456Y-111424784D01*
X225489853Y-111572354D01*
X225364354Y-111697853D01*
X225216784Y-111796456D01*
X225052812Y-111864376D01*
X224903512Y-111894073D01*
X224878742Y-111899000D01*
X224701258Y-111899000D01*
X224676488Y-111894073D01*
X224527188Y-111864376D01*
X224363216Y-111796456D01*
X224215646Y-111697853D01*
X224090147Y-111572354D01*
X223991544Y-111424784D01*
X223923624Y-111260812D01*
X223889000Y-111086741D01*
X223889000Y-110909259D01*
X223923624Y-110735188D01*
X223991544Y-110571216D01*
X224090147Y-110423646D01*
X224215646Y-110298147D01*
X224363216Y-110199544D01*
X224527188Y-110131624D01*
X224676488Y-110101927D01*
X224701258Y-110097000D01*
X224878742Y-110097000D01*
X224903512Y-110101927D01*
G37*
G36*
X182604062Y-109644381D02*
G01*
X182638981Y-109654974D01*
X182671163Y-109672176D01*
X182699373Y-109695327D01*
X182722524Y-109723537D01*
X182739726Y-109755719D01*
X182750319Y-109790638D01*
X182754500Y-109833095D01*
X182754500Y-111299305D01*
X182750319Y-111341762D01*
X182739726Y-111376681D01*
X182722524Y-111408863D01*
X182699373Y-111437073D01*
X182671163Y-111460224D01*
X182638981Y-111477426D01*
X182604062Y-111488019D01*
X182561605Y-111492200D01*
X181420395Y-111492200D01*
X181377938Y-111488019D01*
X181343019Y-111477426D01*
X181310837Y-111460224D01*
X181282627Y-111437073D01*
X181259476Y-111408863D01*
X181242274Y-111376681D01*
X181231681Y-111341762D01*
X181227500Y-111299305D01*
X181227500Y-109833095D01*
X181231681Y-109790638D01*
X181242274Y-109755719D01*
X181259476Y-109723537D01*
X181282627Y-109695327D01*
X181310837Y-109672176D01*
X181343019Y-109654974D01*
X181377938Y-109644381D01*
X181420395Y-109640200D01*
X182561605Y-109640200D01*
X182604062Y-109644381D01*
G37*
G36*
X179629062Y-109644381D02*
G01*
X179663981Y-109654974D01*
X179696163Y-109672176D01*
X179724373Y-109695327D01*
X179747524Y-109723537D01*
X179764726Y-109755719D01*
X179775319Y-109790638D01*
X179779500Y-109833095D01*
X179779500Y-111299305D01*
X179775319Y-111341762D01*
X179764726Y-111376681D01*
X179747524Y-111408863D01*
X179724373Y-111437073D01*
X179696163Y-111460224D01*
X179663981Y-111477426D01*
X179629062Y-111488019D01*
X179586605Y-111492200D01*
X178445395Y-111492200D01*
X178402938Y-111488019D01*
X178368019Y-111477426D01*
X178335837Y-111460224D01*
X178307627Y-111437073D01*
X178284476Y-111408863D01*
X178267274Y-111376681D01*
X178256681Y-111341762D01*
X178252500Y-111299305D01*
X178252500Y-109833095D01*
X178256681Y-109790638D01*
X178267274Y-109755719D01*
X178284476Y-109723537D01*
X178307627Y-109695327D01*
X178335837Y-109672176D01*
X178368019Y-109654974D01*
X178402938Y-109644381D01*
X178445395Y-109640200D01*
X179586605Y-109640200D01*
X179629062Y-109644381D01*
G37*
G36*
X184763062Y-109568181D02*
G01*
X184797981Y-109578774D01*
X184830163Y-109595976D01*
X184858373Y-109619127D01*
X184881524Y-109647337D01*
X184898726Y-109679519D01*
X184909319Y-109714438D01*
X184913500Y-109756895D01*
X184913500Y-111223105D01*
X184909319Y-111265562D01*
X184898726Y-111300481D01*
X184881524Y-111332663D01*
X184858373Y-111360873D01*
X184830163Y-111384024D01*
X184797981Y-111401226D01*
X184763062Y-111411819D01*
X184720605Y-111416000D01*
X183579395Y-111416000D01*
X183536938Y-111411819D01*
X183502019Y-111401226D01*
X183469837Y-111384024D01*
X183441627Y-111360873D01*
X183418476Y-111332663D01*
X183401274Y-111300481D01*
X183390681Y-111265562D01*
X183386500Y-111223105D01*
X183386500Y-109756895D01*
X183390681Y-109714438D01*
X183401274Y-109679519D01*
X183418476Y-109647337D01*
X183441627Y-109619127D01*
X183469837Y-109595976D01*
X183502019Y-109578774D01*
X183536938Y-109568181D01*
X183579395Y-109564000D01*
X184720605Y-109564000D01*
X184763062Y-109568181D01*
G37*
G36*
X187738062Y-109568181D02*
G01*
X187772981Y-109578774D01*
X187805163Y-109595976D01*
X187833373Y-109619127D01*
X187856524Y-109647337D01*
X187873726Y-109679519D01*
X187884319Y-109714438D01*
X187888500Y-109756895D01*
X187888500Y-111223105D01*
X187884319Y-111265562D01*
X187873726Y-111300481D01*
X187856524Y-111332663D01*
X187833373Y-111360873D01*
X187805163Y-111384024D01*
X187772981Y-111401226D01*
X187738062Y-111411819D01*
X187695605Y-111416000D01*
X186554395Y-111416000D01*
X186511938Y-111411819D01*
X186477019Y-111401226D01*
X186444837Y-111384024D01*
X186416627Y-111360873D01*
X186393476Y-111332663D01*
X186376274Y-111300481D01*
X186365681Y-111265562D01*
X186361500Y-111223105D01*
X186361500Y-109756895D01*
X186365681Y-109714438D01*
X186376274Y-109679519D01*
X186393476Y-109647337D01*
X186416627Y-109619127D01*
X186444837Y-109595976D01*
X186477019Y-109578774D01*
X186511938Y-109568181D01*
X186554395Y-109564000D01*
X187695605Y-109564000D01*
X187738062Y-109568181D01*
G37*
G36*
X216064312Y-108831927D02*
G01*
X216213612Y-108861624D01*
X216377584Y-108929544D01*
X216525154Y-109028147D01*
X216650653Y-109153646D01*
X216749256Y-109301216D01*
X216817176Y-109465188D01*
X216851800Y-109639259D01*
X216851800Y-109816741D01*
X216817176Y-109990812D01*
X216749256Y-110154784D01*
X216650653Y-110302354D01*
X216525154Y-110427853D01*
X216377584Y-110526456D01*
X216213612Y-110594376D01*
X216064312Y-110624073D01*
X216039542Y-110629000D01*
X215862058Y-110629000D01*
X215837288Y-110624073D01*
X215687988Y-110594376D01*
X215524016Y-110526456D01*
X215376446Y-110427853D01*
X215250947Y-110302354D01*
X215152344Y-110154784D01*
X215084424Y-109990812D01*
X215049800Y-109816741D01*
X215049800Y-109639259D01*
X215084424Y-109465188D01*
X215152344Y-109301216D01*
X215250947Y-109153646D01*
X215376446Y-109028147D01*
X215524016Y-108929544D01*
X215687988Y-108861624D01*
X215837288Y-108831927D01*
X215862058Y-108827000D01*
X216039542Y-108827000D01*
X216064312Y-108831927D01*
G37*
G36*
X152513512Y-108814147D02*
G01*
X152662812Y-108843844D01*
X152826784Y-108911764D01*
X152974354Y-109010367D01*
X153099853Y-109135866D01*
X153198456Y-109283436D01*
X153266376Y-109447408D01*
X153301000Y-109621479D01*
X153301000Y-109798961D01*
X153266376Y-109973032D01*
X153198456Y-110137004D01*
X153099853Y-110284574D01*
X152974354Y-110410073D01*
X152826784Y-110508676D01*
X152662812Y-110576596D01*
X152513512Y-110606293D01*
X152488742Y-110611220D01*
X152311258Y-110611220D01*
X152286488Y-110606293D01*
X152137188Y-110576596D01*
X151973216Y-110508676D01*
X151825646Y-110410073D01*
X151700147Y-110284574D01*
X151601544Y-110137004D01*
X151533624Y-109973032D01*
X151499000Y-109798961D01*
X151499000Y-109621479D01*
X151533624Y-109447408D01*
X151601544Y-109283436D01*
X151700147Y-109135866D01*
X151825646Y-109010367D01*
X151973216Y-108911764D01*
X152137188Y-108843844D01*
X152286488Y-108814147D01*
X152311258Y-108809220D01*
X152488742Y-108809220D01*
X152513512Y-108814147D01*
G37*
G36*
X224898107Y-107560852D02*
G01*
X225052812Y-107591624D01*
X225216784Y-107659544D01*
X225364354Y-107758147D01*
X225489853Y-107883646D01*
X225588456Y-108031216D01*
X225656376Y-108195188D01*
X225691000Y-108369259D01*
X225691000Y-108546741D01*
X225656376Y-108720812D01*
X225588456Y-108884784D01*
X225489853Y-109032354D01*
X225364354Y-109157853D01*
X225216784Y-109256456D01*
X225052812Y-109324376D01*
X224903512Y-109354073D01*
X224878742Y-109359000D01*
X224701258Y-109359000D01*
X224676488Y-109354073D01*
X224527188Y-109324376D01*
X224363216Y-109256456D01*
X224215646Y-109157853D01*
X224090147Y-109032354D01*
X223991544Y-108884784D01*
X223923624Y-108720812D01*
X223889000Y-108546741D01*
X223889000Y-108369259D01*
X223923624Y-108195188D01*
X223991544Y-108031216D01*
X224090147Y-107883646D01*
X224215646Y-107758147D01*
X224363216Y-107659544D01*
X224527188Y-107591624D01*
X224681893Y-107560852D01*
X224701258Y-107557000D01*
X224878742Y-107557000D01*
X224898107Y-107560852D01*
G37*
G36*
X216064312Y-106291927D02*
G01*
X216213612Y-106321624D01*
X216377584Y-106389544D01*
X216525154Y-106488147D01*
X216650653Y-106613646D01*
X216749256Y-106761216D01*
X216817176Y-106925188D01*
X216851800Y-107099259D01*
X216851800Y-107276741D01*
X216817176Y-107450812D01*
X216749256Y-107614784D01*
X216650653Y-107762354D01*
X216525154Y-107887853D01*
X216377584Y-107986456D01*
X216213612Y-108054376D01*
X216064312Y-108084073D01*
X216039542Y-108089000D01*
X215862058Y-108089000D01*
X215837288Y-108084073D01*
X215687988Y-108054376D01*
X215524016Y-107986456D01*
X215376446Y-107887853D01*
X215250947Y-107762354D01*
X215152344Y-107614784D01*
X215084424Y-107450812D01*
X215049800Y-107276741D01*
X215049800Y-107099259D01*
X215084424Y-106925188D01*
X215152344Y-106761216D01*
X215250947Y-106613646D01*
X215376446Y-106488147D01*
X215524016Y-106389544D01*
X215687988Y-106321624D01*
X215837288Y-106291927D01*
X215862058Y-106287000D01*
X216039542Y-106287000D01*
X216064312Y-106291927D01*
G37*
G36*
X152513512Y-106274147D02*
G01*
X152662812Y-106303844D01*
X152826784Y-106371764D01*
X152974354Y-106470367D01*
X153099853Y-106595866D01*
X153198456Y-106743436D01*
X153266376Y-106907408D01*
X153301000Y-107081479D01*
X153301000Y-107258961D01*
X153266376Y-107433032D01*
X153198456Y-107597004D01*
X153099853Y-107744574D01*
X152974354Y-107870073D01*
X152826784Y-107968676D01*
X152662812Y-108036596D01*
X152513512Y-108066293D01*
X152488742Y-108071220D01*
X152311258Y-108071220D01*
X152286488Y-108066293D01*
X152137188Y-108036596D01*
X151973216Y-107968676D01*
X151825646Y-107870073D01*
X151700147Y-107744574D01*
X151601544Y-107597004D01*
X151533624Y-107433032D01*
X151499000Y-107258961D01*
X151499000Y-107081479D01*
X151533624Y-106907408D01*
X151601544Y-106743436D01*
X151700147Y-106595866D01*
X151825646Y-106470367D01*
X151973216Y-106371764D01*
X152137188Y-106303844D01*
X152286488Y-106274147D01*
X152311258Y-106269220D01*
X152488742Y-106269220D01*
X152513512Y-106274147D01*
G37*
G36*
X179629062Y-105851313D02*
G01*
X179663981Y-105861906D01*
X179696163Y-105879108D01*
X179724373Y-105902259D01*
X179747524Y-105930469D01*
X179764726Y-105962651D01*
X179775319Y-105997570D01*
X179779500Y-106040027D01*
X179779500Y-107506237D01*
X179775319Y-107548694D01*
X179764726Y-107583613D01*
X179747524Y-107615795D01*
X179724373Y-107644005D01*
X179696163Y-107667156D01*
X179663981Y-107684358D01*
X179629062Y-107694951D01*
X179586605Y-107699132D01*
X178445395Y-107699132D01*
X178402938Y-107694951D01*
X178368019Y-107684358D01*
X178335837Y-107667156D01*
X178307627Y-107644005D01*
X178284476Y-107615795D01*
X178267274Y-107583613D01*
X178256681Y-107548694D01*
X178252500Y-107506237D01*
X178252500Y-106040027D01*
X178256681Y-105997570D01*
X178267274Y-105962651D01*
X178284476Y-105930469D01*
X178307627Y-105902259D01*
X178335837Y-105879108D01*
X178368019Y-105861906D01*
X178402938Y-105851313D01*
X178445395Y-105847132D01*
X179586605Y-105847132D01*
X179629062Y-105851313D01*
G37*
G36*
X182604062Y-105758181D02*
G01*
X182638981Y-105768774D01*
X182671163Y-105785976D01*
X182699373Y-105809127D01*
X182722524Y-105837337D01*
X182739726Y-105869519D01*
X182750319Y-105904438D01*
X182754500Y-105946895D01*
X182754500Y-107413105D01*
X182750319Y-107455562D01*
X182739726Y-107490481D01*
X182722524Y-107522663D01*
X182699373Y-107550873D01*
X182671163Y-107574024D01*
X182638981Y-107591226D01*
X182604062Y-107601819D01*
X182561605Y-107606000D01*
X181420395Y-107606000D01*
X181377938Y-107601819D01*
X181343019Y-107591226D01*
X181310837Y-107574024D01*
X181282627Y-107550873D01*
X181259476Y-107522663D01*
X181242274Y-107490481D01*
X181231681Y-107455562D01*
X181227500Y-107413105D01*
X181227500Y-105946895D01*
X181231681Y-105904438D01*
X181242274Y-105869519D01*
X181259476Y-105837337D01*
X181282627Y-105809127D01*
X181310837Y-105785976D01*
X181343019Y-105768774D01*
X181377938Y-105758181D01*
X181420395Y-105754000D01*
X182561605Y-105754000D01*
X182604062Y-105758181D01*
G37*
G36*
X187734862Y-105707381D02*
G01*
X187769781Y-105717974D01*
X187801963Y-105735176D01*
X187830173Y-105758327D01*
X187853324Y-105786537D01*
X187870526Y-105818719D01*
X187881119Y-105853638D01*
X187885300Y-105896095D01*
X187885300Y-107362305D01*
X187881119Y-107404762D01*
X187870526Y-107439681D01*
X187853324Y-107471863D01*
X187830173Y-107500073D01*
X187801963Y-107523224D01*
X187769781Y-107540426D01*
X187734862Y-107551019D01*
X187692405Y-107555200D01*
X186551195Y-107555200D01*
X186508738Y-107551019D01*
X186473819Y-107540426D01*
X186441637Y-107523224D01*
X186413427Y-107500073D01*
X186390276Y-107471863D01*
X186373074Y-107439681D01*
X186362481Y-107404762D01*
X186358300Y-107362305D01*
X186358300Y-105896095D01*
X186362481Y-105853638D01*
X186373074Y-105818719D01*
X186390276Y-105786537D01*
X186413427Y-105758327D01*
X186441637Y-105735176D01*
X186473819Y-105717974D01*
X186508738Y-105707381D01*
X186551195Y-105703200D01*
X187692405Y-105703200D01*
X187734862Y-105707381D01*
G37*
G36*
X184759862Y-105707381D02*
G01*
X184794781Y-105717974D01*
X184826963Y-105735176D01*
X184855173Y-105758327D01*
X184878324Y-105786537D01*
X184895526Y-105818719D01*
X184906119Y-105853638D01*
X184910300Y-105896095D01*
X184910300Y-107362305D01*
X184906119Y-107404762D01*
X184895526Y-107439681D01*
X184878324Y-107471863D01*
X184855173Y-107500073D01*
X184826963Y-107523224D01*
X184794781Y-107540426D01*
X184759862Y-107551019D01*
X184717405Y-107555200D01*
X183576195Y-107555200D01*
X183533738Y-107551019D01*
X183498819Y-107540426D01*
X183466637Y-107523224D01*
X183438427Y-107500073D01*
X183415276Y-107471863D01*
X183398074Y-107439681D01*
X183387481Y-107404762D01*
X183383300Y-107362305D01*
X183383300Y-105896095D01*
X183387481Y-105853638D01*
X183398074Y-105818719D01*
X183415276Y-105786537D01*
X183438427Y-105758327D01*
X183466637Y-105735176D01*
X183498819Y-105717974D01*
X183533738Y-105707381D01*
X183576195Y-105703200D01*
X184717405Y-105703200D01*
X184759862Y-105707381D01*
G37*
G36*
X224903512Y-105021927D02*
G01*
X225052812Y-105051624D01*
X225216784Y-105119544D01*
X225364354Y-105218147D01*
X225489853Y-105343646D01*
X225588456Y-105491216D01*
X225656376Y-105655188D01*
X225691000Y-105829259D01*
X225691000Y-106006741D01*
X225656376Y-106180812D01*
X225588456Y-106344784D01*
X225489853Y-106492354D01*
X225364354Y-106617853D01*
X225216784Y-106716456D01*
X225052812Y-106784376D01*
X224903512Y-106814073D01*
X224878742Y-106819000D01*
X224701258Y-106819000D01*
X224676488Y-106814073D01*
X224527188Y-106784376D01*
X224363216Y-106716456D01*
X224215646Y-106617853D01*
X224090147Y-106492354D01*
X223991544Y-106344784D01*
X223923624Y-106180812D01*
X223889000Y-106006741D01*
X223889000Y-105829259D01*
X223923624Y-105655188D01*
X223991544Y-105491216D01*
X224090147Y-105343646D01*
X224215646Y-105218147D01*
X224363216Y-105119544D01*
X224527188Y-105051624D01*
X224676488Y-105021927D01*
X224701258Y-105017000D01*
X224878742Y-105017000D01*
X224903512Y-105021927D01*
G37*
G36*
X216058907Y-103750852D02*
G01*
X216213612Y-103781624D01*
X216377584Y-103849544D01*
X216525154Y-103948147D01*
X216650653Y-104073646D01*
X216749256Y-104221216D01*
X216817176Y-104385188D01*
X216851800Y-104559259D01*
X216851800Y-104736741D01*
X216817176Y-104910812D01*
X216749256Y-105074784D01*
X216650653Y-105222354D01*
X216525154Y-105347853D01*
X216377584Y-105446456D01*
X216213612Y-105514376D01*
X216064312Y-105544073D01*
X216039542Y-105549000D01*
X215862058Y-105549000D01*
X215837288Y-105544073D01*
X215687988Y-105514376D01*
X215524016Y-105446456D01*
X215376446Y-105347853D01*
X215250947Y-105222354D01*
X215152344Y-105074784D01*
X215084424Y-104910812D01*
X215049800Y-104736741D01*
X215049800Y-104559259D01*
X215084424Y-104385188D01*
X215152344Y-104221216D01*
X215250947Y-104073646D01*
X215376446Y-103948147D01*
X215524016Y-103849544D01*
X215687988Y-103781624D01*
X215842693Y-103750852D01*
X215862058Y-103747000D01*
X216039542Y-103747000D01*
X216058907Y-103750852D01*
G37*
G36*
X152513512Y-103734147D02*
G01*
X152662812Y-103763844D01*
X152826784Y-103831764D01*
X152974354Y-103930367D01*
X153099853Y-104055866D01*
X153198456Y-104203436D01*
X153266376Y-104367408D01*
X153301000Y-104541479D01*
X153301000Y-104718961D01*
X153266376Y-104893032D01*
X153198456Y-105057004D01*
X153099853Y-105204574D01*
X152974354Y-105330073D01*
X152826784Y-105428676D01*
X152662812Y-105496596D01*
X152513512Y-105526293D01*
X152488742Y-105531220D01*
X152311258Y-105531220D01*
X152286488Y-105526293D01*
X152137188Y-105496596D01*
X151973216Y-105428676D01*
X151825646Y-105330073D01*
X151700147Y-105204574D01*
X151601544Y-105057004D01*
X151533624Y-104893032D01*
X151499000Y-104718961D01*
X151499000Y-104541479D01*
X151533624Y-104367408D01*
X151601544Y-104203436D01*
X151700147Y-104055866D01*
X151825646Y-103930367D01*
X151973216Y-103831764D01*
X152137188Y-103763844D01*
X152286488Y-103734147D01*
X152311258Y-103729220D01*
X152488742Y-103729220D01*
X152513512Y-103734147D01*
G37*
G36*
X224903512Y-102481927D02*
G01*
X225052812Y-102511624D01*
X225216784Y-102579544D01*
X225364354Y-102678147D01*
X225489853Y-102803646D01*
X225588456Y-102951216D01*
X225656376Y-103115188D01*
X225691000Y-103289259D01*
X225691000Y-103466741D01*
X225656376Y-103640812D01*
X225588456Y-103804784D01*
X225489853Y-103952354D01*
X225364354Y-104077853D01*
X225216784Y-104176456D01*
X225052812Y-104244376D01*
X224903512Y-104274073D01*
X224878742Y-104279000D01*
X224701258Y-104279000D01*
X224676488Y-104274073D01*
X224527188Y-104244376D01*
X224363216Y-104176456D01*
X224215646Y-104077853D01*
X224090147Y-103952354D01*
X223991544Y-103804784D01*
X223923624Y-103640812D01*
X223889000Y-103466741D01*
X223889000Y-103289259D01*
X223923624Y-103115188D01*
X223991544Y-102951216D01*
X224090147Y-102803646D01*
X224215646Y-102678147D01*
X224363216Y-102579544D01*
X224527188Y-102511624D01*
X224676488Y-102481927D01*
X224701258Y-102477000D01*
X224878742Y-102477000D01*
X224903512Y-102481927D01*
G37*
G36*
X179629062Y-102058247D02*
G01*
X179663981Y-102068840D01*
X179696163Y-102086042D01*
X179724373Y-102109193D01*
X179747524Y-102137403D01*
X179764726Y-102169585D01*
X179775319Y-102204504D01*
X179779500Y-102246961D01*
X179779500Y-103713171D01*
X179775319Y-103755628D01*
X179764726Y-103790547D01*
X179747524Y-103822729D01*
X179724373Y-103850939D01*
X179696163Y-103874090D01*
X179663981Y-103891292D01*
X179629062Y-103901885D01*
X179586605Y-103906066D01*
X178445395Y-103906066D01*
X178402938Y-103901885D01*
X178368019Y-103891292D01*
X178335837Y-103874090D01*
X178307627Y-103850939D01*
X178284476Y-103822729D01*
X178267274Y-103790547D01*
X178256681Y-103755628D01*
X178252500Y-103713171D01*
X178252500Y-102246961D01*
X178256681Y-102204504D01*
X178267274Y-102169585D01*
X178284476Y-102137403D01*
X178307627Y-102109193D01*
X178335837Y-102086042D01*
X178368019Y-102068840D01*
X178402938Y-102058247D01*
X178445395Y-102054066D01*
X179586605Y-102054066D01*
X179629062Y-102058247D01*
G37*
G36*
X182604062Y-101948181D02*
G01*
X182638981Y-101958774D01*
X182671163Y-101975976D01*
X182699373Y-101999127D01*
X182722524Y-102027337D01*
X182739726Y-102059519D01*
X182750319Y-102094438D01*
X182754500Y-102136895D01*
X182754500Y-103603105D01*
X182750319Y-103645562D01*
X182739726Y-103680481D01*
X182722524Y-103712663D01*
X182699373Y-103740873D01*
X182671163Y-103764024D01*
X182638981Y-103781226D01*
X182604062Y-103791819D01*
X182561605Y-103796000D01*
X181420395Y-103796000D01*
X181377938Y-103791819D01*
X181343019Y-103781226D01*
X181310837Y-103764024D01*
X181282627Y-103740873D01*
X181259476Y-103712663D01*
X181242274Y-103680481D01*
X181231681Y-103645562D01*
X181227500Y-103603105D01*
X181227500Y-102136895D01*
X181231681Y-102094438D01*
X181242274Y-102059519D01*
X181259476Y-102027337D01*
X181282627Y-101999127D01*
X181310837Y-101975976D01*
X181343019Y-101958774D01*
X181377938Y-101948181D01*
X181420395Y-101944000D01*
X182561605Y-101944000D01*
X182604062Y-101948181D01*
G37*
G36*
X216064312Y-101211927D02*
G01*
X216213612Y-101241624D01*
X216377584Y-101309544D01*
X216525154Y-101408147D01*
X216650653Y-101533646D01*
X216749256Y-101681216D01*
X216817176Y-101845188D01*
X216851800Y-102019259D01*
X216851800Y-102196741D01*
X216817176Y-102370812D01*
X216749256Y-102534784D01*
X216650653Y-102682354D01*
X216525154Y-102807853D01*
X216377584Y-102906456D01*
X216213612Y-102974376D01*
X216064312Y-103004073D01*
X216039542Y-103009000D01*
X215862058Y-103009000D01*
X215837288Y-103004073D01*
X215687988Y-102974376D01*
X215524016Y-102906456D01*
X215376446Y-102807853D01*
X215250947Y-102682354D01*
X215152344Y-102534784D01*
X215084424Y-102370812D01*
X215049800Y-102196741D01*
X215049800Y-102019259D01*
X215084424Y-101845188D01*
X215152344Y-101681216D01*
X215250947Y-101533646D01*
X215376446Y-101408147D01*
X215524016Y-101309544D01*
X215687988Y-101241624D01*
X215837288Y-101211927D01*
X215862058Y-101207000D01*
X216039542Y-101207000D01*
X216064312Y-101211927D01*
G37*
G36*
X152513512Y-101194147D02*
G01*
X152662812Y-101223844D01*
X152826784Y-101291764D01*
X152974354Y-101390367D01*
X153099853Y-101515866D01*
X153198456Y-101663436D01*
X153266376Y-101827408D01*
X153301000Y-102001479D01*
X153301000Y-102178961D01*
X153266376Y-102353032D01*
X153198456Y-102517004D01*
X153099853Y-102664574D01*
X152974354Y-102790073D01*
X152826784Y-102888676D01*
X152662812Y-102956596D01*
X152513512Y-102986293D01*
X152488742Y-102991220D01*
X152311258Y-102991220D01*
X152286488Y-102986293D01*
X152137188Y-102956596D01*
X151973216Y-102888676D01*
X151825646Y-102790073D01*
X151700147Y-102664574D01*
X151601544Y-102517004D01*
X151533624Y-102353032D01*
X151499000Y-102178961D01*
X151499000Y-102001479D01*
X151533624Y-101827408D01*
X151601544Y-101663436D01*
X151700147Y-101515866D01*
X151825646Y-101390367D01*
X151973216Y-101291764D01*
X152137188Y-101223844D01*
X152286488Y-101194147D01*
X152311258Y-101189220D01*
X152488742Y-101189220D01*
X152513512Y-101194147D01*
G37*
G36*
X195185512Y-100449927D02*
G01*
X195334812Y-100479624D01*
X195498784Y-100547544D01*
X195646354Y-100646147D01*
X195771853Y-100771646D01*
X195870456Y-100919216D01*
X195938376Y-101083188D01*
X195973000Y-101257259D01*
X195973000Y-101434741D01*
X195938376Y-101608812D01*
X195870456Y-101772784D01*
X195771853Y-101920354D01*
X195646354Y-102045853D01*
X195498784Y-102144456D01*
X195334812Y-102212376D01*
X195185512Y-102242073D01*
X195160742Y-102247000D01*
X194983258Y-102247000D01*
X194958488Y-102242073D01*
X194809188Y-102212376D01*
X194645216Y-102144456D01*
X194497646Y-102045853D01*
X194372147Y-101920354D01*
X194273544Y-101772784D01*
X194205624Y-101608812D01*
X194171000Y-101434741D01*
X194171000Y-101257259D01*
X194205624Y-101083188D01*
X194273544Y-100919216D01*
X194372147Y-100771646D01*
X194497646Y-100646147D01*
X194645216Y-100547544D01*
X194809188Y-100479624D01*
X194958488Y-100449927D01*
X194983258Y-100445000D01*
X195160742Y-100445000D01*
X195185512Y-100449927D01*
G37*
G36*
X198513000Y-102247000D02*
G01*
X196711000Y-102247000D01*
X196711000Y-100445000D01*
X198513000Y-100445000D01*
X198513000Y-102247000D01*
G37*
G36*
X225691000Y-101739000D02*
G01*
X223889000Y-101739000D01*
X223889000Y-99937000D01*
X225691000Y-99937000D01*
X225691000Y-101739000D01*
G37*
G36*
X216064312Y-98671927D02*
G01*
X216213612Y-98701624D01*
X216377584Y-98769544D01*
X216525154Y-98868147D01*
X216650653Y-98993646D01*
X216749256Y-99141216D01*
X216817176Y-99305188D01*
X216851800Y-99479259D01*
X216851800Y-99656741D01*
X216817176Y-99830812D01*
X216749256Y-99994784D01*
X216650653Y-100142354D01*
X216525154Y-100267853D01*
X216377584Y-100366456D01*
X216213612Y-100434376D01*
X216064312Y-100464073D01*
X216039542Y-100469000D01*
X215862058Y-100469000D01*
X215837288Y-100464073D01*
X215687988Y-100434376D01*
X215524016Y-100366456D01*
X215376446Y-100267853D01*
X215250947Y-100142354D01*
X215152344Y-99994784D01*
X215084424Y-99830812D01*
X215049800Y-99656741D01*
X215049800Y-99479259D01*
X215084424Y-99305188D01*
X215152344Y-99141216D01*
X215250947Y-98993646D01*
X215376446Y-98868147D01*
X215524016Y-98769544D01*
X215687988Y-98701624D01*
X215837288Y-98671927D01*
X215862058Y-98667000D01*
X216039542Y-98667000D01*
X216064312Y-98671927D01*
G37*
G36*
X152513512Y-98654147D02*
G01*
X152662812Y-98683844D01*
X152826784Y-98751764D01*
X152974354Y-98850367D01*
X153099853Y-98975866D01*
X153198456Y-99123436D01*
X153266376Y-99287408D01*
X153301000Y-99461479D01*
X153301000Y-99638961D01*
X153266376Y-99813032D01*
X153198456Y-99977004D01*
X153099853Y-100124574D01*
X152974354Y-100250073D01*
X152826784Y-100348676D01*
X152662812Y-100416596D01*
X152520012Y-100445000D01*
X152488742Y-100451220D01*
X152311258Y-100451220D01*
X152279988Y-100445000D01*
X152137188Y-100416596D01*
X151973216Y-100348676D01*
X151825646Y-100250073D01*
X151700147Y-100124574D01*
X151601544Y-99977004D01*
X151533624Y-99813032D01*
X151499000Y-99638961D01*
X151499000Y-99461479D01*
X151533624Y-99287408D01*
X151601544Y-99123436D01*
X151700147Y-98975866D01*
X151825646Y-98850367D01*
X151973216Y-98751764D01*
X152137188Y-98683844D01*
X152286488Y-98654147D01*
X152311258Y-98649220D01*
X152488742Y-98649220D01*
X152513512Y-98654147D01*
G37*
G36*
X182604062Y-98265181D02*
G01*
X182638981Y-98275774D01*
X182671163Y-98292976D01*
X182699373Y-98316127D01*
X182722524Y-98344337D01*
X182739726Y-98376519D01*
X182750319Y-98411438D01*
X182754500Y-98453895D01*
X182754500Y-99920105D01*
X182750319Y-99962562D01*
X182739726Y-99997481D01*
X182722524Y-100029663D01*
X182699373Y-100057873D01*
X182671163Y-100081024D01*
X182638981Y-100098226D01*
X182604062Y-100108819D01*
X182561605Y-100113000D01*
X181420395Y-100113000D01*
X181377938Y-100108819D01*
X181343019Y-100098226D01*
X181310837Y-100081024D01*
X181282627Y-100057873D01*
X181259476Y-100029663D01*
X181242274Y-99997481D01*
X181231681Y-99962562D01*
X181227500Y-99920105D01*
X181227500Y-98453895D01*
X181231681Y-98411438D01*
X181242274Y-98376519D01*
X181259476Y-98344337D01*
X181282627Y-98316127D01*
X181310837Y-98292976D01*
X181343019Y-98275774D01*
X181377938Y-98265181D01*
X181420395Y-98261000D01*
X182561605Y-98261000D01*
X182604062Y-98265181D01*
G37*
G36*
X179629062Y-98265181D02*
G01*
X179663981Y-98275774D01*
X179696163Y-98292976D01*
X179724373Y-98316127D01*
X179747524Y-98344337D01*
X179764726Y-98376519D01*
X179775319Y-98411438D01*
X179779500Y-98453895D01*
X179779500Y-99920105D01*
X179775319Y-99962562D01*
X179764726Y-99997481D01*
X179747524Y-100029663D01*
X179724373Y-100057873D01*
X179696163Y-100081024D01*
X179663981Y-100098226D01*
X179629062Y-100108819D01*
X179586605Y-100113000D01*
X178445395Y-100113000D01*
X178402938Y-100108819D01*
X178368019Y-100098226D01*
X178335837Y-100081024D01*
X178307627Y-100057873D01*
X178284476Y-100029663D01*
X178267274Y-99997481D01*
X178256681Y-99962562D01*
X178252500Y-99920105D01*
X178252500Y-98453895D01*
X178256681Y-98411438D01*
X178267274Y-98376519D01*
X178284476Y-98344337D01*
X178307627Y-98316127D01*
X178335837Y-98292976D01*
X178368019Y-98275774D01*
X178402938Y-98265181D01*
X178445395Y-98261000D01*
X179586605Y-98261000D01*
X179629062Y-98265181D01*
G37*
G36*
X187738062Y-98138181D02*
G01*
X187772981Y-98148774D01*
X187805163Y-98165976D01*
X187833373Y-98189127D01*
X187856524Y-98217337D01*
X187873726Y-98249519D01*
X187884319Y-98284438D01*
X187888500Y-98326895D01*
X187888500Y-99793105D01*
X187884319Y-99835562D01*
X187873726Y-99870481D01*
X187856524Y-99902663D01*
X187833373Y-99930873D01*
X187805163Y-99954024D01*
X187772981Y-99971226D01*
X187738062Y-99981819D01*
X187695605Y-99986000D01*
X186554395Y-99986000D01*
X186511938Y-99981819D01*
X186477019Y-99971226D01*
X186444837Y-99954024D01*
X186416627Y-99930873D01*
X186393476Y-99902663D01*
X186376274Y-99870481D01*
X186365681Y-99835562D01*
X186361500Y-99793105D01*
X186361500Y-98326895D01*
X186365681Y-98284438D01*
X186376274Y-98249519D01*
X186393476Y-98217337D01*
X186416627Y-98189127D01*
X186444837Y-98165976D01*
X186477019Y-98148774D01*
X186511938Y-98138181D01*
X186554395Y-98134000D01*
X187695605Y-98134000D01*
X187738062Y-98138181D01*
G37*
G36*
X184763062Y-98138181D02*
G01*
X184797981Y-98148774D01*
X184830163Y-98165976D01*
X184858373Y-98189127D01*
X184881524Y-98217337D01*
X184898726Y-98249519D01*
X184909319Y-98284438D01*
X184913500Y-98326895D01*
X184913500Y-99793105D01*
X184909319Y-99835562D01*
X184898726Y-99870481D01*
X184881524Y-99902663D01*
X184858373Y-99930873D01*
X184830163Y-99954024D01*
X184797981Y-99971226D01*
X184763062Y-99981819D01*
X184720605Y-99986000D01*
X183579395Y-99986000D01*
X183536938Y-99981819D01*
X183502019Y-99971226D01*
X183469837Y-99954024D01*
X183441627Y-99930873D01*
X183418476Y-99902663D01*
X183401274Y-99870481D01*
X183390681Y-99835562D01*
X183386500Y-99793105D01*
X183386500Y-98326895D01*
X183390681Y-98284438D01*
X183401274Y-98249519D01*
X183418476Y-98217337D01*
X183441627Y-98189127D01*
X183469837Y-98165976D01*
X183502019Y-98148774D01*
X183536938Y-98138181D01*
X183579395Y-98134000D01*
X184720605Y-98134000D01*
X184763062Y-98138181D01*
G37*
G36*
X216064312Y-96131927D02*
G01*
X216213612Y-96161624D01*
X216377584Y-96229544D01*
X216525154Y-96328147D01*
X216650653Y-96453646D01*
X216749256Y-96601216D01*
X216817176Y-96765188D01*
X216851800Y-96939259D01*
X216851800Y-97116741D01*
X216817176Y-97290812D01*
X216749256Y-97454784D01*
X216650653Y-97602354D01*
X216525154Y-97727853D01*
X216377584Y-97826456D01*
X216213612Y-97894376D01*
X216064312Y-97924073D01*
X216039542Y-97929000D01*
X215862058Y-97929000D01*
X215837288Y-97924073D01*
X215687988Y-97894376D01*
X215524016Y-97826456D01*
X215376446Y-97727853D01*
X215250947Y-97602354D01*
X215152344Y-97454784D01*
X215084424Y-97290812D01*
X215049800Y-97116741D01*
X215049800Y-96939259D01*
X215084424Y-96765188D01*
X215152344Y-96601216D01*
X215250947Y-96453646D01*
X215376446Y-96328147D01*
X215524016Y-96229544D01*
X215687988Y-96161624D01*
X215837288Y-96131927D01*
X215862058Y-96127000D01*
X216039542Y-96127000D01*
X216064312Y-96131927D01*
G37*
G36*
X152513512Y-96114147D02*
G01*
X152662812Y-96143844D01*
X152826784Y-96211764D01*
X152974354Y-96310367D01*
X153099853Y-96435866D01*
X153198456Y-96583436D01*
X153266376Y-96747408D01*
X153301000Y-96921479D01*
X153301000Y-97098961D01*
X153266376Y-97273032D01*
X153198456Y-97437004D01*
X153099853Y-97584574D01*
X152974354Y-97710073D01*
X152826784Y-97808676D01*
X152662812Y-97876596D01*
X152513512Y-97906293D01*
X152488742Y-97911220D01*
X152311258Y-97911220D01*
X152286488Y-97906293D01*
X152137188Y-97876596D01*
X151973216Y-97808676D01*
X151825646Y-97710073D01*
X151700147Y-97584574D01*
X151601544Y-97437004D01*
X151533624Y-97273032D01*
X151499000Y-97098961D01*
X151499000Y-96921479D01*
X151533624Y-96747408D01*
X151601544Y-96583436D01*
X151700147Y-96435866D01*
X151825646Y-96310367D01*
X151973216Y-96211764D01*
X152137188Y-96143844D01*
X152286488Y-96114147D01*
X152311258Y-96109220D01*
X152488742Y-96109220D01*
X152513512Y-96114147D01*
G37*
G36*
X225213241Y-94616760D02*
G01*
X225477305Y-94726139D01*
X225714958Y-94884934D01*
X225917066Y-95087042D01*
X226075861Y-95324695D01*
X226185240Y-95588759D01*
X226241000Y-95869088D01*
X226241000Y-96154912D01*
X226185240Y-96435241D01*
X226075861Y-96699305D01*
X225917066Y-96936958D01*
X225714958Y-97139066D01*
X225477305Y-97297861D01*
X225213241Y-97407240D01*
X224932912Y-97463000D01*
X224647088Y-97463000D01*
X224366759Y-97407240D01*
X224102695Y-97297861D01*
X223865042Y-97139066D01*
X223662934Y-96936958D01*
X223504139Y-96699305D01*
X223394760Y-96435241D01*
X223339000Y-96154912D01*
X223339000Y-95869088D01*
X223394760Y-95588759D01*
X223504139Y-95324695D01*
X223662934Y-95087042D01*
X223865042Y-94884934D01*
X224102695Y-94726139D01*
X224366759Y-94616760D01*
X224647088Y-94561000D01*
X224932912Y-94561000D01*
X225213241Y-94616760D01*
G37*
G36*
X216064312Y-93591927D02*
G01*
X216213612Y-93621624D01*
X216377584Y-93689544D01*
X216525154Y-93788147D01*
X216650653Y-93913646D01*
X216749256Y-94061216D01*
X216817176Y-94225188D01*
X216851800Y-94399259D01*
X216851800Y-94576741D01*
X216817176Y-94750812D01*
X216749256Y-94914784D01*
X216650653Y-95062354D01*
X216525154Y-95187853D01*
X216377584Y-95286456D01*
X216213612Y-95354376D01*
X216064312Y-95384073D01*
X216039542Y-95389000D01*
X215862058Y-95389000D01*
X215837288Y-95384073D01*
X215687988Y-95354376D01*
X215524016Y-95286456D01*
X215376446Y-95187853D01*
X215250947Y-95062354D01*
X215152344Y-94914784D01*
X215084424Y-94750812D01*
X215049800Y-94576741D01*
X215049800Y-94399259D01*
X215084424Y-94225188D01*
X215152344Y-94061216D01*
X215250947Y-93913646D01*
X215376446Y-93788147D01*
X215524016Y-93689544D01*
X215687988Y-93621624D01*
X215837288Y-93591927D01*
X215862058Y-93587000D01*
X216039542Y-93587000D01*
X216064312Y-93591927D01*
G37*
G36*
X152513512Y-93574147D02*
G01*
X152662812Y-93603844D01*
X152826784Y-93671764D01*
X152974354Y-93770367D01*
X153099853Y-93895866D01*
X153198456Y-94043436D01*
X153266376Y-94207408D01*
X153296073Y-94356708D01*
X153301000Y-94381478D01*
X153301000Y-94558962D01*
X153297463Y-94576741D01*
X153266376Y-94733032D01*
X153198456Y-94897004D01*
X153099853Y-95044574D01*
X152974354Y-95170073D01*
X152826784Y-95268676D01*
X152662812Y-95336596D01*
X152513512Y-95366293D01*
X152488742Y-95371220D01*
X152311258Y-95371220D01*
X152286488Y-95366293D01*
X152137188Y-95336596D01*
X151973216Y-95268676D01*
X151825646Y-95170073D01*
X151700147Y-95044574D01*
X151601544Y-94897004D01*
X151533624Y-94733032D01*
X151502537Y-94576741D01*
X151499000Y-94558962D01*
X151499000Y-94381478D01*
X151503927Y-94356708D01*
X151533624Y-94207408D01*
X151601544Y-94043436D01*
X151700147Y-93895866D01*
X151825646Y-93770367D01*
X151973216Y-93671764D01*
X152137188Y-93603844D01*
X152286488Y-93574147D01*
X152311258Y-93569220D01*
X152488742Y-93569220D01*
X152513512Y-93574147D01*
G37*
G36*
X216064312Y-91051927D02*
G01*
X216213612Y-91081624D01*
X216377584Y-91149544D01*
X216525154Y-91248147D01*
X216650653Y-91373646D01*
X216749256Y-91521216D01*
X216817176Y-91685188D01*
X216851800Y-91859259D01*
X216851800Y-92036741D01*
X216817176Y-92210812D01*
X216749256Y-92374784D01*
X216650653Y-92522354D01*
X216525154Y-92647853D01*
X216377584Y-92746456D01*
X216213612Y-92814376D01*
X216064312Y-92844073D01*
X216039542Y-92849000D01*
X215862058Y-92849000D01*
X215837288Y-92844073D01*
X215687988Y-92814376D01*
X215524016Y-92746456D01*
X215376446Y-92647853D01*
X215250947Y-92522354D01*
X215152344Y-92374784D01*
X215084424Y-92210812D01*
X215049800Y-92036741D01*
X215049800Y-91859259D01*
X215084424Y-91685188D01*
X215152344Y-91521216D01*
X215250947Y-91373646D01*
X215376446Y-91248147D01*
X215524016Y-91149544D01*
X215687988Y-91081624D01*
X215837288Y-91051927D01*
X215862058Y-91047000D01*
X216039542Y-91047000D01*
X216064312Y-91051927D01*
G37*
G36*
X152513512Y-91034147D02*
G01*
X152662812Y-91063844D01*
X152826784Y-91131764D01*
X152974354Y-91230367D01*
X153099853Y-91355866D01*
X153198456Y-91503436D01*
X153266376Y-91667408D01*
X153301000Y-91841479D01*
X153301000Y-92018961D01*
X153266376Y-92193032D01*
X153198456Y-92357004D01*
X153099853Y-92504574D01*
X152974354Y-92630073D01*
X152826784Y-92728676D01*
X152662812Y-92796596D01*
X152513512Y-92826293D01*
X152488742Y-92831220D01*
X152311258Y-92831220D01*
X152286488Y-92826293D01*
X152137188Y-92796596D01*
X151973216Y-92728676D01*
X151825646Y-92630073D01*
X151700147Y-92504574D01*
X151601544Y-92357004D01*
X151533624Y-92193032D01*
X151499000Y-92018961D01*
X151499000Y-91841479D01*
X151533624Y-91667408D01*
X151601544Y-91503436D01*
X151700147Y-91355866D01*
X151825646Y-91230367D01*
X151973216Y-91131764D01*
X152137188Y-91063844D01*
X152286488Y-91034147D01*
X152311258Y-91029220D01*
X152488742Y-91029220D01*
X152513512Y-91034147D01*
G37*
G36*
X216064312Y-88511927D02*
G01*
X216213612Y-88541624D01*
X216377584Y-88609544D01*
X216525154Y-88708147D01*
X216650653Y-88833646D01*
X216749256Y-88981216D01*
X216817176Y-89145188D01*
X216851800Y-89319259D01*
X216851800Y-89496741D01*
X216817176Y-89670812D01*
X216749256Y-89834784D01*
X216650653Y-89982354D01*
X216525154Y-90107853D01*
X216377584Y-90206456D01*
X216213612Y-90274376D01*
X216064312Y-90304073D01*
X216039542Y-90309000D01*
X215862058Y-90309000D01*
X215837288Y-90304073D01*
X215687988Y-90274376D01*
X215524016Y-90206456D01*
X215376446Y-90107853D01*
X215250947Y-89982354D01*
X215152344Y-89834784D01*
X215084424Y-89670812D01*
X215049800Y-89496741D01*
X215049800Y-89319259D01*
X215084424Y-89145188D01*
X215152344Y-88981216D01*
X215250947Y-88833646D01*
X215376446Y-88708147D01*
X215524016Y-88609544D01*
X215687988Y-88541624D01*
X215837288Y-88511927D01*
X215862058Y-88507000D01*
X216039542Y-88507000D01*
X216064312Y-88511927D01*
G37*
G36*
X152513512Y-88494147D02*
G01*
X152662812Y-88523844D01*
X152826784Y-88591764D01*
X152974354Y-88690367D01*
X153099853Y-88815866D01*
X153198456Y-88963436D01*
X153266376Y-89127408D01*
X153301000Y-89301479D01*
X153301000Y-89478961D01*
X153266376Y-89653032D01*
X153198456Y-89817004D01*
X153099853Y-89964574D01*
X152974354Y-90090073D01*
X152826784Y-90188676D01*
X152662812Y-90256596D01*
X152513512Y-90286293D01*
X152488742Y-90291220D01*
X152311258Y-90291220D01*
X152286488Y-90286293D01*
X152137188Y-90256596D01*
X151973216Y-90188676D01*
X151825646Y-90090073D01*
X151700147Y-89964574D01*
X151601544Y-89817004D01*
X151533624Y-89653032D01*
X151499000Y-89478961D01*
X151499000Y-89301479D01*
X151533624Y-89127408D01*
X151601544Y-88963436D01*
X151700147Y-88815866D01*
X151825646Y-88690367D01*
X151973216Y-88591764D01*
X152137188Y-88523844D01*
X152286488Y-88494147D01*
X152311258Y-88489220D01*
X152488742Y-88489220D01*
X152513512Y-88494147D01*
G37*
G36*
X216064312Y-85971927D02*
G01*
X216213612Y-86001624D01*
X216377584Y-86069544D01*
X216525154Y-86168147D01*
X216650653Y-86293646D01*
X216749256Y-86441216D01*
X216817176Y-86605188D01*
X216851800Y-86779259D01*
X216851800Y-86956741D01*
X216817176Y-87130812D01*
X216749256Y-87294784D01*
X216650653Y-87442354D01*
X216525154Y-87567853D01*
X216377584Y-87666456D01*
X216213612Y-87734376D01*
X216064312Y-87764073D01*
X216039542Y-87769000D01*
X215862058Y-87769000D01*
X215837288Y-87764073D01*
X215687988Y-87734376D01*
X215524016Y-87666456D01*
X215376446Y-87567853D01*
X215250947Y-87442354D01*
X215152344Y-87294784D01*
X215084424Y-87130812D01*
X215049800Y-86956741D01*
X215049800Y-86779259D01*
X215084424Y-86605188D01*
X215152344Y-86441216D01*
X215250947Y-86293646D01*
X215376446Y-86168147D01*
X215524016Y-86069544D01*
X215687988Y-86001624D01*
X215837288Y-85971927D01*
X215862058Y-85967000D01*
X216039542Y-85967000D01*
X216064312Y-85971927D01*
G37*
G36*
X152513512Y-85954147D02*
G01*
X152662812Y-85983844D01*
X152826784Y-86051764D01*
X152974354Y-86150367D01*
X153099853Y-86275866D01*
X153198456Y-86423436D01*
X153266376Y-86587408D01*
X153301000Y-86761479D01*
X153301000Y-86938961D01*
X153266376Y-87113032D01*
X153198456Y-87277004D01*
X153099853Y-87424574D01*
X152974354Y-87550073D01*
X152826784Y-87648676D01*
X152662812Y-87716596D01*
X152513512Y-87746293D01*
X152488742Y-87751220D01*
X152311258Y-87751220D01*
X152286488Y-87746293D01*
X152137188Y-87716596D01*
X151973216Y-87648676D01*
X151825646Y-87550073D01*
X151700147Y-87424574D01*
X151601544Y-87277004D01*
X151533624Y-87113032D01*
X151499000Y-86938961D01*
X151499000Y-86761479D01*
X151533624Y-86587408D01*
X151601544Y-86423436D01*
X151700147Y-86275866D01*
X151825646Y-86150367D01*
X151973216Y-86051764D01*
X152137188Y-85983844D01*
X152286488Y-85954147D01*
X152311258Y-85949220D01*
X152488742Y-85949220D01*
X152513512Y-85954147D01*
G37*
G36*
X170842240Y-87591200D02*
G01*
X169040240Y-87591200D01*
X169040240Y-85789200D01*
X170842240Y-85789200D01*
X170842240Y-87591200D01*
G37*
G36*
X172594752Y-85794127D02*
G01*
X172744052Y-85823824D01*
X172908024Y-85891744D01*
X173055594Y-85990347D01*
X173181093Y-86115846D01*
X173279696Y-86263416D01*
X173347616Y-86427388D01*
X173382240Y-86601459D01*
X173382240Y-86778941D01*
X173347616Y-86953012D01*
X173279696Y-87116984D01*
X173181093Y-87264554D01*
X173055594Y-87390053D01*
X172908024Y-87488656D01*
X172744052Y-87556576D01*
X172594752Y-87586273D01*
X172569982Y-87591200D01*
X172392498Y-87591200D01*
X172367728Y-87586273D01*
X172218428Y-87556576D01*
X172054456Y-87488656D01*
X171906886Y-87390053D01*
X171781387Y-87264554D01*
X171682784Y-87116984D01*
X171614864Y-86953012D01*
X171580240Y-86778941D01*
X171580240Y-86601459D01*
X171614864Y-86427388D01*
X171682784Y-86263416D01*
X171781387Y-86115846D01*
X171906886Y-85990347D01*
X172054456Y-85891744D01*
X172218428Y-85823824D01*
X172367728Y-85794127D01*
X172392498Y-85789200D01*
X172569982Y-85789200D01*
X172594752Y-85794127D01*
G37*
G36*
X175134752Y-85794127D02*
G01*
X175284052Y-85823824D01*
X175448024Y-85891744D01*
X175595594Y-85990347D01*
X175721093Y-86115846D01*
X175819696Y-86263416D01*
X175887616Y-86427388D01*
X175922240Y-86601459D01*
X175922240Y-86778941D01*
X175887616Y-86953012D01*
X175819696Y-87116984D01*
X175721093Y-87264554D01*
X175595594Y-87390053D01*
X175448024Y-87488656D01*
X175284052Y-87556576D01*
X175134752Y-87586273D01*
X175109982Y-87591200D01*
X174932498Y-87591200D01*
X174907728Y-87586273D01*
X174758428Y-87556576D01*
X174594456Y-87488656D01*
X174446886Y-87390053D01*
X174321387Y-87264554D01*
X174222784Y-87116984D01*
X174154864Y-86953012D01*
X174120240Y-86778941D01*
X174120240Y-86601459D01*
X174154864Y-86427388D01*
X174222784Y-86263416D01*
X174321387Y-86115846D01*
X174446886Y-85990347D01*
X174594456Y-85891744D01*
X174758428Y-85823824D01*
X174907728Y-85794127D01*
X174932498Y-85789200D01*
X175109982Y-85789200D01*
X175134752Y-85794127D01*
G37*
G36*
X195332920Y-87591200D02*
G01*
X193530920Y-87591200D01*
X193530920Y-85789200D01*
X195332920Y-85789200D01*
X195332920Y-87591200D01*
G37*
G36*
X197085432Y-85794127D02*
G01*
X197234732Y-85823824D01*
X197398704Y-85891744D01*
X197546274Y-85990347D01*
X197671773Y-86115846D01*
X197770376Y-86263416D01*
X197838296Y-86427388D01*
X197872920Y-86601459D01*
X197872920Y-86778941D01*
X197838296Y-86953012D01*
X197770376Y-87116984D01*
X197671773Y-87264554D01*
X197546274Y-87390053D01*
X197398704Y-87488656D01*
X197234732Y-87556576D01*
X197085432Y-87586273D01*
X197060662Y-87591200D01*
X196883178Y-87591200D01*
X196858408Y-87586273D01*
X196709108Y-87556576D01*
X196545136Y-87488656D01*
X196397566Y-87390053D01*
X196272067Y-87264554D01*
X196173464Y-87116984D01*
X196105544Y-86953012D01*
X196070920Y-86778941D01*
X196070920Y-86601459D01*
X196105544Y-86427388D01*
X196173464Y-86263416D01*
X196272067Y-86115846D01*
X196397566Y-85990347D01*
X196545136Y-85891744D01*
X196709108Y-85823824D01*
X196858408Y-85794127D01*
X196883178Y-85789200D01*
X197060662Y-85789200D01*
X197085432Y-85794127D01*
G37*
G36*
X199625432Y-85794127D02*
G01*
X199774732Y-85823824D01*
X199938704Y-85891744D01*
X200086274Y-85990347D01*
X200211773Y-86115846D01*
X200310376Y-86263416D01*
X200378296Y-86427388D01*
X200412920Y-86601459D01*
X200412920Y-86778941D01*
X200378296Y-86953012D01*
X200310376Y-87116984D01*
X200211773Y-87264554D01*
X200086274Y-87390053D01*
X199938704Y-87488656D01*
X199774732Y-87556576D01*
X199625432Y-87586273D01*
X199600662Y-87591200D01*
X199423178Y-87591200D01*
X199398408Y-87586273D01*
X199249108Y-87556576D01*
X199085136Y-87488656D01*
X198937566Y-87390053D01*
X198812067Y-87264554D01*
X198713464Y-87116984D01*
X198645544Y-86953012D01*
X198610920Y-86778941D01*
X198610920Y-86601459D01*
X198645544Y-86427388D01*
X198713464Y-86263416D01*
X198812067Y-86115846D01*
X198937566Y-85990347D01*
X199085136Y-85891744D01*
X199249108Y-85823824D01*
X199398408Y-85794127D01*
X199423178Y-85789200D01*
X199600662Y-85789200D01*
X199625432Y-85794127D01*
G37*
G36*
X221382880Y-81579776D02*
G01*
X221763593Y-81655504D01*
X222173249Y-81825189D01*
X222541929Y-82071534D01*
X222855466Y-82385071D01*
X223101811Y-82753751D01*
X223271496Y-83163407D01*
X223347224Y-83544120D01*
X223358000Y-83598295D01*
X223358000Y-84041705D01*
X223356865Y-84047409D01*
X223271496Y-84476593D01*
X223101811Y-84886249D01*
X222855466Y-85254929D01*
X222541929Y-85568466D01*
X222173249Y-85814811D01*
X221763593Y-85984496D01*
X221382880Y-86060224D01*
X221328705Y-86071000D01*
X220885295Y-86071000D01*
X220831120Y-86060224D01*
X220450407Y-85984496D01*
X220040751Y-85814811D01*
X219672071Y-85568466D01*
X219358534Y-85254929D01*
X219112189Y-84886249D01*
X218942504Y-84476593D01*
X218857135Y-84047409D01*
X218856000Y-84041705D01*
X218856000Y-83598295D01*
X218866776Y-83544120D01*
X218942504Y-83163407D01*
X219112189Y-82753751D01*
X219358534Y-82385071D01*
X219672071Y-82071534D01*
X220040751Y-81825189D01*
X220450407Y-81655504D01*
X220831120Y-81579776D01*
X220885295Y-81569000D01*
X221328705Y-81569000D01*
X221382880Y-81579776D01*
G37*
G36*
X145182880Y-81579776D02*
G01*
X145563593Y-81655504D01*
X145973249Y-81825189D01*
X146341929Y-82071534D01*
X146655466Y-82385071D01*
X146901811Y-82753751D01*
X147071496Y-83163407D01*
X147147224Y-83544120D01*
X147158000Y-83598295D01*
X147158000Y-84041705D01*
X147156865Y-84047409D01*
X147071496Y-84476593D01*
X146901811Y-84886249D01*
X146655466Y-85254929D01*
X146341929Y-85568466D01*
X145973249Y-85814811D01*
X145563593Y-85984496D01*
X145182880Y-86060224D01*
X145128705Y-86071000D01*
X144685295Y-86071000D01*
X144631120Y-86060224D01*
X144250407Y-85984496D01*
X143840751Y-85814811D01*
X143472071Y-85568466D01*
X143158534Y-85254929D01*
X142912189Y-84886249D01*
X142742504Y-84476593D01*
X142657135Y-84047409D01*
X142656000Y-84041705D01*
X142656000Y-83598295D01*
X142666776Y-83544120D01*
X142742504Y-83163407D01*
X142912189Y-82753751D01*
X143158534Y-82385071D01*
X143472071Y-82071534D01*
X143840751Y-81825189D01*
X144250407Y-81655504D01*
X144631120Y-81579776D01*
X144685295Y-81569000D01*
X145128705Y-81569000D01*
X145182880Y-81579776D01*
G37*
G36*
X216064312Y-83431927D02*
G01*
X216213612Y-83461624D01*
X216377584Y-83529544D01*
X216525154Y-83628147D01*
X216650653Y-83753646D01*
X216749256Y-83901216D01*
X216817176Y-84065188D01*
X216851800Y-84239259D01*
X216851800Y-84416741D01*
X216817176Y-84590812D01*
X216749256Y-84754784D01*
X216650653Y-84902354D01*
X216525154Y-85027853D01*
X216377584Y-85126456D01*
X216213612Y-85194376D01*
X216064312Y-85224073D01*
X216039542Y-85229000D01*
X215862058Y-85229000D01*
X215837288Y-85224073D01*
X215687988Y-85194376D01*
X215524016Y-85126456D01*
X215376446Y-85027853D01*
X215250947Y-84902354D01*
X215152344Y-84754784D01*
X215084424Y-84590812D01*
X215049800Y-84416741D01*
X215049800Y-84239259D01*
X215084424Y-84065188D01*
X215152344Y-83901216D01*
X215250947Y-83753646D01*
X215376446Y-83628147D01*
X215524016Y-83529544D01*
X215687988Y-83461624D01*
X215837288Y-83431927D01*
X215862058Y-83427000D01*
X216039542Y-83427000D01*
X216064312Y-83431927D01*
G37*
G36*
X152513512Y-83414147D02*
G01*
X152662812Y-83443844D01*
X152826784Y-83511764D01*
X152974354Y-83610367D01*
X153099853Y-83735866D01*
X153198456Y-83883436D01*
X153266376Y-84047408D01*
X153301000Y-84221479D01*
X153301000Y-84398961D01*
X153266376Y-84573032D01*
X153198456Y-84737004D01*
X153099853Y-84884574D01*
X152974354Y-85010073D01*
X152826784Y-85108676D01*
X152662812Y-85176596D01*
X152513512Y-85206293D01*
X152488742Y-85211220D01*
X152311258Y-85211220D01*
X152286488Y-85206293D01*
X152137188Y-85176596D01*
X151973216Y-85108676D01*
X151825646Y-85010073D01*
X151700147Y-84884574D01*
X151601544Y-84737004D01*
X151533624Y-84573032D01*
X151499000Y-84398961D01*
X151499000Y-84221479D01*
X151533624Y-84047408D01*
X151601544Y-83883436D01*
X151700147Y-83735866D01*
X151825646Y-83610367D01*
X151973216Y-83511764D01*
X152137188Y-83443844D01*
X152286488Y-83414147D01*
X152311258Y-83409220D01*
X152488742Y-83409220D01*
X152513512Y-83414147D01*
G37*
G36*
X207941241Y-80900760D02*
G01*
X208205305Y-81010139D01*
X208442958Y-81168934D01*
X208645066Y-81371042D01*
X208803861Y-81608695D01*
X208913240Y-81872759D01*
X208969000Y-82153088D01*
X208969000Y-82438912D01*
X208913240Y-82719241D01*
X208803861Y-82983305D01*
X208645066Y-83220958D01*
X208442958Y-83423066D01*
X208205305Y-83581861D01*
X207941241Y-83691240D01*
X207660912Y-83747000D01*
X207375088Y-83747000D01*
X207094759Y-83691240D01*
X206830695Y-83581861D01*
X206593042Y-83423066D01*
X206390934Y-83220958D01*
X206232139Y-82983305D01*
X206122760Y-82719241D01*
X206067000Y-82438912D01*
X206067000Y-82153088D01*
X206122760Y-81872759D01*
X206232139Y-81608695D01*
X206390934Y-81371042D01*
X206593042Y-81168934D01*
X206830695Y-81010139D01*
X207094759Y-80900760D01*
X207375088Y-80845000D01*
X207660912Y-80845000D01*
X207941241Y-80900760D01*
G37*
G36*
X216064312Y-80891927D02*
G01*
X216213612Y-80921624D01*
X216377584Y-80989544D01*
X216525154Y-81088147D01*
X216650653Y-81213646D01*
X216749256Y-81361216D01*
X216817176Y-81525188D01*
X216851800Y-81699259D01*
X216851800Y-81876741D01*
X216817176Y-82050812D01*
X216749256Y-82214784D01*
X216650653Y-82362354D01*
X216525154Y-82487853D01*
X216377584Y-82586456D01*
X216213612Y-82654376D01*
X216064312Y-82684073D01*
X216039542Y-82689000D01*
X215862058Y-82689000D01*
X215837288Y-82684073D01*
X215687988Y-82654376D01*
X215524016Y-82586456D01*
X215376446Y-82487853D01*
X215250947Y-82362354D01*
X215152344Y-82214784D01*
X215084424Y-82050812D01*
X215049800Y-81876741D01*
X215049800Y-81699259D01*
X215084424Y-81525188D01*
X215152344Y-81361216D01*
X215250947Y-81213646D01*
X215376446Y-81088147D01*
X215524016Y-80989544D01*
X215687988Y-80921624D01*
X215837288Y-80891927D01*
X215862058Y-80887000D01*
X216039542Y-80887000D01*
X216064312Y-80891927D01*
G37*
G36*
X152513512Y-80874147D02*
G01*
X152662812Y-80903844D01*
X152826784Y-80971764D01*
X152974354Y-81070367D01*
X153099853Y-81195866D01*
X153198456Y-81343436D01*
X153266376Y-81507408D01*
X153295833Y-81655504D01*
X153301000Y-81681478D01*
X153301000Y-81858962D01*
X153297463Y-81876741D01*
X153266376Y-82033032D01*
X153198456Y-82197004D01*
X153099853Y-82344574D01*
X152974354Y-82470073D01*
X152826784Y-82568676D01*
X152662812Y-82636596D01*
X152513512Y-82666293D01*
X152488742Y-82671220D01*
X152311258Y-82671220D01*
X152286488Y-82666293D01*
X152137188Y-82636596D01*
X151973216Y-82568676D01*
X151825646Y-82470073D01*
X151700147Y-82344574D01*
X151601544Y-82197004D01*
X151533624Y-82033032D01*
X151502537Y-81876741D01*
X151499000Y-81858962D01*
X151499000Y-81681478D01*
X151504167Y-81655504D01*
X151533624Y-81507408D01*
X151601544Y-81343436D01*
X151700147Y-81195866D01*
X151825646Y-81070367D01*
X151973216Y-80971764D01*
X152137188Y-80903844D01*
X152286488Y-80874147D01*
X152311258Y-80869220D01*
X152488742Y-80869220D01*
X152513512Y-80874147D01*
G37*
G36*
X216064312Y-78351927D02*
G01*
X216213612Y-78381624D01*
X216377584Y-78449544D01*
X216525154Y-78548147D01*
X216650653Y-78673646D01*
X216749256Y-78821216D01*
X216817176Y-78985188D01*
X216851800Y-79159259D01*
X216851800Y-79336741D01*
X216817176Y-79510812D01*
X216749256Y-79674784D01*
X216650653Y-79822354D01*
X216525154Y-79947853D01*
X216377584Y-80046456D01*
X216213612Y-80114376D01*
X216064312Y-80144073D01*
X216039542Y-80149000D01*
X215862058Y-80149000D01*
X215837288Y-80144073D01*
X215687988Y-80114376D01*
X215524016Y-80046456D01*
X215376446Y-79947853D01*
X215250947Y-79822354D01*
X215152344Y-79674784D01*
X215084424Y-79510812D01*
X215049800Y-79336741D01*
X215049800Y-79159259D01*
X215084424Y-78985188D01*
X215152344Y-78821216D01*
X215250947Y-78673646D01*
X215376446Y-78548147D01*
X215524016Y-78449544D01*
X215687988Y-78381624D01*
X215837288Y-78351927D01*
X215862058Y-78347000D01*
X216039542Y-78347000D01*
X216064312Y-78351927D01*
G37*
G36*
X152513512Y-78334147D02*
G01*
X152662812Y-78363844D01*
X152826784Y-78431764D01*
X152974354Y-78530367D01*
X153099853Y-78655866D01*
X153198456Y-78803436D01*
X153266376Y-78967408D01*
X153301000Y-79141479D01*
X153301000Y-79318961D01*
X153266376Y-79493032D01*
X153198456Y-79657004D01*
X153099853Y-79804574D01*
X152974354Y-79930073D01*
X152826784Y-80028676D01*
X152662812Y-80096596D01*
X152513512Y-80126293D01*
X152488742Y-80131220D01*
X152311258Y-80131220D01*
X152286488Y-80126293D01*
X152137188Y-80096596D01*
X151973216Y-80028676D01*
X151825646Y-79930073D01*
X151700147Y-79804574D01*
X151601544Y-79657004D01*
X151533624Y-79493032D01*
X151499000Y-79318961D01*
X151499000Y-79141479D01*
X151533624Y-78967408D01*
X151601544Y-78803436D01*
X151700147Y-78655866D01*
X151825646Y-78530367D01*
X151973216Y-78431764D01*
X152137188Y-78363844D01*
X152286488Y-78334147D01*
X152311258Y-78329220D01*
X152488742Y-78329220D01*
X152513512Y-78334147D01*
G37*
G36*
X221403241Y-75566760D02*
G01*
X221667305Y-75676139D01*
X221904958Y-75834934D01*
X222107066Y-76037042D01*
X222265861Y-76274695D01*
X222375240Y-76538759D01*
X222431000Y-76819088D01*
X222431000Y-77104912D01*
X222375240Y-77385241D01*
X222265861Y-77649305D01*
X222107066Y-77886958D01*
X221904958Y-78089066D01*
X221667305Y-78247861D01*
X221403241Y-78357240D01*
X221122912Y-78413000D01*
X220837088Y-78413000D01*
X220556759Y-78357240D01*
X220292695Y-78247861D01*
X220055042Y-78089066D01*
X219852934Y-77886958D01*
X219694139Y-77649305D01*
X219584760Y-77385241D01*
X219529000Y-77104912D01*
X219529000Y-76819088D01*
X219584760Y-76538759D01*
X219694139Y-76274695D01*
X219852934Y-76037042D01*
X220055042Y-75834934D01*
X220292695Y-75676139D01*
X220556759Y-75566760D01*
X220837088Y-75511000D01*
X221122912Y-75511000D01*
X221403241Y-75566760D01*
G37*
G36*
X216851800Y-77609000D02*
G01*
X215049800Y-77609000D01*
X215049800Y-75807000D01*
X216851800Y-75807000D01*
X216851800Y-77609000D01*
G37*
G36*
X153301000Y-77591220D02*
G01*
X151499000Y-77591220D01*
X151499000Y-75789220D01*
X153301000Y-75789220D01*
X153301000Y-77591220D01*
G37*
G36*
X164832600Y-74053000D02*
G01*
X163030600Y-74053000D01*
X163030600Y-72251000D01*
X164832600Y-72251000D01*
X164832600Y-74053000D01*
G37*
G36*
X179310600Y-74053000D02*
G01*
X177508600Y-74053000D01*
X177508600Y-72251000D01*
X179310600Y-72251000D01*
X179310600Y-74053000D01*
G37*
G36*
X171665112Y-72255927D02*
G01*
X171814412Y-72285624D01*
X171978384Y-72353544D01*
X172125954Y-72452147D01*
X172251453Y-72577646D01*
X172350056Y-72725216D01*
X172417976Y-72889188D01*
X172452600Y-73063259D01*
X172452600Y-73240741D01*
X172417976Y-73414812D01*
X172350056Y-73578784D01*
X172251453Y-73726354D01*
X172125954Y-73851853D01*
X171978384Y-73950456D01*
X171814412Y-74018376D01*
X171665112Y-74048073D01*
X171640342Y-74053000D01*
X171462858Y-74053000D01*
X171438088Y-74048073D01*
X171288788Y-74018376D01*
X171124816Y-73950456D01*
X170977246Y-73851853D01*
X170851747Y-73726354D01*
X170753144Y-73578784D01*
X170685224Y-73414812D01*
X170650600Y-73240741D01*
X170650600Y-73063259D01*
X170685224Y-72889188D01*
X170753144Y-72725216D01*
X170851747Y-72577646D01*
X170977246Y-72452147D01*
X171124816Y-72353544D01*
X171288788Y-72285624D01*
X171438088Y-72255927D01*
X171462858Y-72251000D01*
X171640342Y-72251000D01*
X171665112Y-72255927D01*
G37*
G36*
X169125112Y-72255927D02*
G01*
X169274412Y-72285624D01*
X169438384Y-72353544D01*
X169585954Y-72452147D01*
X169711453Y-72577646D01*
X169810056Y-72725216D01*
X169877976Y-72889188D01*
X169912600Y-73063259D01*
X169912600Y-73240741D01*
X169877976Y-73414812D01*
X169810056Y-73578784D01*
X169711453Y-73726354D01*
X169585954Y-73851853D01*
X169438384Y-73950456D01*
X169274412Y-74018376D01*
X169125112Y-74048073D01*
X169100342Y-74053000D01*
X168922858Y-74053000D01*
X168898088Y-74048073D01*
X168748788Y-74018376D01*
X168584816Y-73950456D01*
X168437246Y-73851853D01*
X168311747Y-73726354D01*
X168213144Y-73578784D01*
X168145224Y-73414812D01*
X168110600Y-73240741D01*
X168110600Y-73063259D01*
X168145224Y-72889188D01*
X168213144Y-72725216D01*
X168311747Y-72577646D01*
X168437246Y-72452147D01*
X168584816Y-72353544D01*
X168748788Y-72285624D01*
X168898088Y-72255927D01*
X168922858Y-72251000D01*
X169100342Y-72251000D01*
X169125112Y-72255927D01*
G37*
G36*
X166585112Y-72255927D02*
G01*
X166734412Y-72285624D01*
X166898384Y-72353544D01*
X167045954Y-72452147D01*
X167171453Y-72577646D01*
X167270056Y-72725216D01*
X167337976Y-72889188D01*
X167372600Y-73063259D01*
X167372600Y-73240741D01*
X167337976Y-73414812D01*
X167270056Y-73578784D01*
X167171453Y-73726354D01*
X167045954Y-73851853D01*
X166898384Y-73950456D01*
X166734412Y-74018376D01*
X166585112Y-74048073D01*
X166560342Y-74053000D01*
X166382858Y-74053000D01*
X166358088Y-74048073D01*
X166208788Y-74018376D01*
X166044816Y-73950456D01*
X165897246Y-73851853D01*
X165771747Y-73726354D01*
X165673144Y-73578784D01*
X165605224Y-73414812D01*
X165570600Y-73240741D01*
X165570600Y-73063259D01*
X165605224Y-72889188D01*
X165673144Y-72725216D01*
X165771747Y-72577646D01*
X165897246Y-72452147D01*
X166044816Y-72353544D01*
X166208788Y-72285624D01*
X166358088Y-72255927D01*
X166382858Y-72251000D01*
X166560342Y-72251000D01*
X166585112Y-72255927D01*
G37*
G36*
X181063112Y-72255927D02*
G01*
X181212412Y-72285624D01*
X181376384Y-72353544D01*
X181523954Y-72452147D01*
X181649453Y-72577646D01*
X181748056Y-72725216D01*
X181815976Y-72889188D01*
X181850600Y-73063259D01*
X181850600Y-73240741D01*
X181815976Y-73414812D01*
X181748056Y-73578784D01*
X181649453Y-73726354D01*
X181523954Y-73851853D01*
X181376384Y-73950456D01*
X181212412Y-74018376D01*
X181063112Y-74048073D01*
X181038342Y-74053000D01*
X180860858Y-74053000D01*
X180836088Y-74048073D01*
X180686788Y-74018376D01*
X180522816Y-73950456D01*
X180375246Y-73851853D01*
X180249747Y-73726354D01*
X180151144Y-73578784D01*
X180083224Y-73414812D01*
X180048600Y-73240741D01*
X180048600Y-73063259D01*
X180083224Y-72889188D01*
X180151144Y-72725216D01*
X180249747Y-72577646D01*
X180375246Y-72452147D01*
X180522816Y-72353544D01*
X180686788Y-72285624D01*
X180836088Y-72255927D01*
X180860858Y-72251000D01*
X181038342Y-72251000D01*
X181063112Y-72255927D01*
G37*
G36*
X186143112Y-72255927D02*
G01*
X186292412Y-72285624D01*
X186456384Y-72353544D01*
X186603954Y-72452147D01*
X186729453Y-72577646D01*
X186828056Y-72725216D01*
X186895976Y-72889188D01*
X186930600Y-73063259D01*
X186930600Y-73240741D01*
X186895976Y-73414812D01*
X186828056Y-73578784D01*
X186729453Y-73726354D01*
X186603954Y-73851853D01*
X186456384Y-73950456D01*
X186292412Y-74018376D01*
X186143112Y-74048073D01*
X186118342Y-74053000D01*
X185940858Y-74053000D01*
X185916088Y-74048073D01*
X185766788Y-74018376D01*
X185602816Y-73950456D01*
X185455246Y-73851853D01*
X185329747Y-73726354D01*
X185231144Y-73578784D01*
X185163224Y-73414812D01*
X185128600Y-73240741D01*
X185128600Y-73063259D01*
X185163224Y-72889188D01*
X185231144Y-72725216D01*
X185329747Y-72577646D01*
X185455246Y-72452147D01*
X185602816Y-72353544D01*
X185766788Y-72285624D01*
X185916088Y-72255927D01*
X185940858Y-72251000D01*
X186118342Y-72251000D01*
X186143112Y-72255927D01*
G37*
G36*
X183603112Y-72255927D02*
G01*
X183752412Y-72285624D01*
X183916384Y-72353544D01*
X184063954Y-72452147D01*
X184189453Y-72577646D01*
X184288056Y-72725216D01*
X184355976Y-72889188D01*
X184390600Y-73063259D01*
X184390600Y-73240741D01*
X184355976Y-73414812D01*
X184288056Y-73578784D01*
X184189453Y-73726354D01*
X184063954Y-73851853D01*
X183916384Y-73950456D01*
X183752412Y-74018376D01*
X183603112Y-74048073D01*
X183578342Y-74053000D01*
X183400858Y-74053000D01*
X183376088Y-74048073D01*
X183226788Y-74018376D01*
X183062816Y-73950456D01*
X182915246Y-73851853D01*
X182789747Y-73726354D01*
X182691144Y-73578784D01*
X182623224Y-73414812D01*
X182588600Y-73240741D01*
X182588600Y-73063259D01*
X182623224Y-72889188D01*
X182691144Y-72725216D01*
X182789747Y-72577646D01*
X182915246Y-72452147D01*
X183062816Y-72353544D01*
X183226788Y-72285624D01*
X183376088Y-72255927D01*
X183400858Y-72251000D01*
X183578342Y-72251000D01*
X183603112Y-72255927D01*
G37*
G36*
X166585112Y-69715927D02*
G01*
X166734412Y-69745624D01*
X166898384Y-69813544D01*
X167045954Y-69912147D01*
X167171453Y-70037646D01*
X167270056Y-70185216D01*
X167337976Y-70349188D01*
X167372600Y-70523259D01*
X167372600Y-70700741D01*
X167337976Y-70874812D01*
X167270056Y-71038784D01*
X167171453Y-71186354D01*
X167045954Y-71311853D01*
X166898384Y-71410456D01*
X166734412Y-71478376D01*
X166585112Y-71508073D01*
X166560342Y-71513000D01*
X166382858Y-71513000D01*
X166358088Y-71508073D01*
X166208788Y-71478376D01*
X166044816Y-71410456D01*
X165897246Y-71311853D01*
X165771747Y-71186354D01*
X165673144Y-71038784D01*
X165605224Y-70874812D01*
X165570600Y-70700741D01*
X165570600Y-70523259D01*
X165605224Y-70349188D01*
X165673144Y-70185216D01*
X165771747Y-70037646D01*
X165897246Y-69912147D01*
X166044816Y-69813544D01*
X166208788Y-69745624D01*
X166358088Y-69715927D01*
X166382858Y-69711000D01*
X166560342Y-69711000D01*
X166585112Y-69715927D01*
G37*
G36*
X152285000Y-71513000D02*
G01*
X150483000Y-71513000D01*
X150483000Y-69711000D01*
X152285000Y-69711000D01*
X152285000Y-71513000D01*
G37*
G36*
X186143112Y-69715927D02*
G01*
X186292412Y-69745624D01*
X186456384Y-69813544D01*
X186603954Y-69912147D01*
X186729453Y-70037646D01*
X186828056Y-70185216D01*
X186895976Y-70349188D01*
X186930600Y-70523259D01*
X186930600Y-70700741D01*
X186895976Y-70874812D01*
X186828056Y-71038784D01*
X186729453Y-71186354D01*
X186603954Y-71311853D01*
X186456384Y-71410456D01*
X186292412Y-71478376D01*
X186143112Y-71508073D01*
X186118342Y-71513000D01*
X185940858Y-71513000D01*
X185916088Y-71508073D01*
X185766788Y-71478376D01*
X185602816Y-71410456D01*
X185455246Y-71311853D01*
X185329747Y-71186354D01*
X185231144Y-71038784D01*
X185163224Y-70874812D01*
X185128600Y-70700741D01*
X185128600Y-70523259D01*
X185163224Y-70349188D01*
X185231144Y-70185216D01*
X185329747Y-70037646D01*
X185455246Y-69912147D01*
X185602816Y-69813544D01*
X185766788Y-69745624D01*
X185916088Y-69715927D01*
X185940858Y-69711000D01*
X186118342Y-69711000D01*
X186143112Y-69715927D01*
G37*
G36*
X183603112Y-69715927D02*
G01*
X183752412Y-69745624D01*
X183916384Y-69813544D01*
X184063954Y-69912147D01*
X184189453Y-70037646D01*
X184288056Y-70185216D01*
X184355976Y-70349188D01*
X184390600Y-70523259D01*
X184390600Y-70700741D01*
X184355976Y-70874812D01*
X184288056Y-71038784D01*
X184189453Y-71186354D01*
X184063954Y-71311853D01*
X183916384Y-71410456D01*
X183752412Y-71478376D01*
X183603112Y-71508073D01*
X183578342Y-71513000D01*
X183400858Y-71513000D01*
X183376088Y-71508073D01*
X183226788Y-71478376D01*
X183062816Y-71410456D01*
X182915246Y-71311853D01*
X182789747Y-71186354D01*
X182691144Y-71038784D01*
X182623224Y-70874812D01*
X182588600Y-70700741D01*
X182588600Y-70523259D01*
X182623224Y-70349188D01*
X182691144Y-70185216D01*
X182789747Y-70037646D01*
X182915246Y-69912147D01*
X183062816Y-69813544D01*
X183226788Y-69745624D01*
X183376088Y-69715927D01*
X183400858Y-69711000D01*
X183578342Y-69711000D01*
X183603112Y-69715927D01*
G37*
G36*
X156577512Y-69715927D02*
G01*
X156726812Y-69745624D01*
X156890784Y-69813544D01*
X157038354Y-69912147D01*
X157163853Y-70037646D01*
X157262456Y-70185216D01*
X157330376Y-70349188D01*
X157365000Y-70523259D01*
X157365000Y-70700741D01*
X157330376Y-70874812D01*
X157262456Y-71038784D01*
X157163853Y-71186354D01*
X157038354Y-71311853D01*
X156890784Y-71410456D01*
X156726812Y-71478376D01*
X156577512Y-71508073D01*
X156552742Y-71513000D01*
X156375258Y-71513000D01*
X156350488Y-71508073D01*
X156201188Y-71478376D01*
X156037216Y-71410456D01*
X155889646Y-71311853D01*
X155764147Y-71186354D01*
X155665544Y-71038784D01*
X155597624Y-70874812D01*
X155563000Y-70700741D01*
X155563000Y-70523259D01*
X155597624Y-70349188D01*
X155665544Y-70185216D01*
X155764147Y-70037646D01*
X155889646Y-69912147D01*
X156037216Y-69813544D01*
X156201188Y-69745624D01*
X156350488Y-69715927D01*
X156375258Y-69711000D01*
X156552742Y-69711000D01*
X156577512Y-69715927D01*
G37*
G36*
X154037512Y-69715927D02*
G01*
X154186812Y-69745624D01*
X154350784Y-69813544D01*
X154498354Y-69912147D01*
X154623853Y-70037646D01*
X154722456Y-70185216D01*
X154790376Y-70349188D01*
X154825000Y-70523259D01*
X154825000Y-70700741D01*
X154790376Y-70874812D01*
X154722456Y-71038784D01*
X154623853Y-71186354D01*
X154498354Y-71311853D01*
X154350784Y-71410456D01*
X154186812Y-71478376D01*
X154037512Y-71508073D01*
X154012742Y-71513000D01*
X153835258Y-71513000D01*
X153810488Y-71508073D01*
X153661188Y-71478376D01*
X153497216Y-71410456D01*
X153349646Y-71311853D01*
X153224147Y-71186354D01*
X153125544Y-71038784D01*
X153057624Y-70874812D01*
X153023000Y-70700741D01*
X153023000Y-70523259D01*
X153057624Y-70349188D01*
X153125544Y-70185216D01*
X153224147Y-70037646D01*
X153349646Y-69912147D01*
X153497216Y-69813544D01*
X153661188Y-69745624D01*
X153810488Y-69715927D01*
X153835258Y-69711000D01*
X154012742Y-69711000D01*
X154037512Y-69715927D01*
G37*
G36*
X181063112Y-69715927D02*
G01*
X181212412Y-69745624D01*
X181376384Y-69813544D01*
X181523954Y-69912147D01*
X181649453Y-70037646D01*
X181748056Y-70185216D01*
X181815976Y-70349188D01*
X181850600Y-70523259D01*
X181850600Y-70700741D01*
X181815976Y-70874812D01*
X181748056Y-71038784D01*
X181649453Y-71186354D01*
X181523954Y-71311853D01*
X181376384Y-71410456D01*
X181212412Y-71478376D01*
X181063112Y-71508073D01*
X181038342Y-71513000D01*
X180860858Y-71513000D01*
X180836088Y-71508073D01*
X180686788Y-71478376D01*
X180522816Y-71410456D01*
X180375246Y-71311853D01*
X180249747Y-71186354D01*
X180151144Y-71038784D01*
X180083224Y-70874812D01*
X180048600Y-70700741D01*
X180048600Y-70523259D01*
X180083224Y-70349188D01*
X180151144Y-70185216D01*
X180249747Y-70037646D01*
X180375246Y-69912147D01*
X180522816Y-69813544D01*
X180686788Y-69745624D01*
X180836088Y-69715927D01*
X180860858Y-69711000D01*
X181038342Y-69711000D01*
X181063112Y-69715927D01*
G37*
G36*
X178523112Y-69715927D02*
G01*
X178672412Y-69745624D01*
X178836384Y-69813544D01*
X178983954Y-69912147D01*
X179109453Y-70037646D01*
X179208056Y-70185216D01*
X179275976Y-70349188D01*
X179310600Y-70523259D01*
X179310600Y-70700741D01*
X179275976Y-70874812D01*
X179208056Y-71038784D01*
X179109453Y-71186354D01*
X178983954Y-71311853D01*
X178836384Y-71410456D01*
X178672412Y-71478376D01*
X178523112Y-71508073D01*
X178498342Y-71513000D01*
X178320858Y-71513000D01*
X178296088Y-71508073D01*
X178146788Y-71478376D01*
X177982816Y-71410456D01*
X177835246Y-71311853D01*
X177709747Y-71186354D01*
X177611144Y-71038784D01*
X177543224Y-70874812D01*
X177508600Y-70700741D01*
X177508600Y-70523259D01*
X177543224Y-70349188D01*
X177611144Y-70185216D01*
X177709747Y-70037646D01*
X177835246Y-69912147D01*
X177982816Y-69813544D01*
X178146788Y-69745624D01*
X178296088Y-69715927D01*
X178320858Y-69711000D01*
X178498342Y-69711000D01*
X178523112Y-69715927D01*
G37*
G36*
X164045112Y-69715927D02*
G01*
X164194412Y-69745624D01*
X164358384Y-69813544D01*
X164505954Y-69912147D01*
X164631453Y-70037646D01*
X164730056Y-70185216D01*
X164797976Y-70349188D01*
X164832600Y-70523259D01*
X164832600Y-70700741D01*
X164797976Y-70874812D01*
X164730056Y-71038784D01*
X164631453Y-71186354D01*
X164505954Y-71311853D01*
X164358384Y-71410456D01*
X164194412Y-71478376D01*
X164045112Y-71508073D01*
X164020342Y-71513000D01*
X163842858Y-71513000D01*
X163818088Y-71508073D01*
X163668788Y-71478376D01*
X163504816Y-71410456D01*
X163357246Y-71311853D01*
X163231747Y-71186354D01*
X163133144Y-71038784D01*
X163065224Y-70874812D01*
X163030600Y-70700741D01*
X163030600Y-70523259D01*
X163065224Y-70349188D01*
X163133144Y-70185216D01*
X163231747Y-70037646D01*
X163357246Y-69912147D01*
X163504816Y-69813544D01*
X163668788Y-69745624D01*
X163818088Y-69715927D01*
X163842858Y-69711000D01*
X164020342Y-69711000D01*
X164045112Y-69715927D01*
G37*
G36*
X171665112Y-69715927D02*
G01*
X171814412Y-69745624D01*
X171978384Y-69813544D01*
X172125954Y-69912147D01*
X172251453Y-70037646D01*
X172350056Y-70185216D01*
X172417976Y-70349188D01*
X172452600Y-70523259D01*
X172452600Y-70700741D01*
X172417976Y-70874812D01*
X172350056Y-71038784D01*
X172251453Y-71186354D01*
X172125954Y-71311853D01*
X171978384Y-71410456D01*
X171814412Y-71478376D01*
X171665112Y-71508073D01*
X171640342Y-71513000D01*
X171462858Y-71513000D01*
X171438088Y-71508073D01*
X171288788Y-71478376D01*
X171124816Y-71410456D01*
X170977246Y-71311853D01*
X170851747Y-71186354D01*
X170753144Y-71038784D01*
X170685224Y-70874812D01*
X170650600Y-70700741D01*
X170650600Y-70523259D01*
X170685224Y-70349188D01*
X170753144Y-70185216D01*
X170851747Y-70037646D01*
X170977246Y-69912147D01*
X171124816Y-69813544D01*
X171288788Y-69745624D01*
X171438088Y-69715927D01*
X171462858Y-69711000D01*
X171640342Y-69711000D01*
X171665112Y-69715927D01*
G37*
G36*
X169125112Y-69715927D02*
G01*
X169274412Y-69745624D01*
X169438384Y-69813544D01*
X169585954Y-69912147D01*
X169711453Y-70037646D01*
X169810056Y-70185216D01*
X169877976Y-70349188D01*
X169912600Y-70523259D01*
X169912600Y-70700741D01*
X169877976Y-70874812D01*
X169810056Y-71038784D01*
X169711453Y-71186354D01*
X169585954Y-71311853D01*
X169438384Y-71410456D01*
X169274412Y-71478376D01*
X169125112Y-71508073D01*
X169100342Y-71513000D01*
X168922858Y-71513000D01*
X168898088Y-71508073D01*
X168748788Y-71478376D01*
X168584816Y-71410456D01*
X168437246Y-71311853D01*
X168311747Y-71186354D01*
X168213144Y-71038784D01*
X168145224Y-70874812D01*
X168110600Y-70700741D01*
X168110600Y-70523259D01*
X168145224Y-70349188D01*
X168213144Y-70185216D01*
X168311747Y-70037646D01*
X168437246Y-69912147D01*
X168584816Y-69813544D01*
X168748788Y-69745624D01*
X168898088Y-69715927D01*
X168922858Y-69711000D01*
X169100342Y-69711000D01*
X169125112Y-69715927D01*
G37*
G36*
X222419241Y-67946760D02*
G01*
X222683305Y-68056139D01*
X222920958Y-68214934D01*
X223123066Y-68417042D01*
X223281861Y-68654695D01*
X223391240Y-68918759D01*
X223447000Y-69199088D01*
X223447000Y-69484912D01*
X223391240Y-69765241D01*
X223281861Y-70029305D01*
X223123066Y-70266958D01*
X222920958Y-70469066D01*
X222683305Y-70627861D01*
X222419241Y-70737240D01*
X222138912Y-70793000D01*
X221853088Y-70793000D01*
X221572759Y-70737240D01*
X221308695Y-70627861D01*
X221071042Y-70469066D01*
X220868934Y-70266958D01*
X220710139Y-70029305D01*
X220600760Y-69765241D01*
X220545000Y-69484912D01*
X220545000Y-69199088D01*
X220600760Y-68918759D01*
X220710139Y-68654695D01*
X220868934Y-68417042D01*
X221071042Y-68214934D01*
X221308695Y-68056139D01*
X221572759Y-67946760D01*
X221853088Y-67891000D01*
X222138912Y-67891000D01*
X222419241Y-67946760D01*
G37*
G36*
X213783241Y-67946760D02*
G01*
X214047305Y-68056139D01*
X214284958Y-68214934D01*
X214487066Y-68417042D01*
X214645861Y-68654695D01*
X214755240Y-68918759D01*
X214811000Y-69199088D01*
X214811000Y-69484912D01*
X214755240Y-69765241D01*
X214645861Y-70029305D01*
X214487066Y-70266958D01*
X214284958Y-70469066D01*
X214047305Y-70627861D01*
X213783241Y-70737240D01*
X213502912Y-70793000D01*
X213217088Y-70793000D01*
X212936759Y-70737240D01*
X212672695Y-70627861D01*
X212435042Y-70469066D01*
X212232934Y-70266958D01*
X212074139Y-70029305D01*
X211964760Y-69765241D01*
X211909000Y-69484912D01*
X211909000Y-69199088D01*
X211964760Y-68918759D01*
X212074139Y-68654695D01*
X212232934Y-68417042D01*
X212435042Y-68214934D01*
X212672695Y-68056139D01*
X212936759Y-67946760D01*
X213217088Y-67891000D01*
X213502912Y-67891000D01*
X213783241Y-67946760D01*
G37*
G36*
X218101241Y-67946760D02*
G01*
X218365305Y-68056139D01*
X218602958Y-68214934D01*
X218805066Y-68417042D01*
X218963861Y-68654695D01*
X219073240Y-68918759D01*
X219129000Y-69199088D01*
X219129000Y-69484912D01*
X219073240Y-69765241D01*
X218963861Y-70029305D01*
X218805066Y-70266958D01*
X218602958Y-70469066D01*
X218365305Y-70627861D01*
X218101241Y-70737240D01*
X217820912Y-70793000D01*
X217535088Y-70793000D01*
X217254759Y-70737240D01*
X216990695Y-70627861D01*
X216753042Y-70469066D01*
X216550934Y-70266958D01*
X216392139Y-70029305D01*
X216282760Y-69765241D01*
X216227000Y-69484912D01*
X216227000Y-69199088D01*
X216282760Y-68918759D01*
X216392139Y-68654695D01*
X216550934Y-68417042D01*
X216753042Y-68214934D01*
X216990695Y-68056139D01*
X217254759Y-67946760D01*
X217535088Y-67891000D01*
X217820912Y-67891000D01*
X218101241Y-67946760D01*
G37*
G36*
X194987241Y-65660760D02*
G01*
X195251305Y-65770139D01*
X195488958Y-65928934D01*
X195691066Y-66131042D01*
X195849861Y-66368695D01*
X195959240Y-66632759D01*
X196015000Y-66913088D01*
X196015000Y-67198912D01*
X195959240Y-67479241D01*
X195849861Y-67743305D01*
X195691066Y-67980958D01*
X195488958Y-68183066D01*
X195251305Y-68341861D01*
X194987241Y-68451240D01*
X194706912Y-68507000D01*
X194421088Y-68507000D01*
X194140759Y-68451240D01*
X193876695Y-68341861D01*
X193639042Y-68183066D01*
X193436934Y-67980958D01*
X193278139Y-67743305D01*
X193168760Y-67479241D01*
X193113000Y-67198912D01*
X193113000Y-66913088D01*
X193168760Y-66632759D01*
X193278139Y-66368695D01*
X193436934Y-66131042D01*
X193639042Y-65928934D01*
X193876695Y-65770139D01*
X194140759Y-65660760D01*
X194421088Y-65605000D01*
X194706912Y-65605000D01*
X194987241Y-65660760D01*
G37*
G36*
X190415241Y-65660760D02*
G01*
X190679305Y-65770139D01*
X190916958Y-65928934D01*
X191119066Y-66131042D01*
X191277861Y-66368695D01*
X191387240Y-66632759D01*
X191443000Y-66913088D01*
X191443000Y-67198912D01*
X191387240Y-67479241D01*
X191277861Y-67743305D01*
X191119066Y-67980958D01*
X190916958Y-68183066D01*
X190679305Y-68341861D01*
X190415241Y-68451240D01*
X190134912Y-68507000D01*
X189849088Y-68507000D01*
X189568759Y-68451240D01*
X189304695Y-68341861D01*
X189067042Y-68183066D01*
X188864934Y-67980958D01*
X188706139Y-67743305D01*
X188596760Y-67479241D01*
X188541000Y-67198912D01*
X188541000Y-66913088D01*
X188596760Y-66632759D01*
X188706139Y-66368695D01*
X188864934Y-66131042D01*
X189067042Y-65928934D01*
X189304695Y-65770139D01*
X189568759Y-65660760D01*
X189849088Y-65605000D01*
X190134912Y-65605000D01*
X190415241Y-65660760D01*
G37*
M02*
